<?xml version="1.0" standalone="no"?>
<!DOCTYPE svg PUBLIC "-//W3C//DTD SVG 1.1//EN" "http://www.w3.org/Graphics/SVG/1.1/DTD/svg11.dtd" >
<svg>
<metadata>
Created by FontForge 20090914 at Fri Mar 12 22:41:29 2021
 By www-data
Copyright &#194;&#169; 2019 by Dmitry Rastvortsev. Ordered by Projector, Dmytro Bulanov Creative B&#195;&#188;ro and Banda Agency for Kyiv city identification. Long live Free Ukraine!
</metadata>
<defs>
<font id="KyivTypeSans-Light" horiz-adv-x="700" >
  <font-face 
    font-family="KyivType Sans Light"
    font-weight="300"
    font-stretch="normal"
    units-per-em="1000"
    panose-1="0 0 4 0 0 0 0 0 0 0"
    ascent="800"
    descent="-200"
    x-height="500"
    cap-height="700"
    bbox="-489 -245.004 1180 1027"
    underline-thickness="50"
    underline-position="-50"
    unicode-range="U+000D-U+2605"
  />
<missing-glyph horiz-adv-x="1064" 
d="M508 210l-194 -173l-171 51l48 172h297l-368 113v173l160 41l220 -263l-126 353l158 133l158 -133l-126 -353l220 263l160 -41v-173l-368 -113h297l48 -172l-171 -51l-194 173l22 -250h-92z" />
    <glyph glyph-name=".notdef" horiz-adv-x="1064" 
d="M508 210l-194 -173l-171 51l48 172h297l-368 113v173l160 41l220 -263l-126 353l158 133l158 -133l-126 -353l220 263l160 -41v-173l-368 -113h297l48 -172l-171 -51l-194 173l22 -250h-92z" />
    <glyph glyph-name="nonmarkingreturn" unicode="&#xd;" horiz-adv-x="250" 
 />
    <glyph glyph-name="space" unicode=" " horiz-adv-x="250" 
 />
    <glyph glyph-name="exclam" unicode="!" horiz-adv-x="284" 
d="M109 700h64l-9 -500h-46zM110 6.5c-8.66699 9 -13 19.833 -13 32.5s4.33301 23.334 13 32.001s19.334 13 32.001 13s23.334 -4.33301 32.001 -13s13 -19.334 13 -32.001c0 -13.333 -4.33301 -24.333 -13 -33s-19.334 -13 -32.001 -13s-23.334 4.5 -32.001 13.5z" />
    <glyph glyph-name="quotedbl" unicode="&#x22;" horiz-adv-x="316" 
d="M48 708h68l-29 -184h-10zM200 708h68l-29 -184h-10z" />
    <glyph glyph-name="numbersign" unicode="#" 
d="M217 180h-139v53h139v234h-139v53h139v195h50v-195h166v195h50v-195h139v-53h-139v-234h139v-53h-139v-195h-50v195h-166v-195h-50v195zM433 233v234h-166v-234h166z" />
    <glyph glyph-name="dollar" unicode="$" 
d="M155.5 60.5c-47 43 -74.1641 99.166 -81.4971 168.499h58c9.33301 -58.667 35.166 -105.167 77.499 -139.5s96.833 -51.5 163.5 -51.5c63.333 0 113 12 149 36s54 57.667 54 101c0 33.333 -9.5 59.5 -28.5 78.5s-43.333 33.167 -73 42.5s-69.167 18.333 -118.5 27
c-54.667 10 -99.834 20.667 -135.501 32s-66 30 -91 56s-37.5 61.333 -37.5 106c0 58 21.833 104.5 65.5 139.5s100.167 54.167 169.5 57.5v116h44v-115c73.333 -3.33301 133.5 -26 180.5 -68s74.167 -99 81.5 -171h-61c-7.33301 58 -30.833 103.333 -70.5 136
s-90.5 49 -152.5 49c-58 0 -105.167 -12.833 -141.5 -38.5s-54.5 -60.167 -54.5 -103.5c0 -31.333 9.5 -56 28.5 -74s42.5 -31.167 70.5 -39.5s67.333 -17.166 118 -26.499c56.667 -11.333 103.167 -23.333 139.5 -36s66.666 -32.167 90.999 -58.5s36.5 -61.833 36.5 -106.5
c0 -59.333 -22.667 -106 -68 -140s-108 -51.667 -188 -53v-115h-44v117c-74 6 -134.5 30.5 -181.5 73.5z" />
    <glyph glyph-name="percent" unicode="%" horiz-adv-x="766" 
d="M117.5 397c-25 14.667 -44.833 34.5 -59.5 59.5s-22 52.833 -22 83.5s7.33301 58.5 22 83.5s34.5 44.833 59.5 59.5s52.833 22 83.5 22s58.5 -7.33301 83.5 -22s44.833 -34.5 59.5 -59.5s22 -52.833 22 -83.5s-7.33301 -58.5 -22 -83.5s-34.5 -44.833 -59.5 -59.5
s-52.833 -22 -83.5 -22s-58.5 7.33301 -83.5 22zM565 700h50l-414 -700h-50zM287 454c23.333 23.333 35 52 35 86s-11.667 62.667 -35 86s-52 35 -86 35s-62.667 -11.667 -86 -35s-35 -52 -35 -86s11.667 -62.667 35 -86s52 -35 86 -35s62.667 11.667 86 35zM481.5 17
c-25 14.667 -44.833 34.5 -59.5 59.5s-22 52.833 -22 83.5s7.33301 58.5 22 83.5s34.5 44.833 59.5 59.5s52.833 22 83.5 22s58.5 -7.33301 83.5 -22s44.833 -34.5 59.5 -59.5s22 -52.833 22 -83.5s-7.33301 -58.5 -22 -83.5s-34.5 -44.833 -59.5 -59.5
s-52.833 -22 -83.5 -22s-58.5 7.33301 -83.5 22zM651 74c23.333 23.333 35 52 35 86s-11.667 62.667 -35 86s-52 35 -86 35s-62.667 -11.667 -86 -35s-35 -52 -35 -86s11.667 -62.667 35 -86s52 -35 86 -35s62.667 11.667 86 35z" />
    <glyph glyph-name="ampersand" unicode="&#x26;" horiz-adv-x="711" 
d="M155.5 12c-38.333 18 -68.001 43.332 -89.001 75.999s-31.5 70.334 -31.5 113.001c0 60.667 20.833 109.5 62.5 146.5s97.5 56.833 167.5 59.5h4l-193 235v58h490v-54h-422l388 -472c32 54.667 51.667 120 59 196h57c-8 -96 -34.333 -176 -79 -240l108 -130h-72l-73 88
c-30 -33.333 -65.667 -58.833 -107 -76.5s-86.666 -26.5 -135.999 -26.5c-50.667 0 -95.167 9 -133.5 27zM497.999 128.999l-189 230h-26c-58 0 -104.333 -14 -139 -42s-52 -65.333 -52 -112c0 -51.333 17.833 -92.333 53.5 -123s82.834 -46 141.501 -46
c87.333 0 157.666 31 210.999 93z" />
    <glyph glyph-name="quotesingle" unicode="'" horiz-adv-x="164" 
d="M48 708h68l-29 -184h-10z" />
    <glyph glyph-name="parenleft" unicode="(" horiz-adv-x="500" 
d="M234 -57c-39.333 38.667 -69.833 93.002 -91.5 163.002s-32.5 151.333 -32.5 244s10.833 174 32.5 244s52.167 124.333 91.5 163s85 58 137 58v-50c-41.333 0 -77.833 -17.167 -109.5 -51.5s-56.167 -82.833 -73.5 -145.5s-26 -135.334 -26 -218.001
s8.66699 -155.334 26 -218.001s41.833 -111.167 73.5 -145.5s68.167 -51.5 109.5 -51.5v-50c-52 0 -97.667 19.333 -137 58z" />
    <glyph glyph-name="parenright" unicode=")" horiz-adv-x="500" 
d="M266 757c39.333 -38.667 69.833 -93.002 91.5 -163.002s32.5 -151.333 32.5 -244s-10.833 -174 -32.5 -244s-52.167 -124.333 -91.5 -163s-85 -58 -137 -58v50c41.333 0 77.833 17.167 109.5 51.5s56.167 82.833 73.5 145.5s26 135.334 26 218.001
s-8.66699 155.334 -26 218.001s-41.833 111.167 -73.5 145.5s-68.167 51.5 -109.5 51.5v50c52 0 97.667 -19.333 137 -58z" />
    <glyph glyph-name="asterisk" unicode="*" horiz-adv-x="390" 
d="M185 554l-77 -69l-69 20l19 69h119l-147 45v69l64 17l88 -105l-50 141l63 53l63 -53l-50 -141l88 105l64 -17v-69l-148 -45h119l19 -69l-68 -20l-78 69l9 -100h-37z" />
    <glyph glyph-name="plus" unicode="+" horiz-adv-x="560" 
d="M484 325h-179v-179h-50v179h-179v50h179v179h50v-179h179v-50z" />
    <glyph glyph-name="comma" unicode="," horiz-adv-x="244" 
d="M118 -4l-3.00098 -0.00195312c-12 2 -21.333 6.83301 -28 14.5s-10 16.834 -10 27.501c0 12.667 4.16699 23.5 12.5 32.5s19.166 13.5 32.499 13.5c12.667 0 23.334 -4.5 32.001 -13.5s13 -21.167 13 -36.5c0 -22.667 -6 -49.167 -18 -79.5s-25 -53.166 -39 -68.499h-36
c26.667 40 41.334 76.667 44.001 110z" />
    <glyph glyph-name="hyphen" unicode="-" horiz-adv-x="404" 
d="M76 325h252v-50h-252v50z" />
    <glyph glyph-name="period" unicode="." horiz-adv-x="244" 
d="M90 6.5c-8.66699 9 -13 19.833 -13 32.5s4.33301 23.334 13 32.001s19.334 13 32.001 13s23.334 -4.33301 32.001 -13s13 -19.334 13 -32.001c0 -13.333 -4.33301 -24.333 -13 -33s-19.334 -13 -32.001 -13s-23.334 4.5 -32.001 13.5z" />
    <glyph glyph-name="slash" unicode="/" horiz-adv-x="471" 
d="M378 700h53l-338 -700h-53z" />
    <glyph glyph-name="zero" unicode="0" horiz-adv-x="706" 
d="M200 32c-45.333 31.333 -80.666 74.666 -105.999 129.999s-38 118 -38 188s12.667 132.667 38 188s60.666 98.666 105.999 129.999s96.333 47 153 47s107.667 -15.667 153 -47s80.666 -74.666 105.999 -129.999s38 -118 38 -188s-12.667 -132.667 -38 -188
s-60.666 -98.666 -105.999 -129.999s-96.333 -47 -153 -47s-107.667 15.667 -153 47zM476 78.5c36 26.333 64.167 63.166 84.5 110.499s30.5 101 30.5 161s-10.167 113.667 -30.5 161s-48.5 84.166 -84.5 110.499s-77 39.5 -123 39.5s-87 -13.167 -123 -39.5
s-64.167 -63.166 -84.5 -110.499s-30.5 -101 -30.5 -161s10.167 -113.667 30.5 -161s48.5 -84.166 84.5 -110.499s77 -39.5 123 -39.5s87 13.167 123 39.5z" />
    <glyph glyph-name="one" unicode="1" horiz-adv-x="386" 
d="M195 633l-170 -105v62l179 110h48v-700h-57v633z" />
    <glyph glyph-name="two" unicode="2" horiz-adv-x="612" 
d="M345 250c43.333 30.667 74.332 58.335 92.999 83.002c-16 -15.333 -36.167 -27 -60.5 -35s-51.166 -12 -80.499 -12c-48.667 0 -92.5 9.5 -131.5 28.5s-69.667 44.667 -92 77s-33.5 68.166 -33.5 107.499c0 40 11.333 76.5 34 109.5s54.5 59 95.5 78
s87.833 28.5 140.5 28.5c51.333 0 97.5 -9.33301 138.5 -28s73.167 -44.334 96.5 -77.001s35 -70 35 -112c0 -49.333 -16 -97 -48 -143s-74.333 -86.667 -127 -122l-263 -179h456v-54h-549v50zM419.499 354.001c32.333 14 57.666 33.667 75.999 59s27.5 53.666 27.5 84.999
c0 32 -9 60.667 -27 86s-43.167 45 -75.5 59s-69.166 21 -110.499 21c-40.667 0 -77.167 -7 -109.5 -21s-57.666 -33.667 -75.999 -59s-27.5 -54 -27.5 -86c0 -31.333 9.16699 -59.666 27.5 -84.999s43.666 -45 75.999 -59s68.833 -21 109.5 -21s77.167 7 109.5 21z" />
    <glyph glyph-name="three" unicode="3" horiz-adv-x="571" 
d="M147.5 13.5c-39.667 19 -70.998 45.3311 -93.998 78.998s-34.833 71.834 -35.5 114.501h57c0.666992 -32.667 9.83398 -62 27.501 -88s42 -46.333 73 -61s66.167 -22 105.5 -22c38.667 0 73.667 7.66699 105 23s55.833 36.5 73.5 63.5s26.5 57.5 26.5 91.5
c0 50 -15.5 90.167 -46.5 120.5s-72.167 45.5 -123.5 45.5c-21.333 0 -42.333 -2.83301 -63 -8.5s-37.334 -13.167 -50.001 -22.5l-12 -9l-31 38l297 269h-422v53h496v-55l-262 -237c23.333 10 46.666 15 69.999 15c39.333 0 74.5 -8.83301 105.5 -26.5
s55.333 -42.167 73 -73.5s26.5 -66.666 26.5 -105.999c0 -44.667 -11.167 -84.5 -33.5 -119.5s-53.333 -62.5 -93 -82.5s-84.834 -30 -135.501 -30c-50 0 -94.833 9.5 -134.5 28.5z" />
    <glyph glyph-name="four" unicode="4" horiz-adv-x="642" 
d="M420 184h-402v51l385 465h75v-465h158v-51h-158v-184h-58v184zM420 235v406l-338 -406h338z" />
    <glyph glyph-name="five" unicode="5" horiz-adv-x="621" 
d="M172 11c-39.333 17.333 -70.668 41.499 -94.001 72.499s-36.666 66.5 -39.999 106.5h58c5.33301 -46.667 27 -84.167 65 -112.5s86.333 -42.5 145 -42.5c42 0 79.167 8.33301 111.5 25s57.333 40 75 70s26.5 64.333 26.5 103c0 36 -8.33301 68.167 -25 96.5
s-40.5 50.333 -71.5 66s-66.833 23.5 -107.5 23.5c-48 0 -89.333 -9.5 -124 -28.5s-58.334 -44.5 -71.001 -76.5h-56l55 386h431v-53h-383l-38 -254c19.333 23.333 45.5 41.5 78.5 54.5s70.167 19.5 111.5 19.5c49.333 0 93.666 -9.5 132.999 -28.5s70 -46.167 92 -81.5
s33 -76.666 33 -123.999c0 -48.667 -11.333 -91.667 -34 -129s-54.667 -66.5 -96 -87.5s-88.666 -31.5 -141.999 -31.5c-49.333 0 -93.666 8.66699 -132.999 26z" />
    <glyph glyph-name="six" unicode="6" horiz-adv-x="670" 
d="M195 31.5c-44.667 31 -78.8311 73.998 -102.498 128.998s-35.5 118.167 -35.5 189.5c0 70.667 12.167 133.667 36.5 189s59 98.5 104 129.5s97.833 46.5 158.5 46.5c44 0 84.333 -8.16699 121 -24.5s66.5 -39 89.5 -68s37.167 -61.833 42.5 -98.5h-61
c-8 40.667 -29.667 73.667 -65 99s-78 38 -128 38c-47.333 0 -89.333 -12.333 -126 -37s-65.167 -59.167 -85.5 -103.5s-30.5 -95.166 -30.5 -152.499c0 -21.333 1.33301 -41 4 -59c16 46 45.667 82.667 89 110s93.333 41 150 41c50 0 95.333 -10.167 136 -30.5
s72.667 -48.666 96 -84.999s35 -77.833 35 -124.5c0 -42 -11.833 -81 -35.5 -117s-56.334 -64.667 -98.001 -86s-87.834 -32 -138.501 -32c-59.333 0 -111.333 15.5 -156 46.5zM458.503 60.498c33 16.333 59.001 38.501 78.001 66.501s28.5 58.667 28.5 92
c0 36.667 -9.16699 69.5 -27.5 98.5s-43.5 51.667 -75.5 68s-68.333 24.5 -109 24.5s-77.5 -8.16699 -110.5 -24.5s-58.833 -38.333 -77.5 -66s-28 -57.834 -28 -90.501c0 -28 9 -57.167 27 -87.5s43.167 -55.5 75.5 -75.5s69.166 -30 110.499 -30
c39.333 0 75.5 8.16699 108.5 24.5z" />
    <glyph glyph-name="seven" unicode="7" horiz-adv-x="575" 
d="M257 237.5c29.333 80.333 65.667 155.334 109 225.001s89.666 130.167 138.999 181.5h-495v56h555v-56c-48.667 -49.333 -94.667 -109 -138 -179s-79.666 -145.333 -108.999 -226s-48 -160.334 -56 -239.001h-61c8 78 26.667 157.167 56 237.5z" />
    <glyph glyph-name="eight" unicode="8" horiz-adv-x="674" 
d="M192.5 10.5c-42.333 17 -75.332 40.498 -98.999 70.498s-35.5 64 -35.5 102c0 41.333 15.167 77.666 45.5 108.999s70.833 53.333 121.5 66c-46.667 12 -84 32.833 -112 62.5s-42 63.834 -42 102.501c0 36 11.333 68.333 34 97s54.167 51 94.5 67s86.166 24 137.499 24
s97.166 -8 137.499 -24s71.833 -38.333 94.5 -67s34 -61 34 -97c0 -39.333 -14.167 -73.666 -42.5 -102.999s-66.166 -50 -113.499 -62c51.333 -12.667 92.333 -34.667 123 -66s46 -67.666 46 -108.999c0 -38 -11.833 -72 -35.5 -102s-56.667 -53.5 -99 -70.5
s-90.5 -25.5 -144.5 -25.5s-102.167 8.5 -144.5 25.5zM444.501 399.498c31.667 12.333 56.5 29.166 74.5 50.499s27 45.666 27 72.999c0 26.667 -9 50.667 -27 72s-42.833 38 -74.5 50s-67.5 18 -107.5 18s-75.833 -6 -107.5 -18s-56.334 -28.667 -74.001 -50
s-26.5 -45.333 -26.5 -72c0 -27.333 8.83301 -51.666 26.5 -72.999s42.334 -38.166 74.001 -50.499s67.5 -18.5 107.5 -18.5s75.833 6.16699 107.5 18.5zM450.001 52.498c33.333 13 59.5 30.833 78.5 53.5s28.5 48.334 28.5 77.001c0 28 -9.5 53.333 -28.5 76
s-45.167 40.5 -78.5 53.5s-71 19.5 -113 19.5s-79.667 -6.5 -113 -19.5s-59.5 -30.833 -78.5 -53.5s-28.5 -48 -28.5 -76c0 -28.667 9.5 -54.334 28.5 -77.001s45.167 -40.5 78.5 -53.5s71 -19.5 113 -19.5s79.667 6.5 113 19.5z" />
    <glyph glyph-name="nine" unicode="9" horiz-adv-x="670" 
d="M475 668.5c44.667 -31 78.8311 -73.998 102.498 -128.998s35.5 -118.167 35.5 -189.5c0 -70.667 -12.167 -133.667 -36.5 -189s-59 -98.5 -104 -129.5s-97.833 -46.5 -158.5 -46.5c-44 0 -84.333 8.16699 -121 24.5s-66.5 39 -89.5 68s-37.167 61.833 -42.5 98.5h61
c8 -40.667 29.667 -73.667 65 -99s78 -38 128 -38c47.333 0 89.333 12.333 126 37s65.167 59.167 85.5 103.5s30.5 95.166 30.5 152.499c0 21.333 -1.33301 41 -4 59c-16 -46 -45.667 -82.667 -89 -110s-93.333 -41 -150 -41c-50 0 -95.333 10.167 -136 30.5
s-72.667 48.666 -96 84.999s-35 77.833 -35 124.5c0 42 11.833 81 35.5 117s56.334 64.667 98.001 86s87.834 32 138.501 32c59.333 0 111.333 -15.5 156 -46.5zM211.497 639.502c-33 -16.333 -59.001 -38.501 -78.001 -66.501s-28.5 -58.667 -28.5 -92
c0 -36.667 9.16699 -69.5 27.5 -98.5s43.5 -51.667 75.5 -68s68.333 -24.5 109 -24.5s77.5 8.16699 110.5 24.5s58.833 38.333 77.5 66s28 57.834 28 90.501c0 28 -9 57.167 -27 87.5s-43.167 55.5 -75.5 75.5s-69.166 30 -110.499 30
c-39.333 0 -75.5 -8.16699 -108.5 -24.5z" />
    <glyph glyph-name="colon" unicode=":" horiz-adv-x="244" 
d="M90 6.5c-8.66699 9 -13 19.833 -13 32.5s4.33301 23.334 13 32.001s19.334 13 32.001 13s23.334 -4.33301 32.001 -13s13 -19.334 13 -32.001c0 -13.333 -4.33301 -24.333 -13 -33s-19.334 -13 -32.001 -13s-23.334 4.5 -32.001 13.5zM90 382.5
c-8.66699 9 -13 19.833 -13 32.5s4.33301 23.334 13 32.001s19.334 13 32.001 13s23.334 -4.33301 32.001 -13s13 -19.334 13 -32.001c0 -13.333 -4.33301 -24.333 -13 -33s-19.334 -13 -32.001 -13s-23.334 4.5 -32.001 13.5z" />
    <glyph glyph-name="semicolon" unicode=";" horiz-adv-x="244" 
d="M118 -4l-3.00098 -0.00195312c-12 2 -21.333 6.83301 -28 14.5s-10 16.834 -10 27.501c0 12.667 4.16699 23.5 12.5 32.5s19.166 13.5 32.499 13.5c12.667 0 23.334 -4.5 32.001 -13.5s13 -21.167 13 -36.5c0 -22.667 -6 -49.167 -18 -79.5s-25 -53.166 -39 -68.499h-36
c26.667 40 41.334 76.667 44.001 110zM89.999 382.498c-8.66699 9 -13 19.833 -13 32.5s4.33301 23.334 13 32.001s19.334 13 32.001 13s23.334 -4.33301 32.001 -13s13 -19.334 13 -32.001c0 -13.333 -4.33301 -24.333 -13 -33s-19.334 -13 -32.001 -13
s-23.334 4.5 -32.001 13.5z" />
    <glyph glyph-name="less" unicode="&#x3c;" horiz-adv-x="560" 
d="M484 507l-332 -156l332 -156v-56l-408 192v38l408 192v-54z" />
    <glyph glyph-name="equal" unicode="=" horiz-adv-x="560" 
d="M76 473h408v-50h-408v50zM76 277h408v-50h-408v50z" />
    <glyph glyph-name="greater" unicode="&#x3e;" horiz-adv-x="560" 
d="M76 193l332 156l-332 156v56l408 -192v-38l-408 -192v54z" />
    <glyph glyph-name="question" unicode="?" horiz-adv-x="568" 
d="M243 211c0 43.333 9.66895 77.834 29.002 103.501s46 50.167 80 73.5c31.333 22 55.166 43.167 71.499 63.5s24.5 45.833 24.5 76.5c0 43.333 -15.833 76.666 -47.5 99.999s-71.167 35 -118.5 35c-58 0 -102.167 -16.667 -132.5 -50s-45.833 -78.666 -46.5 -135.999h-56
c0 47.333 9.5 89 28.5 125s46.333 63.833 82 83.5s77.834 29.5 126.501 29.5c41.333 0 79 -7.33301 113 -22s60.833 -36 80.5 -64s29.5 -61.333 29.5 -100s-9 -69.834 -27 -93.501s-43.333 -46.834 -76 -69.501c-26.667 -19.333 -47.334 -36 -62.001 -50
s-26.334 -30.333 -35.001 -49s-13 -41 -13 -67h-50c-0.666992 2.66699 -1 6.33398 -1 11.001zM243.002 6.50098c-8.66699 9 -13 19.833 -13 32.5s4.33301 23.334 13 32.001s19.334 13 32.001 13s23.334 -4.33301 32.001 -13s13 -19.334 13 -32.001
c0 -13.333 -4.33301 -24.333 -13 -33s-19.334 -13 -32.001 -13s-23.334 4.5 -32.001 13.5z" />
    <glyph glyph-name="at" unicode="@" horiz-adv-x="820" 
d="M225 -119c-56 32 -100 76.001 -132 132.001s-48 117.667 -48 185s16 129 48 185s76 100 132 132s117.667 48 185 48s129 -16 185 -48s100 -76 132 -132s48 -117.667 48 -185c0 -74.667 -18.667 -140.667 -56 -198h-175v98c-15.333 -32.667 -40 -58.834 -74 -78.501
s-72 -29.5 -114 -29.5c-40 0 -72.167 9.66699 -96.5 29s-36.5 45 -36.5 77c0 40.667 17.5 71.334 52.5 92.001s92.167 33.667 171.5 39c34 2 58 6 72 12s21 15.333 21 28c0 30 -11.667 55.333 -35 76s-53.333 31 -90 31s-67 -9.83301 -91 -29.5s-39.333 -46.834 -46 -81.501
h-44c6.66699 46.667 26 83.5 58 110.5s72.667 40.5 122 40.5c52 0 93.667 -14.667 125 -44s47 -68.666 47 -117.999v-213h117c26 48 39 101 39 159c0 62 -14.5 118.333 -43.5 169s-68.833 90.5 -119.5 119.5s-107 43.5 -169 43.5c-61.333 0 -117.333 -14.5 -168 -43.5
s-90.667 -68.833 -120 -119.5s-44 -107 -44 -169c0 -61.333 14.667 -117.333 44 -168s69.333 -90.667 120 -120s106.667 -44 168 -44c45.333 0 87.666 7.66699 126.999 23s74.333 37.666 105 66.999l23 -23c-33.333 -32 -71.666 -56.667 -114.999 -74s-90 -26 -140 -26
c-67.333 0 -129 16 -185 48zM455 51.501c26.667 13.667 47.667 32.334 63 56.001s23 49.834 23 78.501v25c-19.333 -12.667 -54 -20.334 -104 -23.001c-56.667 -4 -98 -12.833 -124 -26.5s-39 -33.167 -39 -58.5c0 -22.667 8.16699 -40.334 24.5 -53.001s39.5 -19 69.5 -19
c31.333 0 60.333 6.83301 87 20.5z" />
    <glyph glyph-name="A" unicode="A" horiz-adv-x="695" 
d="M308 700h79l293 -700h-65l-86 206h-365l-86 -206h-63zM509 257l-162 390h-1l-162 -390h325z" />
    <glyph glyph-name="B" unicode="B" horiz-adv-x="708" 
d="M391 700c71.333 0 127.666 -16.333 168.999 -49s62 -77.334 62 -134.001c0 -38 -9.83301 -70.667 -29.5 -98s-48.5 -47.666 -86.5 -60.999v-5c46 -12 81.333 -32.5 106 -61.5s37 -64.5 37 -106.5c0 -56.667 -20.667 -101.667 -62 -135s-97.666 -50 -168.999 -50h-290v700
h263zM517.5 414c30.333 24 45.5 56.667 45.5 98c0 42 -15.167 74.833 -45.5 98.5s-72.5 35.5 -126.5 35.5h-203v-268h203c54 0 96.167 12 126.5 36zM543.5 90c30.333 24 45.5 57 45.5 99s-15.5 75 -46.5 99s-73.167 36 -126.5 36h-228v-270h228c54.667 0 97.167 12 127.5 36
z" />
    <glyph glyph-name="C" unicode="C" horiz-adv-x="818" 
d="M237.5 32c-54.333 31.333 -96.8311 74.668 -127.498 130.001s-46 118 -46 188s15.333 132.667 46 188s73.167 98.666 127.5 129.999s115.833 47 184.5 47c60 0 114.167 -11.833 162.5 -35.5s87.833 -57.167 118.5 -100.5s49.667 -93.333 57 -150h-60
c-12 70 -42.833 125.667 -92.5 167s-111.167 62 -184.5 62c-58 0 -109.5 -13 -154.5 -39s-80.167 -62.333 -105.5 -109s-38 -100 -38 -160c0 -59.333 12.667 -112.5 38 -159.5s60.666 -83.5 105.999 -109.5s96.666 -39 153.999 -39c74 0 135.667 20.667 185 62s80 97 92 167
h60c-8 -56.667 -27.333 -106.667 -58 -150s-70 -76.833 -118 -100.5s-102 -35.5 -162 -35.5c-68.667 0 -130.167 15.667 -184.5 47z" />
    <glyph glyph-name="D" unicode="D" horiz-adv-x="770" 
d="M334 700c72.667 0 137.167 -14.667 193.5 -44s100.166 -70.5 131.499 -123.5s47 -113.833 47 -182.5s-15.667 -129.5 -47 -182.5s-75.166 -94.167 -131.499 -123.5s-120.833 -44 -193.5 -44h-206v700h206zM497.5 93.5c47 24.333 83.333 58.668 109 103.001
s38.5 95.5 38.5 153.5s-12.833 109.167 -38.5 153.5s-62 78.666 -109 102.999s-101.5 36.5 -163.5 36.5h-146v-586h146c62 0 116.5 12.167 163.5 36.5z" />
    <glyph glyph-name="E" unicode="E" horiz-adv-x="608" 
d="M128 700h402v-54h-343v-269h252v-54h-252v-269h387v-54h-446v700z" />
    <glyph glyph-name="F" unicode="F" horiz-adv-x="558" 
d="M128 700h420v-57h-360v-265h271v-56h-271v-322h-60v700z" />
    <glyph glyph-name="G" unicode="G" horiz-adv-x="843" 
d="M236 32c-54 31.333 -96.168 74.667 -126.501 130s-45.5 118 -45.5 188c0 70.667 15.333 133.667 46 189s73.334 98.5 128.001 129.5s116.667 46.5 186 46.5c58 0 110.5 -11.167 157.5 -33.5s85.667 -53.833 116 -94.5s50.5 -88 60.5 -142h-62
c-13.333 66 -44.333 118.167 -93 156.5s-108.334 57.5 -179.001 57.5c-58 0 -109.667 -13.167 -155 -39.5s-80.666 -62.833 -105.999 -109.5s-38 -100.334 -38 -161.001c0 -60 12.667 -113.667 38 -161s60.833 -84.166 106.5 -110.499s97.5 -39.5 155.5 -39.5
c52 0 99 11.167 141 33.5s75.667 53.333 101 93s39.333 84.834 42 135.501v12h-272v52h326v-364h-52v165c-24 -56.667 -61.667 -100.834 -113 -132.501s-111 -47.5 -179 -47.5s-129 15.667 -183 47z" />
    <glyph glyph-name="H" unicode="H" horiz-adv-x="820" 
d="M128 700h60v-322h444v322h60v-700h-60v322h-444v-322h-60v700z" />
    <glyph glyph-name="I" unicode="I" horiz-adv-x="316" 
d="M128 700h60v-700h-60v700z" />
    <glyph glyph-name="J" unicode="J" horiz-adv-x="632" 
d="M154 17c-37.333 21.333 -66.333 51.333 -87 90s-31 83.667 -31 135v44h59v-44c0 -60.667 17.167 -109.167 51.5 -145.5s79.5 -54.5 135.5 -54.5c54.667 0 98.167 18.167 130.5 54.5s48.5 84.833 48.5 145.5v458h60v-458c0 -51.333 -9.83301 -96.5 -29.5 -135.5
s-47.5 -69 -83.5 -90s-77.667 -31.5 -125 -31.5c-48.667 0 -91.667 10.667 -129 32z" />
    <glyph glyph-name="K" unicode="K" horiz-adv-x="691" 
d="M128 700h60v-322h133l263 322h70l-283 -346l288 -354h-76l-263 322h-132v-322h-60v700z" />
    <glyph glyph-name="L" unicode="L" horiz-adv-x="604" 
d="M128 700h60v-642h378v-58h-438v700z" />
    <glyph glyph-name="M" unicode="M" horiz-adv-x="996" 
d="M128 700h99l272 -634l271 634h98v-700h-59v648l-276 -648h-71l-275 648v-648h-59v700z" />
    <glyph glyph-name="N" unicode="N" horiz-adv-x="840" 
d="M128 700h65l462 -614v614h57v-700h-64l-462 614v-614h-58v700z" />
    <glyph glyph-name="O" unicode="O" horiz-adv-x="852" 
d="M241 32.5c-55.333 31.667 -98.666 75.334 -129.999 131.001s-47 117.834 -47 186.501s15.667 130.834 47 186.501s74.666 99.334 129.999 131.001s117 47.5 185 47.5s129.667 -15.833 185 -47.5s98.666 -75.334 129.999 -131.001s47 -117.834 47 -186.501
s-15.667 -130.834 -47 -186.501s-74.666 -99.334 -129.999 -131.001s-117 -47.5 -185 -47.5s-129.667 15.833 -185 47.5zM580 82c46 26.667 82.167 63.5 108.5 110.5s39.5 99.5 39.5 157.5s-13.167 110.5 -39.5 157.5s-62.5 83.833 -108.5 110.5s-97.333 40 -154 40
s-108 -13.333 -154 -40s-82 -63.5 -108 -110.5s-39 -99.5 -39 -157.5s13 -110.5 39 -157.5s62 -83.833 108 -110.5s97.333 -40 154 -40s108 13.333 154 40z" />
    <glyph glyph-name="P" unicode="P" horiz-adv-x="648" 
d="M334 700c80.667 0 144.167 -18.5 190.5 -55.5s69.5 -87.833 69.5 -152.5s-23.167 -115.5 -69.5 -152.5s-109.833 -55.5 -190.5 -55.5h-146v-284h-60v700h206zM481 377c35.333 28 53 65.999 53 113.999c0 48.667 -17.5 86.834 -52.5 114.501s-83.833 41.5 -146.5 41.5
h-147v-312h147c62 0 110.667 14 146 42z" />
    <glyph glyph-name="Q" unicode="Q" horiz-adv-x="852" 
d="M225.5 42c-50.333 32.667 -89.833 75.834 -118.5 129.501s-43 113.167 -43 178.5c0 68.667 15.667 130.834 47 186.501s74.666 99.334 129.999 131.001s117 47.5 185 47.5s129.667 -15.833 185 -47.5s98.666 -75.334 129.999 -131.001s47 -117.834 47 -186.501
c0 -65.333 -14.333 -124.833 -43 -178.5s-68.167 -96.834 -118.5 -129.501s-107.166 -51 -170.499 -55v-187h-60v187c-63.333 4 -120.166 22.333 -170.499 55zM580 82c46 26.667 82.167 63.5 108.5 110.5s39.5 99.5 39.5 157.5s-13.167 110.5 -39.5 157.5
s-62.5 83.833 -108.5 110.5s-97.333 40 -154 40s-108 -13.333 -154 -40s-82 -63.5 -108 -110.5s-39 -99.5 -39 -157.5s13 -110.5 39 -157.5s62 -83.833 108 -110.5s97.333 -40 154 -40s108 13.333 154 40z" />
    <glyph glyph-name="R" unicode="R" horiz-adv-x="680" 
d="M338 700c80.667 0 144.167 -18.501 190.5 -55.501s69.5 -87.833 69.5 -152.5c0 -52 -15.667 -95.167 -47 -129.5s-75.333 -57.166 -132 -68.499l241 -294h-74l-235 285h-20h-143v-285h-60v700h210zM485 378.499c35.333 27.667 53 65.5 53 113.5s-17.667 85.833 -53 113.5
s-84 41.5 -146 41.5h-151v-310h151c62 0 110.667 13.833 146 41.5z" />
    <glyph glyph-name="S" unicode="S" horiz-adv-x="659" 
d="M135.5 50.5c-54.333 43.667 -85.832 103.163 -94.499 178.496h59c9.33301 -58.667 35.333 -105.167 78 -139.5s97.667 -51.5 165 -51.5c63.333 0 113.166 12 149.499 36s54.5 57.667 54.5 101c0 33.333 -9.66699 59.5 -29 78.5s-43.833 33.167 -73.5 42.5
s-69.5 18.333 -119.5 27c-54.667 10 -100 20.833 -136 32.5s-66.5 30.334 -91.5 56.001s-37.5 60.834 -37.5 105.501c0 41.333 11.333 76.833 34 106.5s53.667 52.334 93 68.001s83.666 23.5 132.999 23.5c78.667 0 143.834 -21 195.501 -63s81.5 -100.667 89.5 -176h-62
c-7.33301 58 -31 103.333 -71 136s-91 49 -153 49c-58 0 -105.5 -12.833 -142.5 -38.5s-55.5 -60.167 -55.5 -103.5c0 -31.333 9.5 -56 28.5 -74s42.833 -31.167 71.5 -39.5s68.334 -17.166 119.001 -26.499c57.333 -11.333 104.166 -23.333 140.499 -36
s66.833 -32.167 91.5 -58.5s37 -61.833 37 -106.5c0 -60.667 -23.5 -108 -70.5 -142s-112.167 -51 -195.5 -51c-84 0 -153.167 21.833 -207.5 65.5z" />
    <glyph glyph-name="T" unicode="T" horiz-adv-x="662" 
d="M301 642h-279v58h618v-58h-279v-642h-60v642z" />
    <glyph glyph-name="U" unicode="U" horiz-adv-x="819" 
d="M252 24c-45.333 26 -80.333 62.667 -105 110s-37 102.333 -37 165v401h60v-400c0 -79.333 21.5 -142.166 64.5 -188.499s101.5 -69.5 175.5 -69.5c73.333 0 131.5 23.167 174.5 69.5s64.5 109.166 64.5 188.499v400h60v-401c0 -62.667 -12.333 -117.667 -37 -165
s-59.5 -84 -104.5 -110s-97.5 -39 -157.5 -39s-112.667 13 -158 39z" />
    <glyph glyph-name="V" unicode="V" horiz-adv-x="715" 
d="M24 700h65l268 -643h3l268 643h63l-294 -700h-79z" />
    <glyph glyph-name="W" unicode="W" horiz-adv-x="1033" 
d="M38 700h62l194 -637l193 637h61l193 -636l193 636h61l-212 -700h-80l-187 616l-187 -616h-78z" />
    <glyph glyph-name="X" unicode="X" horiz-adv-x="686" 
d="M304 356l-272 344h73l239 -299l238 299h72l-273 -343l283 -357h-73l-249 311l-249 -311h-71z" />
    <glyph glyph-name="Y" unicode="Y" horiz-adv-x="676" 
d="M308 266l-303 434h72l263 -374l262 374h69l-303 -434v-266h-60v266z" />
    <glyph glyph-name="Z" unicode="Z" horiz-adv-x="642" 
d="M50 52l468 591h-449v57h526v-52l-468 -591h471v-57h-548v52z" />
    <glyph glyph-name="bracketleft" unicode="[" horiz-adv-x="500" 
d="M152 800h246v-50h-196v-800h196v-50h-246v900z" />
    <glyph glyph-name="backslash" unicode="\" horiz-adv-x="471" 
d="M40 700h53l338 -700h-53z" />
    <glyph glyph-name="bracketright" unicode="]" horiz-adv-x="500" 
d="M348 -100h-246v50h196v800h-196v50h246v-900z" />
    <glyph glyph-name="asciicircum" unicode="^" horiz-adv-x="560" 
d="M259 700h42l174 -302h-56l-139 241l-139 -241h-56z" />
    <glyph glyph-name="underscore" unicode="_" horiz-adv-x="452" 
d="M30 0h392v-50h-392v50z" />
    <glyph glyph-name="a" unicode="a" horiz-adv-x="606" 
d="M95 24.5c-28.667 24.333 -43 56.832 -43 97.499c0 52 23.833 89.667 71.5 113s110.834 37.666 189.501 42.999c42.667 2.66699 74.834 7.66699 96.501 15s32.5 19 32.5 35c0 40 -14.5 72.667 -43.5 98s-66.167 38 -111.5 38c-44.667 0 -81.834 -12.167 -111.501 -36.5
s-48.5 -58.166 -56.5 -101.499h-52c9.33301 56.667 33.5 101.5 72.5 134.5s88.5 49.5 148.5 49.5c62.667 0 112.667 -18.167 150 -54.5s56 -84.833 56 -145.5v-261h74v-49h-121v117c-18.667 -39.333 -48.834 -70.666 -90.501 -93.999s-88.5 -35 -140.5 -35
s-92.333 12.167 -121 36.5zM335.5 60.499c33.667 17.667 60.166 41.668 79.499 72.001s29 63.5 29 99.5v33c-16.667 -15.333 -60 -25.333 -130 -30c-72.667 -4.66699 -125.5 -15.834 -158.5 -33.501s-49.5 -43.167 -49.5 -76.5c0 -29.333 10.5 -51.833 31.5 -67.5
s49.833 -23.5 86.5 -23.5c40.667 0 77.834 8.83301 111.501 26.5z" />
    <glyph glyph-name="b" unicode="b" horiz-adv-x="662" 
d="M237 25c-36.667 23.333 -64.666 55.001 -83.999 95.001v-120h-51v710h54v-326c19.333 38.667 47 69.334 83 92.001s77.333 34 124 34c46 0 88 -11.5 126 -34.5s68 -54.333 90 -94s33 -83.5 33 -131.5c0 -48.667 -11 -92.834 -33 -132.501s-51.833 -70.834 -89.5 -93.501
s-79.834 -34 -126.501 -34c-47.333 0 -89.333 11.667 -126 35zM458.001 67.501c30.667 18.333 54.834 43.5 72.501 75.5s26.5 67.667 26.5 107s-8.83301 75 -26.5 107s-41.834 57.167 -72.501 75.5s-64.667 27.5 -102 27.5s-71.333 -9.16699 -102 -27.5
s-54.834 -43.5 -72.501 -75.5s-26.5 -67.667 -26.5 -107s8.83301 -75 26.5 -107s41.834 -57.167 72.501 -75.5s64.667 -27.5 102 -27.5s71.333 9.16699 102 27.5z" />
    <glyph glyph-name="c" unicode="c" horiz-adv-x="602" 
d="M176.5 24c-39.667 22.667 -70.6689 53.832 -93.002 93.499s-33.5 83.834 -33.5 132.501s11.333 92.834 34 132.501s53.834 70.834 93.501 93.501s83.834 34 132.501 34c66 0 121 -17.833 165 -53.5s71 -83.5 81 -143.5h-53c-10.667 45.333 -33 81.166 -67 107.499
s-76 39.5 -126 39.5c-38.667 0 -73.667 -9.16699 -105 -27.5s-56 -43.5 -74 -75.5s-27 -67.667 -27 -107s9 -75 27 -107s42.667 -57.167 74 -75.5s66.333 -27.5 105 -27.5c50 0 92.167 13.167 126.5 39.5s56.5 62.166 66.5 107.499h53c-10.667 -60 -38 -107.833 -82 -143.5
s-98.667 -53.5 -164 -53.5c-49.333 0 -93.833 11.333 -133.5 34z" />
    <glyph glyph-name="d" unicode="d" horiz-adv-x="662" 
d="M172.5 24c-37.667 22.667 -67.498 53.833 -89.498 93.5s-33 83.834 -33 132.501c0 48 11 91.833 33 131.5s52 71 90 94s80 34.5 126 34.5c46.667 0 88 -11.333 124 -34s63.667 -53.334 83 -92.001v326h54v-710h-51v120c-18.667 -40 -46.334 -71.667 -83.001 -95
s-79 -35 -127 -35c-46.667 0 -88.834 11.333 -126.501 34zM408.002 67.499c30.667 18.333 54.834 43.5 72.501 75.5s26.5 67.667 26.5 107s-8.83301 75 -26.5 107s-41.834 57.167 -72.501 75.5s-64.667 27.5 -102 27.5s-71.333 -9.16699 -102 -27.5
s-54.834 -43.5 -72.501 -75.5s-26.5 -67.667 -26.5 -107s8.83301 -75 26.5 -107s41.834 -57.167 72.501 -75.5s64.667 -27.5 102 -27.5s71.333 9.16699 102 27.5z" />
    <glyph glyph-name="e" unicode="e" horiz-adv-x="615" 
d="M178 24c-40 22.667 -71.333 53.666 -94 92.999s-34 83.333 -34 132s11.5 92.834 34.5 132.501s54.5 71 94.5 94s84.333 34.5 133 34.5c48 0 91.667 -11.333 131 -34s70.333 -53.667 93 -93s34 -83 34 -131c0 -10 -0.333008 -17.333 -1 -22h-465
c2 -36 12.5 -68.5 31.5 -97.5s44.167 -52 75.5 -69s66 -25.5 104 -25.5c42 0 79.5 9.83301 112.5 29.5s56.167 45.5 69.5 77.5h54c-13.333 -45.333 -41.833 -82.5 -85.5 -111.5s-94.5 -43.5 -152.5 -43.5c-50 0 -95 11.333 -135 34zM483.5 371.499
c-18.333 28.333 -42.501 50.5 -72.501 66.5s-63 24 -99 24s-69.167 -8 -99.5 -24s-55 -38.167 -74 -66.5s-30.167 -60.166 -33.5 -95.499h411c-3.33301 35.333 -14.166 67.166 -32.499 95.499z" />
    <glyph glyph-name="f" unicode="f" horiz-adv-x="443" 
d="M46 450v50h105v62c0 54 17.333 97.167 52 129.5s80.667 48.5 138 48.5c52 0 94.667 -14.167 128 -42.5s50 -65.5 50 -111.5h-52v3c-0.666992 30 -12.667 54.333 -36 73s-53.333 28 -90 28c-42 0 -75.333 -10.833 -100 -32.5s-37 -53.167 -37 -94.5
c0 -27.333 0.333008 -48.333 1 -63h235v-50h-235v-450h-54v450h-105z" />
    <glyph glyph-name="g" unicode="g" horiz-adv-x="662" 
d="M142.5 -168c-51 28 -76.501 66.334 -76.501 115.001c0 33.333 12.5 61.666 37.5 84.999s60.167 40.333 105.5 51c-60.667 8.66699 -108 22.667 -142 42s-51 49.333 -51 90c0 18 7 34.167 21 48.5s31.667 21.5 53 21.5c14.667 0 25 -1 31 -3c-12.667 20 -19 42 -19 66
c0 46 20 83.333 60 112s95 45 165 49v121h53v-121c73.333 -2 131.5 -17.333 174.5 -46s64.5 -67 64.5 -115c0 -48.667 -23.333 -87.334 -70 -116.001s-109.334 -43 -188.001 -43c-44 0 -78.5 3.66699 -103.5 11s-50.167 17.333 -75.5 30
c-14.667 7.33301 -27.167 12.833 -37.5 16.5s-22.166 5.5 -35.499 5.5c-12.667 0 -22.834 -3.66699 -30.501 -11s-11.5 -16 -11.5 -26c0 -38 25 -63.667 75 -77s120.667 -21.666 212 -24.999c88 -2.66699 157 -16.167 207 -40.5s75 -64.833 75 -121.5
c0 -32.667 -11.667 -61 -35 -85s-56.666 -42.667 -99.999 -56s-93.666 -20 -150.999 -20c-87.333 0 -156.5 14 -207.5 42zM508.499 264.501c36.333 21 54.502 49.167 54.502 84.5c0 36 -18 64.5 -54 85.5s-85.333 31.5 -148 31.5s-112.334 -10.5 -149.001 -31.5
s-55 -49.5 -55 -85.5c0 -35.333 18.167 -63.5 54.5 -84.5s86.166 -31.5 149.499 -31.5c62 0 111.167 10.5 147.5 31.5zM519.001 -132.499c41.333 20.333 62 47.833 62 82.5c0 37.333 -19.667 65.833 -59 85.5s-96.666 29.5 -171.999 29.5
c-71.333 0 -127.333 -10.333 -168 -31s-61 -48.667 -61 -84c0 -34.667 20.333 -62.167 61 -82.5s96.667 -30.5 168 -30.5s127.666 10.167 168.999 30.5z" />
    <glyph glyph-name="h" unicode="h" horiz-adv-x="660" 
d="M156 710v-319.003c18 36.667 43.833 65.667 77.5 87s71.5 32 113.5 32c68 0 121.833 -21.667 161.5 -65s59.5 -102.666 59.5 -177.999v-267h-54v260c0 62 -15.5 110.667 -46.5 146s-73.5 53 -127.5 53c-34 0 -65.167 -8.66699 -93.5 -26s-50.5 -41.166 -66.5 -71.499
s-24 -64.166 -24 -101.499v-260h-54v710h54z" />
    <glyph glyph-name="i" unicode="i" horiz-adv-x="258" 
d="M102 500h54v-500h-54v500zM89 745h80l-35 -168h-10z" />
    <glyph glyph-name="j" unicode="j" horiz-adv-x="296" 
d="M-97.5 -175c-29.667 23.333 -44.5 52.999 -44.5 88.999h54v-1c0 -22 10 -40 30 -54s45.667 -21 77 -21c37.333 0 67 11 89 33s33 55 33 99l-1 136v394h54v-530c0 -55.333 -15.5 -99.166 -46.5 -131.499s-73.833 -48.5 -128.5 -48.5c-48 0 -86.833 11.667 -116.5 35z
M127 744.999h80l-35 -168h-10z" />
    <glyph glyph-name="k" unicode="k" horiz-adv-x="544" 
d="M102 710h54v-434h97l199 224h66l-220 -248l222 -252h-69l-199 225h-96v-225h-54v710z" />
    <glyph glyph-name="l" unicode="l" horiz-adv-x="258" 
d="M102 710h54v-710h-54v710z" />
    <glyph glyph-name="m" unicode="m" horiz-adv-x="1004" 
d="M153 500l0.00585938 -112c17.333 37.333 41.833 67 73.5 89s67.167 33 106.5 33c46 0 84.667 -11.5 116 -34.5s53.666 -55.5 66.999 -97.5c17.333 40 42.833 72 76.5 96s71.167 36 112.5 36c63.333 0 113.666 -20.333 150.999 -61s56 -96 56 -166v-283h-55v276
c0 57.333 -13.833 102.333 -41.5 135s-65.834 49 -114.501 49c-30.667 0 -58.834 -8.66699 -84.501 -26s-45.834 -41.333 -60.501 -72s-22 -64.667 -22 -102v-260h-54v276c0 56.667 -14 101.5 -42 134.5s-66 49.5 -114 49.5c-31.333 0 -59.833 -8.66699 -85.5 -26
s-45.834 -41.333 -60.501 -72s-22 -64.667 -22 -102v-260h-54v500h51z" />
    <glyph glyph-name="n" unicode="n" horiz-adv-x="660" 
d="M153 500v-113.003c18 38 44.167 68 78.5 90s72.833 33 115.5 33c68 0 121.833 -21.667 161.5 -65s59.5 -102.666 59.5 -177.999v-267h-54v260c0 62 -15.5 110.667 -46.5 146s-73.5 53 -127.5 53c-34 0 -65.167 -8.66699 -93.5 -26s-50.5 -41.166 -66.5 -71.499
s-24 -64.166 -24 -101.499v-260h-54v500h51z" />
    <glyph glyph-name="o" unicode="o" horiz-adv-x="628" 
d="M179.5 24c-40.333 22.667 -72 53.834 -95 93.501s-34.5 83.834 -34.5 132.501c0 48 11.667 91.833 35 131.5s55.166 71 95.499 94s84.833 34.5 133.5 34.5c49.333 0 94.166 -11.333 134.499 -34s72 -53.834 95 -93.501s34.5 -83.834 34.5 -132.501
c0 -48 -11.667 -91.833 -35 -131.5s-55.166 -71 -95.499 -94s-84.833 -34.5 -133.5 -34.5c-49.333 0 -94.166 11.333 -134.499 34zM421 67.5c32 18.333 57 43.5 75 75.5s27 67.667 27 107s-9 75 -27 107s-43 57.167 -75 75.5s-67.667 27.5 -107 27.5
s-75 -9.16699 -107 -27.5s-57 -43.5 -75 -75.5s-27 -67.667 -27 -107s9.16699 -75 27.5 -107s43.333 -57.167 75 -75.5s67.167 -27.5 106.5 -27.5s75 9.16699 107 27.5z" />
    <glyph glyph-name="p" unicode="p" horiz-adv-x="662" 
d="M153 500l-0.000976562 -119.999c19.333 40 47.333 71.667 84 95s78.667 35 126 35c46.667 0 88.834 -11.333 126.501 -34s67.5 -53.834 89.5 -93.501s33 -83.834 33 -132.501c0 -48 -11 -91.833 -33 -131.5s-52 -71 -90 -94s-80 -34.5 -126 -34.5
c-46.667 0 -88 11.333 -124 34s-63.667 53.334 -83 92.001v-316h-54v700h51zM457.999 67.501c30.667 18.333 54.834 43.5 72.501 75.5s26.5 67.667 26.5 107s-8.83301 75 -26.5 107s-41.834 57.167 -72.501 75.5s-64.667 27.5 -102 27.5s-71.333 -9.16699 -102 -27.5
s-54.834 -43.5 -72.501 -75.5s-26.5 -67.667 -26.5 -107s8.83301 -75 26.5 -107s41.834 -57.167 72.501 -75.5s64.667 -27.5 102 -27.5s71.333 9.16699 102 27.5z" />
    <glyph glyph-name="q" unicode="q" horiz-adv-x="662" 
d="M506 116c-19.333 -38.667 -47.002 -69.335 -83.002 -92.002s-77.333 -34 -124 -34c-46 0 -88 11.5 -126 34.5s-68 54.333 -90 94s-33 83.5 -33 131.5c0 48.667 11 92.834 33 132.501s51.833 70.834 89.5 93.501s79.834 34 126.501 34c48 0 90.333 -11.667 127 -35
s64.334 -55 83.001 -95v120h51v-700h-54v316zM407.998 67.499c30.667 18.333 54.834 43.5 72.501 75.5s26.5 67.667 26.5 107s-8.83301 75 -26.5 107s-41.834 57.167 -72.501 75.5s-64.667 27.5 -102 27.5s-71.333 -9.16699 -102 -27.5s-54.834 -43.5 -72.501 -75.5
s-26.5 -67.667 -26.5 -107s8.83301 -75 26.5 -107s41.834 -57.167 72.501 -75.5s64.667 -27.5 102 -27.5s71.333 9.16699 102 27.5z" />
    <glyph glyph-name="r" unicode="r" horiz-adv-x="515" 
d="M153 500v-114.001c16.667 38 40.667 68.167 72 90.5s66 33.5 104 33.5c52.667 0 94.667 -16.167 126 -48.5s47 -77.166 47 -134.499v-24h-54v23c0 42.667 -11 75.5 -33 98.5s-53 34.5 -93 34.5c-30 0 -57.667 -8.66699 -83 -26s-45.5 -41 -60.5 -71
s-22.5 -62.667 -22.5 -98v-264h-54v500h51z" />
    <glyph glyph-name="s" unicode="s" horiz-adv-x="537" 
d="M117 33c-45.333 29.333 -72.0029 73.0029 -80.0029 131.003h55c7.33301 -42.667 28.333 -74.834 63 -96.501s76 -32.5 124 -32.5c36.667 0 71.167 7.5 103.5 22.5s48.5 38.833 48.5 71.5c0 20.667 -6 36.667 -18 48s-27.167 19.666 -45.5 24.999
s-45.166 11.333 -80.499 18l-25 5c-44.667 7.33301 -81.167 15.5 -109.5 24.5s-51.833 22.667 -70.5 41s-28 42.833 -28 73.5c-0.666992 50 19.5 87 60.5 111s89.5 36 145.5 36c58 0 107.833 -14.333 149.5 -43s66.167 -70.667 73.5 -126h-56
c-7.33301 40 -27.166 70.167 -59.499 90.5s-70.833 30.5 -115.5 30.5c-37.333 0 -70.666 -7.66699 -99.999 -23s-44 -39.666 -44 -72.999c0 -20 7 -35.833 21 -47.5s31.5 -20.334 52.5 -26.001s50.833 -11.834 89.5 -18.501c47.333 -8 85.5 -16.333 114.5 -25
s53.167 -22.5 72.5 -41.5s29 -44.833 29 -77.5s-10.5 -59.667 -31.5 -81s-47.333 -36.833 -79 -46.5s-64.167 -14.5 -97.5 -14.5c-62.667 0 -116.667 14.667 -162 44z" />
    <glyph glyph-name="t" unicode="t" horiz-adv-x="475" 
d="M151 152l0.000976562 298.002h-125v50h102c16.667 0 25 8.33301 25 25v95h53l-1 -120h230v-50h-230v-293c0 -40.667 9.83301 -70.334 29.5 -89.001s50.167 -28 91.5 -28c32 0 68.333 5.66699 109 17v-49c-16.667 -4.66699 -35.334 -8.83398 -56.001 -12.501
s-38.667 -5.5 -54 -5.5c-116 0 -174 54 -174 162z" />
    <glyph glyph-name="u" unicode="u" horiz-adv-x="660" 
d="M151.5 55c-39.667 43.333 -59.5 102.669 -59.5 178.002v267h54v-260c0 -62 15.5 -110.667 46.5 -146s73.5 -53 127.5 -53c34 0 65.167 8.66699 93.5 26s50.5 41.166 66.5 71.499s24 64.166 24 101.499v260h54v-500h-51v113c-18 -38 -44.167 -68 -78.5 -90
s-72.833 -33 -115.5 -33c-68 0 -121.833 21.667 -161.5 65z" />
    <glyph glyph-name="v" unicode="v" horiz-adv-x="540" 
d="M9 500h62l199 -452h2l199 452h61l-225 -500h-74z" />
    <glyph glyph-name="w" unicode="w" horiz-adv-x="798" 
d="M23 500h55l146 -439l147 439h57l148 -439l145 439h54l-165 -500h-64l-147 435l-146 -435h-65z" />
    <glyph glyph-name="x" unicode="x" horiz-adv-x="557" 
d="M244 254l-210 246h67l178 -207l180 207h64l-210 -244l218 -256h-66l-187 217l-188 -217h-64z" />
    <glyph glyph-name="y" unicode="y" horiz-adv-x="551" 
d="M67.5 -167.5c-29 28.333 -43.5 67.501 -43.5 117.501v27h51v-30c0 -33.333 9.5 -59.833 28.5 -79.5s44.167 -29.5 75.5 -29.5c30.667 0 55.167 9.5 73.5 28.5s27.5 44.833 27.5 77.5v14c0 16 -1.16699 30.167 -3.5 42.5s-6.83301 24.5 -13.5 36.5l-250 463h62l216 -407
c6 -9.33301 10 -21.333 12 -36c3.33301 14.667 7 26.667 11 36l171 407h57l-192 -451c-6 -14.667 -10.333 -27.834 -13 -39.501s-4 -25.167 -4 -40.5v-24c0 -47.333 -14.333 -85 -43 -113s-66 -42 -112 -42c-44.667 0 -81.5 14.167 -110.5 42.5z" />
    <glyph glyph-name="z" unicode="z" horiz-adv-x="520" 
d="M41 45l358 405h-343v50h414v-45l-358 -405h359v-50h-430v45z" />
    <glyph glyph-name="braceleft" unicode="{" horiz-adv-x="500" 
d="M208.5 -82c-25 22 -37.5 55.6719 -37.5 101.005c0 17.333 2.16699 39.666 6.5 66.999s7.16602 44.333 8.49902 51c9.33301 54.667 14 90 14 106c0 26.667 -6 47 -18 61s-29 21 -51 21h-38v50h38c22 0 39 7 51 21s18 34.333 18 61c0 16 -4.66699 51.333 -14 106
c-1.33301 6.66699 -4.16602 23.667 -8.49902 51s-6.5 49.666 -6.5 66.999c0 45.333 12.5 79 37.5 101s56.833 33 95.5 33c31.333 0 61 -5 89 -15v-52c-24 12 -50.667 18 -80 18c-26 0 -47.667 -7.66699 -65 -23s-26 -38 -26 -68c0 -14.667 4.66699 -48 14 -100l10 -64.5
c3.33301 -21.667 5 -39.5 5 -53.5c0 -56.667 -19.667 -92.334 -59 -107.001c39.333 -14.667 59 -50.334 59 -107.001c0 -18.667 -2.33301 -41.834 -7 -69.501l-8 -47.5c-9.33301 -52 -14 -85.667 -14 -101c0 -30 8.66699 -52.667 26 -68s39 -23 65 -23c29.333 0 56 6 80 18
v-52c-28 -10 -57.667 -15 -89 -15c-38.667 0 -70.5 11 -95.5 33z" />
    <glyph glyph-name="bar" unicode="|" horiz-adv-x="354" 
d="M152 800h50v-900h-50v900z" />
    <glyph glyph-name="braceright" unicode="}" horiz-adv-x="500" 
d="M291.5 782c25 -22 37.5 -55.6719 37.5 -101.005c0 -17.333 -2.16699 -39.666 -6.5 -66.999s-7.16602 -44.333 -8.49902 -51c-9.33301 -54.667 -14 -90 -14 -106c0 -26.667 6 -47 18 -61s29 -21 51 -21h38v-50h-38c-22 0 -39 -7 -51 -21s-18 -34.333 -18 -61
c0 -16 4.66699 -51.333 14 -106c1.33301 -6.66699 4.16602 -23.667 8.49902 -51s6.5 -49.666 6.5 -66.999c0 -45.333 -12.5 -79 -37.5 -101s-56.833 -33 -95.5 -33c-31.333 0 -61 5 -89 15v52c24 -12 50.667 -18 80 -18c26 0 47.667 7.66699 65 23s26 38 26 68
c0 14.667 -4.66699 48 -14 100l-10 64.5c-3.33301 21.667 -5 39.5 -5 53.5c0 56.667 19.667 92.334 59 107.001c-39.333 14.667 -59 50.334 -59 107.001c0 18.667 2.33301 41.834 7 69.501l8 47.5c9.33301 52 14 85.667 14 101c0 30 -8.66699 52.667 -26 68s-39 23 -65 23
c-29.333 0 -56 -6 -80 -18v52c28 10 57.667 15 89 15c38.667 0 70.5 -11 95.5 -33z" />
    <glyph glyph-name="asciitilde" unicode="~" horiz-adv-x="560" 
d="M104 374c19.333 19.333 42.998 29.002 70.998 29.002c18 0 34.833 -2.5 50.5 -7.5s34.834 -12.5 57.501 -22.5c18.667 -8 35 -14.167 49 -18.5s28 -6.5 42 -6.5c16.667 0 31 5.16699 43 15.5s18 22.833 18 37.5h50c0 -30.667 -9.5 -55.667 -28.5 -75s-42.5 -29 -70.5 -29
c-18 0 -35.167 2.66699 -51.5 8s-35.166 12.666 -56.499 21.999c-22 9.33301 -39.167 16 -51.5 20s-25.5 6 -39.5 6c-16.667 0 -31.167 -5.33301 -43.5 -16s-18.5 -23.334 -18.5 -38.001h-50c0 30.667 9.66699 55.667 29 75z" />
    <glyph glyph-name="uni00A0" unicode="&#xa0;" horiz-adv-x="250" 
 />
    <glyph glyph-name="exclamdown" unicode="&#xa1;" horiz-adv-x="284" 
d="M174 493.5c8.66699 -9 13 -19.833 13 -32.5s-4.33301 -23.334 -13 -32.001s-19.334 -13 -32.001 -13s-23.334 4.33301 -32.001 13s-13 19.334 -13 32.001c0 13.333 4.33301 24.333 13 33s19.334 13 32.001 13s23.334 -4.5 32.001 -13.5zM175 -200h-64l9 500h46z" />
    <glyph glyph-name="cent" unicode="&#xa2;" 
d="M471 181.5c34 26.333 56 62.168 66 107.501h54c-10 -56.667 -35.167 -102.5 -75.5 -137.5s-90.5 -54.5 -150.5 -58.5v-123h-44v123c-45.333 3.33301 -86 16.833 -122 40.5s-64 54.5 -84 92.5s-30 80 -30 126s10.167 88 30.5 126s48.333 68.833 84 92.5
s76.167 37.167 121.5 40.5v119h44v-119c60.667 -4 111 -23.333 151 -58s65 -80.667 75 -138h-54c-10 45.333 -32 81.166 -66 107.499s-76 39.5 -126 39.5c-39.333 0 -74.666 -9.16699 -105.999 -27.5s-55.833 -43.5 -73.5 -75.5s-26.5 -67.667 -26.5 -107
s8.83301 -75 26.5 -107s42.167 -57.167 73.5 -75.5s66.666 -27.5 105.999 -27.5c50 0 92 13.167 126 39.5z" />
    <glyph glyph-name="sterling" unicode="&#xa3;" 
d="M43 13c-22 18.667 -32.999 43.3301 -32.999 73.9971c0 28.667 9.83301 52.334 29.5 71.001s45.5 28 77.5 28c31.333 0 68.666 -12 111.999 -36v10c-1.33301 18.667 -5.33301 37 -12 55s-17 42 -31 72c-9.33301 18.667 -16 32.667 -20 42h-124v42h106
c-16 43.333 -24 84 -24 122c0 44 9.66699 82.833 29 116.5s46.5 59.834 81.5 78.501s75.833 28 122.5 28s88 -9.33301 124 -28s64.667 -44.834 86 -78.501s33.333 -72.5 36 -116.5h-57c-4 52.667 -23.333 94.667 -58 126s-78.667 47 -132 47s-96 -16.167 -128 -48.5
s-48 -75.5 -48 -129.5c0 -36.667 8.33301 -75.667 25 -117h306v-42h-287c6.66699 -16 12 -27.667 16 -35c14.667 -33.333 25.334 -60 32.001 -80s10 -41 10 -63c0 -6 -0.666992 -15.667 -2 -29l25 -15c38.667 -23.333 71.334 -41 98.001 -53s53.667 -18 81 -18
c37.333 0 66.166 12 86.499 36s30.5 58 30.5 102c0 18 -2 37 -6 57h52c4.66699 -21.333 7 -42.333 7 -63c0 -58 -15.333 -103 -46 -135s-69.667 -48 -117 -48c-36.667 0 -72.5 7.83301 -107.5 23.5s-75.167 37.834 -120.5 66.501
c-12.667 -27.333 -31.334 -49.166 -56.001 -65.499s-52 -24.5 -82 -24.5c-32.667 0 -60 9.33301 -82 28zM187.001 47.9961c17.333 12.667 29.667 29.667 37 51c-22.667 14 -42.167 24.667 -58.5 32s-31.166 11 -44.499 11c-18 0 -32.667 -5.16699 -44 -15.5
s-17 -23.5 -17 -39.5c0 -17.333 6.5 -31.333 19.5 -42s29.5 -16 49.5 -16c21.333 0 40.666 6.33301 57.999 19z" />
    <glyph glyph-name="currency" unicode="&#xa4;" 
d="M179 217c-14.667 18.667 -25.9961 39.3301 -33.9961 61.9971s-12 46.334 -12 71.001s4 48.334 12 71.001s19.333 43.334 34 62.001l-91 92l38 38l91 -92c18 14.667 38.5 26 61.5 34s46.833 12 71.5 12s48.5 -4 71.5 -12s43.5 -19.333 61.5 -34l92 92l38 -38l-92 -92
c14.667 -18 26 -38.5 34 -61.5s12 -46.833 12 -71.5s-4 -48.5 -12 -71.5s-19.333 -43.5 -34 -61.5l92 -91l-38 -38l-92 91c-18.667 -14.667 -39.334 -26 -62.001 -34s-46.334 -12 -71.001 -12s-48.334 4 -71.001 12s-43.334 19.333 -62.001 34l-91 -91l-38 38z
M431.504 208.996c25 14.667 44.833 34.5 59.5 59.5s22 52.167 22 81.5s-7.33301 56.5 -22 81.5s-34.5 44.833 -59.5 59.5s-52.167 22 -81.5 22s-56.5 -7.33301 -81.5 -22s-44.833 -34.5 -59.5 -59.5s-22 -52.167 -22 -81.5s7.33301 -56.5 22 -81.5s34.5 -44.833 59.5 -59.5
s52.167 -22 81.5 -22s56.5 7.33301 81.5 22z" />
    <glyph glyph-name="yen" unicode="&#xa5;" 
d="M320 170h-238v42h238v55l-22 33h-216v42h189l-245 358h71l254 -370l254 370h69l-245 -358h206v-42h-233l-22 -33v-55h255v-42h-255v-170h-60v170z" />
    <glyph glyph-name="brokenbar" unicode="&#xa6;" horiz-adv-x="354" 
d="M152 800h50v-380h-50v380zM152 280h50v-380h-50v380z" />
    <glyph glyph-name="section" unicode="&#xa7;" 
d="M202 -52.5c-46 31.667 -72.665 78.5039 -79.998 140.504h56c7.33301 -45.333 28.333 -79.833 63 -103.5s76 -35.5 124 -35.5c38 0 73.167 8.16699 105.5 24.5s48.5 42.166 48.5 77.499c0 25.333 -7.16699 44.666 -21.5 57.999s-31.833 22.666 -52.5 27.999
s-53.334 12 -98.001 20c-52.667 9.33301 -94.334 18.5 -125.001 27.5s-56.5 23.5 -77.5 43.5s-31.5 47.667 -31.5 83c0 34.667 12.5 62.834 37.5 84.501s57.5 36.834 97.5 45.501c-34.667 10 -61.667 24.167 -81 42.5s-29.333 44.166 -30 77.499
c0 52.667 20.667 91.667 62 117s90 38 146 38c60 0 111 -15.333 153 -46s66.333 -76 73 -136h-56c-6.66699 44 -26 77 -58 99s-70.667 33 -116 33c-38.667 0 -73 -8.5 -103 -25.5s-45 -44.167 -45 -81.5c0 -22 7 -39.333 21 -52s31.833 -22 53.5 -28
s51.167 -12.333 88.5 -19c58 -10 102.5 -19.333 133.5 -28s57.333 -22.667 79 -42s32.5 -46.666 32.5 -81.999s-13 -64 -39 -86s-58.667 -37.667 -98 -47c36 -10.667 63.667 -25.334 83 -44.001s29 -45.334 29 -80.001c0 -34 -10.5 -62.333 -31.5 -85
s-47.5 -39.334 -79.5 -50.001s-65 -16 -99 -16c-63.333 0 -118 15.833 -164 47.5zM492.002 229.004c35.333 17.333 53 42.665 53 75.998c0 23.333 -6.5 41.333 -19.5 54s-31.333 22.334 -55 29.001s-61.167 14.667 -112.5 24c-6 0.666992 -15.667 2.33398 -29 5.00098
c-42 -2 -79.167 -11.5 -111.5 -28.5s-48.5 -42.167 -48.5 -75.5c0 -34 17.5 -59.333 52.5 -76s87.167 -29 156.5 -37c40.667 2 78.667 11.667 114 29z" />
    <glyph glyph-name="copyright" unicode="&#xa9;" horiz-adv-x="820" 
d="M225 33c-56 32 -100 76 -132 132s-48 117.667 -48 185s16 129 48 185s76 100 132 132s117.667 48 185 48s129 -16 185 -48s100 -76 132 -132s48 -117.667 48 -185s-16 -129 -48 -185s-76 -100 -132 -132s-117.667 -48 -185 -48s-129 16 -185 48zM579 62
c50.667 29.333 90.5 69.333 119.5 120s43.5 106.667 43.5 168c0 62 -14.5 118.333 -43.5 169s-68.833 90.5 -119.5 119.5s-107 43.5 -169 43.5c-61.333 0 -117.333 -14.5 -168 -43.5s-90.667 -68.833 -120 -119.5s-44 -107 -44 -169c0 -61.333 14.667 -117.333 44 -168
s69.333 -90.667 120 -120s106.667 -44 168 -44c62 0 118.333 14.667 169 44zM307.5 169.5c-31.667 18.333 -56.499 43.332 -74.499 74.999s-27 66.834 -27 105.501s9 73.834 27 105.501s42.833 56.667 74.5 75s67.167 27.5 106.5 27.5c52 0 95.667 -14.167 131 -42.5
s57 -66.5 65 -114.5h-46c-7.33301 35.333 -24.333 63.166 -51 83.499s-59.667 30.5 -99 30.5c-30.667 0 -58.334 -7.16699 -83.001 -21.5s-44 -34 -58 -59s-21 -53.167 -21 -84.5c0 -30.667 7 -58.5 21 -83.5s33.333 -44.667 58 -59s52.334 -21.5 83.001 -21.5
c40 0 73.167 10 99.5 30s43.166 48 50.499 84h46c-8 -48 -29.5 -86.333 -64.5 -115s-78.833 -43 -131.5 -43c-39.333 0 -74.833 9.16699 -106.5 27.5z" />
    <glyph glyph-name="guillemotleft" unicode="&#xab;" horiz-adv-x="556" 
d="M182 300l109 -200h-59l-106 194v12l106 194h59zM370 300l109 -200h-59l-106 194v12l106 194h59z" />
    <glyph glyph-name="logicalnot" unicode="&#xac;" horiz-adv-x="560" 
d="M484 375v-229h-50v179h-358v50h408z" />
    <glyph glyph-name="registered" unicode="&#xae;" horiz-adv-x="440" 
d="M136.5 378.5c-27.667 15.667 -49.334 37.334 -65.001 65.001s-23.5 58.167 -23.5 91.5s7.83301 63.833 23.5 91.5s37.334 49.334 65.001 65.001s58.167 23.5 91.5 23.5s63.833 -7.83301 91.5 -23.5s49.334 -37.334 65.001 -65.001s23.5 -58.167 23.5 -91.5
s-7.83301 -63.833 -23.5 -91.5s-37.334 -49.334 -65.001 -65.001s-58.167 -23.5 -91.5 -23.5s-63.833 7.83301 -91.5 23.5zM310 394.5c24.667 14.333 44.167 33.833 58.5 58.5s21.5 52 21.5 82s-7.16699 57.333 -21.5 82s-33.833 44.167 -58.5 58.5s-52 21.5 -82 21.5
s-57.333 -7.16699 -82 -21.5s-44.167 -33.833 -58.5 -58.5s-21.5 -52 -21.5 -82s7.16699 -57.333 21.5 -82s33.833 -44.167 58.5 -58.5s52 -21.5 82 -21.5s57.333 7.16699 82 21.5zM223 642c24.667 0 43.834 -5.5 57.501 -16.5s20.5 -26.167 20.5 -45.5
c0 -14.667 -3.83301 -27.167 -11.5 -37.5s-18.834 -17.833 -33.501 -22.5l68 -82h-36l-64 78h-42v-78h-27v204h68zM273 580c0 10.667 -4.33301 19.333 -13 26s-21 10 -37 10h-41v-75h41c33.333 0 50 13 50 39z" />
    <glyph glyph-name="degree" unicode="&#xb0;" horiz-adv-x="324" 
d="M71.5 496.5c-25 25 -37.5 55.167 -37.5 90.5s12.5 65.5 37.5 90.5s55.167 37.5 90.5 37.5s65.5 -12.5 90.5 -37.5s37.5 -55.167 37.5 -90.5s-12.5 -65.5 -37.5 -90.5s-55.167 -37.5 -90.5 -37.5s-65.5 12.5 -90.5 37.5zM220 529c16 16 24 35.333 24 58s-8 42 -24 58
s-35.333 24 -58 24s-42 -8 -58 -24s-24 -35.333 -24 -58s8 -42 24 -58s35.333 -24 58 -24s42 8 58 24z" />
    <glyph glyph-name="plusminus" unicode="&#xb1;" horiz-adv-x="560" 
d="M305 435h179v-50h-179v-179h-50v179h-179v50h179v179h50v-179zM76 88v50h408v-50h-408z" />
    <glyph glyph-name="paragraph" unicode="&#xb6;" horiz-adv-x="500" 
d="M281 300c-41.333 0 -78.833 8.83496 -112.5 26.502s-60.167 41.667 -79.5 72s-29 64.166 -29 101.499s9.66699 71.166 29 101.499s45.833 54.333 79.5 72s71.167 26.5 112.5 26.5h67v-900h-58v500h-9z" />
    <glyph glyph-name="periodcentered" unicode="&#xb7;" horiz-adv-x="244" 
d="M90 268.5c-8.66699 9 -13 19.833 -13 32.5s4.33301 23.334 13 32.001s19.334 13 32.001 13s23.334 -4.33301 32.001 -13s13 -19.334 13 -32.001c0 -13.333 -4.33301 -24.333 -13 -33s-19.334 -13 -32.001 -13s-23.334 4.5 -32.001 13.5z" />
    <glyph glyph-name="guillemotright" unicode="&#xbb;" horiz-adv-x="508" 
d="M187 300l-109 200h59l106 -194v-12l-106 -194h-59zM375 300l-109 200h59l106 -194v-12l-106 -194h-59z" />
    <glyph glyph-name="questiondown" unicode="&#xbf;" horiz-adv-x="568" 
d="M325 493.5c8.66699 -9 13 -19.833 13 -32.5s-4.33301 -23.334 -13 -32.001s-19.334 -13 -32.001 -13s-23.334 4.33301 -32.001 13s-13 19.334 -13 32.001s4.33301 23.5 13 32.5s19.334 13.5 32.001 13.5s23.334 -4.5 32.001 -13.5zM325 289
c0 -43.333 -9.50098 -77.834 -28.501 -103.501s-45.5 -50.167 -79.5 -73.5c-32 -22 -56.167 -43.167 -72.5 -63.5s-24.5 -45.833 -24.5 -76.5c0 -43.333 15.833 -76.666 47.5 -99.999s71.167 -35 118.5 -35c58 0 102.167 16.667 132.5 50s45.833 78.666 46.5 135.999h56
c0 -47.333 -9.5 -89 -28.5 -125s-46.333 -63.833 -82 -83.5s-77.834 -29.5 -126.501 -29.5c-41.333 0 -78.833 7.33301 -112.5 22s-60.5 36 -80.5 64s-30 61.333 -30 100s9 69.834 27 93.501s43.333 46.834 76 69.501c26.667 19.333 47.334 36 62.001 50
s26.334 30.333 35.001 49s13 41 13 67h50c0.666992 -2.66699 1 -6.33398 1 -11.001z" />
    <glyph glyph-name="Agrave" unicode="&#xc0;" horiz-adv-x="695" 
d="M308 700h79l293 -700h-65l-86 206h-365l-86 -206h-63zM509 257l-162 390h-1l-162 -390h325zM311 785l-67 160h55l66 -160h-54z" />
    <glyph glyph-name="Aacute" unicode="&#xc1;" horiz-adv-x="695" 
d="M308 700h79l293 -700h-65l-86 206h-365l-86 -206h-63zM509 257l-162 390h-1l-162 -390h325zM398 945h54l-67 -160h-53z" />
    <glyph glyph-name="Acircumflex" unicode="&#xc2;" horiz-adv-x="695" 
d="M308 700h79l293 -700h-65l-86 206h-365l-86 -206h-63zM509 257l-162 390h-1l-162 -390h325zM461 785l-113 123l-114 -123h-52l144 160h44l144 -160h-53z" />
    <glyph glyph-name="Atilde" unicode="&#xc3;" horiz-adv-x="695" 
d="M308 700h79l293 -700h-65l-86 206h-365l-86 -206h-63zM509 257l-162 390h-1l-162 -390h325zM186 888c18 16.667 40.667 25 68 25c16.667 0 32.5 -2.16699 47.5 -6.5s32.167 -10.833 51.5 -19.5c18 -7.33301 33.167 -13 45.5 -17s25.166 -6 38.499 -6
c15.333 0 28.333 4.83301 39 14.5s16 21.5 16 35.5h45c0 -28 -9 -50.333 -27 -67s-40.667 -25 -68 -25c-16.667 0 -32.5 2.16699 -47.5 6.5s-32.167 10.833 -51.5 19.5c-18 7.33301 -33.167 13 -45.5 17s-25.166 6 -38.499 6c-15.333 0 -28.333 -4.83301 -39 -14.5
s-16 -21.5 -16 -35.5h-45c0 28 9 50.333 27 67z" />
    <glyph glyph-name="Adieresis" unicode="&#xc4;" horiz-adv-x="695" 
d="M308 700h79l293 -700h-65l-86 206h-365l-86 -206h-63zM509 257l-162 390h-1l-162 -390h325zM244 945h72l-32 -168h-9zM380 945h72l-32 -168h-9z" />
    <glyph glyph-name="Aring" unicode="&#xc5;" horiz-adv-x="695" 
d="M308 700h79l293 -700h-65l-86 206h-365l-86 -206h-63zM509 257l-162 390h-1l-162 -390h325zM259.5 812.5c-24.333 24.333 -36.5 53.8311 -36.5 88.498s12.167 64.334 36.5 89.001s53.833 37 88.5 37c22.667 0 43.5 -5.66699 62.5 -17s34.167 -26.666 45.5 -45.999
s17 -40.333 17 -63c0 -34.667 -12.167 -64.167 -36.5 -88.5s-53.833 -36.5 -88.5 -36.5s-64.167 12.167 -88.5 36.5zM406.5 842.498c16.333 16.333 24.5 35.833 24.5 58.5c0 23.333 -8.16699 43.166 -24.5 59.499s-35.833 24.5 -58.5 24.5c-23.333 0 -43 -8.16699 -59 -24.5
s-24 -36.166 -24 -59.499s8 -43 24 -59s35.667 -24 59 -24c22.667 0 42.167 8.16699 58.5 24.5z" />
    <glyph glyph-name="AE" unicode="&#xc6;" horiz-adv-x="1022" 
d="M655 54h333v-54h-374l-87 206h-363l-87 -206h-62l293 700h636v-54h-531l110 -270h332v-51h-311zM181 257h329l-163 390h-2z" />
    <glyph glyph-name="Ccedilla" unicode="&#xc7;" horiz-adv-x="818" 
d="M237.5 32c-54.333 31.333 -96.8311 74.668 -127.498 130.001s-46 118 -46 188s15.333 132.667 46 188s73.167 98.666 127.5 129.999s115.833 47 184.5 47c60 0 114.167 -11.833 162.5 -35.5s87.833 -57.167 118.5 -100.5s49.667 -93.333 57 -150h-60
c-12 70 -42.833 125.667 -92.5 167s-111.167 62 -184.5 62c-58 0 -109.5 -13 -154.5 -39s-80.167 -62.333 -105.5 -109s-38 -100 -38 -160c0 -59.333 12.667 -112.5 38 -159.5s60.666 -83.5 105.999 -109.5s96.666 -39 153.999 -39c74 0 135.667 20.667 185 62s80 97 92 167
h60c-8 -56.667 -27.333 -106.667 -58 -150s-70 -76.833 -118 -100.5s-102 -35.5 -162 -35.5c-68.667 0 -130.167 15.667 -184.5 47zM383.002 -244.998h-54l67 160h53z" />
    <glyph glyph-name="Egrave" unicode="&#xc8;" horiz-adv-x="608" 
d="M128 700h402v-54h-343v-269h252v-54h-252v-269h387v-54h-446v700zM292 785l-67 160h55l66 -160h-54z" />
    <glyph glyph-name="Eacute" unicode="&#xc9;" horiz-adv-x="608" 
d="M128 700h402v-54h-343v-269h252v-54h-252v-269h387v-54h-446v700zM379 945h54l-67 -160h-53z" />
    <glyph glyph-name="Ecircumflex" unicode="&#xca;" horiz-adv-x="608" 
d="M128 700h402v-54h-343v-269h252v-54h-252v-269h387v-54h-446v700zM442 785l-113 123l-114 -123h-52l144 160h44l144 -160h-53z" />
    <glyph glyph-name="Edieresis" unicode="&#xcb;" horiz-adv-x="608" 
d="M128 700h402v-54h-343v-269h252v-54h-252v-269h387v-54h-446v700zM225 945h72l-32 -168h-9zM361 945h72l-32 -168h-9z" />
    <glyph glyph-name="Igrave" unicode="&#xcc;" horiz-adv-x="316" 
d="M128 700h60v-700h-60v700zM121 785l-67 160h55l66 -160h-54z" />
    <glyph glyph-name="Iacute" unicode="&#xcd;" horiz-adv-x="316" 
d="M128 700h60v-700h-60v700zM208 945h54l-67 -160h-53z" />
    <glyph glyph-name="Icircumflex" unicode="&#xce;" horiz-adv-x="316" 
d="M128 700h60v-700h-60v700zM271 785l-113 123l-114 -123h-52l144 160h44l144 -160h-53z" />
    <glyph glyph-name="Idieresis" unicode="&#xcf;" horiz-adv-x="316" 
d="M128 700h60v-700h-60v700zM54 945h72l-32 -168h-9zM190 945h72l-32 -168h-9z" />
    <glyph glyph-name="Eth" unicode="&#xd0;" horiz-adv-x="770" 
d="M527.5 656c56.333 -29.333 100.166 -70.5 131.499 -123.5s47 -113.833 47 -182.5s-15.667 -129.5 -47 -182.5s-75.166 -94.167 -131.499 -123.5s-120.833 -44 -193.5 -44h-206v326h-79v48h79v326h206c72.667 0 137.167 -14.667 193.5 -44zM497.5 93.5
c47 24.333 83.333 58.668 109 103.001s38.5 95.5 38.5 153.5s-12.833 109.167 -38.5 153.5s-62 78.666 -109 102.999s-101.5 36.5 -163.5 36.5h-146v-269h166v-48h-166v-269h146c62 0 116.5 12.167 163.5 36.5z" />
    <glyph glyph-name="Ntilde" unicode="&#xd1;" horiz-adv-x="840" 
d="M128 700h65l462 -614v614h57v-700h-64l-462 614v-614h-58v700zM258 888c18 16.667 40.667 25 68 25c16.667 0 32.5 -2.16699 47.5 -6.5s32.167 -10.833 51.5 -19.5c18 -7.33301 33.167 -13 45.5 -17s25.166 -6 38.499 -6c15.333 0 28.333 4.83301 39 14.5
s16 21.5 16 35.5h45c0 -28 -9 -50.333 -27 -67s-40.667 -25 -68 -25c-16.667 0 -32.5 2.16699 -47.5 6.5s-32.167 10.833 -51.5 19.5c-18 7.33301 -33.167 13 -45.5 17s-25.166 6 -38.499 6c-15.333 0 -28.333 -4.83301 -39 -14.5s-16 -21.5 -16 -35.5h-45
c0 28 9 50.333 27 67z" />
    <glyph glyph-name="Ograve" unicode="&#xd2;" horiz-adv-x="852" 
d="M241 32.5c-55.333 31.667 -98.666 75.334 -129.999 131.001s-47 117.834 -47 186.501s15.667 130.834 47 186.501s74.666 99.334 129.999 131.001s117 47.5 185 47.5s129.667 -15.833 185 -47.5s98.666 -75.334 129.999 -131.001s47 -117.834 47 -186.501
s-15.667 -130.834 -47 -186.501s-74.666 -99.334 -129.999 -131.001s-117 -47.5 -185 -47.5s-129.667 15.833 -185 47.5zM580 82c46 26.667 82.167 63.5 108.5 110.5s39.5 99.5 39.5 157.5s-13.167 110.5 -39.5 157.5s-62.5 83.833 -108.5 110.5s-97.333 40 -154 40
s-108 -13.333 -154 -40s-82 -63.5 -108 -110.5s-39 -99.5 -39 -157.5s13 -110.5 39 -157.5s62 -83.833 108 -110.5s97.333 -40 154 -40s108 13.333 154 40zM389 785l-67 160h55l66 -160h-54z" />
    <glyph glyph-name="Oacute" unicode="&#xd3;" horiz-adv-x="852" 
d="M241 32.5c-55.333 31.667 -98.666 75.334 -129.999 131.001s-47 117.834 -47 186.501s15.667 130.834 47 186.501s74.666 99.334 129.999 131.001s117 47.5 185 47.5s129.667 -15.833 185 -47.5s98.666 -75.334 129.999 -131.001s47 -117.834 47 -186.501
s-15.667 -130.834 -47 -186.501s-74.666 -99.334 -129.999 -131.001s-117 -47.5 -185 -47.5s-129.667 15.833 -185 47.5zM580 82c46 26.667 82.167 63.5 108.5 110.5s39.5 99.5 39.5 157.5s-13.167 110.5 -39.5 157.5s-62.5 83.833 -108.5 110.5s-97.333 40 -154 40
s-108 -13.333 -154 -40s-82 -63.5 -108 -110.5s-39 -99.5 -39 -157.5s13 -110.5 39 -157.5s62 -83.833 108 -110.5s97.333 -40 154 -40s108 13.333 154 40zM476 945h54l-67 -160h-53z" />
    <glyph glyph-name="Ocircumflex" unicode="&#xd4;" horiz-adv-x="852" 
d="M241 32.5c-55.333 31.667 -98.666 75.334 -129.999 131.001s-47 117.834 -47 186.501s15.667 130.834 47 186.501s74.666 99.334 129.999 131.001s117 47.5 185 47.5s129.667 -15.833 185 -47.5s98.666 -75.334 129.999 -131.001s47 -117.834 47 -186.501
s-15.667 -130.834 -47 -186.501s-74.666 -99.334 -129.999 -131.001s-117 -47.5 -185 -47.5s-129.667 15.833 -185 47.5zM580 82c46 26.667 82.167 63.5 108.5 110.5s39.5 99.5 39.5 157.5s-13.167 110.5 -39.5 157.5s-62.5 83.833 -108.5 110.5s-97.333 40 -154 40
s-108 -13.333 -154 -40s-82 -63.5 -108 -110.5s-39 -99.5 -39 -157.5s13 -110.5 39 -157.5s62 -83.833 108 -110.5s97.333 -40 154 -40s108 13.333 154 40zM539 785l-113 123l-114 -123h-52l144 160h44l144 -160h-53z" />
    <glyph glyph-name="Otilde" unicode="&#xd5;" horiz-adv-x="852" 
d="M241 32.5c-55.333 31.667 -98.666 75.334 -129.999 131.001s-47 117.834 -47 186.501s15.667 130.834 47 186.501s74.666 99.334 129.999 131.001s117 47.5 185 47.5s129.667 -15.833 185 -47.5s98.666 -75.334 129.999 -131.001s47 -117.834 47 -186.501
s-15.667 -130.834 -47 -186.501s-74.666 -99.334 -129.999 -131.001s-117 -47.5 -185 -47.5s-129.667 15.833 -185 47.5zM580 82c46 26.667 82.167 63.5 108.5 110.5s39.5 99.5 39.5 157.5s-13.167 110.5 -39.5 157.5s-62.5 83.833 -108.5 110.5s-97.333 40 -154 40
s-108 -13.333 -154 -40s-82 -63.5 -108 -110.5s-39 -99.5 -39 -157.5s13 -110.5 39 -157.5s62 -83.833 108 -110.5s97.333 -40 154 -40s108 13.333 154 40zM264 888c18 16.667 40.667 25 68 25c16.667 0 32.5 -2.16699 47.5 -6.5s32.167 -10.833 51.5 -19.5
c18 -7.33301 33.167 -13 45.5 -17s25.166 -6 38.499 -6c15.333 0 28.333 4.83301 39 14.5s16 21.5 16 35.5h45c0 -28 -9 -50.333 -27 -67s-40.667 -25 -68 -25c-16.667 0 -32.5 2.16699 -47.5 6.5s-32.167 10.833 -51.5 19.5c-18 7.33301 -33.167 13 -45.5 17
s-25.166 6 -38.499 6c-15.333 0 -28.333 -4.83301 -39 -14.5s-16 -21.5 -16 -35.5h-45c0 28 9 50.333 27 67z" />
    <glyph glyph-name="Odieresis" unicode="&#xd6;" horiz-adv-x="852" 
d="M241 32.5c-55.333 31.667 -98.666 75.334 -129.999 131.001s-47 117.834 -47 186.501s15.667 130.834 47 186.501s74.666 99.334 129.999 131.001s117 47.5 185 47.5s129.667 -15.833 185 -47.5s98.666 -75.334 129.999 -131.001s47 -117.834 47 -186.501
s-15.667 -130.834 -47 -186.501s-74.666 -99.334 -129.999 -131.001s-117 -47.5 -185 -47.5s-129.667 15.833 -185 47.5zM580 82c46 26.667 82.167 63.5 108.5 110.5s39.5 99.5 39.5 157.5s-13.167 110.5 -39.5 157.5s-62.5 83.833 -108.5 110.5s-97.333 40 -154 40
s-108 -13.333 -154 -40s-82 -63.5 -108 -110.5s-39 -99.5 -39 -157.5s13 -110.5 39 -157.5s62 -83.833 108 -110.5s97.333 -40 154 -40s108 13.333 154 40zM322 945h72l-32 -168h-9zM458 945h72l-32 -168h-9z" />
    <glyph glyph-name="multiply" unicode="&#xd7;" horiz-adv-x="560" 
d="M101 207l143 143l-143 143l36 36l143 -143l143 143l36 -36l-143 -143l143 -143l-36 -36l-143 143l-143 -143z" />
    <glyph glyph-name="Oslash" unicode="&#xd8;" horiz-adv-x="852" 
d="M303 5.5c-38.667 13.667 -73.333 32.834 -104 57.501l-59 -63h-68l88 96c-30.667 33.333 -54.334 71.666 -71.001 114.999s-25 89.666 -25 138.999c0 68.667 15.667 130.834 47 186.501s74.666 99.334 129.999 131.001s117 47.5 185 47.5
c43.333 0 84.333 -6.83301 123 -20.5s73.667 -32.834 105 -57.501l58 63h68l-88 -96c30.667 -33.333 54.334 -71.666 71.001 -114.999s25 -89.666 25 -138.999c0 -68.667 -15.667 -130.834 -47 -186.501s-74.666 -99.334 -129.999 -131.001s-117 -47.5 -185 -47.5
c-43.333 0 -84.333 6.83301 -123 20.5zM426.001 660c-57.333 0 -109.167 -13.5 -155.5 -40.5s-82.5 -64 -108.5 -111s-39 -99.833 -39 -158.5c0 -40.667 6.66699 -79 20 -115s32 -67.667 56 -95l417 454c-54.667 44 -118 66 -190 66zM581 80.5
c46 27 82.168 63.998 108.501 110.998s39.5 99.833 39.5 158.5c0 40.667 -6.5 78.834 -19.5 114.501s-31.5 67.167 -55.5 94.5l-418 -453c25.333 -21.333 54.166 -37.666 86.499 -48.999s66.833 -17 103.5 -17c57.333 0 109 13.5 155 40.5z" />
    <glyph glyph-name="Ugrave" unicode="&#xd9;" horiz-adv-x="819" 
d="M252 24c-45.333 26 -80.333 62.667 -105 110s-37 102.333 -37 165v401h60v-400c0 -79.333 21.5 -142.166 64.5 -188.499s101.5 -69.5 175.5 -69.5c73.333 0 131.5 23.167 174.5 69.5s64.5 109.166 64.5 188.499v400h60v-401c0 -62.667 -12.333 -117.667 -37 -165
s-59.5 -84 -104.5 -110s-97.5 -39 -157.5 -39s-112.667 13 -158 39zM373 785l-67 160h55l66 -160h-54z" />
    <glyph glyph-name="Uacute" unicode="&#xda;" horiz-adv-x="819" 
d="M252 24c-45.333 26 -80.333 62.667 -105 110s-37 102.333 -37 165v401h60v-400c0 -79.333 21.5 -142.166 64.5 -188.499s101.5 -69.5 175.5 -69.5c73.333 0 131.5 23.167 174.5 69.5s64.5 109.166 64.5 188.499v400h60v-401c0 -62.667 -12.333 -117.667 -37 -165
s-59.5 -84 -104.5 -110s-97.5 -39 -157.5 -39s-112.667 13 -158 39zM460 945h54l-67 -160h-53z" />
    <glyph glyph-name="Ucircumflex" unicode="&#xdb;" horiz-adv-x="819" 
d="M252 24c-45.333 26 -80.333 62.667 -105 110s-37 102.333 -37 165v401h60v-400c0 -79.333 21.5 -142.166 64.5 -188.499s101.5 -69.5 175.5 -69.5c73.333 0 131.5 23.167 174.5 69.5s64.5 109.166 64.5 188.499v400h60v-401c0 -62.667 -12.333 -117.667 -37 -165
s-59.5 -84 -104.5 -110s-97.5 -39 -157.5 -39s-112.667 13 -158 39zM523 785l-113 123l-114 -123h-52l144 160h44l144 -160h-53z" />
    <glyph glyph-name="Udieresis" unicode="&#xdc;" horiz-adv-x="819" 
d="M252 24c-45.333 26 -80.333 62.667 -105 110s-37 102.333 -37 165v401h60v-400c0 -79.333 21.5 -142.166 64.5 -188.499s101.5 -69.5 175.5 -69.5c73.333 0 131.5 23.167 174.5 69.5s64.5 109.166 64.5 188.499v400h60v-401c0 -62.667 -12.333 -117.667 -37 -165
s-59.5 -84 -104.5 -110s-97.5 -39 -157.5 -39s-112.667 13 -158 39zM306 945h72l-32 -168h-9zM442 945h72l-32 -168h-9z" />
    <glyph glyph-name="Yacute" unicode="&#xdd;" horiz-adv-x="676" 
d="M308 266l-303 434h72l263 -374l262 374h69l-303 -434v-266h-60v266zM388 945h54l-67 -160h-53z" />
    <glyph glyph-name="Thorn" unicode="&#xde;" horiz-adv-x="645" 
d="M187 700v-136h146c80.667 0 144.167 -18.667 190.5 -56s69.5 -88.333 69.5 -153s-23.167 -115.667 -69.5 -153s-109.833 -56 -190.5 -56h-146v-146h-59v700h59zM480.5 239.5c35 27.667 52.5 65.832 52.5 114.499s-17.5 86.834 -52.5 114.501s-83.833 41.5 -146.5 41.5
h-147v-312h147c62.667 0 111.5 13.833 146.5 41.5z" />
    <glyph glyph-name="germandbls" unicode="&#xdf;" horiz-adv-x="761" 
d="M46 450l-0.00195312 49.998h105v59c0 54.667 19.667 98.5 59 131.5s92.666 49.5 159.999 49.5c66.667 0 119.667 -16.167 159 -48.5s59 -76.5 59 -132.5v-95c-27.333 2 -50.666 3 -69.999 3c-39.333 0 -74.5 -7.66699 -105.5 -23s-46.5 -40 -46.5 -74
c0 -20 7 -35.833 21 -47.5s31.167 -20.167 51.5 -25.5s50.166 -11.666 89.499 -18.999c45.333 -8.66699 82 -17.5 110 -26.5s51.333 -22.833 70 -41.5s28 -43.667 28 -75c0 -33.333 -10.167 -61 -30.5 -83s-46 -38 -77 -48s-62.833 -15 -95.5 -15
c-60 0 -111.333 14.5 -154 43.5s-67.667 72.167 -75 129.5h51c7.33301 -42 27.5 -73.5 60.5 -94.5s72.167 -31.5 117.5 -31.5c36.667 0 70.834 7.5 102.501 22.5s47.5 39.167 47.5 72.5c0 22.667 -7.16699 40 -21.5 52s-31.666 20.667 -51.999 26s-53.166 12 -98.499 20
c-60 10 -107.667 24.833 -143 44.5s-53 51.167 -53 94.5c0 48.667 19.667 84.5 59 107.5s84.333 34.833 135 35.5h26v47c0 42.667 -15 75.334 -45 98.001s-70 34 -120 34c-50.667 0 -91 -11.833 -121 -35.5s-45 -58.167 -45 -103.5l1 -87v-664h-54v650h-105z" />
    <glyph glyph-name="agrave" unicode="&#xe0;" horiz-adv-x="606" 
d="M95 24.5c-28.667 24.333 -43 56.832 -43 97.499c0 52 23.833 89.667 71.5 113s110.834 37.666 189.501 42.999c42.667 2.66699 74.834 7.66699 96.501 15s32.5 19 32.5 35c0 40 -14.5 72.667 -43.5 98s-66.167 38 -111.5 38c-44.667 0 -81.834 -12.167 -111.501 -36.5
s-48.5 -58.166 -56.5 -101.499h-52c9.33301 56.667 33.5 101.5 72.5 134.5s88.5 49.5 148.5 49.5c62.667 0 112.667 -18.167 150 -54.5s56 -84.833 56 -145.5v-261h74v-49h-121v117c-18.667 -39.333 -48.834 -70.666 -90.501 -93.999s-88.5 -35 -140.5 -35
s-92.333 12.167 -121 36.5zM335.5 60.499c33.667 17.667 60.166 41.668 79.499 72.001s29 63.5 29 99.5v33c-16.667 -15.333 -60 -25.333 -130 -30c-72.667 -4.66699 -125.5 -15.834 -158.5 -33.501s-49.5 -43.167 -49.5 -76.5c0 -29.333 10.5 -51.833 31.5 -67.5
s49.833 -23.5 86.5 -23.5c40.667 0 77.834 8.83301 111.501 26.5zM248.999 585l-67 160h55l66 -160h-54z" />
    <glyph glyph-name="aacute" unicode="&#xe1;" horiz-adv-x="606" 
d="M95 24.5c-28.667 24.333 -43 56.832 -43 97.499c0 52 23.833 89.667 71.5 113s110.834 37.666 189.501 42.999c42.667 2.66699 74.834 7.66699 96.501 15s32.5 19 32.5 35c0 40 -14.5 72.667 -43.5 98s-66.167 38 -111.5 38c-44.667 0 -81.834 -12.167 -111.501 -36.5
s-48.5 -58.166 -56.5 -101.499h-52c9.33301 56.667 33.5 101.5 72.5 134.5s88.5 49.5 148.5 49.5c62.667 0 112.667 -18.167 150 -54.5s56 -84.833 56 -145.5v-261h74v-49h-121v117c-18.667 -39.333 -48.834 -70.666 -90.501 -93.999s-88.5 -35 -140.5 -35
s-92.333 12.167 -121 36.5zM335.5 60.499c33.667 17.667 60.166 41.668 79.499 72.001s29 63.5 29 99.5v33c-16.667 -15.333 -60 -25.333 -130 -30c-72.667 -4.66699 -125.5 -15.834 -158.5 -33.501s-49.5 -43.167 -49.5 -76.5c0 -29.333 10.5 -51.833 31.5 -67.5
s49.833 -23.5 86.5 -23.5c40.667 0 77.834 8.83301 111.501 26.5zM335.999 745h54l-67 -160h-53z" />
    <glyph glyph-name="acircumflex" unicode="&#xe2;" horiz-adv-x="606" 
d="M95 24.5c-28.667 24.333 -43 56.832 -43 97.499c0 52 23.833 89.667 71.5 113s110.834 37.666 189.501 42.999c42.667 2.66699 74.834 7.66699 96.501 15s32.5 19 32.5 35c0 40 -14.5 72.667 -43.5 98s-66.167 38 -111.5 38c-44.667 0 -81.834 -12.167 -111.501 -36.5
s-48.5 -58.166 -56.5 -101.499h-52c9.33301 56.667 33.5 101.5 72.5 134.5s88.5 49.5 148.5 49.5c62.667 0 112.667 -18.167 150 -54.5s56 -84.833 56 -145.5v-261h74v-49h-121v117c-18.667 -39.333 -48.834 -70.666 -90.501 -93.999s-88.5 -35 -140.5 -35
s-92.333 12.167 -121 36.5zM335.5 60.499c33.667 17.667 60.166 41.668 79.499 72.001s29 63.5 29 99.5v33c-16.667 -15.333 -60 -25.333 -130 -30c-72.667 -4.66699 -125.5 -15.834 -158.5 -33.501s-49.5 -43.167 -49.5 -76.5c0 -29.333 10.5 -51.833 31.5 -67.5
s49.833 -23.5 86.5 -23.5c40.667 0 77.834 8.83301 111.501 26.5zM398.999 585l-113 123l-114 -123h-52l144 160h44l144 -160h-53z" />
    <glyph glyph-name="atilde" unicode="&#xe3;" horiz-adv-x="606" 
d="M95 24.5c-28.667 24.333 -43 56.832 -43 97.499c0 52 23.833 89.667 71.5 113s110.834 37.666 189.501 42.999c42.667 2.66699 74.834 7.66699 96.501 15s32.5 19 32.5 35c0 40 -14.5 72.667 -43.5 98s-66.167 38 -111.5 38c-44.667 0 -81.834 -12.167 -111.501 -36.5
s-48.5 -58.166 -56.5 -101.499h-52c9.33301 56.667 33.5 101.5 72.5 134.5s88.5 49.5 148.5 49.5c62.667 0 112.667 -18.167 150 -54.5s56 -84.833 56 -145.5v-261h74v-49h-121v117c-18.667 -39.333 -48.834 -70.666 -90.501 -93.999s-88.5 -35 -140.5 -35
s-92.333 12.167 -121 36.5zM335.5 60.499c33.667 17.667 60.166 41.668 79.499 72.001s29 63.5 29 99.5v33c-16.667 -15.333 -60 -25.333 -130 -30c-72.667 -4.66699 -125.5 -15.834 -158.5 -33.501s-49.5 -43.167 -49.5 -76.5c0 -29.333 10.5 -51.833 31.5 -67.5
s49.833 -23.5 86.5 -23.5c40.667 0 77.834 8.83301 111.501 26.5zM123.999 688c18 16.667 40.667 25 68 25c16.667 0 32.5 -2.16699 47.5 -6.5s32.167 -10.833 51.5 -19.5c18 -7.33301 33.167 -13 45.5 -17s25.166 -6 38.499 -6c15.333 0 28.333 4.83301 39 14.5
s16 21.5 16 35.5h45c0 -28 -9 -50.333 -27 -67s-40.667 -25 -68 -25c-16.667 0 -32.5 2.16699 -47.5 6.5s-32.167 10.833 -51.5 19.5c-18 7.33301 -33.167 13 -45.5 17s-25.166 6 -38.499 6c-15.333 0 -28.333 -4.83301 -39 -14.5s-16 -21.5 -16 -35.5h-45
c0 28 9 50.333 27 67z" />
    <glyph glyph-name="adieresis" unicode="&#xe4;" horiz-adv-x="606" 
d="M95 24.5c-28.667 24.333 -43 56.832 -43 97.499c0 52 23.833 89.667 71.5 113s110.834 37.666 189.501 42.999c42.667 2.66699 74.834 7.66699 96.501 15s32.5 19 32.5 35c0 40 -14.5 72.667 -43.5 98s-66.167 38 -111.5 38c-44.667 0 -81.834 -12.167 -111.501 -36.5
s-48.5 -58.166 -56.5 -101.499h-52c9.33301 56.667 33.5 101.5 72.5 134.5s88.5 49.5 148.5 49.5c62.667 0 112.667 -18.167 150 -54.5s56 -84.833 56 -145.5v-261h74v-49h-121v117c-18.667 -39.333 -48.834 -70.666 -90.501 -93.999s-88.5 -35 -140.5 -35
s-92.333 12.167 -121 36.5zM335.5 60.499c33.667 17.667 60.166 41.668 79.499 72.001s29 63.5 29 99.5v33c-16.667 -15.333 -60 -25.333 -130 -30c-72.667 -4.66699 -125.5 -15.834 -158.5 -33.501s-49.5 -43.167 -49.5 -76.5c0 -29.333 10.5 -51.833 31.5 -67.5
s49.833 -23.5 86.5 -23.5c40.667 0 77.834 8.83301 111.501 26.5zM181.999 745h72l-32 -168h-9zM317.999 745h72l-32 -168h-9z" />
    <glyph glyph-name="aring" unicode="&#xe5;" horiz-adv-x="606" 
d="M95 24.5c-28.667 24.333 -43 56.832 -43 97.499c0 52 23.833 89.667 71.5 113s110.834 37.666 189.501 42.999c42.667 2.66699 74.834 7.66699 96.501 15s32.5 19 32.5 35c0 40 -14.5 72.667 -43.5 98s-66.167 38 -111.5 38c-44.667 0 -81.834 -12.167 -111.501 -36.5
s-48.5 -58.166 -56.5 -101.499h-52c9.33301 56.667 33.5 101.5 72.5 134.5s88.5 49.5 148.5 49.5c62.667 0 112.667 -18.167 150 -54.5s56 -84.833 56 -145.5v-261h74v-49h-121v117c-18.667 -39.333 -48.834 -70.666 -90.501 -93.999s-88.5 -35 -140.5 -35
s-92.333 12.167 -121 36.5zM335.5 60.499c33.667 17.667 60.166 41.668 79.499 72.001s29 63.5 29 99.5v33c-16.667 -15.333 -60 -25.333 -130 -30c-72.667 -4.66699 -125.5 -15.834 -158.5 -33.501s-49.5 -43.167 -49.5 -76.5c0 -29.333 10.5 -51.833 31.5 -67.5
s49.833 -23.5 86.5 -23.5c40.667 0 77.834 8.83301 111.501 26.5zM197.499 612.5c-24.333 24.333 -36.5 53.8311 -36.5 88.498s12.167 64.334 36.5 89.001s53.833 37 88.5 37c22.667 0 43.5 -5.66699 62.5 -17s34.167 -26.666 45.5 -45.999s17 -40.333 17 -63
c0 -34.667 -12.167 -64.167 -36.5 -88.5s-53.833 -36.5 -88.5 -36.5s-64.167 12.167 -88.5 36.5zM344.499 642.498c16.333 16.333 24.5 35.833 24.5 58.5c0 23.333 -8.16699 43.166 -24.5 59.499s-35.833 24.5 -58.5 24.5c-23.333 0 -43 -8.16699 -59 -24.5
s-24 -36.166 -24 -59.499s8 -43 24 -59s35.667 -24 59 -24c22.667 0 42.167 8.16699 58.5 24.5z" />
    <glyph glyph-name="ae" unicode="&#xe6;" horiz-adv-x="1006" 
d="M96.5 24.5c-29.667 24.333 -44.5029 56.832 -44.5029 97.499c0 52 23.833 89.667 71.5 113s110.834 37.666 189.501 42.999c42.667 2.66699 74.834 7.66699 96.501 15s32.5 19 32.5 35c0 40 -14.5 72.667 -43.5 98s-66.167 38 -111.5 38
c-44.667 0 -81.834 -12.167 -111.501 -36.5s-48.5 -58.166 -56.5 -101.499h-52c9.33301 56.667 33.5 101.5 72.5 134.5s88.5 49.5 148.5 49.5c49.333 0 90.833 -11.667 124.5 -35s56.167 -55.666 67.5 -96.999c20.667 40 50.834 72 90.501 96s83.834 36 132.501 36
c48 0 91.667 -11.333 131 -34s70.333 -53.667 93 -93s34 -83 34 -131c0 -10 -0.333008 -17.333 -1 -22h-465c2 -36 12.5 -68.5 31.5 -97.5s44.167 -52 75.5 -69s66 -25.5 104 -25.5c42 0 79.5 9.83301 112.5 29.5s56.167 45.5 69.5 77.5h54
c-13.333 -45.333 -41.833 -82.5 -85.5 -111.5s-94.5 -43.5 -152.5 -43.5c-54 0 -102 13.833 -144 41.5s-72.667 64.5 -92 110.5c-16 -46.667 -46.5 -84 -91.5 -112s-95.833 -42 -152.5 -42c-55.333 0 -97.833 12.167 -127.5 36.5zM874.497 371.499
c-18.333 28.333 -42.501 50.5 -72.501 66.5s-63 24 -99 24s-69.167 -8 -99.5 -24s-55 -38.167 -74 -66.5s-30.167 -60.166 -33.5 -95.499h411c-3.33301 35.333 -14.166 67.166 -32.499 95.499zM335.496 60.499c33.667 17.667 60.166 41.668 79.499 72.001s29 63.5 29 99.5
v33c-16.667 -15.333 -60 -25.333 -130 -30c-72.667 -4.66699 -125.5 -15.834 -158.5 -33.501s-49.5 -43.167 -49.5 -76.5c0 -29.333 10.5 -51.833 31.5 -67.5s49.833 -23.5 86.5 -23.5c40.667 0 77.834 8.83301 111.501 26.5z" />
    <glyph glyph-name="ccedilla" unicode="&#xe7;" horiz-adv-x="602" 
d="M176.5 24c-39.667 22.667 -70.6689 53.832 -93.002 93.499s-33.5 83.834 -33.5 132.501s11.333 92.834 34 132.501s53.834 70.834 93.501 93.501s83.834 34 132.501 34c66 0 121 -17.833 165 -53.5s71 -83.5 81 -143.5h-53c-10.667 45.333 -33 81.166 -67 107.499
s-76 39.5 -126 39.5c-38.667 0 -73.667 -9.16699 -105 -27.5s-56 -43.5 -74 -75.5s-27 -67.667 -27 -107s9 -75 27 -107s42.667 -57.167 74 -75.5s66.333 -27.5 105 -27.5c50 0 92.167 13.167 126.5 39.5s56.5 62.166 66.5 107.499h53c-10.667 -60 -38 -107.833 -82 -143.5
s-98.667 -53.5 -164 -53.5c-49.333 0 -93.833 11.333 -133.5 34zM269.998 -245.002h-54l67 160h53z" />
    <glyph glyph-name="egrave" unicode="&#xe8;" horiz-adv-x="615" 
d="M178 24c-40 22.667 -71.333 53.666 -94 92.999s-34 83.333 -34 132s11.5 92.834 34.5 132.501s54.5 71 94.5 94s84.333 34.5 133 34.5c48 0 91.667 -11.333 131 -34s70.333 -53.667 93 -93s34 -83 34 -131c0 -10 -0.333008 -17.333 -1 -22h-465
c2 -36 12.5 -68.5 31.5 -97.5s44.167 -52 75.5 -69s66 -25.5 104 -25.5c42 0 79.5 9.83301 112.5 29.5s56.167 45.5 69.5 77.5h54c-13.333 -45.333 -41.833 -82.5 -85.5 -111.5s-94.5 -43.5 -152.5 -43.5c-50 0 -95 11.333 -135 34zM483.5 371.499
c-18.333 28.333 -42.501 50.5 -72.501 66.5s-63 24 -99 24s-69.167 -8 -99.5 -24s-55 -38.167 -74 -66.5s-30.167 -60.166 -33.5 -95.499h411c-3.33301 35.333 -14.166 67.166 -32.499 95.499zM266.999 584.999l-67 160h55l66 -160h-54z" />
    <glyph glyph-name="eacute" unicode="&#xe9;" horiz-adv-x="615" 
d="M178 24c-40 22.667 -71.333 53.666 -94 92.999s-34 83.333 -34 132s11.5 92.834 34.5 132.501s54.5 71 94.5 94s84.333 34.5 133 34.5c48 0 91.667 -11.333 131 -34s70.333 -53.667 93 -93s34 -83 34 -131c0 -10 -0.333008 -17.333 -1 -22h-465
c2 -36 12.5 -68.5 31.5 -97.5s44.167 -52 75.5 -69s66 -25.5 104 -25.5c42 0 79.5 9.83301 112.5 29.5s56.167 45.5 69.5 77.5h54c-13.333 -45.333 -41.833 -82.5 -85.5 -111.5s-94.5 -43.5 -152.5 -43.5c-50 0 -95 11.333 -135 34zM483.5 371.499
c-18.333 28.333 -42.501 50.5 -72.501 66.5s-63 24 -99 24s-69.167 -8 -99.5 -24s-55 -38.167 -74 -66.5s-30.167 -60.166 -33.5 -95.499h411c-3.33301 35.333 -14.166 67.166 -32.499 95.499zM353.999 744.999h54l-67 -160h-53z" />
    <glyph glyph-name="ecircumflex" unicode="&#xea;" horiz-adv-x="615" 
d="M178 24c-40 22.667 -71.333 53.666 -94 92.999s-34 83.333 -34 132s11.5 92.834 34.5 132.501s54.5 71 94.5 94s84.333 34.5 133 34.5c48 0 91.667 -11.333 131 -34s70.333 -53.667 93 -93s34 -83 34 -131c0 -10 -0.333008 -17.333 -1 -22h-465
c2 -36 12.5 -68.5 31.5 -97.5s44.167 -52 75.5 -69s66 -25.5 104 -25.5c42 0 79.5 9.83301 112.5 29.5s56.167 45.5 69.5 77.5h54c-13.333 -45.333 -41.833 -82.5 -85.5 -111.5s-94.5 -43.5 -152.5 -43.5c-50 0 -95 11.333 -135 34zM483.5 371.499
c-18.333 28.333 -42.501 50.5 -72.501 66.5s-63 24 -99 24s-69.167 -8 -99.5 -24s-55 -38.167 -74 -66.5s-30.167 -60.166 -33.5 -95.499h411c-3.33301 35.333 -14.166 67.166 -32.499 95.499zM416.999 584.999l-113 123l-114 -123h-52l144 160h44l144 -160h-53z" />
    <glyph glyph-name="edieresis" unicode="&#xeb;" horiz-adv-x="615" 
d="M178 24c-40 22.667 -71.333 53.666 -94 92.999s-34 83.333 -34 132s11.5 92.834 34.5 132.501s54.5 71 94.5 94s84.333 34.5 133 34.5c48 0 91.667 -11.333 131 -34s70.333 -53.667 93 -93s34 -83 34 -131c0 -10 -0.333008 -17.333 -1 -22h-465
c2 -36 12.5 -68.5 31.5 -97.5s44.167 -52 75.5 -69s66 -25.5 104 -25.5c42 0 79.5 9.83301 112.5 29.5s56.167 45.5 69.5 77.5h54c-13.333 -45.333 -41.833 -82.5 -85.5 -111.5s-94.5 -43.5 -152.5 -43.5c-50 0 -95 11.333 -135 34zM483.5 371.499
c-18.333 28.333 -42.501 50.5 -72.501 66.5s-63 24 -99 24s-69.167 -8 -99.5 -24s-55 -38.167 -74 -66.5s-30.167 -60.166 -33.5 -95.499h411c-3.33301 35.333 -14.166 67.166 -32.499 95.499zM199.999 744.999h72l-32 -168h-9zM335.999 744.999h72l-32 -168h-9z" />
    <glyph glyph-name="igrave" unicode="&#xec;" horiz-adv-x="258" 
d="M102 500h54v-500h-54v500zM92 585l-67 160h55l66 -160h-54z" />
    <glyph glyph-name="iacute" unicode="&#xed;" horiz-adv-x="258" 
d="M102 500h54v-500h-54v500zM179 745h54l-67 -160h-53z" />
    <glyph glyph-name="icircumflex" unicode="&#xee;" horiz-adv-x="258" 
d="M102 500h54v-500h-54v500zM242 585l-113 123l-114 -123h-52l144 160h44l144 -160h-53z" />
    <glyph glyph-name="idieresis" unicode="&#xef;" horiz-adv-x="258" 
d="M102 500h54v-500h-54v500zM25 745h72l-32 -168h-9zM161 745h72l-32 -168h-9z" />
    <glyph glyph-name="eth" unicode="&#xf0;" horiz-adv-x="628" 
d="M179.5 24c-40.333 22.667 -72.0029 53.835 -95.0029 93.502s-34.5 83.5 -34.5 131.5s11.5 91.833 34.5 131.5s54.5 70.834 94.5 93.501s84.333 34 133 34c38 0 72.667 -8.66699 104 -26c-1.33301 1.33301 -6.66602 8.66602 -15.999 21.999l-54 72h-171v44h139l-67 90h62
l68 -90h141v-44h-110l109 -145c18 -25.333 32.667 -53.5 44 -84.5s17 -63.167 17 -96.5c0 -48.667 -11.5 -92.834 -34.5 -132.501s-54.667 -70.834 -95 -93.501s-85.166 -34 -134.499 -34s-94.166 11.333 -134.499 34zM420.497 68.501c31.667 18.333 56.667 43.5 75 75.5
s27.5 67.333 27.5 106s-9.16699 74 -27.5 106s-43.333 57.167 -75 75.5s-67.167 27.5 -106.5 27.5c-38.667 0 -74 -9.16699 -106 -27.5s-57.167 -43.5 -75.5 -75.5s-27.5 -67.333 -27.5 -106s9.16699 -74 27.5 -106s43.5 -57.167 75.5 -75.5s67.333 -27.5 106 -27.5
c39.333 0 74.833 9.16699 106.5 27.5z" />
    <glyph glyph-name="ntilde" unicode="&#xf1;" horiz-adv-x="660" 
d="M153 500v-113.003c18 38 44.167 68 78.5 90s72.833 33 115.5 33c68 0 121.833 -21.667 161.5 -65s59.5 -102.666 59.5 -177.999v-267h-54v260c0 62 -15.5 110.667 -46.5 146s-73.5 53 -127.5 53c-34 0 -65.167 -8.66699 -93.5 -26s-50.5 -41.166 -66.5 -71.499
s-24 -64.166 -24 -101.499v-260h-54v500h51zM176 687.997c18 16.667 40.667 25 68 25c16.667 0 32.5 -2.16699 47.5 -6.5s32.167 -10.833 51.5 -19.5c18 -7.33301 33.167 -13 45.5 -17s25.166 -6 38.499 -6c15.333 0 28.333 4.83301 39 14.5s16 21.5 16 35.5h45
c0 -28 -9 -50.333 -27 -67s-40.667 -25 -68 -25c-16.667 0 -32.5 2.16699 -47.5 6.5s-32.167 10.833 -51.5 19.5c-18 7.33301 -33.167 13 -45.5 17s-25.166 6 -38.499 6c-15.333 0 -28.333 -4.83301 -39 -14.5s-16 -21.5 -16 -35.5h-45c0 28 9 50.333 27 67z" />
    <glyph glyph-name="ograve" unicode="&#xf2;" horiz-adv-x="628" 
d="M179.5 24c-40.333 22.667 -72 53.834 -95 93.501s-34.5 83.834 -34.5 132.501c0 48 11.667 91.833 35 131.5s55.166 71 95.499 94s84.833 34.5 133.5 34.5c49.333 0 94.166 -11.333 134.499 -34s72 -53.834 95 -93.501s34.5 -83.834 34.5 -132.501
c0 -48 -11.667 -91.833 -35 -131.5s-55.166 -71 -95.499 -94s-84.833 -34.5 -133.5 -34.5c-49.333 0 -94.166 11.333 -134.499 34zM421 67.5c32 18.333 57 43.5 75 75.5s27 67.667 27 107s-9 75 -27 107s-43 57.167 -75 75.5s-67.667 27.5 -107 27.5
s-75 -9.16699 -107 -27.5s-57 -43.5 -75 -75.5s-27 -67.667 -27 -107s9.16699 -75 27.5 -107s43.333 -57.167 75 -75.5s67.167 -27.5 106.5 -27.5s75 9.16699 107 27.5zM277 585l-67 160h55l66 -160h-54z" />
    <glyph glyph-name="oacute" unicode="&#xf3;" horiz-adv-x="628" 
d="M179.5 24c-40.333 22.667 -72 53.834 -95 93.501s-34.5 83.834 -34.5 132.501c0 48 11.667 91.833 35 131.5s55.166 71 95.499 94s84.833 34.5 133.5 34.5c49.333 0 94.166 -11.333 134.499 -34s72 -53.834 95 -93.501s34.5 -83.834 34.5 -132.501
c0 -48 -11.667 -91.833 -35 -131.5s-55.166 -71 -95.499 -94s-84.833 -34.5 -133.5 -34.5c-49.333 0 -94.166 11.333 -134.499 34zM421 67.5c32 18.333 57 43.5 75 75.5s27 67.667 27 107s-9 75 -27 107s-43 57.167 -75 75.5s-67.667 27.5 -107 27.5
s-75 -9.16699 -107 -27.5s-57 -43.5 -75 -75.5s-27 -67.667 -27 -107s9.16699 -75 27.5 -107s43.333 -57.167 75 -75.5s67.167 -27.5 106.5 -27.5s75 9.16699 107 27.5zM364 745h54l-67 -160h-53z" />
    <glyph glyph-name="ocircumflex" unicode="&#xf4;" horiz-adv-x="628" 
d="M179.5 24c-40.333 22.667 -72 53.834 -95 93.501s-34.5 83.834 -34.5 132.501c0 48 11.667 91.833 35 131.5s55.166 71 95.499 94s84.833 34.5 133.5 34.5c49.333 0 94.166 -11.333 134.499 -34s72 -53.834 95 -93.501s34.5 -83.834 34.5 -132.501
c0 -48 -11.667 -91.833 -35 -131.5s-55.166 -71 -95.499 -94s-84.833 -34.5 -133.5 -34.5c-49.333 0 -94.166 11.333 -134.499 34zM421 67.5c32 18.333 57 43.5 75 75.5s27 67.667 27 107s-9 75 -27 107s-43 57.167 -75 75.5s-67.667 27.5 -107 27.5
s-75 -9.16699 -107 -27.5s-57 -43.5 -75 -75.5s-27 -67.667 -27 -107s9.16699 -75 27.5 -107s43.333 -57.167 75 -75.5s67.167 -27.5 106.5 -27.5s75 9.16699 107 27.5zM427 585l-113 123l-114 -123h-52l144 160h44l144 -160h-53z" />
    <glyph glyph-name="otilde" unicode="&#xf5;" horiz-adv-x="628" 
d="M179.5 24c-40.333 22.667 -72 53.834 -95 93.501s-34.5 83.834 -34.5 132.501c0 48 11.667 91.833 35 131.5s55.166 71 95.499 94s84.833 34.5 133.5 34.5c49.333 0 94.166 -11.333 134.499 -34s72 -53.834 95 -93.501s34.5 -83.834 34.5 -132.501
c0 -48 -11.667 -91.833 -35 -131.5s-55.166 -71 -95.499 -94s-84.833 -34.5 -133.5 -34.5c-49.333 0 -94.166 11.333 -134.499 34zM421 67.5c32 18.333 57 43.5 75 75.5s27 67.667 27 107s-9 75 -27 107s-43 57.167 -75 75.5s-67.667 27.5 -107 27.5
s-75 -9.16699 -107 -27.5s-57 -43.5 -75 -75.5s-27 -67.667 -27 -107s9.16699 -75 27.5 -107s43.333 -57.167 75 -75.5s67.167 -27.5 106.5 -27.5s75 9.16699 107 27.5zM152 688c18 16.667 40.667 25 68 25c16.667 0 32.5 -2.16699 47.5 -6.5s32.167 -10.833 51.5 -19.5
c18 -7.33301 33.167 -13 45.5 -17s25.166 -6 38.499 -6c15.333 0 28.333 4.83301 39 14.5s16 21.5 16 35.5h45c0 -28 -9 -50.333 -27 -67s-40.667 -25 -68 -25c-16.667 0 -32.5 2.16699 -47.5 6.5s-32.167 10.833 -51.5 19.5c-18 7.33301 -33.167 13 -45.5 17
s-25.166 6 -38.499 6c-15.333 0 -28.333 -4.83301 -39 -14.5s-16 -21.5 -16 -35.5h-45c0 28 9 50.333 27 67z" />
    <glyph glyph-name="odieresis" unicode="&#xf6;" horiz-adv-x="628" 
d="M179.5 24c-40.333 22.667 -72 53.834 -95 93.501s-34.5 83.834 -34.5 132.501c0 48 11.667 91.833 35 131.5s55.166 71 95.499 94s84.833 34.5 133.5 34.5c49.333 0 94.166 -11.333 134.499 -34s72 -53.834 95 -93.501s34.5 -83.834 34.5 -132.501
c0 -48 -11.667 -91.833 -35 -131.5s-55.166 -71 -95.499 -94s-84.833 -34.5 -133.5 -34.5c-49.333 0 -94.166 11.333 -134.499 34zM421 67.5c32 18.333 57 43.5 75 75.5s27 67.667 27 107s-9 75 -27 107s-43 57.167 -75 75.5s-67.667 27.5 -107 27.5
s-75 -9.16699 -107 -27.5s-57 -43.5 -75 -75.5s-27 -67.667 -27 -107s9.16699 -75 27.5 -107s43.333 -57.167 75 -75.5s67.167 -27.5 106.5 -27.5s75 9.16699 107 27.5zM210 745h72l-32 -168h-9zM346 745h72l-32 -168h-9z" />
    <glyph glyph-name="divide" unicode="&#xf7;" horiz-adv-x="560" 
d="M248 503c-8.66699 8.66699 -12.998 19.332 -12.998 31.999s4.33301 23.334 13 32.001s19.334 13 32.001 13c13.333 0 24.166 -4.16699 32.499 -12.5s12.5 -19.166 12.5 -32.499c0 -12.667 -4.33301 -23.334 -13 -32.001s-19.334 -13 -32.001 -13
s-23.334 4.33301 -32.001 13zM72.002 374.998h416v-50h-416v50zM248.002 132.998c-8.66699 8.66699 -13 19.334 -13 32.001s4.33301 23.334 13 32.001s19.334 13 32.001 13s23.334 -4.33301 32.001 -13s13 -19.334 13 -32.001s-4.33301 -23.334 -13 -32.001
s-19.334 -13 -32.001 -13s-23.334 4.33301 -32.001 13z" />
    <glyph glyph-name="oslash" unicode="&#xf8;" horiz-adv-x="628" 
d="M155 42l-39 -42h-59l64 70c-22.667 23.333 -40.167 50.5 -52.5 81.5s-18.5 63.833 -18.5 98.5c0 48 11.667 91.833 35 131.5s55.166 71 95.499 94s84.833 34.5 133.5 34.5c60.667 0 113.667 -17.333 159 -52l40 42h58l-64 -70c22.667 -23.333 40.167 -50.333 52.5 -81
s18.5 -63.667 18.5 -99c0 -48 -11.667 -91.833 -35 -131.5s-55.166 -71 -95.499 -94s-84.833 -34.5 -133.5 -34.5c-60.667 0 -113.667 17.333 -159 52zM314 460c-40 0 -75.999 -9 -107.999 -27s-57.167 -43 -75.5 -75s-27.5 -68 -27.5 -108c0 -26.667 4.5 -52 13.5 -76
s21.833 -45.333 38.5 -64l284 309c-34.667 27.333 -76.334 41 -125.001 41zM422.001 67.5c32 18.333 57.167 43.5 75.5 75.5s27.5 67.667 27.5 107c0 27.333 -4.5 53 -13.5 77s-21.5 45 -37.5 63l-285 -309c36 -27.333 77.667 -41 125 -41c40 0 76 9.16699 108 27.5z" />
    <glyph glyph-name="ugrave" unicode="&#xf9;" horiz-adv-x="660" 
d="M151.5 55c-39.667 43.333 -59.5 102.669 -59.5 178.002v267h54v-260c0 -62 15.5 -110.667 46.5 -146s73.5 -53 127.5 -53c34 0 65.167 8.66699 93.5 26s50.5 41.166 66.5 71.499s24 64.166 24 101.499v260h54v-500h-51v113c-18 -38 -44.167 -68 -78.5 -90
s-72.833 -33 -115.5 -33c-68 0 -121.833 21.667 -161.5 65zM283 585.003l-67 160h55l66 -160h-54z" />
    <glyph glyph-name="uacute" unicode="&#xfa;" horiz-adv-x="660" 
d="M151.5 55c-39.667 43.333 -59.5 102.669 -59.5 178.002v267h54v-260c0 -62 15.5 -110.667 46.5 -146s73.5 -53 127.5 -53c34 0 65.167 8.66699 93.5 26s50.5 41.166 66.5 71.499s24 64.166 24 101.499v260h54v-500h-51v113c-18 -38 -44.167 -68 -78.5 -90
s-72.833 -33 -115.5 -33c-68 0 -121.833 21.667 -161.5 65zM370 745.003h54l-67 -160h-53z" />
    <glyph glyph-name="ucircumflex" unicode="&#xfb;" horiz-adv-x="660" 
d="M151.5 55c-39.667 43.333 -59.5 102.669 -59.5 178.002v267h54v-260c0 -62 15.5 -110.667 46.5 -146s73.5 -53 127.5 -53c34 0 65.167 8.66699 93.5 26s50.5 41.166 66.5 71.499s24 64.166 24 101.499v260h54v-500h-51v113c-18 -38 -44.167 -68 -78.5 -90
s-72.833 -33 -115.5 -33c-68 0 -121.833 21.667 -161.5 65zM433 585.003l-113 123l-114 -123h-52l144 160h44l144 -160h-53z" />
    <glyph glyph-name="udieresis" unicode="&#xfc;" horiz-adv-x="660" 
d="M151.5 55c-39.667 43.333 -59.5 102.669 -59.5 178.002v267h54v-260c0 -62 15.5 -110.667 46.5 -146s73.5 -53 127.5 -53c34 0 65.167 8.66699 93.5 26s50.5 41.166 66.5 71.499s24 64.166 24 101.499v260h54v-500h-51v113c-18 -38 -44.167 -68 -78.5 -90
s-72.833 -33 -115.5 -33c-68 0 -121.833 21.667 -161.5 65zM216 745.003h72l-32 -168h-9zM352 745.003h72l-32 -168h-9z" />
    <glyph glyph-name="yacute" unicode="&#xfd;" horiz-adv-x="551" 
d="M67.5 -167.5c-29 28.333 -43.5 67.501 -43.5 117.501v27h51v-30c0 -33.333 9.5 -59.833 28.5 -79.5s44.167 -29.5 75.5 -29.5c30.667 0 55.167 9.5 73.5 28.5s27.5 44.833 27.5 77.5v14c0 16 -1.16699 30.167 -3.5 42.5s-6.83301 24.5 -13.5 36.5l-250 463h62l216 -407
c6 -9.33301 10 -21.333 12 -36c3.33301 14.667 7 26.667 11 36l171 407h57l-192 -451c-6 -14.667 -10.333 -27.834 -13 -39.501s-4 -25.167 -4 -40.5v-24c0 -47.333 -14.333 -85 -43 -113s-66 -42 -112 -42c-44.667 0 -81.5 14.167 -110.5 42.5zM331 745.001h54l-67 -160
h-53z" />
    <glyph glyph-name="thorn" unicode="&#xfe;" horiz-adv-x="662" 
d="M156 710l-0.000976562 -326c19.333 38.667 47 69.334 83 92.001s77.333 34 124 34s88.834 -11.333 126.501 -34s67.5 -53.834 89.5 -93.501s33 -83.834 33 -132.501c0 -48 -11 -91.833 -33 -131.5s-52 -71 -90 -94s-80 -34.5 -126 -34.5c-46.667 0 -88 11.333 -124 34
s-63.667 53.334 -83 92.001v-316h-54v910h54zM457.999 67.5c30.667 18.333 54.834 43.5 72.501 75.5s26.5 67.667 26.5 107s-8.83301 75 -26.5 107s-41.834 57.167 -72.501 75.5s-64.667 27.5 -102 27.5s-71.333 -9.16699 -102 -27.5s-54.834 -43.5 -72.501 -75.5
s-26.5 -67.667 -26.5 -107s8.83301 -75 26.5 -107s41.834 -57.167 72.501 -75.5s64.667 -27.5 102 -27.5s71.333 9.16699 102 27.5z" />
    <glyph glyph-name="ydieresis" unicode="&#xff;" horiz-adv-x="551" 
d="M67.5 -167.5c-29 28.333 -43.5 67.501 -43.5 117.501v27h51v-30c0 -33.333 9.5 -59.833 28.5 -79.5s44.167 -29.5 75.5 -29.5c30.667 0 55.167 9.5 73.5 28.5s27.5 44.833 27.5 77.5v14c0 16 -1.16699 30.167 -3.5 42.5s-6.83301 24.5 -13.5 36.5l-250 463h62l216 -407
c6 -9.33301 10 -21.333 12 -36c3.33301 14.667 7 26.667 11 36l171 407h57l-192 -451c-6 -14.667 -10.333 -27.834 -13 -39.501s-4 -25.167 -4 -40.5v-24c0 -47.333 -14.333 -85 -43 -113s-66 -42 -112 -42c-44.667 0 -81.5 14.167 -110.5 42.5zM177 745.001h72l-32 -168h-9
zM313 745.001h72l-32 -168h-9z" />
    <glyph glyph-name="Amacron" unicode="&#x100;" horiz-adv-x="695" 
d="M308 700h79l293 -700h-65l-86 206h-365l-86 -206h-63zM509 257l-162 390h-1l-162 -390h325zM508 894v-48h-320v48h320z" />
    <glyph glyph-name="amacron" unicode="&#x101;" horiz-adv-x="606" 
d="M95 24.5c-28.667 24.333 -43 56.832 -43 97.499c0 52 23.833 89.667 71.5 113s110.834 37.666 189.501 42.999c42.667 2.66699 74.834 7.66699 96.501 15s32.5 19 32.5 35c0 40 -14.5 72.667 -43.5 98s-66.167 38 -111.5 38c-44.667 0 -81.834 -12.167 -111.501 -36.5
s-48.5 -58.166 -56.5 -101.499h-52c9.33301 56.667 33.5 101.5 72.5 134.5s88.5 49.5 148.5 49.5c62.667 0 112.667 -18.167 150 -54.5s56 -84.833 56 -145.5v-261h74v-49h-121v117c-18.667 -39.333 -48.834 -70.666 -90.501 -93.999s-88.5 -35 -140.5 -35
s-92.333 12.167 -121 36.5zM335.5 60.499c33.667 17.667 60.166 41.668 79.499 72.001s29 63.5 29 99.5v33c-16.667 -15.333 -60 -25.333 -130 -30c-72.667 -4.66699 -125.5 -15.834 -158.5 -33.501s-49.5 -43.167 -49.5 -76.5c0 -29.333 10.5 -51.833 31.5 -67.5
s49.833 -23.5 86.5 -23.5c40.667 0 77.834 8.83301 111.501 26.5zM445.999 694v-48h-320v48h320z" />
    <glyph glyph-name="Abreve" unicode="&#x102;" horiz-adv-x="695" 
d="M308 700h79l293 -700h-65l-86 206h-365l-86 -206h-63zM509 257l-162 390h-1l-162 -390h325zM218.5 820.5c-32.333 29.667 -48.5 68.5 -48.5 116.5v8h47v-8c0 -35.333 11.667 -63.5 35 -84.5s55.333 -31.5 96 -31.5s72.667 10.5 96 31.5s35 49.167 35 84.5v8h48v-8
c0 -48 -16.333 -86.833 -49 -116.5s-76 -44.5 -130 -44.5s-97.167 14.833 -129.5 44.5z" />
    <glyph glyph-name="abreve" unicode="&#x103;" horiz-adv-x="606" 
d="M95 24.5c-28.667 24.333 -43 56.832 -43 97.499c0 52 23.833 89.667 71.5 113s110.834 37.666 189.501 42.999c42.667 2.66699 74.834 7.66699 96.501 15s32.5 19 32.5 35c0 40 -14.5 72.667 -43.5 98s-66.167 38 -111.5 38c-44.667 0 -81.834 -12.167 -111.501 -36.5
s-48.5 -58.166 -56.5 -101.499h-52c9.33301 56.667 33.5 101.5 72.5 134.5s88.5 49.5 148.5 49.5c62.667 0 112.667 -18.167 150 -54.5s56 -84.833 56 -145.5v-261h74v-49h-121v117c-18.667 -39.333 -48.834 -70.666 -90.501 -93.999s-88.5 -35 -140.5 -35
s-92.333 12.167 -121 36.5zM335.5 60.499c33.667 17.667 60.166 41.668 79.499 72.001s29 63.5 29 99.5v33c-16.667 -15.333 -60 -25.333 -130 -30c-72.667 -4.66699 -125.5 -15.834 -158.5 -33.501s-49.5 -43.167 -49.5 -76.5c0 -29.333 10.5 -51.833 31.5 -67.5
s49.833 -23.5 86.5 -23.5c40.667 0 77.834 8.83301 111.501 26.5zM156.499 620.5c-32.333 29.667 -48.5 68.5 -48.5 116.5v8h47v-8c0 -35.333 11.667 -63.5 35 -84.5s55.333 -31.5 96 -31.5s72.667 10.5 96 31.5s35 49.167 35 84.5v8h48v-8
c0 -48 -16.333 -86.833 -49 -116.5s-76 -44.5 -130 -44.5s-97.167 14.833 -129.5 44.5z" />
    <glyph glyph-name="Aogonek" unicode="&#x104;" horiz-adv-x="695" 
d="M308 700h79l293 -700h-65l-86 206h-365l-86 -206h-63zM509 257l-162 390h-1l-162 -390h325zM614 -245h-54l67 160h53z" />
    <glyph glyph-name="aogonek" unicode="&#x105;" horiz-adv-x="606" 
d="M95 24.5c-28.667 24.333 -43 56.832 -43 97.499c0 52 23.833 89.667 71.5 113s110.834 37.666 189.501 42.999c42.667 2.66699 74.834 7.66699 96.501 15s32.5 19 32.5 35c0 40 -14.5 72.667 -43.5 98s-66.167 38 -111.5 38c-44.667 0 -81.834 -12.167 -111.501 -36.5
s-48.5 -58.166 -56.5 -101.499h-52c9.33301 56.667 33.5 101.5 72.5 134.5s88.5 49.5 148.5 49.5c62.667 0 112.667 -18.167 150 -54.5s56 -84.833 56 -145.5v-261h74v-49h-121v117c-18.667 -39.333 -48.834 -70.666 -90.501 -93.999s-88.5 -35 -140.5 -35
s-92.333 12.167 -121 36.5zM335.5 60.499c33.667 17.667 60.166 41.668 79.499 72.001s29 63.5 29 99.5v33c-16.667 -15.333 -60 -25.333 -130 -30c-72.667 -4.66699 -125.5 -15.834 -158.5 -33.501s-49.5 -43.167 -49.5 -76.5c0 -29.333 10.5 -51.833 31.5 -67.5
s49.833 -23.5 86.5 -23.5c40.667 0 77.834 8.83301 111.501 26.5zM502.999 -245h-54l67 160h53z" />
    <glyph glyph-name="Cacute" unicode="&#x106;" horiz-adv-x="818" 
d="M237.5 32c-54.333 31.333 -96.8311 74.668 -127.498 130.001s-46 118 -46 188s15.333 132.667 46 188s73.167 98.666 127.5 129.999s115.833 47 184.5 47c60 0 114.167 -11.833 162.5 -35.5s87.833 -57.167 118.5 -100.5s49.667 -93.333 57 -150h-60
c-12 70 -42.833 125.667 -92.5 167s-111.167 62 -184.5 62c-58 0 -109.5 -13 -154.5 -39s-80.167 -62.333 -105.5 -109s-38 -100 -38 -160c0 -59.333 12.667 -112.5 38 -159.5s60.666 -83.5 105.999 -109.5s96.666 -39 153.999 -39c74 0 135.667 20.667 185 62s80 97 92 167
h60c-8 -56.667 -27.333 -106.667 -58 -150s-70 -76.833 -118 -100.5s-102 -35.5 -162 -35.5c-68.667 0 -130.167 15.667 -184.5 47zM473.002 945.002h54l-67 -160h-53z" />
    <glyph glyph-name="cacute" unicode="&#x107;" horiz-adv-x="602" 
d="M176.5 24c-39.667 22.667 -70.6689 53.832 -93.002 93.499s-33.5 83.834 -33.5 132.501s11.333 92.834 34 132.501s53.834 70.834 93.501 93.501s83.834 34 132.501 34c66 0 121 -17.833 165 -53.5s71 -83.5 81 -143.5h-53c-10.667 45.333 -33 81.166 -67 107.499
s-76 39.5 -126 39.5c-38.667 0 -73.667 -9.16699 -105 -27.5s-56 -43.5 -74 -75.5s-27 -67.667 -27 -107s9 -75 27 -107s42.667 -57.167 74 -75.5s66.333 -27.5 105 -27.5c50 0 92.167 13.167 126.5 39.5s56.5 62.166 66.5 107.499h53c-10.667 -60 -38 -107.833 -82 -143.5
s-98.667 -53.5 -164 -53.5c-49.333 0 -93.833 11.333 -133.5 34zM359.998 744.998h54l-67 -160h-53z" />
    <glyph glyph-name="Cdotaccent" unicode="&#x10a;" horiz-adv-x="818" 
d="M237.5 32c-54.333 31.333 -96.8311 74.668 -127.498 130.001s-46 118 -46 188s15.333 132.667 46 188s73.167 98.666 127.5 129.999s115.833 47 184.5 47c60 0 114.167 -11.833 162.5 -35.5s87.833 -57.167 118.5 -100.5s49.667 -93.333 57 -150h-60
c-12 70 -42.833 125.667 -92.5 167s-111.167 62 -184.5 62c-58 0 -109.5 -13 -154.5 -39s-80.167 -62.333 -105.5 -109s-38 -100 -38 -160c0 -59.333 12.667 -112.5 38 -159.5s60.666 -83.5 105.999 -109.5s96.666 -39 153.999 -39c74 0 135.667 20.667 185 62s80 97 92 167
h60c-8 -56.667 -27.333 -106.667 -58 -150s-70 -76.833 -118 -100.5s-102 -35.5 -162 -35.5c-68.667 0 -130.167 15.667 -184.5 47zM383.002 945.002h80l-35 -168h-10z" />
    <glyph glyph-name="cdotaccent" unicode="&#x10b;" horiz-adv-x="602" 
d="M176.5 24c-39.667 22.667 -70.6689 53.832 -93.002 93.499s-33.5 83.834 -33.5 132.501s11.333 92.834 34 132.501s53.834 70.834 93.501 93.501s83.834 34 132.501 34c66 0 121 -17.833 165 -53.5s71 -83.5 81 -143.5h-53c-10.667 45.333 -33 81.166 -67 107.499
s-76 39.5 -126 39.5c-38.667 0 -73.667 -9.16699 -105 -27.5s-56 -43.5 -74 -75.5s-27 -67.667 -27 -107s9 -75 27 -107s42.667 -57.167 74 -75.5s66.333 -27.5 105 -27.5c50 0 92.167 13.167 126.5 39.5s56.5 62.166 66.5 107.499h53c-10.667 -60 -38 -107.833 -82 -143.5
s-98.667 -53.5 -164 -53.5c-49.333 0 -93.833 11.333 -133.5 34zM269.998 744.998h80l-35 -168h-10z" />
    <glyph glyph-name="Ccaron" unicode="&#x10c;" horiz-adv-x="818" 
d="M237.5 32c-54.333 31.333 -96.8311 74.668 -127.498 130.001s-46 118 -46 188s15.333 132.667 46 188s73.167 98.666 127.5 129.999s115.833 47 184.5 47c60 0 114.167 -11.833 162.5 -35.5s87.833 -57.167 118.5 -100.5s49.667 -93.333 57 -150h-60
c-12 70 -42.833 125.667 -92.5 167s-111.167 62 -184.5 62c-58 0 -109.5 -13 -154.5 -39s-80.167 -62.333 -105.5 -109s-38 -100 -38 -160c0 -59.333 12.667 -112.5 38 -159.5s60.666 -83.5 105.999 -109.5s96.666 -39 153.999 -39c74 0 135.667 20.667 185 62s80 97 92 167
h60c-8 -56.667 -27.333 -106.667 -58 -150s-70 -76.833 -118 -100.5s-102 -35.5 -162 -35.5c-68.667 0 -130.167 15.667 -184.5 47zM310.002 945.002l113 -123l114 123h52l-144 -160h-44l-144 160h53z" />
    <glyph glyph-name="ccaron" unicode="&#x10d;" horiz-adv-x="602" 
d="M176.5 24c-39.667 22.667 -70.6689 53.832 -93.002 93.499s-33.5 83.834 -33.5 132.501s11.333 92.834 34 132.501s53.834 70.834 93.501 93.501s83.834 34 132.501 34c66 0 121 -17.833 165 -53.5s71 -83.5 81 -143.5h-53c-10.667 45.333 -33 81.166 -67 107.499
s-76 39.5 -126 39.5c-38.667 0 -73.667 -9.16699 -105 -27.5s-56 -43.5 -74 -75.5s-27 -67.667 -27 -107s9 -75 27 -107s42.667 -57.167 74 -75.5s66.333 -27.5 105 -27.5c50 0 92.167 13.167 126.5 39.5s56.5 62.166 66.5 107.499h53c-10.667 -60 -38 -107.833 -82 -143.5
s-98.667 -53.5 -164 -53.5c-49.333 0 -93.833 11.333 -133.5 34zM196.998 744.998l113 -123l114 123h52l-144 -160h-44l-144 160h53z" />
    <glyph glyph-name="Dcaron" unicode="&#x10e;" horiz-adv-x="770" 
d="M334 700c72.667 0 137.167 -14.667 193.5 -44s100.166 -70.5 131.499 -123.5s47 -113.833 47 -182.5s-15.667 -129.5 -47 -182.5s-75.166 -94.167 -131.499 -123.5s-120.833 -44 -193.5 -44h-206v700h206zM497.5 93.5c47 24.333 83.333 58.668 109 103.001
s38.5 95.5 38.5 153.5s-12.833 109.167 -38.5 153.5s-62 78.666 -109 102.999s-101.5 36.5 -163.5 36.5h-146v-586h146c62 0 116.5 12.167 163.5 36.5zM223 945.002l113 -123l114 123h52l-144 -160h-44l-144 160h53z" />
    <glyph glyph-name="dcaron" unicode="&#x10f;" horiz-adv-x="662" 
d="M172.5 24c-37.667 22.667 -67.498 53.833 -89.498 93.5s-33 83.834 -33 132.501c0 48 11 91.833 33 131.5s52 71 90 94s80 34.5 126 34.5c46.667 0 88 -11.333 124 -34s63.667 -53.334 83 -92.001v326h54v-710h-51v120c-18.667 -40 -46.334 -71.667 -83.001 -95
s-79 -35 -127 -35c-46.667 0 -88.834 11.333 -126.501 34zM408.002 67.499c30.667 18.333 54.834 43.5 72.501 75.5s26.5 67.667 26.5 107s-8.83301 75 -26.5 107s-41.834 57.167 -72.501 75.5s-64.667 27.5 -102 27.5s-71.333 -9.16699 -102 -27.5
s-54.834 -43.5 -72.501 -75.5s-26.5 -67.667 -26.5 -107s8.83301 -75 26.5 -107s41.834 -57.167 72.501 -75.5s64.667 -27.5 102 -27.5s71.333 9.16699 102 27.5zM628.002 709.999h50l-4 -160h-46v160z" />
    <glyph glyph-name="Dcroat" unicode="&#x110;" horiz-adv-x="770" 
d="M527.5 656c56.333 -29.333 100.166 -70.5 131.499 -123.5s47 -113.833 47 -182.5s-15.667 -129.5 -47 -182.5s-75.166 -94.167 -131.499 -123.5s-120.833 -44 -193.5 -44h-206v326h-79v48h79v326h206c72.667 0 137.167 -14.667 193.5 -44zM497.5 93.5
c47 24.333 83.333 58.668 109 103.001s38.5 95.5 38.5 153.5s-12.833 109.167 -38.5 153.5s-62 78.666 -109 102.999s-101.5 36.5 -163.5 36.5h-146v-269h166v-48h-166v-269h146c62 0 116.5 12.167 163.5 36.5z" />
    <glyph glyph-name="dcroat" unicode="&#x111;" horiz-adv-x="662" 
d="M560 578l0.00195312 -578.001h-51v120c-18.667 -40 -46.334 -71.667 -83.001 -95s-79 -35 -127 -35c-46.667 0 -88.834 11.333 -126.501 34s-67.5 53.834 -89.5 93.501s-33 83.834 -33 132.501c0 48 11 91.833 33 131.5s52 71 90 94s80 34.5 126 34.5
c46.667 0 88 -11.333 124 -34s63.667 -53.334 83 -92.001v194h-206v44h206v88h54v-88h76v-44h-76zM408.002 67.499c30.667 18.333 54.834 43.5 72.501 75.5s26.5 67.667 26.5 107s-8.83301 75 -26.5 107s-41.834 57.167 -72.501 75.5s-64.667 27.5 -102 27.5
s-71.333 -9.16699 -102 -27.5s-54.834 -43.5 -72.501 -75.5s-26.5 -67.667 -26.5 -107s8.83301 -75 26.5 -107s41.834 -57.167 72.501 -75.5s64.667 -27.5 102 -27.5s71.333 9.16699 102 27.5z" />
    <glyph glyph-name="Emacron" unicode="&#x112;" horiz-adv-x="608" 
d="M128 700h402v-54h-343v-269h252v-54h-252v-269h387v-54h-446v700zM489 894v-48h-320v48h320z" />
    <glyph glyph-name="emacron" unicode="&#x113;" horiz-adv-x="615" 
d="M178 24c-40 22.667 -71.333 53.666 -94 92.999s-34 83.333 -34 132s11.5 92.834 34.5 132.501s54.5 71 94.5 94s84.333 34.5 133 34.5c48 0 91.667 -11.333 131 -34s70.333 -53.667 93 -93s34 -83 34 -131c0 -10 -0.333008 -17.333 -1 -22h-465
c2 -36 12.5 -68.5 31.5 -97.5s44.167 -52 75.5 -69s66 -25.5 104 -25.5c42 0 79.5 9.83301 112.5 29.5s56.167 45.5 69.5 77.5h54c-13.333 -45.333 -41.833 -82.5 -85.5 -111.5s-94.5 -43.5 -152.5 -43.5c-50 0 -95 11.333 -135 34zM483.5 371.499
c-18.333 28.333 -42.501 50.5 -72.501 66.5s-63 24 -99 24s-69.167 -8 -99.5 -24s-55 -38.167 -74 -66.5s-30.167 -60.166 -33.5 -95.499h411c-3.33301 35.333 -14.166 67.166 -32.499 95.499zM463.999 693.999v-48h-320v48h320z" />
    <glyph glyph-name="Edotaccent" unicode="&#x116;" horiz-adv-x="608" 
d="M128 700h402v-54h-343v-269h252v-54h-252v-269h387v-54h-446v700zM289 945h80l-35 -168h-10z" />
    <glyph glyph-name="edotaccent" unicode="&#x117;" horiz-adv-x="615" 
d="M178 24c-40 22.667 -71.333 53.666 -94 92.999s-34 83.333 -34 132s11.5 92.834 34.5 132.501s54.5 71 94.5 94s84.333 34.5 133 34.5c48 0 91.667 -11.333 131 -34s70.333 -53.667 93 -93s34 -83 34 -131c0 -10 -0.333008 -17.333 -1 -22h-465
c2 -36 12.5 -68.5 31.5 -97.5s44.167 -52 75.5 -69s66 -25.5 104 -25.5c42 0 79.5 9.83301 112.5 29.5s56.167 45.5 69.5 77.5h54c-13.333 -45.333 -41.833 -82.5 -85.5 -111.5s-94.5 -43.5 -152.5 -43.5c-50 0 -95 11.333 -135 34zM483.5 371.499
c-18.333 28.333 -42.501 50.5 -72.501 66.5s-63 24 -99 24s-69.167 -8 -99.5 -24s-55 -38.167 -74 -66.5s-30.167 -60.166 -33.5 -95.499h411c-3.33301 35.333 -14.166 67.166 -32.499 95.499zM263.999 744.999h80l-35 -168h-10z" />
    <glyph glyph-name="Eogonek" unicode="&#x118;" horiz-adv-x="608" 
d="M128 700h402v-54h-343v-269h252v-54h-252v-269h387v-54h-446v700zM509 -245h-54l67 160h53z" />
    <glyph glyph-name="eogonek" unicode="&#x119;" horiz-adv-x="615" 
d="M178 24c-40 22.667 -71.333 53.666 -94 92.999s-34 83.333 -34 132s11.5 92.834 34.5 132.501s54.5 71 94.5 94s84.333 34.5 133 34.5c48 0 91.667 -11.333 131 -34s70.333 -53.667 93 -93s34 -83 34 -131c0 -10 -0.333008 -17.333 -1 -22h-465
c2 -36 12.5 -68.5 31.5 -97.5s44.167 -52 75.5 -69s66 -25.5 104 -25.5c42 0 79.5 9.83301 112.5 29.5s56.167 45.5 69.5 77.5h54c-13.333 -45.333 -41.833 -82.5 -85.5 -111.5s-94.5 -43.5 -152.5 -43.5c-50 0 -95 11.333 -135 34zM483.5 371.499
c-18.333 28.333 -42.501 50.5 -72.501 66.5s-63 24 -99 24s-69.167 -8 -99.5 -24s-55 -38.167 -74 -66.5s-30.167 -60.166 -33.5 -95.499h411c-3.33301 35.333 -14.166 67.166 -32.499 95.499zM428.999 -245.001h-54l67 160h53z" />
    <glyph glyph-name="Ecaron" unicode="&#x11a;" horiz-adv-x="608" 
d="M128 700h402v-54h-343v-269h252v-54h-252v-269h387v-54h-446v700zM216 945l113 -123l114 123h52l-144 -160h-44l-144 160h53z" />
    <glyph glyph-name="ecaron" unicode="&#x11b;" horiz-adv-x="615" 
d="M178 24c-40 22.667 -71.333 53.666 -94 92.999s-34 83.333 -34 132s11.5 92.834 34.5 132.501s54.5 71 94.5 94s84.333 34.5 133 34.5c48 0 91.667 -11.333 131 -34s70.333 -53.667 93 -93s34 -83 34 -131c0 -10 -0.333008 -17.333 -1 -22h-465
c2 -36 12.5 -68.5 31.5 -97.5s44.167 -52 75.5 -69s66 -25.5 104 -25.5c42 0 79.5 9.83301 112.5 29.5s56.167 45.5 69.5 77.5h54c-13.333 -45.333 -41.833 -82.5 -85.5 -111.5s-94.5 -43.5 -152.5 -43.5c-50 0 -95 11.333 -135 34zM483.5 371.499
c-18.333 28.333 -42.501 50.5 -72.501 66.5s-63 24 -99 24s-69.167 -8 -99.5 -24s-55 -38.167 -74 -66.5s-30.167 -60.166 -33.5 -95.499h411c-3.33301 35.333 -14.166 67.166 -32.499 95.499zM190.999 744.999l113 -123l114 123h52l-144 -160h-44l-144 160h53z" />
    <glyph glyph-name="Gbreve" unicode="&#x11e;" horiz-adv-x="843" 
d="M236 32c-54 31.333 -96.168 74.667 -126.501 130s-45.5 118 -45.5 188c0 70.667 15.333 133.667 46 189s73.334 98.5 128.001 129.5s116.667 46.5 186 46.5c58 0 110.5 -11.167 157.5 -33.5s85.667 -53.833 116 -94.5s50.5 -88 60.5 -142h-62
c-13.333 66 -44.333 118.167 -93 156.5s-108.334 57.5 -179.001 57.5c-58 0 -109.667 -13.167 -155 -39.5s-80.666 -62.833 -105.999 -109.5s-38 -100.334 -38 -161.001c0 -60 12.667 -113.667 38 -161s60.833 -84.166 106.5 -110.499s97.5 -39.5 155.5 -39.5
c52 0 99 11.167 141 33.5s75.667 53.333 101 93s39.333 84.834 42 135.501v12h-272v52h326v-364h-52v165c-24 -56.667 -61.667 -100.834 -113 -132.501s-111 -47.5 -179 -47.5s-129 15.667 -183 47zM294.499 820.501c-32.333 29.667 -48.5 68.5 -48.5 116.5v8h47v-8
c0 -35.333 11.667 -63.5 35 -84.5s55.333 -31.5 96 -31.5s72.667 10.5 96 31.5s35 49.167 35 84.5v8h48v-8c0 -48 -16.333 -86.833 -49 -116.5s-76 -44.5 -130 -44.5s-97.167 14.833 -129.5 44.5z" />
    <glyph glyph-name="gbreve" unicode="&#x11f;" horiz-adv-x="662" 
d="M142.5 -168c-51 28 -76.502 66.334 -76.502 115.001c0 33.333 12.5 61.666 37.5 84.999s60.167 40.333 105.5 51c-60.667 8.66699 -108 22.667 -142 42s-51 49.333 -51 90c0 18 7 34.167 21 48.5s31.667 21.5 53 21.5c14.667 0 25 -1 31 -3c-12.667 20 -19 42 -19 66
c0 50 23.333 89.5 70 118.5s109.667 43.5 189 43.5c78.667 0 141.334 -14.5 188.001 -43.5s70 -68.5 70 -118.5c0 -48.667 -23.333 -87.334 -70 -116.001s-109.334 -43 -188.001 -43c-44 0 -78.5 3.66699 -103.5 11s-50.167 17.333 -75.5 30
c-14.667 7.33301 -27.167 12.833 -37.5 16.5s-22.166 5.5 -35.499 5.5c-12.667 0 -22.834 -3.66699 -30.501 -11s-11.5 -16 -11.5 -26c0 -38 25 -63.667 75 -77s120.667 -21.666 212 -24.999c88 -2.66699 157 -16.167 207 -40.5s75 -64.833 75 -121.5
c0 -32.667 -11.667 -61 -35 -85s-56.666 -42.667 -99.999 -56s-93.666 -20 -150.999 -20c-87.333 0 -156.5 14 -207.5 42zM508.498 264.501c36.333 21 54.502 49.167 54.502 84.5c0 36 -18 64.5 -54 85.5s-85.333 31.5 -148 31.5s-112.334 -10.5 -149.001 -31.5
s-55 -49.5 -55 -85.5c0 -35.333 18.167 -63.5 54.5 -84.5s86.166 -31.5 149.499 -31.5c62 0 111.167 10.5 147.5 31.5zM519 -132.499c41.333 20.333 62 47.833 62 82.5c0 37.333 -19.667 65.833 -59 85.5s-96.666 29.5 -171.999 29.5c-71.333 0 -127.333 -10.333 -168 -31
s-61 -48.667 -61 -84c0 -34.667 20.333 -62.167 61 -82.5s96.667 -30.5 168 -30.5s127.666 10.167 168.999 30.5zM222.5 620.501c-32.333 29.667 -48.5 68.5 -48.5 116.5v8h47v-8c0 -35.333 11.667 -63.5 35 -84.5s55.333 -31.5 96 -31.5s72.667 10.5 96 31.5
s35 49.167 35 84.5v8h48v-8c0 -48 -16.333 -86.833 -49 -116.5s-76 -44.5 -130 -44.5s-97.167 14.833 -129.5 44.5z" />
    <glyph glyph-name="Gdotaccent" unicode="&#x120;" horiz-adv-x="843" 
d="M236 32c-54 31.333 -96.168 74.667 -126.501 130s-45.5 118 -45.5 188c0 70.667 15.333 133.667 46 189s73.334 98.5 128.001 129.5s116.667 46.5 186 46.5c58 0 110.5 -11.167 157.5 -33.5s85.667 -53.833 116 -94.5s50.5 -88 60.5 -142h-62
c-13.333 66 -44.333 118.167 -93 156.5s-108.334 57.5 -179.001 57.5c-58 0 -109.667 -13.167 -155 -39.5s-80.666 -62.833 -105.999 -109.5s-38 -100.334 -38 -161.001c0 -60 12.667 -113.667 38 -161s60.833 -84.166 106.5 -110.499s97.5 -39.5 155.5 -39.5
c52 0 99 11.167 141 33.5s75.667 53.333 101 93s39.333 84.834 42 135.501v12h-272v52h326v-364h-52v165c-24 -56.667 -61.667 -100.834 -113 -132.501s-111 -47.5 -179 -47.5s-129 15.667 -183 47zM383.999 945.001h80l-35 -168h-10z" />
    <glyph glyph-name="gdotaccent" unicode="&#x121;" horiz-adv-x="662" 
d="M142.5 -168c-51 28 -76.502 66.334 -76.502 115.001c0 33.333 12.5 61.666 37.5 84.999s60.167 40.333 105.5 51c-60.667 8.66699 -108 22.667 -142 42s-51 49.333 -51 90c0 18 7 34.167 21 48.5s31.667 21.5 53 21.5c14.667 0 25 -1 31 -3c-12.667 20 -19 42 -19 66
c0 50 23.333 89.5 70 118.5s109.667 43.5 189 43.5c78.667 0 141.334 -14.5 188.001 -43.5s70 -68.5 70 -118.5c0 -48.667 -23.333 -87.334 -70 -116.001s-109.334 -43 -188.001 -43c-44 0 -78.5 3.66699 -103.5 11s-50.167 17.333 -75.5 30
c-14.667 7.33301 -27.167 12.833 -37.5 16.5s-22.166 5.5 -35.499 5.5c-12.667 0 -22.834 -3.66699 -30.501 -11s-11.5 -16 -11.5 -26c0 -38 25 -63.667 75 -77s120.667 -21.666 212 -24.999c88 -2.66699 157 -16.167 207 -40.5s75 -64.833 75 -121.5
c0 -32.667 -11.667 -61 -35 -85s-56.666 -42.667 -99.999 -56s-93.666 -20 -150.999 -20c-87.333 0 -156.5 14 -207.5 42zM508.498 264.501c36.333 21 54.502 49.167 54.502 84.5c0 36 -18 64.5 -54 85.5s-85.333 31.5 -148 31.5s-112.334 -10.5 -149.001 -31.5
s-55 -49.5 -55 -85.5c0 -35.333 18.167 -63.5 54.5 -84.5s86.166 -31.5 149.499 -31.5c62 0 111.167 10.5 147.5 31.5zM519 -132.499c41.333 20.333 62 47.833 62 82.5c0 37.333 -19.667 65.833 -59 85.5s-96.666 29.5 -171.999 29.5c-71.333 0 -127.333 -10.333 -168 -31
s-61 -48.667 -61 -84c0 -34.667 20.333 -62.167 61 -82.5s96.667 -30.5 168 -30.5s127.666 10.167 168.999 30.5zM312 745.001h80l-35 -168h-10z" />
    <glyph glyph-name="uni0122" unicode="&#x122;" horiz-adv-x="843" 
d="M236 32c-54 31.333 -96.168 74.667 -126.501 130s-45.5 118 -45.5 188c0 70.667 15.333 133.667 46 189s73.334 98.5 128.001 129.5s116.667 46.5 186 46.5c58 0 110.5 -11.167 157.5 -33.5s85.667 -53.833 116 -94.5s50.5 -88 60.5 -142h-62
c-13.333 66 -44.333 118.167 -93 156.5s-108.334 57.5 -179.001 57.5c-58 0 -109.667 -13.167 -155 -39.5s-80.666 -62.833 -105.999 -109.5s-38 -100.334 -38 -161.001c0 -60 12.667 -113.667 38 -161s60.833 -84.166 106.5 -110.499s97.5 -39.5 155.5 -39.5
c52 0 99 11.167 141 33.5s75.667 53.333 101 93s39.333 84.834 42 135.501v12h-272v52h326v-364h-52v165c-24 -56.667 -61.667 -100.834 -113 -132.501s-111 -47.5 -179 -47.5s-129 15.667 -183 47zM439.499 -195.999c7.66699 17.333 11.832 32.334 12.499 45.001h-3
c-11.333 0 -20.5 3.5 -27.5 10.5s-10.5 15.167 -10.5 24.5c0 11.333 4 21 12 29s18.333 12 31 12s23.167 -4 31.5 -12s12.5 -19.333 12.5 -34c0 -20.667 -5.5 -43 -16.5 -67s-23.167 -43 -36.5 -57h-33c10.667 15.333 19.834 31.666 27.501 48.999z" />
    <glyph glyph-name="uni0123" unicode="&#x123;" horiz-adv-x="662" 
d="M142.5 -168c-51 28 -76.502 66.334 -76.502 115.001c0 33.333 12.5 61.666 37.5 84.999s60.167 40.333 105.5 51c-60.667 8.66699 -108 22.667 -142 42s-51 49.333 -51 90c0 18 7 34.167 21 48.5s31.667 21.5 53 21.5c14.667 0 25 -1 31 -3c-12.667 20 -19 42 -19 66
c0 50 23.333 89.5 70 118.5s109.667 43.5 189 43.5c78.667 0 141.334 -14.5 188.001 -43.5s70 -68.5 70 -118.5c0 -48.667 -23.333 -87.334 -70 -116.001s-109.334 -43 -188.001 -43c-44 0 -78.5 3.66699 -103.5 11s-50.167 17.333 -75.5 30
c-14.667 7.33301 -27.167 12.833 -37.5 16.5s-22.166 5.5 -35.499 5.5c-12.667 0 -22.834 -3.66699 -30.501 -11s-11.5 -16 -11.5 -26c0 -38 25 -63.667 75 -77s120.667 -21.666 212 -24.999c88 -2.66699 157 -16.167 207 -40.5s75 -64.833 75 -121.5
c0 -32.667 -11.667 -61 -35 -85s-56.666 -42.667 -99.999 -56s-93.666 -20 -150.999 -20c-87.333 0 -156.5 14 -207.5 42zM508.498 264.501c36.333 21 54.502 49.167 54.502 84.5c0 36 -18 64.5 -54 85.5s-85.333 31.5 -148 31.5s-112.334 -10.5 -149.001 -31.5
s-55 -49.5 -55 -85.5c0 -35.333 18.167 -63.5 54.5 -84.5s86.166 -31.5 149.499 -31.5c62 0 111.167 10.5 147.5 31.5zM519 -132.499c41.333 20.333 62 47.833 62 82.5c0 37.333 -19.667 65.833 -59 85.5s-96.666 29.5 -171.999 29.5c-71.333 0 -127.333 -10.333 -168 -31
s-61 -48.667 -61 -84c0 -34.667 20.333 -62.167 61 -82.5s96.667 -30.5 168 -30.5s127.666 10.167 168.999 30.5zM366.5 700.001c-7.66699 -17.333 -11.832 -32.334 -12.499 -45.001h3c11.333 0 20.5 -3.5 27.5 -10.5s10.5 -15.167 10.5 -24.5c0 -11.333 -4 -21 -12 -29
s-18.333 -12 -31 -12s-23.167 4 -31.5 12s-12.5 19.333 -12.5 34c0 20.667 5.5 43 16.5 67s23.167 43 36.5 57h33c-10.667 -15.333 -19.834 -31.666 -27.501 -48.999z" />
    <glyph glyph-name="Hbar" unicode="&#x126;" horiz-adv-x="820" 
d="M767 526h-75v-526h-60v322h-444v-322h-60v526h-74v48h74v126h60v-126h444v126h60v-126h75v-48zM632 526h-444v-148h444v148z" />
    <glyph glyph-name="hbar" unicode="&#x127;" horiz-adv-x="660" 
d="M508.5 445c39.667 -43.333 59.5 -102.669 59.5 -178.002v-267h-54v260c0 62 -15.5 110.667 -46.5 146s-73.5 53 -127.5 53c-34 0 -65.167 -8.66699 -93.5 -26s-50.5 -41.166 -66.5 -71.499s-24 -64.166 -24 -101.499v-260h-54v578h-75v44h75v88h54v-88h207v-44h-207v-187
c18 36.667 43.833 65.667 77.5 87s71.5 32 113.5 32c68 0 121.833 -21.667 161.5 -65z" />
    <glyph glyph-name="Imacron" unicode="&#x12a;" horiz-adv-x="316" 
d="M128 700h60v-700h-60v700zM318 894v-48h-320v48h320z" />
    <glyph glyph-name="imacron" unicode="&#x12b;" horiz-adv-x="258" 
d="M102 500h54v-500h-54v500zM289 694v-48h-320v48h320z" />
    <glyph glyph-name="Iogonek" unicode="&#x12e;" horiz-adv-x="316" 
d="M128 700h60v-700h-60v700zM123 -245h-54l67 160h53z" />
    <glyph glyph-name="iogonek" unicode="&#x12f;" horiz-adv-x="258" 
d="M102 500h54v-500h-54v500zM89 745h80l-35 -168h-10zM91 -245h-54l67 160h53z" />
    <glyph glyph-name="Idotaccent" unicode="&#x130;" horiz-adv-x="316" 
d="M128 700h60v-700h-60v700zM118 945h80l-35 -168h-10z" />
    <glyph glyph-name="dotlessi" unicode="&#x131;" horiz-adv-x="258" 
d="M102 500h54v-500h-54v500z" />
    <glyph glyph-name="uni0136" unicode="&#x136;" horiz-adv-x="691" 
d="M128 700h60v-322h133l263 322h70l-283 -346l288 -354h-76l-263 322h-132v-322h-60v700zM347.5 -196c7.66699 17.333 11.832 32.334 12.499 45.001h-3c-11.333 0 -20.5 3.5 -27.5 10.5s-10.5 15.167 -10.5 24.5c0 11.333 4 21 12 29s18.333 12 31 12s23.167 -4 31.5 -12
s12.5 -19.333 12.5 -34c0 -20.667 -5.5 -43 -16.5 -67s-23.167 -43 -36.5 -57h-33c10.667 15.333 19.834 31.666 27.501 48.999z" />
    <glyph glyph-name="uni0137" unicode="&#x137;" horiz-adv-x="544" 
d="M102 710h54v-434h97l199 224h66l-220 -248l222 -252h-69l-199 225h-96v-225h-54v710zM285.5 -196c7.66699 17.333 11.832 32.334 12.499 45.001h-3c-11.333 0 -20.5 3.5 -27.5 10.5s-10.5 15.167 -10.5 24.5c0 11.333 4 21 12 29s18.333 12 31 12s23.167 -4 31.5 -12
s12.5 -19.333 12.5 -34c0 -20.667 -5.5 -43 -16.5 -67s-23.167 -43 -36.5 -57h-33c10.667 15.333 19.834 31.666 27.501 48.999z" />
    <glyph glyph-name="Lacute" unicode="&#x139;" horiz-adv-x="604" 
d="M128 700h60v-642h378v-58h-438v700zM208 945h54l-67 -160h-53z" />
    <glyph glyph-name="lacute" unicode="&#x13a;" horiz-adv-x="258" 
d="M102 710h54v-710h-54v710zM179 945h54l-67 -160h-53z" />
    <glyph glyph-name="uni013B" unicode="&#x13b;" horiz-adv-x="604" 
d="M128 700h60v-642h378v-58h-438v700zM341.5 -196c7.66699 17.333 11.832 32.334 12.499 45.001h-3c-11.333 0 -20.5 3.5 -27.5 10.5s-10.5 15.167 -10.5 24.5c0 11.333 4 21 12 29s18.333 12 31 12s23.167 -4 31.5 -12s12.5 -19.333 12.5 -34
c0 -20.667 -5.5 -43 -16.5 -67s-23.167 -43 -36.5 -57h-33c10.667 15.333 19.834 31.666 27.501 48.999z" />
    <glyph glyph-name="uni013C" unicode="&#x13c;" horiz-adv-x="258" 
d="M102 710h54v-710h-54v710zM114.5 -196c7.66699 17.333 11.832 32.334 12.499 45.001h-3c-11.333 0 -20.5 3.5 -27.5 10.5s-10.5 15.167 -10.5 24.5c0 11.333 4 21 12 29s18.333 12 31 12s23.167 -4 31.5 -12s12.5 -19.333 12.5 -34c0 -20.667 -5.5 -43 -16.5 -67
s-23.167 -43 -36.5 -57h-33c10.667 15.333 19.834 31.666 27.501 48.999z" />
    <glyph glyph-name="Lcaron" unicode="&#x13d;" horiz-adv-x="604" 
d="M128 700h60v-642h378v-58h-438v700zM256 700h50l-4 -160h-46v160z" />
    <glyph glyph-name="lcaron" unicode="&#x13e;" horiz-adv-x="258" 
d="M102 710h54v-710h-54v710zM224 710h50l-4 -160h-46v160z" />
    <glyph glyph-name="Lslash" unicode="&#x141;" horiz-adv-x="604" 
d="M566 58v-58h-438v294l-81 -48v56l81 47v351h60v-315l172 101v-56l-172 -101v-271h378z" />
    <glyph glyph-name="lslash" unicode="&#x142;" horiz-adv-x="262" 
d="M259 437l-101 -59v-378h-54v346l-83 -48v55l83 49v308h54v-276l101 58v-55z" />
    <glyph glyph-name="Nacute" unicode="&#x143;" horiz-adv-x="840" 
d="M128 700h65l462 -614v614h57v-700h-64l-462 614v-614h-58v700zM470 945h54l-67 -160h-53z" />
    <glyph glyph-name="nacute" unicode="&#x144;" horiz-adv-x="660" 
d="M153 500v-113.003c18 38 44.167 68 78.5 90s72.833 33 115.5 33c68 0 121.833 -21.667 161.5 -65s59.5 -102.666 59.5 -177.999v-267h-54v260c0 62 -15.5 110.667 -46.5 146s-73.5 53 -127.5 53c-34 0 -65.167 -8.66699 -93.5 -26s-50.5 -41.166 -66.5 -71.499
s-24 -64.166 -24 -101.499v-260h-54v500h51zM388 744.997h54l-67 -160h-53z" />
    <glyph glyph-name="uni0145" unicode="&#x145;" horiz-adv-x="840" 
d="M128 700h65l462 -614v614h57v-700h-64l-462 614v-614h-58v700zM405.5 -196c7.66699 17.333 11.832 32.334 12.499 45.001h-3c-11.333 0 -20.5 3.5 -27.5 10.5s-10.5 15.167 -10.5 24.5c0 11.333 4 21 12 29s18.333 12 31 12s23.167 -4 31.5 -12s12.5 -19.333 12.5 -34
c0 -20.667 -5.5 -43 -16.5 -67s-23.167 -43 -36.5 -57h-33c10.667 15.333 19.834 31.666 27.501 48.999z" />
    <glyph glyph-name="uni0146" unicode="&#x146;" horiz-adv-x="660" 
d="M153 500v-113.003c18 38 44.167 68 78.5 90s72.833 33 115.5 33c68 0 121.833 -21.667 161.5 -65s59.5 -102.666 59.5 -177.999v-267h-54v260c0 62 -15.5 110.667 -46.5 146s-73.5 53 -127.5 53c-34 0 -65.167 -8.66699 -93.5 -26s-50.5 -41.166 -66.5 -71.499
s-24 -64.166 -24 -101.499v-260h-54v500h51zM323.5 -196.003c7.66699 17.333 11.832 32.334 12.499 45.001h-3c-11.333 0 -20.5 3.5 -27.5 10.5s-10.5 15.167 -10.5 24.5c0 11.333 4 21 12 29s18.333 12 31 12s23.167 -4 31.5 -12s12.5 -19.333 12.5 -34
c0 -20.667 -5.5 -43 -16.5 -67s-23.167 -43 -36.5 -57h-33c10.667 15.333 19.834 31.666 27.501 48.999z" />
    <glyph glyph-name="Ncaron" unicode="&#x147;" horiz-adv-x="840" 
d="M128 700h65l462 -614v614h57v-700h-64l-462 614v-614h-58v700zM307 945l113 -123l114 123h52l-144 -160h-44l-144 160h53z" />
    <glyph glyph-name="ncaron" unicode="&#x148;" horiz-adv-x="660" 
d="M153 500v-113.003c18 38 44.167 68 78.5 90s72.833 33 115.5 33c68 0 121.833 -21.667 161.5 -65s59.5 -102.666 59.5 -177.999v-267h-54v260c0 62 -15.5 110.667 -46.5 146s-73.5 53 -127.5 53c-34 0 -65.167 -8.66699 -93.5 -26s-50.5 -41.166 -66.5 -71.499
s-24 -64.166 -24 -101.499v-260h-54v500h51zM225 744.997l113 -123l114 123h52l-144 -160h-44l-144 160h53z" />
    <glyph glyph-name="Eng" unicode="&#x14a;" horiz-adv-x="840" 
d="M420.5 -175c-29.667 23.333 -44.5 52.999 -44.5 88.999h54v-1c0 -22 10 -40 30 -54s45.667 -21 77 -21c36 0 64.5 9.66699 85.5 29s31.5 47 31.5 83c0 16.667 -2.16699 31 -6.5 43s-11.5 24.333 -21.5 37l-440 584v-614h-58v700h65l462 -614v614h57v-730
c0 -55.333 -15.5 -99.166 -46.5 -131.499s-73.833 -48.5 -128.5 -48.5c-48 0 -86.833 11.667 -116.5 35z" />
    <glyph glyph-name="eng" unicode="&#x14b;" horiz-adv-x="660" 
d="M276.5 -175c-29.667 23.333 -44.499 52.9961 -44.499 88.9961h54v-1c0 -22 10 -40 30 -54s45.667 -21 77 -21c37.333 0 67 11 89 33s33 55 33 99l-1 136v154c0 62.667 -15.333 111.5 -46 146.5s-73.334 52.5 -128.001 52.5c-34 0 -65.167 -8.66699 -93.5 -26
s-50.5 -41.166 -66.5 -71.499s-24 -64.166 -24 -101.499v-260h-54v500h51v-113c18 38 44.167 68 78.5 90s72.833 33 115.5 33c68 0 121.833 -21.667 161.5 -65s59.5 -102.666 59.5 -177.999v-297c0 -55.333 -15.5 -99.166 -46.5 -131.499s-73.833 -48.5 -128.5 -48.5
c-48 0 -86.833 11.667 -116.5 35z" />
    <glyph glyph-name="Omacron" unicode="&#x14c;" horiz-adv-x="852" 
d="M241 32.5c-55.333 31.667 -98.666 75.334 -129.999 131.001s-47 117.834 -47 186.501s15.667 130.834 47 186.501s74.666 99.334 129.999 131.001s117 47.5 185 47.5s129.667 -15.833 185 -47.5s98.666 -75.334 129.999 -131.001s47 -117.834 47 -186.501
s-15.667 -130.834 -47 -186.501s-74.666 -99.334 -129.999 -131.001s-117 -47.5 -185 -47.5s-129.667 15.833 -185 47.5zM580 82c46 26.667 82.167 63.5 108.5 110.5s39.5 99.5 39.5 157.5s-13.167 110.5 -39.5 157.5s-62.5 83.833 -108.5 110.5s-97.333 40 -154 40
s-108 -13.333 -154 -40s-82 -63.5 -108 -110.5s-39 -99.5 -39 -157.5s13 -110.5 39 -157.5s62 -83.833 108 -110.5s97.333 -40 154 -40s108 13.333 154 40zM586 894v-48h-320v48h320z" />
    <glyph glyph-name="omacron" unicode="&#x14d;" horiz-adv-x="628" 
d="M179.5 24c-40.333 22.667 -72 53.834 -95 93.501s-34.5 83.834 -34.5 132.501c0 48 11.667 91.833 35 131.5s55.166 71 95.499 94s84.833 34.5 133.5 34.5c49.333 0 94.166 -11.333 134.499 -34s72 -53.834 95 -93.501s34.5 -83.834 34.5 -132.501
c0 -48 -11.667 -91.833 -35 -131.5s-55.166 -71 -95.499 -94s-84.833 -34.5 -133.5 -34.5c-49.333 0 -94.166 11.333 -134.499 34zM421 67.5c32 18.333 57 43.5 75 75.5s27 67.667 27 107s-9 75 -27 107s-43 57.167 -75 75.5s-67.667 27.5 -107 27.5
s-75 -9.16699 -107 -27.5s-57 -43.5 -75 -75.5s-27 -67.667 -27 -107s9.16699 -75 27.5 -107s43.333 -57.167 75 -75.5s67.167 -27.5 106.5 -27.5s75 9.16699 107 27.5zM474 694v-48h-320v48h320z" />
    <glyph glyph-name="Ohungarumlaut" unicode="&#x150;" horiz-adv-x="852" 
d="M241 32.5c-55.333 31.667 -98.666 75.334 -129.999 131.001s-47 117.834 -47 186.501s15.667 130.834 47 186.501s74.666 99.334 129.999 131.001s117 47.5 185 47.5s129.667 -15.833 185 -47.5s98.666 -75.334 129.999 -131.001s47 -117.834 47 -186.501
s-15.667 -130.834 -47 -186.501s-74.666 -99.334 -129.999 -131.001s-117 -47.5 -185 -47.5s-129.667 15.833 -185 47.5zM580 82c46 26.667 82.167 63.5 108.5 110.5s39.5 99.5 39.5 157.5s-13.167 110.5 -39.5 157.5s-62.5 83.833 -108.5 110.5s-97.333 40 -154 40
s-108 -13.333 -154 -40s-82 -63.5 -108 -110.5s-39 -99.5 -39 -157.5s13 -110.5 39 -157.5s62 -83.833 108 -110.5s97.333 -40 154 -40s108 13.333 154 40zM440 945l-61 -160h-48l60 160h49zM576 945l-61 -160h-48l60 160h49z" />
    <glyph glyph-name="ohungarumlaut" unicode="&#x151;" horiz-adv-x="628" 
d="M179.5 24c-40.333 22.667 -72 53.834 -95 93.501s-34.5 83.834 -34.5 132.501c0 48 11.667 91.833 35 131.5s55.166 71 95.499 94s84.833 34.5 133.5 34.5c49.333 0 94.166 -11.333 134.499 -34s72 -53.834 95 -93.501s34.5 -83.834 34.5 -132.501
c0 -48 -11.667 -91.833 -35 -131.5s-55.166 -71 -95.499 -94s-84.833 -34.5 -133.5 -34.5c-49.333 0 -94.166 11.333 -134.499 34zM421 67.5c32 18.333 57 43.5 75 75.5s27 67.667 27 107s-9 75 -27 107s-43 57.167 -75 75.5s-67.667 27.5 -107 27.5
s-75 -9.16699 -107 -27.5s-57 -43.5 -75 -75.5s-27 -67.667 -27 -107s9.16699 -75 27.5 -107s43.333 -57.167 75 -75.5s67.167 -27.5 106.5 -27.5s75 9.16699 107 27.5zM328 745l-61 -160h-48l60 160h49zM464 745l-61 -160h-48l60 160h49z" />
    <glyph glyph-name="OE" unicode="&#x152;" horiz-adv-x="1046" 
d="M242.5 44c-56.333 29.333 -100.166 70.5 -131.499 123.5s-47 113.833 -47 182.5s15.667 129.5 47 182.5s75.166 94.167 131.499 123.5s120.833 44 193.5 44h532v-54h-349v-269h264v-54h-264v-269h393v-54h-576c-72.667 0 -137.167 14.667 -193.5 44zM559 643
l-123 -0.00195312c-62 0 -116.5 -12.167 -163.5 -36.5s-83.333 -58.666 -109 -102.999s-38.5 -95.5 -38.5 -153.5s12.833 -109.167 38.5 -153.5s62 -78.666 109 -102.999s101.5 -36.5 163.5 -36.5h123v586z" />
    <glyph glyph-name="oe" unicode="&#x153;" horiz-adv-x="1087" 
d="M179.5 24c-40.333 22.667 -71.999 53.832 -94.999 93.499s-34.5 83.834 -34.5 132.501c0 48 11.667 91.833 35 131.5s55.166 71 95.499 94s84.833 34.5 133.5 34.5c54 0 102.167 -14.167 144.5 -42.5s72.833 -66.166 91.5 -113.499c18.667 47.333 49 85.166 91 113.499
s89.667 42.5 143 42.5c48 0 91.667 -11.333 131 -34s70.333 -53.667 93 -93s34 -83 34 -131l-1 -22h-466c2.66699 -36 13.5 -68.5 32.5 -97.5s44 -52 75 -69s65.5 -25.5 103.5 -25.5c42.667 0 80.5 9.83301 113.5 29.5s55.833 45.5 68.5 77.5h54
c-12.667 -45.333 -40.834 -82.5 -84.501 -111.5s-94.834 -43.5 -153.501 -43.5c-54 0 -102.167 14.167 -144.5 42.5s-72.5 65.833 -90.5 112.5c-18.667 -46.667 -49.167 -84.167 -91.5 -112.5s-90.166 -42.5 -143.499 -42.5c-49.333 0 -94.166 11.333 -134.499 34z
M955.001 371.498c-18.667 28.333 -42.833 50.5 -72.5 66.5s-62.5 24 -98.5 24s-69.167 -8 -99.5 -24s-55 -38.167 -74 -66.5s-30.167 -60.166 -33.5 -95.499h411c-3.33301 35.333 -14.333 67.166 -33 95.499zM421.002 67.498c32 18.333 57 43.5 75 75.5s27 67.667 27 107
s-9 75 -27 107s-43 57.167 -75 75.5s-67.667 27.5 -107 27.5s-75 -9.16699 -107 -27.5s-57 -43.5 -75 -75.5s-27 -67.667 -27 -107s9.16699 -75 27.5 -107s43.333 -57.167 75 -75.5s67.167 -27.5 106.5 -27.5s75 9.16699 107 27.5z" />
    <glyph glyph-name="Racute" unicode="&#x154;" horiz-adv-x="680" 
d="M338 700c80.667 0 144.167 -18.501 190.5 -55.501s69.5 -87.833 69.5 -152.5c0 -52 -15.667 -95.167 -47 -129.5s-75.333 -57.166 -132 -68.499l241 -294h-74l-235 285h-20h-143v-285h-60v700h210zM485 378.499c35.333 27.667 53 65.5 53 113.5s-17.667 85.833 -53 113.5
s-84 41.5 -146 41.5h-151v-310h151c62 0 110.667 13.833 146 41.5zM378 944.999h54l-67 -160h-53z" />
    <glyph glyph-name="racute" unicode="&#x155;" horiz-adv-x="515" 
d="M153 500v-114.001c16.667 38 40.667 68.167 72 90.5s66 33.5 104 33.5c52.667 0 94.667 -16.167 126 -48.5s47 -77.166 47 -134.499v-24h-54v23c0 42.667 -11 75.5 -33 98.5s-53 34.5 -93 34.5c-30 0 -57.667 -8.66699 -83 -26s-45.5 -41 -60.5 -71
s-22.5 -62.667 -22.5 -98v-264h-54v500h51zM353 744.999h54l-67 -160h-53z" />
    <glyph glyph-name="uni0156" unicode="&#x156;" horiz-adv-x="680" 
d="M338 700c80.667 0 144.167 -18.501 190.5 -55.501s69.5 -87.833 69.5 -152.5c0 -52 -15.667 -95.167 -47 -129.5s-75.333 -57.166 -132 -68.499l241 -294h-74l-235 285h-20h-143v-285h-60v700h210zM485 378.499c35.333 27.667 53 65.5 53 113.5s-17.667 85.833 -53 113.5
s-84 41.5 -146 41.5h-151v-310h151c62 0 110.667 13.833 146 41.5zM344.5 -196.001c7.66699 17.333 11.832 32.334 12.499 45.001h-3c-11.333 0 -20.5 3.5 -27.5 10.5s-10.5 15.167 -10.5 24.5c0 11.333 4 21 12 29s18.333 12 31 12s23.167 -4 31.5 -12
s12.5 -19.333 12.5 -34c0 -20.667 -5.5 -43 -16.5 -67s-23.167 -43 -36.5 -57h-33c10.667 15.333 19.834 31.666 27.501 48.999z" />
    <glyph glyph-name="uni0157" unicode="&#x157;" horiz-adv-x="515" 
d="M153 500v-114.001c16.667 38 40.667 68.167 72 90.5s66 33.5 104 33.5c52.667 0 94.667 -16.167 126 -48.5s47 -77.166 47 -134.499v-24h-54v23c0 42.667 -11 75.5 -33 98.5s-53 34.5 -93 34.5c-30 0 -57.667 -8.66699 -83 -26s-45.5 -41 -60.5 -71
s-22.5 -62.667 -22.5 -98v-264h-54v500h51zM115.5 -196.001c7.66699 17.333 11.832 32.334 12.499 45.001h-3c-11.333 0 -20.5 3.5 -27.5 10.5s-10.5 15.167 -10.5 24.5c0 11.333 4 21 12 29s18.333 12 31 12s23.167 -4 31.5 -12s12.5 -19.333 12.5 -34
c0 -20.667 -5.5 -43 -16.5 -67s-23.167 -43 -36.5 -57h-33c10.667 15.333 19.834 31.666 27.501 48.999z" />
    <glyph glyph-name="Rcaron" unicode="&#x158;" horiz-adv-x="680" 
d="M338 700c80.667 0 144.167 -18.501 190.5 -55.501s69.5 -87.833 69.5 -152.5c0 -52 -15.667 -95.167 -47 -129.5s-75.333 -57.166 -132 -68.499l241 -294h-74l-235 285h-20h-143v-285h-60v700h210zM485 378.499c35.333 27.667 53 65.5 53 113.5s-17.667 85.833 -53 113.5
s-84 41.5 -146 41.5h-151v-310h151c62 0 110.667 13.833 146 41.5zM215 944.999l113 -123l114 123h52l-144 -160h-44l-144 160h53z" />
    <glyph glyph-name="rcaron" unicode="&#x159;" horiz-adv-x="515" 
d="M153 500v-114.001c16.667 38 40.667 68.167 72 90.5s66 33.5 104 33.5c52.667 0 94.667 -16.167 126 -48.5s47 -77.166 47 -134.499v-24h-54v23c0 42.667 -11 75.5 -33 98.5s-53 34.5 -93 34.5c-30 0 -57.667 -8.66699 -83 -26s-45.5 -41 -60.5 -71
s-22.5 -62.667 -22.5 -98v-264h-54v500h51zM190 744.999l113 -123l114 123h52l-144 -160h-44l-144 160h53z" />
    <glyph glyph-name="Sacute" unicode="&#x15a;" horiz-adv-x="659" 
d="M135.5 50.5c-54.333 43.667 -85.832 103.163 -94.499 178.496h59c9.33301 -58.667 35.333 -105.167 78 -139.5s97.667 -51.5 165 -51.5c63.333 0 113.166 12 149.499 36s54.5 57.667 54.5 101c0 33.333 -9.66699 59.5 -29 78.5s-43.833 33.167 -73.5 42.5
s-69.5 18.333 -119.5 27c-54.667 10 -100 20.833 -136 32.5s-66.5 30.334 -91.5 56.001s-37.5 60.834 -37.5 105.501c0 41.333 11.333 76.833 34 106.5s53.667 52.334 93 68.001s83.666 23.5 132.999 23.5c78.667 0 143.834 -21 195.501 -63s81.5 -100.667 89.5 -176h-62
c-7.33301 58 -31 103.333 -71 136s-91 49 -153 49c-58 0 -105.5 -12.833 -142.5 -38.5s-55.5 -60.167 -55.5 -103.5c0 -31.333 9.5 -56 28.5 -74s42.833 -31.167 71.5 -39.5s68.334 -17.166 119.001 -26.499c57.333 -11.333 104.166 -23.333 140.499 -36
s66.833 -32.167 91.5 -58.5s37 -61.833 37 -106.5c0 -60.667 -23.5 -108 -70.5 -142s-112.167 -51 -195.5 -51c-84 0 -153.167 21.833 -207.5 65.5zM370.001 944.996h54l-67 -160h-53z" />
    <glyph glyph-name="sacute" unicode="&#x15b;" horiz-adv-x="537" 
d="M117 33c-45.333 29.333 -72.0029 73.0029 -80.0029 131.003h55c7.33301 -42.667 28.333 -74.834 63 -96.501s76 -32.5 124 -32.5c36.667 0 71.167 7.5 103.5 22.5s48.5 38.833 48.5 71.5c0 20.667 -6 36.667 -18 48s-27.167 19.666 -45.5 24.999
s-45.166 11.333 -80.499 18l-25 5c-44.667 7.33301 -81.167 15.5 -109.5 24.5s-51.833 22.667 -70.5 41s-28 42.833 -28 73.5c-0.666992 50 19.5 87 60.5 111s89.5 36 145.5 36c58 0 107.833 -14.333 149.5 -43s66.167 -70.667 73.5 -126h-56
c-7.33301 40 -27.166 70.167 -59.499 90.5s-70.833 30.5 -115.5 30.5c-37.333 0 -70.666 -7.66699 -99.999 -23s-44 -39.666 -44 -72.999c0 -20 7 -35.833 21 -47.5s31.5 -20.334 52.5 -26.001s50.833 -11.834 89.5 -18.501c47.333 -8 85.5 -16.333 114.5 -25
s53.167 -22.5 72.5 -41.5s29 -44.833 29 -77.5s-10.5 -59.667 -31.5 -81s-47.333 -36.833 -79 -46.5s-64.167 -14.5 -97.5 -14.5c-62.667 0 -116.667 14.667 -162 44zM310.997 745.003h54l-67 -160h-53z" />
    <glyph glyph-name="Scedilla" unicode="&#x15e;" horiz-adv-x="659" 
d="M135.5 50.5c-54.333 43.667 -85.832 103.163 -94.499 178.496h59c9.33301 -58.667 35.333 -105.167 78 -139.5s97.667 -51.5 165 -51.5c63.333 0 113.166 12 149.499 36s54.5 57.667 54.5 101c0 33.333 -9.66699 59.5 -29 78.5s-43.833 33.167 -73.5 42.5
s-69.5 18.333 -119.5 27c-54.667 10 -100 20.833 -136 32.5s-66.5 30.334 -91.5 56.001s-37.5 60.834 -37.5 105.501c0 41.333 11.333 76.833 34 106.5s53.667 52.334 93 68.001s83.666 23.5 132.999 23.5c78.667 0 143.834 -21 195.501 -63s81.5 -100.667 89.5 -176h-62
c-7.33301 58 -31 103.333 -71 136s-91 49 -153 49c-58 0 -105.5 -12.833 -142.5 -38.5s-55.5 -60.167 -55.5 -103.5c0 -31.333 9.5 -56 28.5 -74s42.833 -31.167 71.5 -39.5s68.334 -17.166 119.001 -26.499c57.333 -11.333 104.166 -23.333 140.499 -36
s66.833 -32.167 91.5 -58.5s37 -61.833 37 -106.5c0 -60.667 -23.5 -108 -70.5 -142s-112.167 -51 -195.5 -51c-84 0 -153.167 21.833 -207.5 65.5zM290.001 -245.004h-54l67 160h53z" />
    <glyph glyph-name="scedilla" unicode="&#x15f;" horiz-adv-x="537" 
d="M117 33c-45.333 29.333 -72.0029 73.0029 -80.0029 131.003h55c7.33301 -42.667 28.333 -74.834 63 -96.501s76 -32.5 124 -32.5c36.667 0 71.167 7.5 103.5 22.5s48.5 38.833 48.5 71.5c0 20.667 -6 36.667 -18 48s-27.167 19.666 -45.5 24.999
s-45.166 11.333 -80.499 18l-25 5c-44.667 7.33301 -81.167 15.5 -109.5 24.5s-51.833 22.667 -70.5 41s-28 42.833 -28 73.5c-0.666992 50 19.5 87 60.5 111s89.5 36 145.5 36c58 0 107.833 -14.333 149.5 -43s66.167 -70.667 73.5 -126h-56
c-7.33301 40 -27.166 70.167 -59.499 90.5s-70.833 30.5 -115.5 30.5c-37.333 0 -70.666 -7.66699 -99.999 -23s-44 -39.666 -44 -72.999c0 -20 7 -35.833 21 -47.5s31.5 -20.334 52.5 -26.001s50.833 -11.834 89.5 -18.501c47.333 -8 85.5 -16.333 114.5 -25
s53.167 -22.5 72.5 -41.5s29 -44.833 29 -77.5s-10.5 -59.667 -31.5 -81s-47.333 -36.833 -79 -46.5s-64.167 -14.5 -97.5 -14.5c-62.667 0 -116.667 14.667 -162 44zM240.997 -244.997h-54l67 160h53z" />
    <glyph glyph-name="Scaron" unicode="&#x160;" horiz-adv-x="659" 
d="M135.5 50.5c-54.333 43.667 -85.832 103.163 -94.499 178.496h59c9.33301 -58.667 35.333 -105.167 78 -139.5s97.667 -51.5 165 -51.5c63.333 0 113.166 12 149.499 36s54.5 57.667 54.5 101c0 33.333 -9.66699 59.5 -29 78.5s-43.833 33.167 -73.5 42.5
s-69.5 18.333 -119.5 27c-54.667 10 -100 20.833 -136 32.5s-66.5 30.334 -91.5 56.001s-37.5 60.834 -37.5 105.501c0 41.333 11.333 76.833 34 106.5s53.667 52.334 93 68.001s83.666 23.5 132.999 23.5c78.667 0 143.834 -21 195.501 -63s81.5 -100.667 89.5 -176h-62
c-7.33301 58 -31 103.333 -71 136s-91 49 -153 49c-58 0 -105.5 -12.833 -142.5 -38.5s-55.5 -60.167 -55.5 -103.5c0 -31.333 9.5 -56 28.5 -74s42.833 -31.167 71.5 -39.5s68.334 -17.166 119.001 -26.499c57.333 -11.333 104.166 -23.333 140.499 -36
s66.833 -32.167 91.5 -58.5s37 -61.833 37 -106.5c0 -60.667 -23.5 -108 -70.5 -142s-112.167 -51 -195.5 -51c-84 0 -153.167 21.833 -207.5 65.5zM207.001 944.996l113 -123l114 123h52l-144 -160h-44l-144 160h53z" />
    <glyph glyph-name="scaron" unicode="&#x161;" horiz-adv-x="537" 
d="M117 33c-45.333 29.333 -72.0029 73.0029 -80.0029 131.003h55c7.33301 -42.667 28.333 -74.834 63 -96.501s76 -32.5 124 -32.5c36.667 0 71.167 7.5 103.5 22.5s48.5 38.833 48.5 71.5c0 20.667 -6 36.667 -18 48s-27.167 19.666 -45.5 24.999
s-45.166 11.333 -80.499 18l-25 5c-44.667 7.33301 -81.167 15.5 -109.5 24.5s-51.833 22.667 -70.5 41s-28 42.833 -28 73.5c-0.666992 50 19.5 87 60.5 111s89.5 36 145.5 36c58 0 107.833 -14.333 149.5 -43s66.167 -70.667 73.5 -126h-56
c-7.33301 40 -27.166 70.167 -59.499 90.5s-70.833 30.5 -115.5 30.5c-37.333 0 -70.666 -7.66699 -99.999 -23s-44 -39.666 -44 -72.999c0 -20 7 -35.833 21 -47.5s31.5 -20.334 52.5 -26.001s50.833 -11.834 89.5 -18.501c47.333 -8 85.5 -16.333 114.5 -25
s53.167 -22.5 72.5 -41.5s29 -44.833 29 -77.5s-10.5 -59.667 -31.5 -81s-47.333 -36.833 -79 -46.5s-64.167 -14.5 -97.5 -14.5c-62.667 0 -116.667 14.667 -162 44zM147.997 745.003l113 -123l114 123h52l-144 -160h-44l-144 160h53z" />
    <glyph glyph-name="uni0162" unicode="&#x162;" horiz-adv-x="662" 
d="M301 642h-279v58h618v-58h-279v-642h-60v642zM291 -245h-54l67 160h53z" />
    <glyph glyph-name="uni0163" unicode="&#x163;" horiz-adv-x="475" 
d="M151 152l0.000976562 298.002h-125v50h102c16.667 0 25 8.33301 25 25v95h53l-1 -120h230v-50h-230v-293c0 -40.667 9.83301 -70.334 29.5 -89.001s50.167 -28 91.5 -28c32 0 68.333 5.66699 109 17v-49c-16.667 -4.66699 -35.334 -8.83398 -56.001 -12.501
s-38.667 -5.5 -54 -5.5c-116 0 -174 54 -174 162zM264.001 -244.998h-54l67 160h53z" />
    <glyph glyph-name="Tcaron" unicode="&#x164;" horiz-adv-x="662" 
d="M301 642h-279v58h618v-58h-279v-642h-60v642zM218 945l113 -123l114 123h52l-144 -160h-44l-144 160h53z" />
    <glyph glyph-name="tcaron" unicode="&#x165;" horiz-adv-x="475" 
d="M151 152l0.000976562 298.002h-125v50h102c16.667 0 25 8.33301 25 25v95h53l-1 -120h230v-50h-230v-293c0 -40.667 9.83301 -70.334 29.5 -89.001s50.167 -28 91.5 -28c32 0 68.333 5.66699 109 17v-49c-16.667 -4.66699 -35.334 -8.83398 -56.001 -12.501
s-38.667 -5.5 -54 -5.5c-116 0 -174 54 -174 162zM274.001 700.002h50l-4 -160h-46v160z" />
    <glyph glyph-name="Tbar" unicode="&#x166;" horiz-adv-x="662" 
d="M361 642v-276h138v-48h-138v-318h-60v318h-138v48h138v276h-279v58h618v-58h-279z" />
    <glyph glyph-name="tbar" unicode="&#x167;" horiz-adv-x="475" 
d="M205 273l230.001 0.00195312v-45h-230v-71c0 -40.667 9.83301 -70.334 29.5 -89.001s50.167 -28 91.5 -28c32 0 68.333 5.66699 109 17v-49c-16.667 -4.66699 -35.334 -8.83398 -56.001 -12.501s-38.667 -5.5 -54 -5.5c-116 0 -174 54 -174 162v76h-124v45h124v179h-125
v48h102c16.667 0 25 8.33301 25 25v95h53l-1 -120h230v-48h-230v-179z" />
    <glyph glyph-name="Umacron" unicode="&#x16a;" horiz-adv-x="819" 
d="M252 24c-45.333 26 -80.333 62.667 -105 110s-37 102.333 -37 165v401h60v-400c0 -79.333 21.5 -142.166 64.5 -188.499s101.5 -69.5 175.5 -69.5c73.333 0 131.5 23.167 174.5 69.5s64.5 109.166 64.5 188.499v400h60v-401c0 -62.667 -12.333 -117.667 -37 -165
s-59.5 -84 -104.5 -110s-97.5 -39 -157.5 -39s-112.667 13 -158 39zM570 894v-48h-320v48h320z" />
    <glyph glyph-name="umacron" unicode="&#x16b;" horiz-adv-x="660" 
d="M151.5 55c-39.667 43.333 -59.5 102.669 -59.5 178.002v267h54v-260c0 -62 15.5 -110.667 46.5 -146s73.5 -53 127.5 -53c34 0 65.167 8.66699 93.5 26s50.5 41.166 66.5 71.499s24 64.166 24 101.499v260h54v-500h-51v113c-18 -38 -44.167 -68 -78.5 -90
s-72.833 -33 -115.5 -33c-68 0 -121.833 21.667 -161.5 65zM480 694.003v-48h-320v48h320z" />
    <glyph glyph-name="Uring" unicode="&#x16e;" horiz-adv-x="819" 
d="M252 24c-45.333 26 -80.333 62.667 -105 110s-37 102.333 -37 165v401h60v-400c0 -79.333 21.5 -142.166 64.5 -188.499s101.5 -69.5 175.5 -69.5c73.333 0 131.5 23.167 174.5 69.5s64.5 109.166 64.5 188.499v400h60v-401c0 -62.667 -12.333 -117.667 -37 -165
s-59.5 -84 -104.5 -110s-97.5 -39 -157.5 -39s-112.667 13 -158 39zM321.5 812.5c-24.333 24.333 -36.5 53.8311 -36.5 88.498s12.167 64.334 36.5 89.001s53.833 37 88.5 37c22.667 0 43.5 -5.66699 62.5 -17s34.167 -26.666 45.5 -45.999s17 -40.333 17 -63
c0 -34.667 -12.167 -64.167 -36.5 -88.5s-53.833 -36.5 -88.5 -36.5s-64.167 12.167 -88.5 36.5zM468.5 842.498c16.333 16.333 24.5 35.833 24.5 58.5c0 23.333 -8.16699 43.166 -24.5 59.499s-35.833 24.5 -58.5 24.5c-23.333 0 -43 -8.16699 -59 -24.5
s-24 -36.166 -24 -59.499s8 -43 24 -59s35.667 -24 59 -24c22.667 0 42.167 8.16699 58.5 24.5z" />
    <glyph glyph-name="uring" unicode="&#x16f;" horiz-adv-x="660" 
d="M151.5 55c-39.667 43.333 -59.5 102.669 -59.5 178.002v267h54v-260c0 -62 15.5 -110.667 46.5 -146s73.5 -53 127.5 -53c34 0 65.167 8.66699 93.5 26s50.5 41.166 66.5 71.499s24 64.166 24 101.499v260h54v-500h-51v113c-18 -38 -44.167 -68 -78.5 -90
s-72.833 -33 -115.5 -33c-68 0 -121.833 21.667 -161.5 65zM231.5 612.503c-24.333 24.333 -36.5 53.8311 -36.5 88.498s12.167 64.334 36.5 89.001s53.833 37 88.5 37c22.667 0 43.5 -5.66699 62.5 -17s34.167 -26.666 45.5 -45.999s17 -40.333 17 -63
c0 -34.667 -12.167 -64.167 -36.5 -88.5s-53.833 -36.5 -88.5 -36.5s-64.167 12.167 -88.5 36.5zM378.5 642.501c16.333 16.333 24.5 35.833 24.5 58.5c0 23.333 -8.16699 43.166 -24.5 59.499s-35.833 24.5 -58.5 24.5c-23.333 0 -43 -8.16699 -59 -24.5
s-24 -36.166 -24 -59.499s8 -43 24 -59s35.667 -24 59 -24c22.667 0 42.167 8.16699 58.5 24.5z" />
    <glyph glyph-name="Uhungarumlaut" unicode="&#x170;" horiz-adv-x="819" 
d="M252 24c-45.333 26 -80.333 62.667 -105 110s-37 102.333 -37 165v401h60v-400c0 -79.333 21.5 -142.166 64.5 -188.499s101.5 -69.5 175.5 -69.5c73.333 0 131.5 23.167 174.5 69.5s64.5 109.166 64.5 188.499v400h60v-401c0 -62.667 -12.333 -117.667 -37 -165
s-59.5 -84 -104.5 -110s-97.5 -39 -157.5 -39s-112.667 13 -158 39zM424 945l-61 -160h-48l60 160h49zM560 945l-61 -160h-48l60 160h49z" />
    <glyph glyph-name="uhungarumlaut" unicode="&#x171;" horiz-adv-x="660" 
d="M151.5 55c-39.667 43.333 -59.5 102.669 -59.5 178.002v267h54v-260c0 -62 15.5 -110.667 46.5 -146s73.5 -53 127.5 -53c34 0 65.167 8.66699 93.5 26s50.5 41.166 66.5 71.499s24 64.166 24 101.499v260h54v-500h-51v113c-18 -38 -44.167 -68 -78.5 -90
s-72.833 -33 -115.5 -33c-68 0 -121.833 21.667 -161.5 65zM334 745.003l-61 -160h-48l60 160h49zM470 745.003l-61 -160h-48l60 160h49z" />
    <glyph glyph-name="Uogonek" unicode="&#x172;" horiz-adv-x="819" 
d="M252 24c-45.333 26 -80.333 62.667 -105 110s-37 102.333 -37 165v401h60v-400c0 -79.333 21.5 -142.166 64.5 -188.499s101.5 -69.5 175.5 -69.5c73.333 0 131.5 23.167 174.5 69.5s64.5 109.166 64.5 188.499v400h60v-401c0 -62.667 -12.333 -117.667 -37 -165
s-59.5 -84 -104.5 -110s-97.5 -39 -157.5 -39s-112.667 13 -158 39zM614 -245h-54l67 160h53z" />
    <glyph glyph-name="uogonek" unicode="&#x173;" horiz-adv-x="660" 
d="M151.5 55c-39.667 43.333 -59.5 102.669 -59.5 178.002v267h54v-260c0 -62 15.5 -110.667 46.5 -146s73.5 -53 127.5 -53c34 0 65.167 8.66699 93.5 26s50.5 41.166 66.5 71.499s24 64.166 24 101.499v260h54v-500h-51v113c-18 -38 -44.167 -68 -78.5 -90
s-72.833 -33 -115.5 -33c-68 0 -121.833 21.667 -161.5 65zM493 -244.997h-54l67 160h53z" />
    <glyph glyph-name="Wcircumflex" unicode="&#x174;" horiz-adv-x="1033" 
d="M38 700h62l194 -637l193 637h61l193 -636l193 636h61l-212 -700h-80l-187 616l-187 -616h-78zM629 785l-113 123l-114 -123h-52l144 160h44l144 -160h-53z" />
    <glyph glyph-name="wcircumflex" unicode="&#x175;" horiz-adv-x="798" 
d="M23 500h55l146 -439l147 439h57l148 -439l145 439h54l-165 -500h-64l-147 435l-146 -435h-65zM512 585l-113 123l-114 -123h-52l144 160h44l144 -160h-53z" />
    <glyph glyph-name="Ycircumflex" unicode="&#x176;" horiz-adv-x="676" 
d="M308 266l-303 434h72l263 -374l262 374h69l-303 -434v-266h-60v266zM451 785l-113 123l-114 -123h-52l144 160h44l144 -160h-53z" />
    <glyph glyph-name="ycircumflex" unicode="&#x177;" horiz-adv-x="551" 
d="M67.5 -167.5c-29 28.333 -43.5 67.501 -43.5 117.501v27h51v-30c0 -33.333 9.5 -59.833 28.5 -79.5s44.167 -29.5 75.5 -29.5c30.667 0 55.167 9.5 73.5 28.5s27.5 44.833 27.5 77.5v14c0 16 -1.16699 30.167 -3.5 42.5s-6.83301 24.5 -13.5 36.5l-250 463h62l216 -407
c6 -9.33301 10 -21.333 12 -36c3.33301 14.667 7 26.667 11 36l171 407h57l-192 -451c-6 -14.667 -10.333 -27.834 -13 -39.501s-4 -25.167 -4 -40.5v-24c0 -47.333 -14.333 -85 -43 -113s-66 -42 -112 -42c-44.667 0 -81.5 14.167 -110.5 42.5zM394 585.001l-113 123
l-114 -123h-52l144 160h44l144 -160h-53z" />
    <glyph glyph-name="Ydieresis" unicode="&#x178;" horiz-adv-x="676" 
d="M308 266l-303 434h72l263 -374l262 374h69l-303 -434v-266h-60v266zM234 945h72l-32 -168h-9zM370 945h72l-32 -168h-9z" />
    <glyph glyph-name="Zacute" unicode="&#x179;" horiz-adv-x="642" 
d="M50 52l468 591h-449v57h526v-52l-468 -591h471v-57h-548v52zM394 945h54l-67 -160h-53z" />
    <glyph glyph-name="zacute" unicode="&#x17a;" horiz-adv-x="520" 
d="M41 45l358 405h-343v50h414v-45l-358 -405h359v-50h-430v45zM350 745h54l-67 -160h-53z" />
    <glyph glyph-name="Zdotaccent" unicode="&#x17b;" horiz-adv-x="642" 
d="M50 52l468 591h-449v57h526v-52l-468 -591h471v-57h-548v52zM304 945h80l-35 -168h-10z" />
    <glyph glyph-name="zdotaccent" unicode="&#x17c;" horiz-adv-x="520" 
d="M41 45l358 405h-343v50h414v-45l-358 -405h359v-50h-430v45zM260 745h80l-35 -168h-10z" />
    <glyph glyph-name="Zcaron" unicode="&#x17d;" horiz-adv-x="642" 
d="M50 52l468 591h-449v57h526v-52l-468 -591h471v-57h-548v52zM231 945l113 -123l114 123h52l-144 -160h-44l-144 160h53z" />
    <glyph glyph-name="zcaron" unicode="&#x17e;" horiz-adv-x="520" 
d="M41 45l358 405h-343v50h414v-45l-358 -405h359v-50h-430v45zM187 745l113 -123l114 123h52l-144 -160h-44l-144 160h53z" />
    <glyph glyph-name="uni01D0" unicode="&#x1d0;" horiz-adv-x="258" 
d="M102 500h54v-500h-54v500zM16 745l113 -123l114 123h52l-144 -160h-44l-144 160h53z" />
    <glyph glyph-name="uni0218" unicode="&#x218;" horiz-adv-x="659" 
d="M135.5 50.5c-54.333 43.667 -85.832 103.163 -94.499 178.496h59c9.33301 -58.667 35.333 -105.167 78 -139.5s97.667 -51.5 165 -51.5c63.333 0 113.166 12 149.499 36s54.5 57.667 54.5 101c0 33.333 -9.66699 59.5 -29 78.5s-43.833 33.167 -73.5 42.5
s-69.5 18.333 -119.5 27c-54.667 10 -100 20.833 -136 32.5s-66.5 30.334 -91.5 56.001s-37.5 60.834 -37.5 105.501c0 41.333 11.333 76.833 34 106.5s53.667 52.334 93 68.001s83.666 23.5 132.999 23.5c78.667 0 143.834 -21 195.501 -63s81.5 -100.667 89.5 -176h-62
c-7.33301 58 -31 103.333 -71 136s-91 49 -153 49c-58 0 -105.5 -12.833 -142.5 -38.5s-55.5 -60.167 -55.5 -103.5c0 -31.333 9.5 -56 28.5 -74s42.833 -31.167 71.5 -39.5s68.334 -17.166 119.001 -26.499c57.333 -11.333 104.166 -23.333 140.499 -36
s66.833 -32.167 91.5 -58.5s37 -61.833 37 -106.5c0 -60.667 -23.5 -108 -70.5 -142s-112.167 -51 -195.5 -51c-84 0 -153.167 21.833 -207.5 65.5zM315.501 -196.004c7.66699 17.333 11.832 32.334 12.499 45.001h-3c-11.333 0 -20.5 3.5 -27.5 10.5
s-10.5 15.167 -10.5 24.5c0 11.333 4 21 12 29s18.333 12 31 12s23.167 -4 31.5 -12s12.5 -19.333 12.5 -34c0 -20.667 -5.5 -43 -16.5 -67s-23.167 -43 -36.5 -57h-33c10.667 15.333 19.834 31.666 27.501 48.999z" />
    <glyph glyph-name="uni0219" unicode="&#x219;" horiz-adv-x="537" 
d="M117 33c-45.333 29.333 -72.0029 73.0029 -80.0029 131.003h55c7.33301 -42.667 28.333 -74.834 63 -96.501s76 -32.5 124 -32.5c36.667 0 71.167 7.5 103.5 22.5s48.5 38.833 48.5 71.5c0 20.667 -6 36.667 -18 48s-27.167 19.666 -45.5 24.999
s-45.166 11.333 -80.499 18l-25 5c-44.667 7.33301 -81.167 15.5 -109.5 24.5s-51.833 22.667 -70.5 41s-28 42.833 -28 73.5c-0.666992 50 19.5 87 60.5 111s89.5 36 145.5 36c58 0 107.833 -14.333 149.5 -43s66.167 -70.667 73.5 -126h-56
c-7.33301 40 -27.166 70.167 -59.499 90.5s-70.833 30.5 -115.5 30.5c-37.333 0 -70.666 -7.66699 -99.999 -23s-44 -39.666 -44 -72.999c0 -20 7 -35.833 21 -47.5s31.5 -20.334 52.5 -26.001s50.833 -11.834 89.5 -18.501c47.333 -8 85.5 -16.333 114.5 -25
s53.167 -22.5 72.5 -41.5s29 -44.833 29 -77.5s-10.5 -59.667 -31.5 -81s-47.333 -36.833 -79 -46.5s-64.167 -14.5 -97.5 -14.5c-62.667 0 -116.667 14.667 -162 44zM266.497 -195.997c7.66699 17.333 11.832 32.334 12.499 45.001h-3c-11.333 0 -20.5 3.5 -27.5 10.5
s-10.5 15.167 -10.5 24.5c0 11.333 4 21 12 29s18.333 12 31 12s23.167 -4 31.5 -12s12.5 -19.333 12.5 -34c0 -20.667 -5.5 -43 -16.5 -67s-23.167 -43 -36.5 -57h-33c10.667 15.333 19.834 31.666 27.501 48.999z" />
    <glyph glyph-name="uni021A" unicode="&#x21a;" horiz-adv-x="662" 
d="M301 642h-279v58h618v-58h-279v-642h-60v642zM316.5 -196c7.66699 17.333 11.832 32.334 12.499 45.001h-3c-11.333 0 -20.5 3.5 -27.5 10.5s-10.5 15.167 -10.5 24.5c0 11.333 4 21 12 29s18.333 12 31 12s23.167 -4 31.5 -12s12.5 -19.333 12.5 -34
c0 -20.667 -5.5 -43 -16.5 -67s-23.167 -43 -36.5 -57h-33c10.667 15.333 19.834 31.666 27.501 48.999z" />
    <glyph glyph-name="uni021B" unicode="&#x21b;" horiz-adv-x="475" 
d="M151 152l0.000976562 298.002h-125v50h102c16.667 0 25 8.33301 25 25v95h53l-1 -120h230v-50h-230v-293c0 -40.667 9.83301 -70.334 29.5 -89.001s50.167 -28 91.5 -28c32 0 68.333 5.66699 109 17v-49c-16.667 -4.66699 -35.334 -8.83398 -56.001 -12.501
s-38.667 -5.5 -54 -5.5c-116 0 -174 54 -174 162zM289.501 -195.998c7.66699 17.333 11.832 32.334 12.499 45.001h-3c-11.333 0 -20.5 3.5 -27.5 10.5s-10.5 15.167 -10.5 24.5c0 11.333 4 21 12 29s18.333 12 31 12s23.167 -4 31.5 -12s12.5 -19.333 12.5 -34
c0 -20.667 -5.5 -43 -16.5 -67s-23.167 -43 -36.5 -57h-33c10.667 15.333 19.834 31.666 27.501 48.999z" />
    <glyph glyph-name="uni0237" unicode="&#x237;" horiz-adv-x="296" 
d="M-97.5 -175c-29.667 23.333 -44.5 52.999 -44.5 88.999h54v-1c0 -22 10 -40 30 -54s45.667 -21 77 -21c37.333 0 67 11 89 33s33 55 33 99l-1 136v394h54v-530c0 -55.333 -15.5 -99.166 -46.5 -131.499s-73.833 -48.5 -128.5 -48.5c-48 0 -86.833 11.667 -116.5 35z" />
    <glyph glyph-name="uni02BC" unicode="&#x2bc;" horiz-adv-x="176" 
d="M90 626l-3.00098 -0.00195312c-12 2 -21.333 6.83301 -28 14.5s-10 16.834 -10 27.501c0 12.667 4.16699 23.5 12.5 32.5s19.166 13.5 32.499 13.5c12.667 0 23.334 -4.5 32.001 -13.5s13 -21.167 13 -36.5c0 -22.667 -6 -49.167 -18 -79.5s-25 -53.166 -39 -68.499h-36
c26.667 40 41.334 76.667 44.001 110z" />
    <glyph glyph-name="gravecomb" unicode="&#x300;" horiz-adv-x="0" 
d="M-337 585l-67 160h55l66 -160h-54z" />
    <glyph glyph-name="acutecomb" unicode="&#x301;" horiz-adv-x="0" 
d="M-250 745h54l-67 -160h-53z" />
    <glyph glyph-name="uni0302" unicode="&#x302;" horiz-adv-x="0" 
d="M-187 585l-113 123l-114 -123h-52l144 160h44l144 -160h-53z" />
    <glyph glyph-name="tildecomb" unicode="&#x303;" horiz-adv-x="0" 
d="M-462 688c18 16.667 40.667 25 68 25c16.667 0 32.5 -2.16699 47.5 -6.5s32.167 -10.833 51.5 -19.5c18 -7.33301 33.167 -13 45.5 -17s25.166 -6 38.499 -6c15.333 0 28.333 4.83301 39 14.5s16 21.5 16 35.5h45c0 -28 -9 -50.333 -27 -67s-40.667 -25 -68 -25
c-16.667 0 -32.5 2.16699 -47.5 6.5s-32.167 10.833 -51.5 19.5c-18 7.33301 -33.167 13 -45.5 17s-25.166 6 -38.499 6c-15.333 0 -28.333 -4.83301 -39 -14.5s-16 -21.5 -16 -35.5h-45c0 28 9 50.333 27 67z" />
    <glyph glyph-name="uni0304" unicode="&#x304;" horiz-adv-x="0" 
d="M-140 694v-48h-320v48h320z" />
    <glyph glyph-name="uni0306" unicode="&#x306;" horiz-adv-x="0" 
d="M-429.5 620.5c-32.333 29.667 -48.5 68.5 -48.5 116.5v8h47v-8c0 -35.333 11.667 -63.5 35 -84.5s55.333 -31.5 96 -31.5s72.667 10.5 96 31.5s35 49.167 35 84.5v8h48v-8c0 -48 -16.333 -86.833 -49 -116.5s-76 -44.5 -130 -44.5s-97.167 14.833 -129.5 44.5z" />
    <glyph glyph-name="uni0307" unicode="&#x307;" horiz-adv-x="0" 
d="M-340 745h80l-35 -168h-10z" />
    <glyph glyph-name="uni0308" unicode="&#x308;" horiz-adv-x="0" 
d="M-404 745h72l-32 -168h-9zM-268 745h72l-32 -168h-9z" />
    <glyph glyph-name="uni030A" unicode="&#x30a;" horiz-adv-x="0" 
d="M-388.5 612.5c-24.333 24.333 -36.5 53.8311 -36.5 88.498s12.167 64.334 36.5 89.001s53.833 37 88.5 37c22.667 0 43.5 -5.66699 62.5 -17s34.167 -26.666 45.5 -45.999s17 -40.333 17 -63c0 -34.667 -12.167 -64.167 -36.5 -88.5s-53.833 -36.5 -88.5 -36.5
s-64.167 12.167 -88.5 36.5zM-241.5 642.498c16.333 16.333 24.5 35.833 24.5 58.5c0 23.333 -8.16699 43.166 -24.5 59.499s-35.833 24.5 -58.5 24.5c-23.333 0 -43 -8.16699 -59 -24.5s-24 -36.166 -24 -59.499s8 -43 24 -59s35.667 -24 59 -24
c22.667 0 42.167 8.16699 58.5 24.5z" />
    <glyph glyph-name="uni030B" unicode="&#x30b;" horiz-adv-x="0" 
d="M-286 745l-61 -160h-48l60 160h49zM-150 745l-61 -160h-48l60 160h49z" />
    <glyph glyph-name="uni030C" unicode="&#x30c;" horiz-adv-x="0" 
d="M-413 745l113 -123l114 123h52l-144 -160h-44l-144 160h53z" />
    <glyph glyph-name="uni0312" unicode="&#x312;" horiz-adv-x="0" 
d="M-285.5 700c-7.66699 -17.333 -11.832 -32.334 -12.499 -45.001h3c11.333 0 20.5 -3.5 27.5 -10.5s10.5 -15.167 10.5 -24.5c0 -11.333 -4 -21 -12 -29s-18.333 -12 -31 -12s-23.167 4 -31.5 12s-12.5 19.333 -12.5 34c0 20.667 5.5 43 16.5 67s23.167 43 36.5 57h33
c-10.667 -15.333 -19.834 -31.666 -27.501 -48.999z" />
    <glyph glyph-name="uni0326" unicode="&#x326;" horiz-adv-x="0" 
d="M-314.5 -196c7.66699 17.333 11.832 32.334 12.499 45.001h-3c-11.333 0 -20.5 3.5 -27.5 10.5s-10.5 15.167 -10.5 24.5c0 11.333 4 21 12 29s18.333 12 31 12s23.167 -4 31.5 -12s12.5 -19.333 12.5 -34c0 -20.667 -5.5 -43 -16.5 -67s-23.167 -43 -36.5 -57h-33
c10.667 15.333 19.834 31.666 27.501 48.999z" />
    <glyph glyph-name="uni0327" unicode="&#x327;" horiz-adv-x="0" 
d="M-340 -245h-54l67 160h53z" />
    <glyph glyph-name="uni0328" unicode="&#x328;" horiz-adv-x="0" 
d="M-365 -245h-54l67 160h53z" />
    <glyph glyph-name="uni0335" unicode="&#x335;" horiz-adv-x="0" 
d="M-132 622v-44h-336v44h336z" />
    <glyph glyph-name="uni0401" unicode="&#x401;" horiz-adv-x="608" 
d="M128 700h402v-54h-343v-269h252v-54h-252v-269h387v-54h-446v700zM225 945h72l-32 -168h-9zM361 945h72l-32 -168h-9z" />
    <glyph glyph-name="uni0404" unicode="&#x404;" horiz-adv-x="818" 
d="M237.5 32c-54.333 31.333 -96.833 74.668 -127.5 130.001s-46 118 -46 188s15.333 132.667 46 188s73.167 98.666 127.5 129.999s115.5 47 183.5 47c59.333 0 113 -11.5 161 -34.5s87.5 -55.5 118.5 -97.5s50.833 -90.667 59.5 -146h-60
c-13.333 68 -44.833 122.167 -94.5 162.5s-110.834 60.5 -183.501 60.5c-55.333 0 -104.833 -11.833 -148.5 -35.5s-78.5 -57 -104.5 -100s-40.667 -92.167 -44 -147.5h295v-54h-295c3.33301 -55.333 18 -104.5 44 -147.5s60.833 -76.333 104.5 -100
s93.167 -35.5 148.5 -35.5c72.667 0 133.834 20.167 183.501 60.5s81.167 94.5 94.5 162.5h60c-8.66699 -55.333 -28.5 -104 -59.5 -146s-70.5 -74.5 -118.5 -97.5s-101.667 -34.5 -161 -34.5c-68 0 -129.167 15.667 -183.5 47z" />
    <glyph glyph-name="uni0406" unicode="&#x406;" horiz-adv-x="316" 
d="M128 700h60v-700h-60v700z" />
    <glyph glyph-name="uni0407" unicode="&#x407;" horiz-adv-x="316" 
d="M128 700h60v-700h-60v700zM54 945h72l-32 -168h-9zM190 945h72l-32 -168h-9z" />
    <glyph glyph-name="uni040E" unicode="&#x40e;" horiz-adv-x="645" 
d="M177 6.5c-25.333 14.333 -45.499 35 -60.499 62s-22.5 58.5 -22.5 94.5v28h58v-28c0 -36.667 10.167 -66.834 30.5 -90.501s46.166 -35.5 77.499 -35.5c28 0 50.167 7.33301 66.5 22s24.5 34.334 24.5 59.001c0 26.667 -9 54.667 -27 84l-310 498h70l274 -450
c17.333 -28 28 -56 32 -84l182 534h61l-194 -555c-18.667 -54 -42 -94.167 -70 -120.5s-64.333 -39.5 -109 -39.5c-30 0 -57.667 7.16699 -83 21.5zM214.501 820.5c-32.333 29.667 -48.5 68.5 -48.5 116.5v8h47v-8c0 -35.333 11.667 -63.5 35 -84.5s55.333 -31.5 96 -31.5
s72.667 10.5 96 31.5s35 49.167 35 84.5v8h48v-8c0 -48 -16.333 -86.833 -49 -116.5s-76 -44.5 -130 -44.5s-97.167 14.833 -129.5 44.5z" />
    <glyph glyph-name="uni0410" unicode="&#x410;" horiz-adv-x="695" 
d="M308 700h79l293 -700h-65l-86 206h-365l-86 -206h-63zM509 257l-162 390h-1l-162 -390h325z" />
    <glyph glyph-name="uni0411" unicode="&#x411;" horiz-adv-x="695" 
d="M586 700v-54h-400v-248h192c76.667 0 137.167 -17.833 181.5 -53.5s66.5 -84.167 66.5 -145.5s-22.167 -109.833 -66.5 -145.5s-104.833 -53.5 -181.5 -53.5h-250v700h458zM515.5 92c33.667 26 50.5 61.667 50.5 107s-16.833 81 -50.5 107s-80.5 39 -140.5 39h-189v-292
h189c60 0 106.833 13 140.5 39z" />
    <glyph glyph-name="uni0412" unicode="&#x412;" horiz-adv-x="708" 
d="M391 700c71.333 0 127.666 -16.333 168.999 -49s62 -77.334 62 -134.001c0 -38 -9.83301 -70.667 -29.5 -98s-48.5 -47.666 -86.5 -60.999v-5c46 -12 81.333 -32.5 106 -61.5s37 -64.5 37 -106.5c0 -56.667 -20.667 -101.667 -62 -135s-97.666 -50 -168.999 -50h-290v700
h263zM517.5 414c30.333 24 45.5 56.667 45.5 98c0 42 -15.167 74.833 -45.5 98.5s-72.5 35.5 -126.5 35.5h-203v-268h203c54 0 96.167 12 126.5 36zM543.5 90c30.333 24 45.5 57 45.5 99s-15.5 75 -46.5 99s-73.167 36 -126.5 36h-228v-270h228c54.667 0 97.167 12 127.5 36
z" />
    <glyph glyph-name="uni0413" unicode="&#x413;" horiz-adv-x="604" 
d="M128 700h444v-57h-384v-643h-60v700z" />
    <glyph glyph-name="uni0414" unicode="&#x414;" horiz-adv-x="772" 
d="M91 57c18.667 68 32 137.332 40 207.999s12 156.334 12 257.001v40v138h488v-643h88v-220h-58v163h-581v-163h-58v220h69zM572 644.999h-370v-123c0 -98.667 -4 -183.667 -12 -255s-21.333 -141.333 -40 -210h422v588z" />
    <glyph glyph-name="uni0415" unicode="&#x415;" horiz-adv-x="608" 
d="M128 700h402v-54h-343v-269h252v-54h-252v-269h387v-54h-446v700z" />
    <glyph glyph-name="uni0416" unicode="&#x416;" horiz-adv-x="1019" 
d="M293 353l-257 347h71l239 -322h133v322h60v-322h134l239 322h70l-257 -347l261 -353h-73l-239 322h-135v-322h-60v322h-135l-239 -322h-73z" />
    <glyph glyph-name="uni0417" unicode="&#x417;" horiz-adv-x="659" 
d="M198 15.5c-45.333 20.333 -81.9941 49.499 -109.994 87.499s-44.667 83 -50 135h58c9.33301 -61.333 36.166 -109.833 80.499 -145.5s101.833 -53.5 172.5 -53.5c65.333 0 117.166 13.167 155.499 39.5s57.5 62.166 57.5 107.499c0 26.667 -7.5 50.334 -22.5 71.001
s-35.833 37 -62.5 49s-56.667 18 -90 18h-78v53h78c30 0 57.5 6 82.5 18s44.667 28.5 59 49.5s21.5 44.5 21.5 70.5c0 44 -18.833 79.333 -56.5 106s-86.5 40 -146.5 40c-64.667 0 -117.834 -17 -159.501 -51s-66.5 -80 -74.5 -138h-59
c9.33301 76 40.666 135.5 93.999 178.5s120.333 64.5 201 64.5c50.667 0 95.667 -8 135 -24s70.166 -38.833 92.499 -68.5s33.5 -63.834 33.5 -102.501c0 -39.333 -11.5 -73.666 -34.5 -102.999s-54.5 -50.666 -94.5 -63.999c41.333 -12 75.166 -33.5 101.499 -64.5
s39.5 -66.5 39.5 -106.5s-11.167 -74.833 -33.5 -104.5s-54 -52.5 -95 -68.5s-88.833 -24 -143.5 -24c-56 0 -106.667 10.167 -152 30.5z" />
    <glyph glyph-name="uni0418" unicode="&#x418;" horiz-adv-x="840" 
d="M128 700h60v-610l459 610h65v-700h-60v615l-462 -615h-62v700z" />
    <glyph glyph-name="uni0419" unicode="&#x419;" horiz-adv-x="840" 
d="M128 700h60v-610l459 610h65v-700h-60v615l-462 -615h-62v700zM290.5 820.5c-32.333 29.667 -48.5 68.5 -48.5 116.5v8h47v-8c0 -35.333 11.667 -63.5 35 -84.5s55.333 -31.5 96 -31.5s72.667 10.5 96 31.5s35 49.167 35 84.5v8h48v-8c0 -48 -16.333 -86.833 -49 -116.5
s-76 -44.5 -130 -44.5s-97.167 14.833 -129.5 44.5z" />
    <glyph glyph-name="uni041A" unicode="&#x41a;" horiz-adv-x="691" 
d="M128 700h60v-322h133l263 322h70l-283 -346l288 -354h-76l-263 322h-132v-322h-60v700z" />
    <glyph glyph-name="uni041B" unicode="&#x41b;" horiz-adv-x="796" 
d="M7 0l-0.00195312 59c12.667 -4 22.834 -6.83301 30.501 -8.5s17.834 -2.5 30.501 -2.5c20 0 37.667 7.16699 53 21.5s26.333 34.166 33 59.499c22 82.667 33 234.667 33 456v115h481v-700h-60v642h-363v-77c0 -231.333 -14 -388.666 -42 -471.999
c-11.333 -34 -28 -60 -50 -78s-48.667 -27 -80 -27c-26.667 0 -48.667 4 -66 12z" />
    <glyph glyph-name="uni041C" unicode="&#x41c;" horiz-adv-x="996" 
d="M128 700h99l272 -634l271 634h98v-700h-59v648l-276 -648h-71l-275 648v-648h-59v700z" />
    <glyph glyph-name="uni041D" unicode="&#x41d;" horiz-adv-x="820" 
d="M128 700h60v-322h444v322h60v-700h-60v322h-444v-322h-60v700z" />
    <glyph glyph-name="uni041E" unicode="&#x41e;" horiz-adv-x="852" 
d="M241 32.5c-55.333 31.667 -98.666 75.334 -129.999 131.001s-47 117.834 -47 186.501s15.667 130.834 47 186.501s74.666 99.334 129.999 131.001s117 47.5 185 47.5s129.667 -15.833 185 -47.5s98.666 -75.334 129.999 -131.001s47 -117.834 47 -186.501
s-15.667 -130.834 -47 -186.501s-74.666 -99.334 -129.999 -131.001s-117 -47.5 -185 -47.5s-129.667 15.833 -185 47.5zM580 82c46 26.667 82.167 63.5 108.5 110.5s39.5 99.5 39.5 157.5s-13.167 110.5 -39.5 157.5s-62.5 83.833 -108.5 110.5s-97.333 40 -154 40
s-108 -13.333 -154 -40s-82 -63.5 -108 -110.5s-39 -99.5 -39 -157.5s13 -110.5 39 -157.5s62 -83.833 108 -110.5s97.333 -40 154 -40s108 13.333 154 40z" />
    <glyph glyph-name="uni041F" unicode="&#x41f;" horiz-adv-x="820" 
d="M128 700h564v-700h-60v643h-444v-643h-60v700z" />
    <glyph glyph-name="uni0420" unicode="&#x420;" horiz-adv-x="648" 
d="M334 700c80.667 0 144.167 -18.5 190.5 -55.5s69.5 -87.833 69.5 -152.5s-23.167 -115.5 -69.5 -152.5s-109.833 -55.5 -190.5 -55.5h-146v-284h-60v700h206zM481 377c35.333 28 53 65.999 53 113.999c0 48.667 -17.5 86.834 -52.5 114.501s-83.833 41.5 -146.5 41.5
h-147v-312h147c62 0 110.667 14 146 42z" />
    <glyph glyph-name="uni0421" unicode="&#x421;" horiz-adv-x="818" 
d="M237.5 32c-54.333 31.333 -96.8311 74.668 -127.498 130.001s-46 118 -46 188s15.333 132.667 46 188s73.167 98.666 127.5 129.999s115.833 47 184.5 47c60 0 114.167 -11.833 162.5 -35.5s87.833 -57.167 118.5 -100.5s49.667 -93.333 57 -150h-60
c-12 70 -42.833 125.667 -92.5 167s-111.167 62 -184.5 62c-58 0 -109.5 -13 -154.5 -39s-80.167 -62.333 -105.5 -109s-38 -100 -38 -160c0 -59.333 12.667 -112.5 38 -159.5s60.666 -83.5 105.999 -109.5s96.666 -39 153.999 -39c74 0 135.667 20.667 185 62s80 97 92 167
h60c-8 -56.667 -27.333 -106.667 -58 -150s-70 -76.833 -118 -100.5s-102 -35.5 -162 -35.5c-68.667 0 -130.167 15.667 -184.5 47z" />
    <glyph glyph-name="uni0422" unicode="&#x422;" horiz-adv-x="662" 
d="M301 642h-279v58h618v-58h-279v-642h-60v642z" />
    <glyph glyph-name="uni0423" unicode="&#x423;" horiz-adv-x="645" 
d="M177 6.5c-25.333 14.333 -45.499 35 -60.499 62s-22.5 58.5 -22.5 94.5v28h58v-28c0 -36.667 10.167 -66.834 30.5 -90.501s46.166 -35.5 77.499 -35.5c28 0 50.167 7.33301 66.5 22s24.5 34.334 24.5 59.001c0 26.667 -9 54.667 -27 84l-310 498h70l274 -450
c17.333 -28 28 -56 32 -84l182 534h61l-194 -555c-18.667 -54 -42 -94.167 -70 -120.5s-64.333 -39.5 -109 -39.5c-30 0 -57.667 7.16699 -83 21.5z" />
    <glyph glyph-name="uni0424" unicode="&#x424;" horiz-adv-x="996" 
d="M383 104c-98.667 0 -175.5 22.333 -230.5 67s-82.5 107.334 -82.5 188.001s27.5 143.5 82.5 188.5s131.833 67.5 230.5 67.5h85v95h60v-95h85c98.667 0 175.5 -22.5 230.5 -67.5s82.5 -107.833 82.5 -188.5s-27.5 -143.334 -82.5 -188.001s-131.833 -67 -230.5 -67h-85
v-104h-60v104h-85zM468 560h-85c-81.333 0 -143.666 -17.5 -186.999 -52.5s-65 -84.5 -65 -148.5s21.667 -113.5 65 -148.5s105.666 -52.5 186.999 -52.5h85v402zM800 210.5c43.333 35 65 84.5 65 148.5s-21.667 113.5 -65 148.5s-105.666 52.5 -186.999 52.5h-85v-402h85
c81.333 0 143.666 17.5 186.999 52.5z" />
    <glyph glyph-name="uni0425" unicode="&#x425;" horiz-adv-x="686" 
d="M304 356l-272 344h73l239 -299l238 299h72l-273 -343l283 -357h-73l-249 311l-249 -311h-71z" />
    <glyph glyph-name="uni0426" unicode="&#x426;" horiz-adv-x="830" 
d="M719 0h-591v700h60v-643h444v643h60v-643h85v-220h-58v163z" />
    <glyph glyph-name="uni0427" unicode="&#x427;" horiz-adv-x="732" 
d="M343 284c-80.667 0 -144 18.5 -190 55.5s-69 87.833 -69 152.5v208h60v-208c0 -47.333 17 -84.333 51 -111s83.333 -40 148 -40h201v359h60v-700h-60v284h-201z" />
    <glyph glyph-name="uni0428" unicode="&#x428;" horiz-adv-x="1112" 
d="M128 700h60v-643h338v643h60v-643h338v643h60v-700h-856v700z" />
    <glyph glyph-name="uni0429" unicode="&#x429;" horiz-adv-x="1123" 
d="M1012 0h-884v700h60v-643h338v643h60v-643h338v643h60v-643h86v-220h-58v163z" />
    <glyph glyph-name="uni042A" unicode="&#x42a;" horiz-adv-x="770" 
d="M634.5 360.5c46.333 -37 69.5 -87.833 69.5 -152.5s-23.167 -115.5 -69.5 -152.5s-109.5 -55.5 -189.5 -55.5h-213v643h-210v57h269v-284h154c80 0 143.167 -18.5 189.5 -55.5zM591 95.5c35.333 27.667 53 65.5 53 113.5c0 48.667 -17.5 86.667 -52.5 114
s-83.833 41 -146.5 41h-154v-310h154c62 0 110.667 13.833 146 41.5z" />
    <glyph glyph-name="uni042B" unicode="&#x42b;" horiz-adv-x="944" 
d="M187 700v-284h154c80 0 143.167 -18.5 189.5 -55.5s69.5 -87.833 69.5 -152.5s-23.167 -115.5 -69.5 -152.5s-109.5 -55.5 -189.5 -55.5h-213v700h59zM487 95.5c35.333 27.667 53 65.5 53 113.5c0 48.667 -17.5 86.667 -52.5 114s-83.833 41 -146.5 41h-154v-310h154
c62 0 110.667 13.833 146 41.5zM756 700h60v-700h-60v700z" />
    <glyph glyph-name="uni042C" unicode="&#x42c;" horiz-adv-x="666" 
d="M187 700v-284h154c80 0 143.167 -18.5 189.5 -55.5s69.5 -87.833 69.5 -152.5s-23.167 -115.5 -69.5 -152.5s-109.5 -55.5 -189.5 -55.5h-213v700h59zM487 95.5c35.333 27.667 53 65.5 53 113.5c0 48.667 -17.5 86.667 -52.5 114s-83.833 41 -146.5 41h-154v-310h154
c62 0 110.667 13.833 146 41.5z" />
    <glyph glyph-name="uni042D" unicode="&#x42d;" horiz-adv-x="797" 
d="M219 19.5c-48.667 23 -88.833 55.498 -120.5 97.498s-51.834 90.667 -60.501 146h59c13.333 -68.667 45.5 -123.167 96.5 -163.5s113.167 -60.5 186.5 -60.5c54 0 102.5 12 145.5 36s77.333 57.5 103 100.5s40.167 92.167 43.5 147.5h-295v54h295
c-3.33301 55.333 -17.833 104.5 -43.5 147.5s-60 76.5 -103 100.5s-91.5 36 -145.5 36c-73.333 0 -135.5 -20.167 -186.5 -60.5s-83.167 -94.833 -96.5 -163.5h-59c8.66699 55.333 29 104 61 146s72.333 74.5 121 97.5s102.334 34.5 161.001 34.5
c67.333 0 127.833 -15.667 181.5 -47s95.5 -74.666 125.5 -129.999s45 -118 45 -188s-15 -132.667 -45 -188s-71.833 -98.666 -125.5 -129.999s-114.167 -47 -181.5 -47c-59.333 0 -113.333 11.5 -162 34.5z" />
    <glyph glyph-name="uni042E" unicode="&#x42e;" horiz-adv-x="1127" 
d="M537.5 28.5c-51.667 29 -93.334 69.0039 -125.001 120.004s-49.5 108.5 -53.5 172.5h-171v-321h-60v700h60v-321h171c4 64 21.833 121.5 53.5 172.5s73.334 91 125.001 120s109.167 43.5 172.5 43.5c66.667 0 126.834 -15.833 180.501 -47.5
s95.834 -75.334 126.501 -131.001s46 -117.834 46 -186.501s-15.333 -130.834 -46 -186.501s-72.834 -99.334 -126.501 -131.001s-113.834 -47.5 -180.501 -47.5c-63.333 0 -120.833 14.5 -172.5 43.5zM859.5 82.0039c44.333 26.667 79.166 63.5 104.499 110.5
s38 99.5 38 157.5s-12.667 110.5 -38 157.5s-60.166 83.833 -104.499 110.5s-94.166 40 -149.499 40c-54.667 0 -104.334 -13.333 -149.001 -40s-79.667 -63.5 -105 -110.5s-38 -99.5 -38 -157.5s12.667 -110.5 38 -157.5s60.333 -83.833 105 -110.5s94.334 -40 149.001 -40
c55.333 0 105.166 13.333 149.499 40z" />
    <glyph glyph-name="uni042F" unicode="&#x42f;" horiz-adv-x="682" 
d="M121 368c-29.333 34 -44.001 76.333 -44.001 127c0 63.333 23.167 113.333 69.5 150s109.833 55 190.5 55h217v-700h-60v288h-156c-7.33301 0 -17 0.666992 -29 2l-221 -290h-70l227 299c-53.333 12 -94.666 35 -123.999 69zM493.999 646h-158
c-62 0 -110.667 -13.5 -146 -40.5s-53 -64.167 -53 -111.5c0 -48 17.667 -85.667 53 -113s84 -41 146 -41h158v306z" />
    <glyph glyph-name="uni0430" unicode="&#x430;" horiz-adv-x="606" 
d="M95 24.5c-28.667 24.333 -43 56.832 -43 97.499c0 52 23.833 89.667 71.5 113s110.834 37.666 189.501 42.999c42.667 2.66699 74.834 7.66699 96.501 15s32.5 19 32.5 35c0 40 -14.5 72.667 -43.5 98s-66.167 38 -111.5 38c-44.667 0 -81.834 -12.167 -111.501 -36.5
s-48.5 -58.166 -56.5 -101.499h-52c9.33301 56.667 33.5 101.5 72.5 134.5s88.5 49.5 148.5 49.5c62.667 0 112.667 -18.167 150 -54.5s56 -84.833 56 -145.5v-261h74v-49h-121v117c-18.667 -39.333 -48.834 -70.666 -90.501 -93.999s-88.5 -35 -140.5 -35
s-92.333 12.167 -121 36.5zM335.5 60.499c33.667 17.667 60.166 41.668 79.499 72.001s29 63.5 29 99.5v33c-16.667 -15.333 -60 -25.333 -130 -30c-72.667 -4.66699 -125.5 -15.834 -158.5 -33.501s-49.5 -43.167 -49.5 -76.5c0 -29.333 10.5 -51.833 31.5 -67.5
s49.833 -23.5 86.5 -23.5c40.667 0 77.834 8.83301 111.501 26.5z" />
    <glyph glyph-name="uni0431" unicode="&#x431;" horiz-adv-x="625" 
d="M188 22c-39.333 21.333 -70.499 51.167 -93.499 89.5s-34.5 82.166 -34.5 131.499v131c2 89.333 28 156.333 78 201s114.667 67 194 67h140v68h50v-118h-193c-70.667 0 -125 -18.167 -163 -54.5s-57 -88.166 -57 -155.499v-38c18 37.333 46.667 67.333 86 90
s82.666 34 129.999 34c46 0 88 -10.333 126 -31s68 -49.167 90 -85.5s33 -76.5 33 -120.5c0 -44.667 -11.167 -85.5 -33.5 -122.5s-52.833 -66 -91.5 -87s-81.667 -31.5 -129 -31.5c-48.667 0 -92.667 10.667 -132 32zM420.001 63.001
c30.667 16.667 54.834 39.667 72.501 69s26.5 62 26.5 98s-8.83301 68.5 -26.5 97.5s-41.834 51.833 -72.501 68.5s-65 25 -103 25c-37.333 0 -71.5 -8.33301 -102.5 -25s-55.333 -39.5 -73 -68.5s-26.5 -61.5 -26.5 -97.5s8.83301 -68.667 26.5 -98s42 -52.333 73 -69
s65.167 -25 102.5 -25c38 0 72.333 8.33301 103 25z" />
    <glyph glyph-name="uni0432" unicode="&#x432;" horiz-adv-x="557" 
d="M321 500c54.667 0 97.5 -11.332 128.5 -33.999s46.5 -54.334 46.5 -95.001c0 -28 -7.83301 -51.833 -23.5 -71.5s-38.167 -34.167 -67.5 -43.5v-4c35.333 -8 62.5 -22.333 81.5 -43s28.5 -46.334 28.5 -77.001c0 -41.333 -16 -73.666 -48 -96.999s-76.333 -35 -133 -35
h-232v500h219zM407 296.001c23.333 16 35.001 38.334 35.001 67.001c0 29.333 -11 52.166 -33 68.499s-52.667 24.5 -92 24.5h-162v-184h155c41.333 0 73.666 8 96.999 24zM426.001 68.502c22.667 16.333 33.999 39.167 33.999 68.5c0 28.667 -11.667 51 -35 67
s-56 24 -98 24h-172v-184h176c40.667 0 72.334 8.16699 95.001 24.5z" />
    <glyph glyph-name="uni0433" unicode="&#x433;" horiz-adv-x="462" 
d="M102 500h348v-51h-294v-449h-54v500z" />
    <glyph glyph-name="uni0434" unicode="&#x434;" horiz-adv-x="592" 
d="M68 50c12.667 46 21.667 93.667 27 143s8 109.333 8 180v55v72h380v-450h68v-174h-52v124h-431v-124h-52v174h52zM429 451h-273v-78c0 -68.667 -2.66699 -128 -8 -178s-14 -98.333 -26 -145h307v401z" />
    <glyph glyph-name="uni0435" unicode="&#x435;" horiz-adv-x="615" 
d="M178 24c-40 22.667 -71.333 53.666 -94 92.999s-34 83.333 -34 132s11.5 92.834 34.5 132.501s54.5 71 94.5 94s84.333 34.5 133 34.5c48 0 91.667 -11.333 131 -34s70.333 -53.667 93 -93s34 -83 34 -131c0 -10 -0.333008 -17.333 -1 -22h-465
c2 -36 12.5 -68.5 31.5 -97.5s44.167 -52 75.5 -69s66 -25.5 104 -25.5c42 0 79.5 9.83301 112.5 29.5s56.167 45.5 69.5 77.5h54c-13.333 -45.333 -41.833 -82.5 -85.5 -111.5s-94.5 -43.5 -152.5 -43.5c-50 0 -95 11.333 -135 34zM483.5 371.499
c-18.333 28.333 -42.501 50.5 -72.501 66.5s-63 24 -99 24s-69.167 -8 -99.5 -24s-55 -38.167 -74 -66.5s-30.167 -60.166 -33.5 -95.499h411c-3.33301 35.333 -14.166 67.166 -32.499 95.499z" />
    <glyph glyph-name="uni0436" unicode="&#x436;" horiz-adv-x="791" 
d="M226 252l-200 248h63l181 -224h98v434h54v-434h100l182 224h62l-201 -248l202 -252h-66l-181 225h-98v-225h-54v225h-97l-181 -225h-66z" />
    <glyph glyph-name="uni0437" unicode="&#x437;" horiz-adv-x="528" 
d="M103 39.5c-44.667 34.333 -69.666 81.1689 -74.999 140.502h53c4.66699 -44 24 -79.167 58 -105.5s78 -39.5 132 -39.5c50.667 0 90 9.16699 118 27.5s42 43.833 42 76.5c0 24.667 -11.667 45.667 -35 63s-54.333 26 -93 26h-63v45h59
c33.333 0 61.666 8.16699 84.999 24.5s35 37.166 35 62.499c0 32 -13.5 57.5 -40.5 76.5s-63.5 28.5 -109.5 28.5c-50.667 0 -91.667 -12.667 -123 -38s-49.333 -60 -54 -104h-52c4 56.667 27 102.167 69 136.5s96.333 51.5 163 51.5c62 0 111 -13.833 147 -41.5
s54 -63.167 54 -106.5c0 -24.667 -8.33301 -46.834 -25 -66.501s-39 -34.167 -67 -43.5c32 -8 57.5 -22.5 76.5 -43.5s28.5 -45.167 28.5 -72.5c0 -46 -19.667 -82.333 -59 -109s-91.333 -40 -156 -40c-67.333 0 -123.333 17.167 -168 51.5z" />
    <glyph glyph-name="uni0438" unicode="&#x438;" horiz-adv-x="656" 
d="M102 500h54v-430l339 430h59v-500h-54v430l-339 -430h-59v500z" />
    <glyph glyph-name="uni0439" unicode="&#x439;" horiz-adv-x="656" 
d="M102 500h54v-430l339 430h59v-500h-54v430l-339 -430h-59v500zM198.5 620.5c-32.333 29.667 -48.5 68.5 -48.5 116.5v8h47v-8c0 -35.333 11.667 -63.5 35 -84.5s55.333 -31.5 96 -31.5s72.667 10.5 96 31.5s35 49.167 35 84.5v8h48v-8c0 -48 -16.333 -86.833 -49 -116.5
s-76 -44.5 -130 -44.5s-97.167 14.833 -129.5 44.5z" />
    <glyph glyph-name="uni043A" unicode="&#x43a;" horiz-adv-x="544" 
d="M102 710h54v-434h97l199 224h66l-220 -248l222 -252h-69l-199 225h-96v-225h-54v710z" />
    <glyph glyph-name="uni043B" unicode="&#x43b;" horiz-adv-x="624" 
d="M6 1l-0.00292969 52c14.667 -7.33301 29 -11 43 -11c14.667 0 27.834 3.83301 39.501 11.5s20.834 18.834 27.501 33.501c18 45.333 27 153.666 27 324.999v88h379v-500h-54v449h-274v-56c0 -86 -2.5 -157 -7.5 -213s-14.833 -98 -29.5 -126
c-20.667 -42 -53.667 -63 -99 -63c-19.333 0 -36.666 3.33301 -51.999 10z" />
    <glyph glyph-name="uni043C" unicode="&#x43c;" horiz-adv-x="786" 
d="M102 500h88l204 -438l204 438h86v-500h-53v451l-209 -451h-56l-211 452v-452h-53v500z" />
    <glyph glyph-name="uni043D" unicode="&#x43d;" horiz-adv-x="644" 
d="M102 500h54v-224h332v224h54v-500h-54v224h-332v-224h-54v500z" />
    <glyph glyph-name="uni043E" unicode="&#x43e;" horiz-adv-x="628" 
d="M179.5 24c-40.333 22.667 -72 53.834 -95 93.501s-34.5 83.834 -34.5 132.501c0 48 11.667 91.833 35 131.5s55.166 71 95.499 94s84.833 34.5 133.5 34.5c49.333 0 94.166 -11.333 134.499 -34s72 -53.834 95 -93.501s34.5 -83.834 34.5 -132.501
c0 -48 -11.667 -91.833 -35 -131.5s-55.166 -71 -95.499 -94s-84.833 -34.5 -133.5 -34.5c-49.333 0 -94.166 11.333 -134.499 34zM421 67.5c32 18.333 57 43.5 75 75.5s27 67.667 27 107s-9 75 -27 107s-43 57.167 -75 75.5s-67.667 27.5 -107 27.5
s-75 -9.16699 -107 -27.5s-57 -43.5 -75 -75.5s-27 -67.667 -27 -107s9.16699 -75 27.5 -107s43.333 -57.167 75 -75.5s67.167 -27.5 106.5 -27.5s75 9.16699 107 27.5z" />
    <glyph glyph-name="uni043F" unicode="&#x43f;" horiz-adv-x="644" 
d="M102 500h440v-500h-54v449h-332v-449h-54v500z" />
    <glyph glyph-name="uni0440" unicode="&#x440;" horiz-adv-x="662" 
d="M153 500l-0.000976562 -119.999c19.333 40 47.333 71.667 84 95s78.667 35 126 35c46.667 0 88.834 -11.333 126.501 -34s67.5 -53.834 89.5 -93.501s33 -83.834 33 -132.501c0 -48 -11 -91.833 -33 -131.5s-52 -71 -90 -94s-80 -34.5 -126 -34.5
c-46.667 0 -88 11.333 -124 34s-63.667 53.334 -83 92.001v-316h-54v700h51zM457.999 67.501c30.667 18.333 54.834 43.5 72.501 75.5s26.5 67.667 26.5 107s-8.83301 75 -26.5 107s-41.834 57.167 -72.501 75.5s-64.667 27.5 -102 27.5s-71.333 -9.16699 -102 -27.5
s-54.834 -43.5 -72.501 -75.5s-26.5 -67.667 -26.5 -107s8.83301 -75 26.5 -107s41.834 -57.167 72.501 -75.5s64.667 -27.5 102 -27.5s71.333 9.16699 102 27.5z" />
    <glyph glyph-name="uni0441" unicode="&#x441;" horiz-adv-x="602" 
d="M176.5 24c-39.667 22.667 -70.6689 53.832 -93.002 93.499s-33.5 83.834 -33.5 132.501s11.333 92.834 34 132.501s53.834 70.834 93.501 93.501s83.834 34 132.501 34c66 0 121 -17.833 165 -53.5s71 -83.5 81 -143.5h-53c-10.667 45.333 -33 81.166 -67 107.499
s-76 39.5 -126 39.5c-38.667 0 -73.667 -9.16699 -105 -27.5s-56 -43.5 -74 -75.5s-27 -67.667 -27 -107s9 -75 27 -107s42.667 -57.167 74 -75.5s66.333 -27.5 105 -27.5c50 0 92.167 13.167 126.5 39.5s56.5 62.166 66.5 107.499h53c-10.667 -60 -38 -107.833 -82 -143.5
s-98.667 -53.5 -164 -53.5c-49.333 0 -93.833 11.333 -133.5 34z" />
    <glyph glyph-name="uni0442" unicode="&#x442;" horiz-adv-x="539" 
d="M243 449h-214v51h481v-51h-213v-449h-54v449z" />
    <glyph glyph-name="uni0443" unicode="&#x443;" horiz-adv-x="551" 
d="M67.5 -167.5c-29 28.333 -43.5 67.501 -43.5 117.501v27h51v-30c0 -33.333 9.5 -59.833 28.5 -79.5s44.167 -29.5 75.5 -29.5c30.667 0 55.167 9.5 73.5 28.5s27.5 44.833 27.5 77.5v14c0 16 -1.16699 30.167 -3.5 42.5s-6.83301 24.5 -13.5 36.5l-250 463h62l216 -407
c6 -9.33301 10 -21.333 12 -36c3.33301 14.667 7 26.667 11 36l171 407h57l-192 -451c-6 -14.667 -10.333 -27.834 -13 -39.501s-4 -25.167 -4 -40.5v-24c0 -47.333 -14.333 -85 -43 -113s-66 -42 -112 -42c-44.667 0 -81.5 14.167 -110.5 42.5z" />
    <glyph glyph-name="uni0444" unicode="&#x444;" horiz-adv-x="951" 
d="M376.5 21.5c-31 -21 -66.833 -31.5 -107.5 -31.5c-41.333 0 -78.666 11.167 -111.999 33.5s-59.5 53.333 -78.5 93s-28.5 84.167 -28.5 133.5s9.5 93.833 28.5 133.5s45.167 70.667 78.5 93s70.666 33.5 111.999 33.5c40.667 0 76.5 -10.5 107.5 -31.5
s54.833 -50.167 71.5 -87.5v319h54v-319c16.667 37.333 40.667 66.5 72 87.5s67.333 31.5 108 31.5c41.333 0 78.666 -11.167 111.999 -33.5s59.5 -53.333 78.5 -93s28.5 -84.167 28.5 -133.5s-9.5 -93.833 -28.5 -133.5s-45.167 -70.667 -78.5 -93
s-70.666 -33.5 -111.999 -33.5c-40.667 0 -76.667 10.5 -108 31.5s-55.333 50.167 -72 87.5v-309h-54v309c-16.667 -37.333 -40.5 -66.5 -71.5 -87.5zM365.5 68c26.333 18 47 42.833 62 74.5s22.5 67.5 22.5 107.5s-7.5 75.833 -22.5 107.5s-35.667 56.5 -62 74.5
s-55.833 27 -88.5 27s-62 -9 -88 -27s-46.5 -42.833 -61.5 -74.5s-22.5 -67.5 -22.5 -107.5s7.5 -75.833 22.5 -107.5s35.5 -56.5 61.5 -74.5s55.333 -27 88 -27s62.167 9 88.5 27zM762 68c26 18 46.5 42.833 61.5 74.5s22.5 67.5 22.5 107.5s-7.5 75.833 -22.5 107.5
s-35.5 56.5 -61.5 74.5s-55.333 27 -88 27s-62.167 -9 -88.5 -27s-47 -42.833 -62 -74.5s-22.5 -67.5 -22.5 -107.5s7.5 -75.833 22.5 -107.5s35.667 -56.5 62 -74.5s55.833 -27 88.5 -27s62 9 88 27z" />
    <glyph glyph-name="uni0445" unicode="&#x445;" horiz-adv-x="557" 
d="M244 254l-210 246h67l178 -207l180 207h64l-210 -244l218 -256h-66l-187 217l-188 -217h-64z" />
    <glyph glyph-name="uni0446" unicode="&#x446;" horiz-adv-x="647" 
d="M553 0h-451v500h54v-450h328v450h54v-450h68v-174h-53v124z" />
    <glyph glyph-name="uni0447" unicode="&#x447;" horiz-adv-x="569" 
d="M252 199c-58.667 0 -104.832 13.334 -138.499 40.001s-50.5 62.667 -50.5 108v153h54v-148c0 -32.667 11.667 -57.834 35 -75.501s57.666 -26.5 102.999 -26.5h158v250h54v-500h-54v199h-161z" />
    <glyph glyph-name="uni0448" unicode="&#x448;" horiz-adv-x="876" 
d="M102 500h54v-450h255v450h54v-450h255v450h54v-500h-672v500z" />
    <glyph glyph-name="uni0449" unicode="&#x449;" horiz-adv-x="881" 
d="M787 0h-687v500h54v-450h255v450h54v-450h255v450h54v-450h67v-174h-52v124z" />
    <glyph glyph-name="uni044A" unicode="&#x44a;" horiz-adv-x="606" 
d="M505 260.5c34.667 -27 52 -63.832 52 -110.499s-17.333 -83.334 -52 -110.001s-81.667 -40 -141 -40h-179v449h-165v51h219l1 -199h124c59.333 0 106.333 -13.5 141 -40.5zM466 75.501c24 18.333 36 43.5 36 75.5s-12 57.167 -36 75.5s-57.333 27.5 -100 27.5h-126v-206
h126c42.667 0 76 9.16699 100 27.5z" />
    <glyph glyph-name="uni044B" unicode="&#x44b;" horiz-adv-x="732" 
d="M156 500v-198.999h125c59.333 0 106.333 -13.5 141 -40.5s52 -63.833 52 -110.5s-17.333 -83.334 -52 -110.001s-81.667 -40 -141 -40h-179v500h54zM383 75.501c24 18.333 36 43.5 36 75.5s-12 57.167 -36 75.5s-57.333 27.5 -100 27.5h-127l1 -206h126
c42.667 0 76 9.16699 100 27.5zM576 500.001h54v-500h-54v500z" />
    <glyph glyph-name="uni044C" unicode="&#x44c;" horiz-adv-x="523" 
d="M156 500v-198.999h125c59.333 0 106.333 -13.5 141 -40.5s52 -63.833 52 -110.5s-17.333 -83.334 -52 -110.001s-81.667 -40 -141 -40h-179v500h54zM383 75.501c24 18.333 36 43.5 36 75.5s-12 57.167 -36 75.5s-57.333 27.5 -100 27.5h-127l1 -206h126
c42.667 0 76 9.16699 100 27.5z" />
    <glyph glyph-name="uni044D" unicode="&#x44d;" horiz-adv-x="605" 
d="M131 44c-45.333 36 -73.665 83.6709 -84.998 143.004h52c10 -46 33 -82.333 69 -109s80.667 -40 134 -40c34.667 0 66.667 8.16699 96 24.5s53.166 38.833 71.499 67.5s29.166 60.667 32.499 96h-208v48h208c-3.33301 35.333 -14.166 67.333 -32.499 96
s-42.166 51.167 -71.499 67.5s-61.333 24.5 -96 24.5c-53.333 0 -97.833 -13.333 -133.5 -40s-58.834 -63 -69.501 -109h-52c11.333 60 39.666 107.833 84.999 143.5s101.666 53.5 168.999 53.5c47.333 0 90.5 -11.333 129.5 -34s69.667 -53.834 92 -93.501
s33.5 -83.834 33.5 -132.501s-11.167 -92.834 -33.5 -132.501s-53 -70.834 -92 -93.501s-82.167 -34 -129.5 -34c-67.333 0 -123.666 18 -168.999 54z" />
    <glyph glyph-name="uni044E" unicode="&#x44e;" horiz-adv-x="842" 
d="M414.5 20.5c-37 20.333 -67 48.334 -90 84.001s-36.167 75.834 -39.5 120.501h-129v-225h-54v500h54v-224h129c4 44 17.5 83.833 40.5 119.5s53 63.667 90 84s77.5 30.5 121.5 30.5c47.333 0 90.5 -11.333 129.5 -34s69.667 -53.834 92 -93.501
s33.5 -83.834 33.5 -132.501c0 -48 -11.167 -91.833 -33.5 -131.5s-53 -71 -92 -94s-82.167 -34.5 -129.5 -34.5c-44.667 0 -85.5 10.167 -122.5 30.5zM639 68.501c30.667 18.333 54.667 43.5 72 75.5s26 67.333 26 106s-8.66699 74 -26 106s-41.333 57.167 -72 75.5
s-64.667 27.5 -102 27.5c-36.667 0 -70.334 -9.16699 -101.001 -27.5s-54.834 -43.5 -72.501 -75.5s-26.5 -67.333 -26.5 -106s8.83301 -74 26.5 -106s41.834 -57.167 72.501 -75.5s64.334 -27.5 101.001 -27.5c37.333 0 71.333 9.16699 102 27.5z" />
    <glyph glyph-name="uni044F" unicode="&#x44f;" horiz-adv-x="552" 
d="M98 255c-20 24.667 -30.001 55.334 -30.001 92.001c0 47.333 16.833 84.666 50.5 111.999s79.834 41 138.501 41h193v-500h-54v193h-143h-15l-150 -193h-64l159 204c-36.667 9.33301 -65 26.333 -85 51zM395.999 454l-141 -0.000976562
c-41.333 0 -73.833 -9.66699 -97.5 -29s-35.5 -45.666 -35.5 -78.999c0 -32.667 11.833 -58.667 35.5 -78s56.167 -29 97.5 -29h141v215z" />
    <glyph glyph-name="uni0451" unicode="&#x451;" horiz-adv-x="615" 
d="M178 24c-40 22.667 -71.333 53.666 -94 92.999s-34 83.333 -34 132s11.5 92.834 34.5 132.501s54.5 71 94.5 94s84.333 34.5 133 34.5c48 0 91.667 -11.333 131 -34s70.333 -53.667 93 -93s34 -83 34 -131c0 -10 -0.333008 -17.333 -1 -22h-465
c2 -36 12.5 -68.5 31.5 -97.5s44.167 -52 75.5 -69s66 -25.5 104 -25.5c42 0 79.5 9.83301 112.5 29.5s56.167 45.5 69.5 77.5h54c-13.333 -45.333 -41.833 -82.5 -85.5 -111.5s-94.5 -43.5 -152.5 -43.5c-50 0 -95 11.333 -135 34zM483.5 371.499
c-18.333 28.333 -42.501 50.5 -72.501 66.5s-63 24 -99 24s-69.167 -8 -99.5 -24s-55 -38.167 -74 -66.5s-30.167 -60.166 -33.5 -95.499h411c-3.33301 35.333 -14.166 67.166 -32.499 95.499zM199.999 744.999h72l-32 -168h-9zM335.999 744.999h72l-32 -168h-9z" />
    <glyph glyph-name="uni0454" unicode="&#x454;" horiz-adv-x="605" 
d="M177.5 24c-39.667 22.667 -70.834 53.6689 -93.501 93.002s-34 83.666 -34 132.999s11.333 93.666 34 132.999s53.834 70.333 93.501 93s84.167 34 133.5 34c66 0 121.167 -17.833 165.5 -53.5s71.833 -83.5 82.5 -143.5h-53c-10 46 -32.333 82.333 -67 109
s-78.334 40 -131.001 40c-36.667 0 -69.834 -8.16699 -99.501 -24.5s-53.834 -38.833 -72.501 -67.5s-29.667 -60.667 -33 -96h209v-48h-209c3.33301 -35.333 14.333 -67.333 33 -96s42.834 -51.167 72.501 -67.5s62.834 -24.5 99.501 -24.5
c52.667 0 96.334 13.333 131.001 40s57 63 67 109h53c-10.667 -59.333 -38.167 -107 -82.5 -143s-99.5 -54 -165.5 -54c-49.333 0 -93.833 11.333 -133.5 34z" />
    <glyph glyph-name="uni0456" unicode="&#x456;" horiz-adv-x="258" 
d="M102 500h54v-500h-54v500zM89 745h80l-35 -168h-10z" />
    <glyph glyph-name="uni0457" unicode="&#x457;" horiz-adv-x="258" 
d="M102 500h54v-500h-54v500zM25 745h72l-32 -168h-9zM161 745h72l-32 -168h-9z" />
    <glyph glyph-name="uni045E" unicode="&#x45e;" horiz-adv-x="551" 
d="M67.5 -167.5c-29 28.333 -43.5 67.501 -43.5 117.501v27h51v-30c0 -33.333 9.5 -59.833 28.5 -79.5s44.167 -29.5 75.5 -29.5c30.667 0 55.167 9.5 73.5 28.5s27.5 44.833 27.5 77.5v14c0 16 -1.16699 30.167 -3.5 42.5s-6.83301 24.5 -13.5 36.5l-250 463h62l216 -407
c6 -9.33301 10 -21.333 12 -36c3.33301 14.667 7 26.667 11 36l171 407h57l-192 -451c-6 -14.667 -10.333 -27.834 -13 -39.501s-4 -25.167 -4 -40.5v-24c0 -47.333 -14.333 -85 -43 -113s-66 -42 -112 -42c-44.667 0 -81.5 14.167 -110.5 42.5zM151.5 620.501
c-32.333 29.667 -48.5 68.5 -48.5 116.5v8h47v-8c0 -35.333 11.667 -63.5 35 -84.5s55.333 -31.5 96 -31.5s72.667 10.5 96 31.5s35 49.167 35 84.5v8h48v-8c0 -48 -16.333 -86.833 -49 -116.5s-76 -44.5 -130 -44.5s-97.167 14.833 -129.5 44.5z" />
    <glyph glyph-name="uni0490" unicode="&#x490;" horiz-adv-x="604" 
d="M572 861v-218h-384v-643h-60v700h386v161h58z" />
    <glyph glyph-name="uni0491" unicode="&#x491;" horiz-adv-x="462" 
d="M102 500h296v116h52v-167h-294v-649h-54v700z" />
    <glyph glyph-name="Wgrave" unicode="&#x1e80;" horiz-adv-x="1033" 
d="M38 700h62l194 -637l193 637h61l193 -636l193 636h61l-212 -700h-80l-187 616l-187 -616h-78zM479 785l-67 160h55l66 -160h-54z" />
    <glyph glyph-name="wgrave" unicode="&#x1e81;" horiz-adv-x="798" 
d="M23 500h55l146 -439l147 439h57l148 -439l145 439h54l-165 -500h-64l-147 435l-146 -435h-65zM362 585l-67 160h55l66 -160h-54z" />
    <glyph glyph-name="Wacute" unicode="&#x1e82;" horiz-adv-x="1033" 
d="M38 700h62l194 -637l193 637h61l193 -636l193 636h61l-212 -700h-80l-187 616l-187 -616h-78zM566 945h54l-67 -160h-53z" />
    <glyph glyph-name="wacute" unicode="&#x1e83;" horiz-adv-x="798" 
d="M23 500h55l146 -439l147 439h57l148 -439l145 439h54l-165 -500h-64l-147 435l-146 -435h-65zM449 745h54l-67 -160h-53z" />
    <glyph glyph-name="Wdieresis" unicode="&#x1e84;" horiz-adv-x="1033" 
d="M38 700h62l194 -637l193 637h61l193 -636l193 636h61l-212 -700h-80l-187 616l-187 -616h-78zM412 945h72l-32 -168h-9zM548 945h72l-32 -168h-9z" />
    <glyph glyph-name="wdieresis" unicode="&#x1e85;" horiz-adv-x="798" 
d="M23 500h55l146 -439l147 439h57l148 -439l145 439h54l-165 -500h-64l-147 435l-146 -435h-65zM295 745h72l-32 -168h-9zM431 745h72l-32 -168h-9z" />
    <glyph glyph-name="uni1E9E" unicode="&#x1e9e;" horiz-adv-x="840" 
d="M404.5 13c-38.333 18.667 -68.332 44.501 -89.999 77.501s-32.5 69.833 -32.5 110.5h53c0 -31.333 8.5 -59.666 25.5 -84.999s40.5 -45 70.5 -59s64 -21 102 -21c37.333 0 71 7.5 101 22.5s53.5 35.833 70.5 62.5s25.5 56.334 25.5 89.001
c0 48 -15.167 86.833 -45.5 116.5s-70.5 44.5 -120.5 44.5c-49.333 0 -96.666 -9.33301 -141.999 -28l-8 -5l-11 34l272 275h-489v-647h-58v700h615v-55l-245 -249c28 13.333 55.667 20 83 20c40 -0.666992 75.667 -9.83398 107 -27.501s55.666 -41.834 72.999 -72.501
s26 -65 26 -103c0 -43.333 -10.833 -82.333 -32.5 -117s-51.834 -61.834 -90.501 -81.501s-82.334 -29.5 -131.001 -29.5c-47.333 0 -90.166 9.33301 -128.499 28z" />
    <glyph glyph-name="Ygrave" unicode="&#x1ef2;" horiz-adv-x="676" 
d="M308 266l-303 434h72l263 -374l262 374h69l-303 -434v-266h-60v266zM301 785l-67 160h55l66 -160h-54z" />
    <glyph glyph-name="ygrave" unicode="&#x1ef3;" horiz-adv-x="551" 
d="M67.5 -167.5c-29 28.333 -43.5 67.501 -43.5 117.501v27h51v-30c0 -33.333 9.5 -59.833 28.5 -79.5s44.167 -29.5 75.5 -29.5c30.667 0 55.167 9.5 73.5 28.5s27.5 44.833 27.5 77.5v14c0 16 -1.16699 30.167 -3.5 42.5s-6.83301 24.5 -13.5 36.5l-250 463h62l216 -407
c6 -9.33301 10 -21.333 12 -36c3.33301 14.667 7 26.667 11 36l171 407h57l-192 -451c-6 -14.667 -10.333 -27.834 -13 -39.501s-4 -25.167 -4 -40.5v-24c0 -47.333 -14.333 -85 -43 -113s-66 -42 -112 -42c-44.667 0 -81.5 14.167 -110.5 42.5zM244 585.001l-67 160h55
l66 -160h-54z" />
    <glyph glyph-name="endash" unicode="&#x2013;" horiz-adv-x="544" 
d="M76 325h392v-50h-392v50z" />
    <glyph glyph-name="emdash" unicode="&#x2014;" horiz-adv-x="704" 
d="M76 325h552v-50h-552v50z" />
    <glyph glyph-name="quoteleft" unicode="&#x2018;" horiz-adv-x="176" 
d="M88 624l3.99902 0.000976562c12 -2 21.333 -7 28 -15s10 -17 10 -27c0 -12.667 -4.16699 -23.5 -12.5 -32.5s-19.166 -13.5 -32.499 -13.5s-24.333 4.5 -33 13.5s-13 21.167 -13 36.5c0 22.667 6 49.167 18 79.5s25 53.166 39 68.499h37
c-26.667 -39.333 -41.667 -76 -45 -110z" />
    <glyph glyph-name="quoteright" unicode="&#x2019;" horiz-adv-x="176" 
d="M90 626l-3.00098 -0.00195312c-12 2 -21.333 6.83301 -28 14.5s-10 16.834 -10 27.501c0 12.667 4.16699 23.5 12.5 32.5s19.166 13.5 32.499 13.5c12.667 0 23.334 -4.5 32.001 -13.5s13 -21.167 13 -36.5c0 -22.667 -6 -49.167 -18 -79.5s-25 -53.166 -39 -68.499h-36
c26.667 40 41.334 76.667 44.001 110z" />
    <glyph glyph-name="quotesinglbase" unicode="&#x201a;" horiz-adv-x="176" 
d="M90 -4l-3.00098 -0.00195312c-12 2 -21.333 6.83301 -28 14.5s-10 16.834 -10 27.501c0 12.667 4.16699 23.5 12.5 32.5s19.166 13.5 32.499 13.5c12.667 0 23.334 -4.5 32.001 -13.5s13 -21.167 13 -36.5c0 -22.667 -6 -49.167 -18 -79.5s-25 -53.166 -39 -68.499h-36
c26.667 40 41.334 76.667 44.001 110z" />
    <glyph glyph-name="quotedblleft" unicode="&#x201c;" horiz-adv-x="329" 
d="M99 624l3.99902 0.00195312c12 -2 21.333 -6.83301 28 -14.5s10 -16.834 10 -27.501c0 -12.667 -4.16699 -23.5 -12.5 -32.5s-19.166 -13.5 -32.499 -13.5s-24.333 4.5 -33 13.5s-13 21.167 -13 36.5c0 22.667 6 49.167 18 79.5s25 53.166 39 68.499h37
c-26.667 -39.333 -41.667 -76 -45 -110zM252.999 624.002l3.00098 0.00195312c12 -2 21.333 -6.83301 28 -14.5s10 -16.834 10 -27.501c0 -12.667 -4.16699 -23.5 -12.5 -32.5s-19.166 -13.5 -32.499 -13.5c-12.667 0 -23.334 4.5 -32.001 13.5s-13 21.167 -13 36.5
c0 22.667 6 49.167 18 79.5s25 53.166 39 68.499h36c-26.667 -40 -41.334 -76.667 -44.001 -110z" />
    <glyph glyph-name="quotedblright" unicode="&#x201d;" horiz-adv-x="329" 
d="M73 626l-3.00098 -0.00195312c-12 2 -21.333 6.83301 -28 14.5s-10 16.834 -10 27.501c0 12.667 4.16699 23.5 12.5 32.5s19.166 13.5 32.499 13.5c12.667 0 23.334 -4.5 32.001 -13.5s13 -21.167 13 -36.5c0 -22.667 -6 -49.167 -18 -79.5s-25 -53.166 -39 -68.499h-36
c26.667 40 41.334 76.667 44.001 110zM226.999 625.998l-3.00098 -0.00195312c-12 2 -21.333 6.83301 -28 14.5s-10 16.834 -10 27.501c0 12.667 4.16699 23.5 12.5 32.5s19.166 13.5 32.499 13.5c12.667 0 23.334 -4.5 32.001 -13.5s13 -21.167 13 -36.5
c0 -22.667 -6 -49.167 -18 -79.5s-25 -53.166 -39 -68.499h-36c26.667 40 41.334 76.667 44.001 110z" />
    <glyph glyph-name="quotedblbase" unicode="&#x201e;" horiz-adv-x="329" 
d="M90 -4l-3.00098 -0.00195312c-12 2 -21.333 6.83301 -28 14.5s-10 16.834 -10 27.501c0 12.667 4.16699 23.5 12.5 32.5s19.166 13.5 32.499 13.5c12.667 0 23.334 -4.5 32.001 -13.5s13 -21.167 13 -36.5c0 -22.667 -6 -49.167 -18 -79.5s-25 -53.166 -39 -68.499h-36
c26.667 40 41.334 76.667 44.001 110zM243.999 -4.00195l-3.00098 -0.00195312c-12 2 -21.333 6.83301 -28 14.5s-10 16.834 -10 27.501c0 12.667 4.16699 23.5 12.5 32.5s19.166 13.5 32.499 13.5c12.667 0 23.334 -4.5 32.001 -13.5s13 -21.167 13 -36.5
c0 -22.667 -6 -49.167 -18 -79.5s-25 -53.166 -39 -68.499h-36c26.667 40 41.334 76.667 44.001 110z" />
    <glyph glyph-name="dagger" unicode="&#x2020;" horiz-adv-x="326" 
d="M142 568h-133v40h133v102h42v-102h133v-40h-133v-166h-42v166z" />
    <glyph glyph-name="daggerdbl" unicode="&#x2021;" horiz-adv-x="326" 
d="M142 486h-133v38h133v64h-133v38h133v84h42v-84h133v-38h-133v-64h133v-38h-133v-84h-42v84z" />
    <glyph glyph-name="bullet" unicode="&#x2022;" horiz-adv-x="494" 
d="M186.5 239.5c-16.333 16.333 -24.5 36.5 -24.5 60.5s8.16699 44.167 24.5 60.5s36.5 24.5 60.5 24.5s44.167 -8.16699 60.5 -24.5s24.5 -36.5 24.5 -60.5s-8.16699 -44.167 -24.5 -60.5s-36.5 -24.5 -60.5 -24.5s-44.167 8.16699 -60.5 24.5z" />
    <glyph glyph-name="ellipsis" unicode="&#x2026;" horiz-adv-x="740" 
d="M90 6.5c-8.66699 9 -13 19.833 -13 32.5s4.33301 23.334 13 32.001s19.334 13 32.001 13s23.334 -4.33301 32.001 -13s13 -19.334 13 -32.001c0 -13.333 -4.33301 -24.333 -13 -33s-19.334 -13 -32.001 -13s-23.334 4.5 -32.001 13.5zM338 6.5
c-8.66699 9 -13 19.833 -13 32.5s4.33301 23.334 13 32.001s19.334 13 32.001 13s23.334 -4.33301 32.001 -13s13 -19.334 13 -32.001c0 -13.333 -4.33301 -24.333 -13 -33s-19.334 -13 -32.001 -13s-23.334 4.5 -32.001 13.5zM586 6.5c-8.66699 9 -13 19.833 -13 32.5
s4.33301 23.334 13 32.001s19.334 13 32.001 13s23.334 -4.33301 32.001 -13s13 -19.334 13 -32.001c0 -13.333 -4.33301 -24.333 -13 -33s-19.334 -13 -32.001 -13s-23.334 4.5 -32.001 13.5z" />
    <glyph glyph-name="perthousand" unicode="&#x2030;" horiz-adv-x="1151" 
d="M117.5 397c-25 14.667 -44.833 34.5 -59.5 59.5s-22 52.833 -22 83.5s7.33301 58.5 22 83.5s34.5 44.833 59.5 59.5s52.833 22 83.5 22s58.5 -7.33301 83.5 -22s44.833 -34.5 59.5 -59.5s22 -52.833 22 -83.5s-7.33301 -58.5 -22 -83.5s-34.5 -44.833 -59.5 -59.5
s-52.833 -22 -83.5 -22s-58.5 7.33301 -83.5 22zM565 700h50l-414 -700h-50zM287 454c23.333 23.333 35 52 35 86s-11.667 62.667 -35 86s-52 35 -86 35s-62.667 -11.667 -86 -35s-35 -52 -35 -86s11.667 -62.667 35 -86s52 -35 86 -35s62.667 11.667 86 35zM481.5 17
c-25 14.667 -44.833 34.5 -59.5 59.5s-22 52.833 -22 83.5s7.33301 58.5 22 83.5s34.5 44.833 59.5 59.5s52.833 22 83.5 22s58.5 -7.33301 83.5 -22s44.833 -34.5 59.5 -59.5s22 -52.833 22 -83.5s-7.33301 -58.5 -22 -83.5s-34.5 -44.833 -59.5 -59.5
s-52.833 -22 -83.5 -22s-58.5 7.33301 -83.5 22zM866.5 17c-25 14.667 -44.833 34.5 -59.5 59.5s-22 52.833 -22 83.5s7.33301 58.5 22 83.5s34.5 44.833 59.5 59.5s52.833 22 83.5 22s58.5 -7.33301 83.5 -22s44.833 -34.5 59.5 -59.5s22 -52.833 22 -83.5
s-7.33301 -58.5 -22 -83.5s-34.5 -44.833 -59.5 -59.5s-52.833 -22 -83.5 -22s-58.5 7.33301 -83.5 22zM651 74c23.333 23.333 35 52 35 86s-11.667 62.667 -35 86s-52 35 -86 35s-62.667 -11.667 -86 -35s-35 -52 -35 -86s11.667 -62.667 35 -86s52 -35 86 -35
s62.667 11.667 86 35zM1036 74c23.333 23.333 35 52 35 86s-11.667 62.667 -35 86s-52 35 -86 35s-62.667 -11.667 -86 -35s-35 -52 -35 -86s11.667 -62.667 35 -86s52 -35 86 -35s62.667 11.667 86 35z" />
    <glyph glyph-name="guilsinglleft" unicode="&#x2039;" horiz-adv-x="320" 
d="M134 300l109 -200h-59l-106 194v12l106 194h59z" />
    <glyph glyph-name="guilsinglright" unicode="&#x203a;" horiz-adv-x="320" 
d="M187 300l-109 200h59l106 -194v-12l-106 -194h-59z" />
    <glyph glyph-name="Euro" unicode="&#x20ac;" 
d="M251.5 19.5c-40.333 23 -74 55.4971 -101 97.4971s-45.5 91 -55.5 147h-75v42h69c-1.33301 18.667 -2 33.334 -2 44.001s0.666992 25.334 2 44.001h-69v42h75c10 56 28.5 105 55.5 147s60.667 74.5 101 97.5s84.166 34.5 131.499 34.5c46 0 89.333 -11 130 -33
s74.334 -53.333 101.001 -94s43 -87.667 49 -141h-59c-5.33301 43.333 -18.666 81.333 -39.999 114s-48 57.834 -80 75.501s-66 26.5 -102 26.5c-58 0 -107.5 -20.667 -148.5 -62s-67.5 -96.333 -79.5 -165h268v-42h-274c-1.33301 -18.667 -2 -33.334 -2 -44.001
s0.666992 -25.334 2 -44.001h274v-42h-268c12 -68.667 38.5 -123.5 79.5 -164.5s90.5 -61.5 148.5 -61.5c36 0 70 8.83301 102 26.5s58.667 42.834 80 75.501s34.666 70.334 39.999 113.001h59c-6 -53.333 -22.333 -100.333 -49 -141s-60.334 -72 -101.001 -94
s-84 -33 -130 -33c-47.333 0 -91.166 11.5 -131.499 34.5z" />
    <glyph glyph-name="uni20B4" unicode="&#x20b4;" 
d="M207.5 7c-37 14.667 -65.5029 35.502 -85.5029 62.502s-30 58.5 -30 94.5c0 40 11 73.333 33 100h-79v42h119c18 11.333 39.167 21 63.5 29s55.166 17 92.499 27c47.333 12.667 82 23.334 104 32.001h-379v42h448c29.333 23.333 44 54 44 92
c0 41.333 -16.667 74.666 -50 99.999s-77.333 38 -132 38c-55.333 0 -100.833 -13.667 -136.5 -41s-59.167 -66.333 -70.5 -117h-58c13.333 65.333 43.5 116.166 90.5 152.499s106.5 54.5 178.5 54.5c46.667 0 87.834 -7.5 123.501 -22.5s63.334 -36.333 83.001 -64
s29.5 -59.5 29.5 -95.5c0 -37.333 -12 -69.666 -36 -96.999h96v-42h-138c-17.333 -8.66699 -35.333 -16 -54 -22s-47 -14.333 -85 -25c-60 -16 -102.667 -29.667 -128 -41h405v-42h-468c-28 -26 -42 -57.667 -42 -95c0 -40.667 17.667 -73.334 53 -98.001s82 -37 140 -37
c58.667 0 107.5 14.167 146.5 42.5s64.5 68.166 76.5 119.499h58c-13.333 -66.667 -44.666 -118.5 -93.999 -155.5s-112.666 -55.5 -189.999 -55.5c-48.667 0 -91.5 7.33301 -128.5 22z" />
    <glyph glyph-name="uni20BD" unicode="&#x20bd;" 
d="M52 181v43h116v72h-116v42h116v362h205c78.667 0 140.5 -18 185.5 -54s67.5 -85.333 67.5 -148s-22.5 -112 -67.5 -148s-106.833 -54 -185.5 -54h-147v-72h349v-43h-349v-181h-58v181h-116zM515 378.5c35.333 27 53 64.166 53 111.499
c0 48.667 -17.5 86.834 -52.5 114.501s-83.833 41.5 -146.5 41.5h-143v-308h143c62 0 110.667 13.5 146 40.5z" />
    <glyph glyph-name="uni2116" unicode="&#x2116;" horiz-adv-x="1212" 
d="M193 700l462 -614v614h57v-700h-64l-462 614v-614h-58v700h65zM931.5 392c-25 14.667 -44.833 34.5 -59.5 59.5s-22 52.833 -22 83.5s7.33301 58.5 22 83.5s34.5 44.833 59.5 59.5s52.5 22 82.5 22c30.667 0 58.667 -7.33301 84 -22s45.333 -34.5 60 -59.5
s22 -52.833 22 -83.5s-7.33301 -58.5 -22 -83.5s-34.667 -44.833 -60 -59.5s-53.333 -22 -84 -22c-30 0 -57.5 7.33301 -82.5 22zM1101 449c23.333 23.333 35 52 35 86s-11.667 62.667 -35 86s-52.333 35 -87 35c-34 0 -62.5 -11.667 -85.5 -35s-34.5 -52 -34.5 -86
s11.5 -62.667 34.5 -86s51.5 -35 85.5 -35c34.667 0 63.667 11.667 87 35z" />
    <glyph glyph-name="trademark" unicode="&#x2122;" horiz-adv-x="816" 
d="M144 664h-127v36h292v-36h-128v-264h-37v264zM379 700h57l120 -254l120 254h56v-300h-36v261l-122 -261h-36l-122 260v-260h-37v300z" />
    <glyph glyph-name="arrowleft" unicode="&#x2190;" 
d="M0 343v15l356 209l28 -40l-268 -148v-3h584v-50h-584v-4l268 -147l-28 -40z" />
    <glyph glyph-name="arrowup" unicode="&#x2191;" 
d="M325 584h-4l-147 -268l-40 28l208 356h15l209 -356l-40 -28l-148 268h-3v-584h-50v584z" />
    <glyph glyph-name="arrowright" unicode="&#x2192;" 
d="M316 174l268 148v3h-584v50h584v4l-268 147l28 40l356 -208v-15l-356 -209z" />
    <glyph glyph-name="arrowdown" unicode="&#x2193;" 
d="M134 356l40 28l148 -268h3v584h50v-584h4l147 268l40 -28l-208 -356h-15z" />
    <glyph glyph-name="arrowboth" unicode="&#x2194;" horiz-adv-x="920" 
d="M-2 342v15l349 203l28 -40l-264 -144v-3h698v3l-264 144l28 40l349 -203v-15l-349 -202l-28 40l264 143v4h-698v-4l264 -143l-28 -40z" />
    <glyph glyph-name="arrowupdn" unicode="&#x2195;" 
d="M140 237l40 28l144 -264h3v698h-3l-144 -264l-40 28l203 349h15l202 -349l-40 -28l-143 264h-4v-698h4l143 264l40 -28l-202 -349h-15z" />
    <glyph glyph-name="uni2196" unicode="&#x2196;" 
d="M166 499l-2 -3l85 -293l-47 -9l-105 399l11 11l399 -105l-9 -47l-294 85l-2 -3l413 -413l-35 -35z" />
    <glyph glyph-name="uni2197" unicode="&#x2197;" 
d="M85 121l413 414l-3 2l-293 -85l-9 47l399 105l11 -11l-105 -399l-47 9l85 294l-3 2l-413 -413z" />
    <glyph glyph-name="uni2198" unicode="&#x2198;" 
d="M193 202l9 47l294 -85l2 3l-413 413l35 35l414 -413l2 3l-85 293l47 9l105 -399l-11 -11z" />
    <glyph glyph-name="uni2199" unicode="&#x2199;" 
d="M97 108l105 399l47 -9l-85 -294l3 -2l413 413l35 -35l-413 -414l3 -2l293 85l9 -47l-399 -105z" />
    <glyph glyph-name="uni21B0" unicode="&#x21b0;" horiz-adv-x="730" 
d="M650 325h-534v-4l268 -147l-28 -40l-356 208v15l356 209l28 -40l-268 -148v-3h584v-375h-50v325z" />
    <glyph glyph-name="uni21B1" unicode="&#x21b1;" horiz-adv-x="730" 
d="M30 375h584v3l-268 148l28 40l356 -209v-15l-356 -208l-28 40l268 147v4h-534v-325h-50v375z" />
    <glyph glyph-name="uni21B2" unicode="&#x21b2;" horiz-adv-x="730" 
d="M0 343v15l356 208l28 -40l-268 -147v-4h534v325h50v-375h-584v-3l268 -148l-28 -40z" />
    <glyph glyph-name="uni21B3" unicode="&#x21b3;" horiz-adv-x="730" 
d="M346 174l268 148v3h-584v375h50v-325h534v4l-268 147l28 40l356 -208v-15l-356 -209z" />
    <glyph glyph-name="minus" unicode="&#x2212;" horiz-adv-x="560" 
d="M76 375h408v-50h-408v50z" />
    <glyph glyph-name="approxequal" unicode="&#x2248;" horiz-adv-x="560" 
d="M104 470c19.333 19.333 42.998 29.002 70.998 29.002c18 0 34.833 -2.5 50.5 -7.5s34.834 -12.5 57.501 -22.5c18.667 -8 35 -14.167 49 -18.5s28 -6.5 42 -6.5c16.667 0 31 5.16699 43 15.5s18 22.833 18 37.5h50c0 -30.667 -9.5 -55.667 -28.5 -75s-42.5 -29 -70.5 -29
c-18 0 -35.167 2.66699 -51.5 8s-35.166 12.666 -56.499 21.999c-22 9.33301 -39.167 16 -51.5 20s-25.5 6 -39.5 6c-16.667 0 -31.167 -5.33301 -43.5 -16s-18.5 -23.334 -18.5 -38.001h-50c0 30.667 9.66699 55.667 29 75zM103.998 278.002
c19.333 19.333 42.998 29.002 70.998 29.002c18 0 34.833 -2.5 50.5 -7.5s34.834 -12.5 57.501 -22.5c18.667 -8 35 -14.167 49 -18.5s28 -6.5 42 -6.5c16.667 0 31 5.16699 43 15.5s18 22.833 18 37.5h50c0 -30.667 -9.5 -55.667 -28.5 -75s-42.5 -29 -70.5 -29
c-18 0 -35.167 2.66699 -51.5 8s-35.166 12.666 -56.499 21.999c-22 9.33301 -39.167 16 -51.5 20s-25.5 6 -39.5 6c-16.667 0 -31.167 -5.33301 -43.5 -16s-18.5 -23.334 -18.5 -38.001h-50c0 30.667 9.66699 55.667 29 75z" />
    <glyph glyph-name="notequal" unicode="&#x2260;" horiz-adv-x="560" 
d="M340 423l-69 -146h213v-50h-236l-46 -97h-50l46 97h-122v50h144l70 146h-214v50h236l46 97h50l-46 -97h122v-50h-144z" />
    <glyph glyph-name="lessequal" unicode="&#x2264;" horiz-adv-x="560" 
d="M484 566l-332 -156l332 -156v-56l-408 192v38l408 192v-54zM76 138h408v-50h-408v50z" />
    <glyph glyph-name="greaterequal" unicode="&#x2265;" horiz-adv-x="560" 
d="M76 252l332 156l-332 156v56l408 -192v-38l-408 -192v54zM76 138h408v-50h-408v50z" />
    <glyph glyph-name="uni2605" unicode="&#x2605;" horiz-adv-x="1064" 
d="M508 211l-194 -173l-171 51l48 172h297l-368 113v173l160 41l220 -263l-126 353l158 133l158 -133l-126 -353l220 263l160 -41v-173l-368 -113h297l48 -172l-171 -51l-194 173l22 -250h-92z" />
    <glyph glyph-name=".null" horiz-adv-x="480" 
 />
    <glyph glyph-name="M.ss03" horiz-adv-x="1112" 
d="M984 0h-60v643h-338v-643h-60v643h-338v-643h-60v700h856v-700z" />
    <glyph glyph-name="N.ss03" horiz-adv-x="820" 
d="M128 700h564v-700h-60v643h-444v-643h-60v700z" />
    <glyph glyph-name="Nacute.ss03" horiz-adv-x="820" 
d="M128 700h564v-700h-60v643h-444v-643h-60v700zM460 945h54l-67 -160h-53z" />
    <glyph glyph-name="Ncaron.ss03" horiz-adv-x="820" 
d="M128 700h564v-700h-60v643h-444v-643h-60v700zM297 945l113 -123l114 123h52l-144 -160h-44l-144 160h53z" />
    <glyph glyph-name="uni0145.ss03" horiz-adv-x="820" 
d="M128 700h564v-700h-60v643h-444v-643h-60v700zM395.5 -196c7.66699 17.333 11.832 32.334 12.499 45.001h-3c-11.333 0 -20.5 3.5 -27.5 10.5s-10.5 15.167 -10.5 24.5c0 11.333 4 21 12 29s18.333 12 31 12s23.167 -4 31.5 -12s12.5 -19.333 12.5 -34
c0 -20.667 -5.5 -43 -16.5 -67s-23.167 -43 -36.5 -57h-33c10.667 15.333 19.834 31.666 27.501 48.999z" />
    <glyph glyph-name="Eng.ss03" horiz-adv-x="820" 
d="M400.5 -175c-29.667 23.333 -44.5 52.999 -44.5 88.999h54v-1c0 -22 10 -40 30 -54s45.667 -21 77 -21c35.333 0 63.5 11 84.5 33s31.5 55 31.5 99l-1 136v537h-444v-643h-60v700h564v-730c0 -55.333 -15.5 -99.166 -46.5 -131.499s-73.833 -48.5 -128.5 -48.5
c-48 0 -86.833 11.667 -116.5 35z" />
    <glyph glyph-name="Ntilde.ss03" horiz-adv-x="820" 
d="M128 700h564v-700h-60v643h-444v-643h-60v700zM248 888c18 16.667 40.667 25 68 25c16.667 0 32.5 -2.16699 47.5 -6.5s32.167 -10.833 51.5 -19.5c18 -7.33301 33.167 -13 45.5 -17s25.166 -6 38.499 -6c15.333 0 28.333 4.83301 39 14.5s16 21.5 16 35.5h45
c0 -28 -9 -50.333 -27 -67s-40.667 -25 -68 -25c-16.667 0 -32.5 2.16699 -47.5 6.5s-32.167 10.833 -51.5 19.5c-18 7.33301 -33.167 13 -45.5 17s-25.166 6 -38.499 6c-15.333 0 -28.333 -4.83301 -39 -14.5s-16 -21.5 -16 -35.5h-45c0 28 9 50.333 27 67z" />
    <glyph glyph-name="S.ss03" horiz-adv-x="598" 
d="M32 56h453l-437 592v52h497v-56h-418l437 -592v-52h-532v56z" />
    <glyph glyph-name="Sacute.ss03" horiz-adv-x="598" 
d="M32 56h453l-437 592v52h497v-56h-418l437 -592v-52h-532v56zM360 945h54l-67 -160h-53z" />
    <glyph glyph-name="Scaron.ss03" horiz-adv-x="598" 
d="M32 56h453l-437 592v52h497v-56h-418l437 -592v-52h-532v56zM197 945l113 -123l114 123h52l-144 -160h-44l-144 160h53z" />
    <glyph glyph-name="Scedilla.ss03" horiz-adv-x="598" 
d="M32 56h453l-437 592v52h497v-56h-418l437 -592v-52h-532v56zM270 -245h-54l67 160h53z" />
    <glyph glyph-name="uni0218.ss03" horiz-adv-x="598" 
d="M32 56h453l-437 592v52h497v-56h-418l437 -592v-52h-532v56zM295.5 -196c7.66699 17.333 11.832 32.334 12.499 45.001h-3c-11.333 0 -20.5 3.5 -27.5 10.5s-10.5 15.167 -10.5 24.5c0 11.333 4 21 12 29s18.333 12 31 12s23.167 -4 31.5 -12s12.5 -19.333 12.5 -34
c0 -20.667 -5.5 -43 -16.5 -67s-23.167 -43 -36.5 -57h-33c10.667 15.333 19.834 31.666 27.501 48.999z" />
    <glyph glyph-name="U.ss03" horiz-adv-x="820" 
d="M692 0h-564v700h60v-643h444v643h60v-700z" />
    <glyph glyph-name="Uacute.ss03" horiz-adv-x="820" 
d="M692 0h-564v700h60v-643h444v643h60v-700zM460 945h54l-67 -160h-53z" />
    <glyph glyph-name="Ucircumflex.ss03" horiz-adv-x="820" 
d="M692 0h-564v700h60v-643h444v643h60v-700zM523 785l-113 123l-114 -123h-52l144 160h44l144 -160h-53z" />
    <glyph glyph-name="Udieresis.ss03" horiz-adv-x="820" 
d="M692 0h-564v700h60v-643h444v643h60v-700zM306 945h72l-32 -168h-9zM442 945h72l-32 -168h-9z" />
    <glyph glyph-name="Ugrave.ss03" horiz-adv-x="820" 
d="M692 0h-564v700h60v-643h444v643h60v-700zM373 785l-67 160h55l66 -160h-54z" />
    <glyph glyph-name="Uhungarumlaut.ss03" horiz-adv-x="820" 
d="M692 0h-564v700h60v-643h444v643h60v-700zM424 945l-61 -160h-48l60 160h49zM560 945l-61 -160h-48l60 160h49z" />
    <glyph glyph-name="Umacron.ss03" horiz-adv-x="820" 
d="M692 0h-564v700h60v-643h444v643h60v-700zM570 894v-48h-320v48h320z" />
    <glyph glyph-name="Uogonek.ss03" horiz-adv-x="820" 
d="M692 0h-564v700h60v-643h444v643h60v-700zM627 -245h-54l67 160h53z" />
    <glyph glyph-name="Uring.ss03" horiz-adv-x="820" 
d="M692 0h-564v700h60v-643h444v643h60v-700zM321.5 812.5c-24.333 24.333 -36.5 53.8311 -36.5 88.498s12.167 64.334 36.5 89.001s53.833 37 88.5 37c22.667 0 43.5 -5.66699 62.5 -17s34.167 -26.666 45.5 -45.999s17 -40.333 17 -63
c0 -34.667 -12.167 -64.167 -36.5 -88.5s-53.833 -36.5 -88.5 -36.5s-64.167 12.167 -88.5 36.5zM468.5 842.498c16.333 16.333 24.5 35.833 24.5 58.5c0 23.333 -8.16699 43.166 -24.5 59.499s-35.833 24.5 -58.5 24.5c-23.333 0 -43 -8.16699 -59 -24.5
s-24 -36.166 -24 -59.499s8 -43 24 -59s35.667 -24 59 -24c22.667 0 42.167 8.16699 58.5 24.5z" />
    <glyph glyph-name="W.ss03" horiz-adv-x="1112" 
d="M128 700h60v-643h338v643h60v-643h338v643h60v-700h-856v700z" />
    <glyph glyph-name="Wacute.ss03" horiz-adv-x="1112" 
d="M128 700h60v-643h338v643h60v-643h338v643h60v-700h-856v700zM606 945h54l-67 -160h-53z" />
    <glyph glyph-name="Wcircumflex.ss03" horiz-adv-x="1112" 
d="M128 700h60v-643h338v643h60v-643h338v643h60v-700h-856v700zM669 785l-113 123l-114 -123h-52l144 160h44l144 -160h-53z" />
    <glyph glyph-name="Wdieresis.ss03" horiz-adv-x="1112" 
d="M128 700h60v-643h338v643h60v-643h338v643h60v-700h-856v700zM452 945h72l-32 -168h-9zM588 945h72l-32 -168h-9z" />
    <glyph glyph-name="Wgrave.ss03" horiz-adv-x="1112" 
d="M128 700h60v-643h338v643h60v-643h338v643h60v-700h-856v700zM519 785l-67 160h55l66 -160h-54z" />
    <glyph glyph-name="i.loclTRK" horiz-adv-x="258" 
d="M102 500h54v-500h-54v500zM89 745h80l-35 -168h-10z" />
    <glyph glyph-name="g.alt" horiz-adv-x="662" 
d="M142.5 -168c-51 28 -76.502 66.334 -76.502 115.001c0 33.333 12.5 61.666 37.5 84.999s60.167 40.333 105.5 51c-60.667 8.66699 -108 22.667 -142 42s-51 49.333 -51 90c0 18 7 34.167 21 48.5s31.667 21.5 53 21.5c14.667 0 25 -1 31 -3c-12.667 20 -19 42 -19 66
c0 50 23.333 89.5 70 118.5s109.667 43.5 189 43.5c78.667 0 141.334 -14.5 188.001 -43.5s70 -68.5 70 -118.5c0 -48.667 -23.333 -87.334 -70 -116.001s-109.334 -43 -188.001 -43c-44 0 -78.5 3.66699 -103.5 11s-50.167 17.333 -75.5 30
c-14.667 7.33301 -27.167 12.833 -37.5 16.5s-22.166 5.5 -35.499 5.5c-12.667 0 -22.834 -3.66699 -30.501 -11s-11.5 -16 -11.5 -26c0 -38 25 -63.667 75 -77s120.667 -21.666 212 -24.999c88 -2.66699 157 -16.167 207 -40.5s75 -64.833 75 -121.5
c0 -32.667 -11.667 -61 -35 -85s-56.666 -42.667 -99.999 -56s-93.666 -20 -150.999 -20c-87.333 0 -156.5 14 -207.5 42zM508.498 264.501c36.333 21 54.502 49.167 54.502 84.5c0 36 -18 64.5 -54 85.5s-85.333 31.5 -148 31.5s-112.334 -10.5 -149.001 -31.5
s-55 -49.5 -55 -85.5c0 -35.333 18.167 -63.5 54.5 -84.5s86.166 -31.5 149.499 -31.5c62 0 111.167 10.5 147.5 31.5zM519 -132.499c41.333 20.333 62 47.833 62 82.5c0 37.333 -19.667 65.833 -59 85.5s-96.666 29.5 -171.999 29.5c-71.333 0 -127.333 -10.333 -168 -31
s-61 -48.667 -61 -84c0 -34.667 20.333 -62.167 61 -82.5s96.667 -30.5 168 -30.5s127.666 10.167 168.999 30.5z" />
    <glyph glyph-name="f.long" horiz-adv-x="451" 
d="M46 450l0.00195312 50h105v62c0 54.667 15.833 98 47.5 130s75.167 48 130.5 48c47.333 0 86.166 -14.167 116.499 -42.5s45.5 -65.5 45.5 -111.5h-52v3c-0.666992 30.667 -11.167 55.5 -31.5 74.5s-46.833 28.5 -79.5 28.5c-38.667 0 -69.334 -11.167 -92.001 -33.5
s-34 -54.5 -34 -96.5c0 -13.333 0.666992 -34 2 -62h360v-50h-359v-450h-54v450h-105z" />
    <glyph glyph-name="m.ss03" horiz-adv-x="876" 
d="M102 500h672v-500h-54v450h-255v-450h-54v450h-255v-450h-54v500z" />
    <glyph glyph-name="n.ss03" horiz-adv-x="644" 
d="M102 500h440v-500h-54v449h-332v-449h-54v500z" />
    <glyph glyph-name="nacute.ss03" horiz-adv-x="644" 
d="M102 500h440v-500h-54v449h-332v-449h-54v500zM372 745h54l-67 -160h-53z" />
    <glyph glyph-name="ncaron.ss03" horiz-adv-x="644" 
d="M102 500h440v-500h-54v449h-332v-449h-54v500zM209 745l113 -123l114 123h52l-144 -160h-44l-144 160h53z" />
    <glyph glyph-name="uni0146.ss03" horiz-adv-x="644" 
d="M102 500h440v-500h-54v449h-332v-449h-54v500zM307.5 -196c7.66699 17.333 11.832 32.334 12.499 45.001h-3c-11.333 0 -20.5 3.5 -27.5 10.5s-10.5 15.167 -10.5 24.5c0 11.333 4 21 12 29s18.333 12 31 12s23.167 -4 31.5 -12s12.5 -19.333 12.5 -34
c0 -20.667 -5.5 -43 -16.5 -67s-23.167 -43 -36.5 -57h-33c10.667 15.333 19.834 31.666 27.501 48.999z" />
    <glyph glyph-name="eng.ss03" horiz-adv-x="644" 
d="M250.5 -175c-29.667 23.333 -44.5 52.999 -44.5 88.999h54v-1c0 -22 10 -40 30 -54s45.667 -21 77 -21c37.333 0 67 11 89 33s33 55 33 99l-1 136v343h-332v-449h-54v500h440v-530c0 -55.333 -15.5 -99.166 -46.5 -131.499s-73.833 -48.5 -128.5 -48.5
c-48 0 -86.833 11.667 -116.5 35z" />
    <glyph glyph-name="ntilde.ss03" horiz-adv-x="644" 
d="M102 500h440v-500h-54v449h-332v-449h-54v500zM160 688c18 16.667 40.667 25 68 25c16.667 0 32.5 -2.16699 47.5 -6.5s32.167 -10.833 51.5 -19.5c18 -7.33301 33.167 -13 45.5 -17s25.166 -6 38.499 -6c15.333 0 28.333 4.83301 39 14.5s16 21.5 16 35.5h45
c0 -28 -9 -50.333 -27 -67s-40.667 -25 -68 -25c-16.667 0 -32.5 2.16699 -47.5 6.5s-32.167 10.833 -51.5 19.5c-18 7.33301 -33.167 13 -45.5 17s-25.166 6 -38.499 6c-15.333 0 -28.333 -4.83301 -39 -14.5s-16 -21.5 -16 -35.5h-45c0 28 9 50.333 27 67z" />
    <glyph glyph-name="r.ss03" horiz-adv-x="462" 
d="M102 500h348v-51h-294v-449h-54v500z" />
    </font>
</defs>
</svg>
