<?xml version="1.0" standalone="no"?>
<!DOCTYPE svg PUBLIC "-//W3C//DTD SVG 1.1//EN" "http://www.w3.org/Graphics/SVG/1.1/DTD/svg11.dtd" >
<svg>
<metadata>
Created by FontForge 20090914 at Mon May 10 11:50:52 2021
 By www-data
Copyright &#194;&#169; 2019 by Dmitry Rastvortsev. Ordered by Projector, Dmytro Bulanov Creative B&#195;&#188;ro and Banda Agency for Kyiv city identification. Long live Free Ukraine!
</metadata>
<defs>
<font id="KyivTypeSans-Regular3" horiz-adv-x="700" >
  <font-face 
    font-family="KyivType Sans3"
    font-weight="400"
    font-stretch="normal"
    units-per-em="1000"
    panose-1="0 0 5 0 0 0 0 0 0 0"
    ascent="800"
    descent="-200"
    x-height="500"
    cap-height="700"
    bbox="-486 -245.003 1137 1027"
    underline-thickness="50"
    underline-position="-50"
    unicode-range="U+000D-U+2605"
  />
<missing-glyph horiz-adv-x="1064" 
d="M508 210l-194 -173l-171 51l48 172h297l-368 113v173l160 41l220 -263l-126 353l158 133l158 -133l-126 -353l220 263l160 -41v-173l-368 -113h297l48 -172l-171 -51l-194 173l22 -250h-92z" />
    <glyph glyph-name=".notdef" horiz-adv-x="1064" 
d="M508 210l-194 -173l-171 51l48 172h297l-368 113v173l160 41l220 -263l-126 353l158 133l158 -133l-126 -353l220 263l160 -41v-173l-368 -113h297l48 -172l-171 -51l-194 173l22 -250h-92z" />
    <glyph glyph-name="nonmarkingreturn" unicode="&#xd;" horiz-adv-x="250" 
 />
    <glyph glyph-name="space" unicode=" " horiz-adv-x="250" 
 />
    <glyph glyph-name="exclam" unicode="!" horiz-adv-x="302" 
d="M101 700h97l-41 -485h-15zM108.5 9.5c-11.667 11.667 -17.498 26.167 -17.498 43.5s5.83301 31.666 17.5 42.999s25.834 17 42.501 17c17.333 0 31.666 -5.66699 42.999 -17s17 -25.666 17 -42.999s-5.83301 -31.833 -17.5 -43.5s-25.834 -17.5 -42.501 -17.5
s-30.834 5.83301 -42.501 17.5z" />
    <glyph glyph-name="quotedbl" unicode="&#x22;" horiz-adv-x="336" 
d="M43 707h97l-44 -202h-10zM197 707h97l-44 -202h-10z" />
    <glyph glyph-name="numbersign" unicode="#" 
d="M240 165h-150v78h150v215h-150v77h150v180h20v-180h180v180h20v-180h150v-77h-150v-215h150v-78h-150v-180h-20v180h-180v-180h-20v180zM440 243v215h-180v-215h180z" />
    <glyph glyph-name="dollar" unicode="$" 
d="M162.5 53.5c-50.333 43 -79.832 99.8311 -88.499 170.498h20c9.33301 -67.333 38 -120.5 86 -159.5s107.667 -58.5 179 -58.5c62 0 111 12.5 147 37.5s54 60.167 54 105.5c0 33.333 -9.83301 60.333 -29.5 81s-44.167 36.667 -73.5 48s-68 23 -116 35
c-52 13.333 -94.5 26.5 -127.5 39.5s-61.333 32.667 -85 59s-35.5 61.166 -35.5 104.499c0 40 10.5 74.833 31.5 104.5s50.5 52.667 88.5 69s82 24.833 132 25.5v115h20v-115c72 -3.33301 130.667 -25.833 176 -67.5s71.666 -97.5 78.999 -167.5h-20
c-8.66699 66.667 -34.5 119 -77.5 157s-98.167 57 -165.5 57c-57.333 0 -104 -12.833 -140 -38.5s-54 -60.834 -54 -105.501c0 -31.333 9.5 -56.666 28.5 -75.999s42.333 -34 70 -44s66.167 -21.333 115.5 -34c56 -14.667 101 -28.667 135 -42s63 -33.666 87 -60.999
s36 -63.666 36 -108.999c0 -63.333 -24.333 -112.166 -73 -146.499s-111 -51.833 -187 -52.5v-115h-20v115c-78 2.66699 -142.167 25.5 -192.5 68.5z" />
    <glyph glyph-name="percent" unicode="%" horiz-adv-x="740" 
d="M119 406c-24.667 14 -44 33.333 -58 58s-21 51.667 -21 81s7 56.333 21 81s33.333 44 58 58s51.667 21 81 21s56.333 -7 81 -21s44 -33.333 58 -58s21 -51.667 21 -81s-7 -56.333 -21 -81s-33.333 -44 -58 -58s-51.667 -21 -81 -21s-56.333 7 -81 21zM558 700h22
l-398 -700h-22zM279 444c20.667 26 31 59.667 31 101s-10.333 75 -31 101s-47 39 -79 39s-58.167 -13 -78.5 -39s-30.5 -59.667 -30.5 -101s10.167 -75 30.5 -101s46.5 -39 78.5 -39s58.333 13 79 39zM459 16c-24.667 14 -44 33.333 -58 58s-21 51.667 -21 81
s7 56.333 21 81s33.333 44 58 58s51.667 21 81 21s56.333 -7 81 -21s44 -33.333 58 -58s21 -51.667 21 -81s-7 -56.333 -21 -81s-33.333 -44 -58 -58s-51.667 -21 -81 -21s-56.333 7 -81 21zM619 54c20.667 26 31 59.667 31 101s-10.333 75 -31 101s-47 39 -79 39
s-58.167 -13 -78.5 -39s-30.5 -59.667 -30.5 -101s10.167 -75 30.5 -101s46.5 -39 78.5 -39s58.333 13 79 39z" />
    <glyph glyph-name="ampersand" unicode="&#x26;" horiz-adv-x="708" 
d="M152 11.5c-37.333 17.667 -66.332 42.667 -86.999 75s-31 69.833 -31 112.5c0 59.333 21.167 107.5 63.5 144.5s99.166 57.167 170.499 60.5h6l-204 274v22h485v-20h-385l383 -508c33.333 58 53.333 126.333 60 205h20c-8 -88 -30.333 -162 -67 -222l111 -155h-102
l-65 83c-29.333 -31.333 -63.333 -55.5 -102 -72.5s-81 -25.5 -127 -25.5c-48.667 0 -91.667 8.83301 -129 26.5zM499.001 98l-211 286.999h-15c-49.333 -4 -88.833 -22.667 -118.5 -56s-44.5 -74.666 -44.5 -123.999c0 -58 17.167 -105.167 51.5 -141.5
s81.833 -54.5 142.5 -54.5c78 0 143 29.667 195 89z" />
    <glyph glyph-name="quotesingle" unicode="'" horiz-adv-x="182" 
d="M43 707h97l-44 -202h-10z" />
    <glyph glyph-name="parenleft" unicode="(" horiz-adv-x="500" 
d="M239 -56.5c-41.333 39 -73.5 93.667 -96.5 164s-34.5 151.166 -34.5 242.499s11.5 172.166 34.5 242.499s55.167 125 96.5 164s88.666 58.5 141.999 58.5v-18c-40 0 -74.833 -18 -104.5 -54s-52.5 -87.667 -68.5 -155s-24 -146.666 -24 -237.999s8 -170.666 24 -237.999
s38.833 -119 68.5 -155s64.5 -54 104.5 -54v-18c-53.333 0 -100.666 19.5 -141.999 58.5z" />
    <glyph glyph-name="parenright" unicode=")" horiz-adv-x="500" 
d="M262 756.5c41.333 -39 73.333 -93.667 96 -164s34 -151.166 34 -242.499s-11.333 -172.166 -34 -242.499s-54.667 -125 -96 -164s-89 -58.5 -143 -58.5v18c40 0 74.833 18 104.5 54s52.5 87.667 68.5 155s24 146.666 24 237.999s-8 170.666 -24 237.999
s-38.833 119 -68.5 155s-64.5 54 -104.5 54v18c54 0 101.667 -19.5 143 -58.5z" />
    <glyph glyph-name="asterisk" unicode="*" horiz-adv-x="390" 
d="M185 554l-77 -69l-69 20l19 69h119l-147 45v69l64 17l88 -105l-50 141l63 53l63 -53l-50 -141l88 105l64 -17v-69l-148 -45h119l19 -69l-68 -20l-78 69l9 -100h-37z" />
    <glyph glyph-name="plus" unicode="+" horiz-adv-x="560" 
d="M480 340h-190v-190h-20v190h-190v20h190v190h20v-190h190v-20z" />
    <glyph glyph-name="comma" unicode="," horiz-adv-x="262" 
d="M84 -107c21.333 16 39.168 34.167 53.501 54.5s23.833 40.833 28.5 61.5c-12 -8.66699 -24 -13 -36 -13c-16.667 0 -30.667 5.5 -42 16.5s-17 24.833 -17 41.5s5.83301 30.667 17.5 42s26.167 17 43.5 17s31.666 -6 42.999 -18s17 -28 17 -48
c0 -27.333 -7.16699 -56.833 -21.5 -88.5s-30.5 -54.5 -48.5 -68.5h-38v3z" />
    <glyph glyph-name="hyphen" unicode="-" horiz-adv-x="400" 
d="M80 317h240v-34h-240v34z" />
    <glyph glyph-name="period" unicode="." horiz-adv-x="262" 
d="M88.5 9.5c-11.667 11.667 -17.498 26.167 -17.498 43.5s5.83301 31.666 17.5 42.999s25.834 17 42.501 17c17.333 0 31.666 -5.66699 42.999 -17s17 -25.666 17 -42.999s-5.83301 -31.833 -17.5 -43.5s-25.834 -17.5 -42.501 -17.5s-30.834 5.83301 -42.501 17.5z" />
    <glyph glyph-name="slash" unicode="/" horiz-adv-x="458" 
d="M388 700h20l-338 -700h-20z" />
    <glyph glyph-name="zero" unicode="0" horiz-adv-x="718" 
d="M204.5 32c-45.667 31.333 -81.334 74.833 -107.001 130.5s-38.5 118.167 -38.5 187.5s12.833 131.833 38.5 187.5s61.334 99.167 107.001 130.5s97.167 47 154.5 47s108.833 -15.667 154.5 -47s81.5 -74.833 107.5 -130.5s39 -118.167 39 -187.5s-13 -131.833 -39 -187.5
s-61.833 -99.167 -107.5 -130.5s-97.167 -47 -154.5 -47s-108.833 15.667 -154.5 47zM470.5 48c33 29.333 58.667 70.166 77 122.499s27.5 112.166 27.5 179.499s-9.16699 127.333 -27.5 180s-44 93.667 -77 123s-70.167 44 -111.5 44s-78.5 -14.667 -111.5 -44
s-58.667 -70.333 -77 -123s-27.5 -112.667 -27.5 -180s9.16699 -127.166 27.5 -179.499s44 -93.166 77 -122.499s70.167 -44 111.5 -44s78.5 14.667 111.5 44z" />
    <glyph glyph-name="one" unicode="1" horiz-adv-x="382" 
d="M170 642l-153 -105v24l196 139h40v-700h-83v642z" />
    <glyph glyph-name="two" unicode="2" horiz-adv-x="619" 
d="M345 233c50.667 36.667 89.998 75.335 117.998 116.002c-19.333 -16.667 -42.166 -29.667 -68.499 -39s-54.833 -14 -85.5 -14c-52 0 -98.667 9 -140 27s-73.666 42.833 -96.999 74.5s-35 67.5 -35 107.5s11.667 76 35 108s55.666 57 96.999 75s88 27 140 27
c52.667 0 99.834 -8.83301 141.501 -26.5s74.167 -42.334 97.5 -74.001s35 -67.834 35 -108.501c0 -51.333 -20.333 -100.333 -61 -147s-97.667 -95 -171 -145l-198 -138h443v-76h-551v19zM410.498 338.501c29 15.667 51.332 37.166 66.999 64.499s23.5 58 23.5 92
c0 62.667 -17.667 112.167 -53 148.5s-81.666 54.5 -138.999 54.5c-36.667 0 -69.5 -8.16699 -98.5 -24.5s-51.667 -39.166 -68 -68.499s-24.5 -62.666 -24.5 -99.999c0 -36.667 8.16699 -69.334 24.5 -98.001s39 -51.167 68 -67.5s61.833 -24.5 98.5 -24.5
c38.667 0 72.5 7.83301 101.5 23.5z" />
    <glyph glyph-name="three" unicode="3" horiz-adv-x="567" 
d="M147.5 14c-37.667 18.667 -67.5 44.501 -89.5 77.501s-33.667 70.167 -35 111.5h20c2 -36.667 12.333 -69 31 -97s43.834 -49.833 75.501 -65.5s67.167 -23.5 106.5 -23.5c40 0 75.167 8.33301 105.5 25s53.666 39.667 69.999 69s24.5 62 24.5 98
c0 51.333 -14 93.166 -42 125.499s-65.667 48.5 -113 48.5c-20 0 -39.833 -3.16699 -59.5 -9.5s-36.5 -14.833 -50.5 -25.5l-9 -7l-14 16l284 267h-409v76h494v-22l-313 -294c32 14.667 65.667 22 101 22c40.667 0 77.167 -8.16699 109.5 -24.5s57.833 -39.333 76.5 -69
s28 -64.167 28 -103.5c0 -42 -10.833 -80 -32.5 -114s-52.5 -60.667 -92.5 -80s-86.333 -29 -139 -29c-47.333 0 -89.833 9.33301 -127.5 28z" />
    <glyph glyph-name="four" unicode="4" horiz-adv-x="627" 
d="M401 189h-394v18l407 493h67v-445h143v-66h-143v-189h-80v189zM401 255v398l-333 -398h333z" />
    <glyph glyph-name="five" unicode="5" horiz-adv-x="605" 
d="M169.5 11.5c-38.333 17 -68.835 41.167 -91.502 72.5s-35.667 67.666 -39 108.999h20c5.33301 -51.333 27.5 -93 66.5 -125s87.833 -48 146.5 -48c41.333 0 77.833 8.66699 109.5 26s56.167 41.5 73.5 72.5s26 66.5 26 106.5c0 38 -8.33301 72 -25 102s-40 53.333 -70 70
s-64.333 25 -103 25c-44.667 0 -84.5 -9.66699 -119.5 -29s-60.5 -45.666 -76.5 -78.999l-20 1l59 385h410v-73h-402l-41 -270c21.333 28 50.333 49.833 87 65.5s78.334 23.5 125.001 23.5c50.667 0 95.667 -9.5 135 -28.5s69.833 -45.333 91.5 -79
s32.5 -72.167 32.5 -115.5c0 -46 -11.167 -87 -33.5 -123s-53.333 -64 -93 -84s-85.167 -30 -136.5 -30c-49.333 0 -93.166 8.5 -131.499 25.5z" />
    <glyph glyph-name="six" unicode="6" horiz-adv-x="677" 
d="M201 31c-44.667 30.667 -79.501 73.6709 -104.501 129.004s-37.5 118.666 -37.5 189.999c0 72 12.833 135.667 38.5 191s61.667 98.166 108 128.499s98.833 45.5 157.5 45.5c42 0 80.333 -7.83301 115 -23.5s62.834 -37.334 84.501 -65.001s35.167 -59.167 40.5 -94.5
h-21c-7.33301 46.667 -29.833 84.334 -67.5 113.001s-83.834 43 -138.501 43c-45.333 0 -85.5 -12.333 -120.5 -37s-62.667 -62.334 -83 -113.001s-30.5 -113.334 -30.5 -188.001c0 -23.333 1.33301 -43.333 4 -60c12 50.667 39.167 90.834 81.5 120.501
s93.833 44.5 154.5 44.5c48 0 90.833 -10.333 128.5 -31s66.834 -48.834 87.501 -84.501s31 -75.167 31 -118.5c0 -42 -11.5 -81 -34.5 -117s-55.333 -64.833 -97 -86.5s-89.167 -32.5 -142.5 -32.5c-58 0 -109.333 15.333 -154 46zM452.499 33.0039
c29 19.333 52.001 45.502 69.001 78.502s25.5 68.833 25.5 107.5c0 40 -8 75.833 -24 107.5s-38.5 56.5 -67.5 74.5s-62.167 27 -99.5 27c-35.333 0 -67.833 -8 -97.5 -24s-53.334 -37.833 -71.001 -65.5s-27.167 -57.834 -28.5 -90.501c0 -40 8.33301 -78.833 25 -116.5
s40 -68.334 70 -92.001s64 -35.5 102 -35.5c35.333 0 67.5 9.66699 96.5 29z" />
    <glyph glyph-name="seven" unicode="7" horiz-adv-x="577" 
d="M299.5 336c59.667 112 129.5 207.667 209.5 287h-488v77h547v-22c-82 -86.667 -149.167 -189.5 -201.5 -308.5s-82.5 -242.167 -90.5 -369.5h-84c12 112 47.833 224 107.5 336z" />
    <glyph glyph-name="eight" unicode="8" horiz-adv-x="684" 
d="M194.5 10c-43.667 16.667 -77.832 39.499 -102.499 68.499s-37 61.5 -37 97.5c0 44 17 82.167 51 114.5s82.667 54.5 146 66.5c-52 10.667 -94.5 31.834 -127.5 63.501s-49.5 67.5 -49.5 107.5c0 34.667 11.5 66 34.5 94s54.833 50 95.5 66s86.334 24 137.001 24
s96.5 -8 137.5 -24s73 -38 96 -66s34.5 -59.333 34.5 -94c0 -39.333 -16.5 -75 -49.5 -107s-75.833 -53.333 -128.5 -64c63.333 -12 112.166 -34.167 146.499 -66.5s51.5 -70.5 51.5 -114.5c0 -36 -12.333 -68.5 -37 -97.5s-59 -51.833 -103 -68.5s-93.333 -25 -148 -25
s-103.834 8.33301 -147.501 25zM442.002 385.999c29.333 14 52.166 33.5 68.499 58.5s24.5 53.5 24.5 85.5c0 31.333 -8.16699 59.5 -24.5 84.5s-39.166 44.5 -68.499 58.5s-62.666 21 -99.999 21s-70.666 -7 -99.999 -21s-52.166 -33.5 -68.499 -58.5
s-24.5 -53.167 -24.5 -84.5c0 -32 8.16699 -60.5 24.5 -85.5s39.166 -44.5 68.499 -58.5s62.666 -21 99.999 -21s70.666 7 99.999 21zM447.002 25.999c30.667 14.667 54.667 35 72 61s26 55.333 26 88s-8.66699 62 -26 88s-41.333 46.333 -72 61s-65.667 22 -105 22
c-38.667 0 -73.334 -7.33301 -104.001 -22s-54.667 -35 -72 -61s-26 -55.333 -26 -88s8.66699 -62 26 -88s41.333 -46.333 72 -61s65.334 -22 104.001 -22c39.333 0 74.333 7.33301 105 22z" />
    <glyph glyph-name="nine" unicode="9" horiz-adv-x="677" 
d="M476 669c44.667 -30.667 79.502 -73.6709 104.502 -129.004s37.5 -118.666 37.5 -189.999c0 -72 -12.833 -135.667 -38.5 -191s-61.667 -98.166 -108 -128.499s-98.833 -45.5 -157.5 -45.5c-42 0 -80.333 7.83301 -115 23.5s-62.834 37.334 -84.501 65.001
s-35.167 59.167 -40.5 94.5h21c7.33301 -46.667 29.833 -84.334 67.5 -113.001s83.834 -43 138.501 -43c45.333 0 85.5 12.333 120.5 37s62.667 62.334 83 113.001s30.5 113.334 30.5 188.001c0 21.333 -1 41.333 -3 60c-12.667 -50.667 -40.167 -90.834 -82.5 -120.501
s-93.5 -44.5 -153.5 -44.5c-48.667 0 -91.834 10.333 -129.501 31s-66.834 48.834 -87.501 84.501s-31 75.167 -31 118.5c0 42 11.5 81 34.5 117s55.333 64.833 97 86.5s89.167 32.5 142.5 32.5c58 0 109.333 -15.333 154 -46zM224.502 666.996
c-29 -19.333 -51.832 -45.5 -68.499 -78.5s-25 -68.833 -25 -107.5c0 -40 8 -75.833 24 -107.5s38.333 -56.5 67 -74.5s61.667 -27 99 -27c36 0 68.833 8 98.5 24s53.167 37.667 70.5 65s26.666 57.666 27.999 90.999c0 40 -8.33301 78.833 -25 116.5s-40 68.334 -70 92.001
s-64 35.5 -102 35.5c-35.333 0 -67.5 -9.66699 -96.5 -29z" />
    <glyph glyph-name="colon" unicode=":" horiz-adv-x="262" 
d="M88.5 9.5c-11.667 11.667 -17.498 26.167 -17.498 43.5s5.83301 31.666 17.5 42.999s25.834 17 42.501 17c17.333 0 31.666 -5.66699 42.999 -17s17 -25.666 17 -42.999s-5.83301 -31.833 -17.5 -43.5s-25.834 -17.5 -42.501 -17.5s-30.834 5.83301 -42.501 17.5z
M88.502 367.5c-11.667 11.667 -17.498 26.167 -17.498 43.5s5.83301 31.666 17.5 42.999s25.834 17 42.501 17c17.333 0 31.666 -5.66699 42.999 -17s17 -25.666 17 -42.999s-5.83301 -31.833 -17.5 -43.5s-25.834 -17.5 -42.501 -17.5s-30.834 5.83301 -42.501 17.5z" />
    <glyph glyph-name="semicolon" unicode=";" horiz-adv-x="262" 
d="M84 -107c21.333 16 39.168 34.167 53.501 54.5s23.833 40.833 28.5 61.5c-12 -8.66699 -24 -13 -36 -13c-16.667 0 -30.667 5.5 -42 16.5s-17 24.833 -17 41.5s5.83301 30.667 17.5 42s26.167 17 43.5 17s31.666 -6 42.999 -18s17 -28 17 -48
c0 -27.333 -7.16699 -56.833 -21.5 -88.5s-30.5 -54.5 -48.5 -68.5h-38v3zM88.502 367.5c-11.667 11.667 -17.498 26.167 -17.498 43.5s5.83301 31.666 17.5 42.999s25.834 17 42.501 17c17.333 0 31.666 -5.66699 42.999 -17s17 -25.666 17 -42.999
s-5.83301 -31.833 -17.5 -43.5s-25.834 -17.5 -42.501 -17.5s-30.834 5.83301 -42.501 17.5z" />
    <glyph glyph-name="less" unicode="&#x3c;" horiz-adv-x="560" 
d="M480 527l-375 -177l375 -177v-23l-400 190v20l400 190v-23z" />
    <glyph glyph-name="equal" unicode="=" horiz-adv-x="560" 
d="M80 450h400v-20h-400v20zM80 270h400v-20h-400v20z" />
    <glyph glyph-name="greater" unicode="&#x3e;" horiz-adv-x="560" 
d="M80 173l375 177l-375 177v23l400 -190v-20l-400 -190v23z" />
    <glyph glyph-name="question" unicode="?" horiz-adv-x="531" 
d="M234 234c0 25.333 3.83008 47.501 11.4971 66.501s16.834 34.833 27.501 47.5s25 27.667 43 45c17.333 17.333 31.166 32.333 41.499 45s19 27.667 26 45s10.5 37.666 10.5 60.999c0 45.333 -14 80.666 -42 105.999s-64.333 38 -109 38
c-55.333 0 -98.166 -18.667 -128.499 -56s-44.833 -86 -43.5 -146h-19c-1.33301 45.333 6.5 85.333 23.5 120s41.833 61.5 74.5 80.5s71.334 28.5 116.001 28.5c36 0 70 -6.33301 102 -19s58.167 -31.667 78.5 -57s30.5 -56.333 30.5 -93s-8.66699 -66 -26 -88
s-41 -43 -71 -63c-30 -21.333 -53.167 -39.5 -69.5 -54.5s-29.666 -32.667 -39.999 -53s-15.5 -44.833 -15.5 -73.5h-16c-3.33301 6.66699 -5 13.334 -5 20.001zM215.497 9.50098c-11.667 11.667 -17.498 26.167 -17.498 43.5s5.83301 31.666 17.5 42.999
s25.834 17 42.501 17c17.333 0 31.666 -5.66699 42.999 -17s17 -25.666 17 -42.999s-5.83301 -31.833 -17.5 -43.5s-25.834 -17.5 -42.501 -17.5s-30.834 5.83301 -42.501 17.5z" />
    <glyph glyph-name="at" unicode="@" horiz-adv-x="820" 
d="M225 -119c-56 32 -100.003 76 -132.003 132s-48 117.667 -48 185s16 129 48 185s76 100 132 132s117.667 48 185 48s129 -16 185 -48s100 -76 132 -132s48 -117.667 48 -185c0 -74.667 -18.667 -140.667 -56 -198h-195v107c-12.667 -36.667 -35.167 -65.167 -67.5 -85.5
s-70.166 -30.5 -113.499 -30.5c-40 0 -71.667 9.33301 -95 28s-35 43.667 -35 75c0 37.333 15.833 65.833 47.5 85.5s83.5 31.834 155.5 36.501c40 2.66699 68.333 9 85 19s25 24.667 25 44c0 32.667 -11.5 59.5 -34.5 80.5s-52.167 31.5 -87.5 31.5
c-37.333 0 -69 -11.5 -95 -34.5s-42 -54.167 -48 -93.5h-20c6.66699 46.667 26 83.5 58 110.5s72 40.5 120 40.5c50.667 0 91.834 -14.833 123.501 -44.5s47.5 -69.834 47.5 -120.501v-229h118c31.333 52.667 47 112 47 178c0 64 -15.167 122.333 -45.5 175
s-71.833 94.167 -124.5 124.5s-111 45.5 -175 45.5s-122.333 -15.167 -175 -45.5s-94.167 -71.833 -124.5 -124.5s-45.5 -111 -45.5 -175s15.167 -122.333 45.5 -175s71.833 -94.167 124.5 -124.5s111 -45.5 175 -45.5c46.667 0 91 8.5 133 25.5s79 40.833 111 71.5l14 -13
c-33.333 -33.333 -72.166 -59 -116.499 -77s-91.5 -27 -141.5 -27c-67.333 0 -129 16 -185 48zM446.497 40c23.667 14.667 42.5 34.6689 56.5 60.002s21 52.666 21 81.999v47c-18.667 -14.667 -50 -24.334 -94 -29.001c-51.333 -5.33301 -88.833 -16 -112.5 -32
s-35.5 -39 -35.5 -69c0 -26 7.66699 -46 23 -60s37 -21 65 -21c27.333 0 52.833 7.33301 76.5 22z" />
    <glyph glyph-name="A" unicode="A" horiz-adv-x="671" 
d="M299 700h71l287 -700h-97l-95 230h-337l-93 -230h-21zM457 250l-159 386h-2l-160 -386h321z" />
    <glyph glyph-name="B" unicode="B" horiz-adv-x="712" 
d="M363 700c83.333 0 148.168 -15.668 194.501 -47.001s69.5 -74.333 69.5 -129c0 -43.333 -13.833 -79.666 -41.5 -108.999s-66.834 -49 -117.501 -59v-4c59.333 -7.33301 105.5 -26.333 138.5 -57s49.5 -69 49.5 -115c0 -56 -23.667 -100 -71 -132s-114 -48 -200 -48h-264
v700h242zM499.002 401.499c30.667 27.667 46 67.167 46 118.5s-15.667 90.833 -47 118.5s-76.333 41.5 -135 41.5h-152v-320h155c58 0 102.333 13.833 133 41.5zM518.002 61.499c32.667 27.667 49 67.167 49 118.5s-16.833 91 -50.5 119s-80.5 42 -140.5 42h-165v-321h165
c62 0 109.333 13.833 142 41.5z" />
    <glyph glyph-name="C" unicode="C" horiz-adv-x="794" 
d="M233.5 31c-53.667 30.667 -95.501 73.667 -125.501 129s-45 118.666 -45 189.999c0 72 15 135.5 45 190.5s71.833 97.833 125.5 128.5s115.167 46 184.5 46c56 0 107 -11.833 153 -35.5s83.833 -56.667 113.5 -99s48.167 -90.833 55.5 -145.5h-20
c-7.33301 49.333 -23.666 92.833 -48.999 130.5s-57.666 67 -96.999 88s-83 31.5 -131 31.5c-56.667 0 -106.667 -14 -150 -42s-77.166 -67.333 -101.499 -118s-36.5 -109 -36.5 -175c0 -65.333 12.167 -123.333 36.5 -174s58.333 -90 102 -118s93.5 -42 149.5 -42
c48 0 91.667 10.5 131 31.5s71.666 50.333 96.999 88s41.666 80.834 48.999 129.501h20c-7.33301 -54.667 -25.833 -103.167 -55.5 -145.5s-67.5 -75.333 -113.5 -99s-97 -35.5 -153 -35.5c-69.333 0 -130.833 15.333 -184.5 46z" />
    <glyph glyph-name="D" unicode="D" horiz-adv-x="777" 
d="M332 700c76 0 142.833 -14.667 200.5 -44s102.334 -70.5 134.001 -123.5s47.5 -113.833 47.5 -182.5s-15.833 -129.5 -47.5 -182.5s-76.334 -94.167 -134.001 -123.5s-124.5 -44 -200.5 -44h-211v700h211zM488 59c43.333 26 76.666 63.8311 99.999 113.498
s35 108.834 35 177.501s-11.667 127.834 -35 177.501s-56.666 87.667 -99.999 114s-94 39.5 -152 39.5h-125v-661h125c58 0 108.667 13 152 39z" />
    <glyph glyph-name="E" unicode="E" horiz-adv-x="587" 
d="M121 700h400v-20h-310v-320h224v-20h-224v-320h356v-20h-446v700z" />
    <glyph glyph-name="F" unicode="F" horiz-adv-x="539" 
d="M121 700h413v-20h-323v-320h237v-20h-237v-340h-90v700z" />
    <glyph glyph-name="G" unicode="G" horiz-adv-x="826" 
d="M225.5 31c-51 30.667 -90.835 73.3311 -119.502 127.998s-43 117.334 -43 188.001c0 72.667 15 136.834 45 192.501s71.667 98.834 125 129.501s114.333 46 183 46c83.333 0 152.833 -22.667 208.5 -68s90.834 -106 105.501 -182h-20
c-14 67.333 -44.667 120.833 -92 160.5s-106.333 59.5 -177 59.5c-56 0 -105.667 -14 -149 -42s-77 -67.333 -101 -118s-36 -108.667 -36 -174s12 -123.5 36 -174.5s56.833 -90.5 98.5 -118.5s88.834 -42 141.501 -42c46.667 0 88.167 11.167 124.5 33.5
s64.833 53.166 85.5 92.499s31 84.333 31 135v63h-233v20h320v-360h-87v167c-18.667 -56 -52 -100.333 -100 -133s-105.333 -49 -172 -49c-65.333 0 -123.5 15.333 -174.5 46z" />
    <glyph glyph-name="H" unicode="H" horiz-adv-x="820" 
d="M121 700h90v-340h399v340h90v-700h-90v340h-399v-340h-90v700z" />
    <glyph glyph-name="I" unicode="I" horiz-adv-x="332" 
d="M121 700h90v-700h-90v700z" />
    <glyph glyph-name="J" unicode="J" horiz-adv-x="606" 
d="M147 15.5c-34.667 20.333 -61.667 49.333 -81 87s-29 82.167 -29 133.5v34h20v-34c0 -43.333 7.5 -81.333 22.5 -114s36.167 -58 63.5 -76s59 -27 95 -27c52 0 93.333 18.833 124 56.5s46 87.834 46 150.501v474h90v-457c0 -80.667 -20.667 -143.834 -62 -189.501
s-97.333 -68.5 -168 -68.5c-46 0 -86.333 10.167 -121 30.5z" />
    <glyph glyph-name="K" unicode="K" horiz-adv-x="703" 
d="M121 700h90v-340h99l296 340h26l-256 -294l301 -406h-107l-256 340h-103v-340h-90v700z" />
    <glyph glyph-name="L" unicode="L" horiz-adv-x="583" 
d="M121 700h90v-680h346v-20h-436v700z" />
    <glyph glyph-name="M" unicode="M" horiz-adv-x="962" 
d="M121 700h92l272 -589l270 589h87v-700h-90v645l-295 -645h-21l-294 639v-639h-21v700z" />
    <glyph glyph-name="N" unicode="N" horiz-adv-x="798" 
d="M119 700h89l450 -575v575h21v-714h-23l-516 653v-639h-21v700z" />
    <glyph glyph-name="O" unicode="O" horiz-adv-x="850" 
d="M239.5 32c-55 31.333 -98.167 74.833 -129.5 130.5s-47 118.167 -47 187.5c0 70 15.667 132.667 47 188s74.5 98.666 129.5 129.999s116.833 47 185.5 47c69.333 0 131.5 -15.667 186.5 -47s98 -74.666 129 -129.999s46.5 -118 46.5 -188
c0 -69.333 -15.5 -131.833 -46.5 -187.5s-74 -99.167 -129 -130.5s-117.167 -47 -186.5 -47c-68.667 0 -130.5 15.667 -185.5 47zM566 46c40.667 28 72.334 68.167 95.001 120.5s34 113.5 34 183.5s-11.333 131.167 -34 183.5s-54.334 92.5 -95.001 120.5
s-87.667 42 -141 42s-100.333 -14 -141 -42s-72.334 -68.167 -95.001 -120.5s-34 -113.5 -34 -183.5s11.333 -131.167 34 -183.5s54.334 -92.5 95.001 -120.5s87.667 -42 141 -42s100.333 14 141 42z" />
    <glyph glyph-name="P" unicode="P" horiz-adv-x="653" 
d="M327 700c87.333 0 155.333 -17.667 204 -53s73 -84.333 73 -147s-24.333 -111.667 -73 -147s-116.667 -53 -204 -53h-116v-300h-90v700h206zM464 367.5c33.333 31.667 50 75.832 50 132.499s-16.667 100.834 -50 132.501s-79.666 47.5 -138.999 47.5h-114v-360h114
c59.333 0 105.666 15.833 138.999 47.5z" />
    <glyph glyph-name="Q" unicode="Q" horiz-adv-x="850" 
d="M216 47.5c-48 32.333 -85.5 74.833 -112.5 127.5s-40.5 111 -40.5 175c0 70 15.667 132.667 47 188s74.5 98.666 129.5 129.999s116.833 47 185.5 47c69.333 0 131.5 -15.667 186.5 -47s98 -74.666 129 -129.999s46.5 -118 46.5 -188c0 -64 -13.5 -122.333 -40.5 -175
s-64.5 -95.167 -112.5 -127.5s-102.667 -51.5 -164 -57.5v-190h-90v190c-61.333 6 -116 25.167 -164 57.5zM566 46c40.667 28 72.334 68.167 95.001 120.5s34 113.5 34 183.5s-11.333 131.167 -34 183.5s-54.334 92.5 -95.001 120.5s-87.667 42 -141 42
s-100.333 -14 -141 -42s-72.334 -68.167 -95.001 -120.5s-34 -113.5 -34 -183.5s11.333 -131.167 34 -183.5s54.334 -92.5 95.001 -120.5s87.667 -42 141 -42s100.333 14 141 42z" />
    <glyph glyph-name="R" unicode="R" horiz-adv-x="698" 
d="M330 700c85.333 0 152.667 -17.5 202 -52.5s74 -82.833 74 -143.5c0 -44.667 -15.333 -82.5 -46 -113.5s-72.667 -51.5 -126 -61.5l251 -329h-107l-239 312c-4 -0.666992 -11 -1 -21 -1h-107v-311h-90v700h209zM471.001 377c34 30.667 51 73.668 51 129.001
s-17 98.166 -51 128.499s-82 45.5 -144 45.5h-116v-349h116c62 0 110 15.333 144 46z" />
    <glyph glyph-name="S" unicode="S" horiz-adv-x="637" 
d="M184.5 14.5c-42.333 19.667 -76.499 47.499 -102.499 83.499s-41.667 78 -47 126h19c9.33301 -67.333 38 -120.5 86 -159.5s108 -58.5 180 -58.5c62 0 111 12.5 147 37.5s54 60.167 54 105.5c0 33.333 -9.83301 60.333 -29.5 81s-44.167 36.667 -73.5 48s-68 23 -116 35
c-52 13.333 -94.5 26.5 -127.5 39.5s-61.333 32.667 -85 59s-35.5 61.166 -35.5 104.499c0 42 11.333 78 34 108s53.167 52.667 91.5 68s81.166 23 128.499 23c76.667 0 139.334 -21 188.001 -63s76.667 -99.333 84 -172h-19c-8.66699 66.667 -34.5 119 -77.5 157
s-98.167 57 -165.5 57c-58 0 -104.833 -12.833 -140.5 -38.5s-53.5 -60.834 -53.5 -105.501c0 -31.333 9.5 -56.666 28.5 -75.999s42.167 -34 69.5 -44s65.666 -21.333 114.999 -34c56.667 -14.667 102 -28.667 136 -42s63 -33.666 87 -60.999s36 -63.666 36 -108.999
c0 -64.667 -25 -114 -75 -148s-114 -51 -192 -51c-54 0 -102.167 9.83301 -144.5 29.5z" />
    <glyph glyph-name="T" unicode="T" horiz-adv-x="630" 
d="M270 680h-257v20h604v-20h-257v-680h-90v680z" />
    <glyph glyph-name="U" unicode="U" horiz-adv-x="776" 
d="M242.5 22c-43.667 24.667 -77.332 59.501 -100.999 104.501s-35.5 97.5 -35.5 157.5v416h90v-416c0 -86.667 20.333 -153.167 61 -199.5s96.667 -69.5 168 -69.5c46 0 86.5 11.333 121.5 34s62.167 54.667 81.5 96s29 89.333 29 144v411h20v-411
c0 -62 -11.333 -115.833 -34 -161.5s-55.334 -80.834 -98.001 -105.501s-92.667 -37 -150 -37c-58 0 -108.833 12.333 -152.5 37z" />
    <glyph glyph-name="V" unicode="V" horiz-adv-x="677" 
d="M22 700h96l258 -632h3l258 632h21l-283 -700h-70z" />
    <glyph glyph-name="W" unicode="W" horiz-adv-x="1010" 
d="M32 700h93l194 -625l186 625h67l194 -625l197 625h19l-218 -700h-70l-191 616l-182 -616h-71z" />
    <glyph glyph-name="X" unicode="X" horiz-adv-x="667" 
d="M290 341l-262 359h105l223 -295l232 295h25l-245 -312l282 -388h-105l-242 324l-253 -324h-25z" />
    <glyph glyph-name="Y" unicode="Y" horiz-adv-x="635" 
d="M274 281l-269 419h95l254 -399l255 399h23l-268 -420v-280h-90v281z" />
    <glyph glyph-name="Z" unicode="Z" horiz-adv-x="616" 
d="M36 17l442 663h-417v20h520v-16l-442 -664h441v-20h-544v17z" />
    <glyph glyph-name="bracketleft" unicode="[" horiz-adv-x="500" 
d="M146 800h258v-20h-185v-860h185v-20h-258v900z" />
    <glyph glyph-name="backslash" unicode="\" horiz-adv-x="458" 
d="M50 700h20l338 -700h-20z" />
    <glyph glyph-name="bracketright" unicode="]" horiz-adv-x="500" 
d="M354 -100h-258v20h186v860h-186v20h258v-900z" />
    <glyph glyph-name="asciicircum" unicode="^" horiz-adv-x="560" 
d="M270 700h20l167 -290h-23l-154 267l-154 -267h-23z" />
    <glyph glyph-name="underscore" unicode="_" horiz-adv-x="447" 
d="M30 7h387v-20h-387v20z" />
    <glyph glyph-name="a" unicode="a" horiz-adv-x="598" 
d="M82.5 24c-27.667 23.333 -41.502 54.6689 -41.502 94.002c0 49.333 21.833 84.833 65.5 106.5s100.834 35.5 171.501 41.5c48.667 4 85.5 11.5 110.5 22.5s37.5 27.5 37.5 49.5c0 45.333 -14 81.166 -42 107.499s-64.333 39.5 -109 39.5
c-47.333 0 -87.166 -14.5 -119.499 -43.5s-52.5 -68.5 -60.5 -118.5h-19c8 58 31.5 103.667 70.5 137s87.833 50 146.5 50c40.667 0 76.834 -8.33301 108.501 -25s56.334 -40.334 74.001 -71.001s26.5 -66.667 26.5 -108v-286h69v-20h-146v131
c-16.667 -44 -44.834 -78.667 -84.501 -104s-85.5 -38 -137.5 -38c-52.667 0 -92.834 11.667 -120.501 35zM328.998 44.0029c29.333 18 52.5 42.834 69.5 74.501s25.5 67.167 25.5 106.5l1 62c-18 -16.667 -56.667 -28.334 -116 -35.001
c-65.333 -7.33301 -112.833 -21.333 -142.5 -42s-44.5 -50 -44.5 -88c0 -34 9.83301 -60 29.5 -78s46.167 -27 79.5 -27c36 0 68.667 9 98 27z" />
    <glyph glyph-name="b" unicode="b" horiz-adv-x="666" 
d="M254 28c-36 25.333 -62.001 59.666 -78.001 102.999v-131h-80v710h80v-341c16 44 41.833 78.5 77.5 103.5s77.834 37.5 126.501 37.5c44 0 84 -11 120 -33s64.333 -52.833 85 -92.5s31 -84.5 31 -134.5s-10.333 -94.667 -31 -134s-49 -70.166 -85 -92.499
s-76 -33.5 -120 -33.5c-48 0 -90 12.667 -126 38zM448.999 44c26.667 18.667 47.667 45.6689 63 81.002s23 77 23 125c0 48.667 -7.66699 90.5 -23 125.5s-36.333 61.833 -63 80.5s-56.667 28 -90 28c-35.333 0 -67.166 -10.333 -95.499 -31s-50.5 -48.834 -66.5 -84.501
s-24 -75.167 -24 -118.5s8 -82.833 24 -118.5s38.167 -63.834 66.5 -84.501s60.166 -31 95.499 -31c33.333 0 63.333 9.33301 90 28z" />
    <glyph glyph-name="c" unicode="c" horiz-adv-x="591" 
d="M176.5 23.5c-39.667 22.333 -70.667 53.332 -93 92.999s-33.5 84.167 -33.5 133.5c0 50 11.167 94.667 33.5 134s53.333 70.166 93 92.499s84.5 33.5 134.5 33.5c64.667 0 118.167 -17 160.5 -51s69.166 -81 80.499 -141h-20c-11.333 51.333 -34.5 91.833 -69.5 121.5
s-78.167 44.5 -129.5 44.5c-40 0 -75.333 -9.66699 -106 -29s-54.334 -46.666 -71.001 -81.999s-25 -76.333 -25 -123s8.33301 -87.667 25 -123s40.334 -62.666 71.001 -81.999s66 -29 106 -29c51.333 0 94.5 15 129.5 45s58.167 70.667 69.5 122h20
c-11.333 -60 -38.166 -107.167 -80.499 -141.5s-95.833 -51.5 -160.5 -51.5c-50 0 -94.833 11.167 -134.5 33.5z" />
    <glyph glyph-name="d" unicode="d" horiz-adv-x="666" 
d="M166.5 23.5c-36.333 22.333 -64.832 53.167 -85.499 92.5s-31 84 -31 134s10.333 94.833 31 134.5s49.167 70.5 85.5 92.5s76.5 33 120.5 33c48.667 0 90.667 -12.5 126 -37.5s61.333 -59.5 78 -103.5v341h79v-710h-79v131c-16.667 -44 -42.834 -78.5 -78.501 -103.5
s-77.5 -37.5 -125.5 -37.5c-44 0 -84.167 11.167 -120.5 33.5zM403.501 47.001c28.333 20.667 50.5 48.8311 66.5 84.498s24 75.167 24 118.5s-8 82.833 -24 118.5s-38.167 63.834 -66.5 84.501s-60.166 31 -95.499 31c-34 0 -64.333 -9.16699 -91 -27.5
s-47.667 -45.166 -63 -80.499s-23 -77.333 -23 -126c0 -48 7.66699 -89.667 23 -125s36.333 -62.333 63 -81s57 -28 91 -28c35.333 0 67.166 10.333 95.499 31z" />
    <glyph glyph-name="e" unicode="e" horiz-adv-x="612" 
d="M178 23.5c-40 22.333 -71.333 53.3311 -94 92.998s-34 84.167 -34 133.5s11.333 93.833 34 133.5s54.167 70.667 94.5 93s85.5 33.5 135.5 33.5s94.667 -11.167 134 -33.5s70.166 -53.166 92.499 -92.499s33.833 -83.666 34.5 -132.999v-11h-443
c1.33301 -45.333 10.666 -84.833 27.999 -118.5s41 -59.667 71 -78s64 -27.5 102 -27.5c46.667 0 87.334 12 122.001 36s58.334 56 71.001 96h21c-13.333 -48.667 -41 -87.167 -83 -115.5s-92.333 -42.5 -151 -42.5c-50 0 -95 11.167 -135 33.5zM469.5 382.998
c-15.667 34.667 -37.167 61.333 -64.5 80s-58 28 -92 28c-34.667 0 -65.5 -9.5 -92.5 -28.5s-48.333 -45.5 -64 -79.5s-24.167 -72.667 -25.5 -116v-7h364c-1.33301 47.333 -9.83301 88.333 -25.5 123z" />
    <glyph glyph-name="f" unicode="f" horiz-adv-x="425" 
d="M40 480l0.000976562 20.002h101v56c0 58 16.5 103.167 49.5 135.5s77.833 48.5 134.5 48.5c47.333 0 86.166 -12.833 116.499 -38.5s45.5 -58.167 45.5 -97.5h-20v1c-0.666992 33.333 -14 60.666 -40 81.999s-59 32 -99 32c-40.667 0 -73.667 -10.833 -99 -32.5
s-38 -52.834 -38 -93.501c0 -16 3.66699 -37 11 -63c4 -14.667 6.66699 -24.667 8 -30h209v-20h-206c5.33301 -17.333 8 -35.333 8 -54v-426h-80v480h-101z" />
    <glyph glyph-name="g" unicode="g" horiz-adv-x="677" 
d="M153.5 -168c-51.667 28 -77.4961 66.332 -77.4961 114.999c0 38 16.667 70.167 50 96.5s80.333 44.166 141 53.499c-80 7.33301 -142.333 20.333 -187 39s-67 50 -67 94c0 18.667 6.66699 34.167 20 46.5s29.666 18.5 48.999 18.5c13.333 0 28.333 -3 45 -9
c-11.333 18.667 -17 39.334 -17 62.001c0 44.667 19.333 81.167 58 109.5s92 45.166 160 50.499v122h73v-122c70.667 -3.33301 126.667 -19.166 168 -47.499s62 -65.833 62 -112.5c0 -50 -23.5 -89.667 -70.5 -119s-110.167 -44 -189.5 -44
c-52.667 0 -93.667 5.16699 -123 15.5s-57.666 24.833 -84.999 43.5c-15.333 10.667 -28.833 18.5 -40.5 23.5s-25.167 7.5 -40.5 7.5c-14.667 0 -26.334 -4.16699 -35.001 -12.5s-13 -18.833 -13 -31.5c0 -30.667 14.667 -54.167 44 -70.5s64.666 -27.833 105.999 -34.5
s96.666 -13 165.999 -19l41 -3c85.333 -6.66699 150.5 -21.667 195.5 -45s67.5 -60.666 67.5 -111.999c0 -48.667 -25.833 -87 -77.5 -115s-122.5 -42 -212.5 -42c-88.667 0 -158.834 14 -210.501 42zM503.504 241.999c33 26 49.5 61.333 49.5 106
c0 45.333 -16.333 81 -49 107s-77 39 -133 39c-56.667 0 -101.167 -13 -133.5 -39s-48.5 -61.667 -48.5 -107c0 -44.667 16 -80 48 -106s76.667 -39 134 -39c55.333 0 99.5 13 132.5 39zM516.004 -154.001c36.667 24.667 54.999 58.667 54.999 102
c0 46 -17.5 80.833 -52.5 104.5s-86.5 35.5 -154.5 35.5c-64 0 -114.333 -12.333 -151 -37s-55 -59 -55 -103c0 -43.333 18.333 -77.333 55 -102s87 -37 151 -37c64.667 0 115.334 12.333 152.001 37z" />
    <glyph glyph-name="h" unicode="h" horiz-adv-x="660" 
d="M176 710l-0.000976562 -335c15.333 42 39.5 75 72.5 99s71.5 36 115.5 36c66.667 0 118.334 -21 155.001 -63s55 -101.333 55 -178v-269h-80v269c0 68.667 -13.333 121.5 -40 158.5s-64.667 55.5 -114 55.5c-30.667 0 -58.5 -9.5 -83.5 -28.5s-44.667 -45 -59 -78
s-21.5 -70.167 -21.5 -111.5v-265h-80v710h80z" />
    <glyph glyph-name="i" unicode="i" horiz-adv-x="272" 
d="M96 500h80v-500h-80v500zM88 745h97l-44 -174h-10z" />
    <glyph glyph-name="j" unicode="j" horiz-adv-x="308" 
d="M-36.5 -194c-23 10.667 -40.999 25.499 -53.999 44.499s-19.5 39.833 -19.5 62.5h19v-1c0 -28.667 12.5 -52.667 37.5 -72s54.833 -29 89.5 -29c36 0 65.833 10.333 89.5 31s35.5 50.667 35.5 90c0 15.333 -1.83301 31.333 -5.5 48s-5.83398 26.667 -6.50098 30
c-5.33301 24 -9.5 45.333 -12.5 64s-4.5 39.334 -4.5 62.001v364h80v-532c0 -55.333 -15.5 -98.833 -46.5 -130.5s-72.833 -47.5 -125.5 -47.5c-28 0 -53.5 5.33301 -76.5 16zM124.001 744.999h97l-44 -174h-10z" />
    <glyph glyph-name="k" unicode="k" horiz-adv-x="555" 
d="M96 710h80v-450h79l220 240h26l-188 -202l222 -298h-93l-188 240h-78v-240h-80v710z" />
    <glyph glyph-name="l" unicode="l" horiz-adv-x="272" 
d="M96 710h80v-710h-80v710z" />
    <glyph glyph-name="m" unicode="m" horiz-adv-x="999" 
d="M176 500l0.00292969 -123.002c14 41.333 36.667 73.833 68 97.5s67.666 35.5 108.999 35.5c48.667 0 88.667 -13 120 -39s52.666 -62.667 63.999 -110c13.333 46.667 36.166 83.167 68.499 109.5s71.166 39.5 116.499 39.5c60.667 0 107.667 -20 141 -60s50 -96 50 -168
v-282h-80v282c0 64.667 -11.833 114.334 -35.5 149.001s-57.167 52 -100.5 52c-28.667 0 -54.667 -9 -78 -27s-41.666 -42.833 -54.999 -74.5s-20 -67.5 -20 -107.5v-274h-80v282c0 64.667 -11.833 114.334 -35.5 149.001s-57.167 52 -100.5 52
c-28.667 0 -54.5 -9.5 -77.5 -28.5s-41.167 -45 -54.5 -78s-20 -70.167 -20 -111.5v-265h-80v500h80z" />
    <glyph glyph-name="n" unicode="n" horiz-adv-x="660" 
d="M176 500l-0.000976562 -125c15.333 42 39.5 75 72.5 99s71.5 36 115.5 36c66.667 0 118.334 -21 155.001 -63s55 -101.333 55 -178v-269h-80v269c0 68.667 -13.333 121.5 -40 158.5s-64.667 55.5 -114 55.5c-30.667 0 -58.5 -9.5 -83.5 -28.5s-44.667 -45 -59 -78
s-21.5 -70.167 -21.5 -111.5v-265h-80v500h80z" />
    <glyph glyph-name="o" unicode="o" horiz-adv-x="641" 
d="M182 24c-41.333 22.667 -73.667 53.667 -97 93s-35 83.666 -35 132.999s11.667 93.833 35 133.5s55.666 70.667 96.999 93s87.666 33.5 138.999 33.5s97.5 -11.167 138.5 -33.5s73.167 -53.333 96.5 -93s35 -84.167 35 -133.5s-11.667 -93.666 -35 -132.999
s-55.666 -70.333 -96.999 -93s-87.333 -34 -138 -34c-51.333 0 -97.666 11.333 -138.999 34zM418.999 38.5c28.667 19.667 51 47.667 67 84s24 78.833 24 127.5s-8 91.334 -24 128.001s-38.333 64.834 -67 84.501s-61.334 29.5 -98.001 29.5
c-37.333 0 -70.333 -9.83301 -99 -29.5s-51 -47.834 -67 -84.501s-24 -79.334 -24 -128.001s8 -91.167 24 -127.5s38.333 -64.333 67 -84s61.667 -29.5 99 -29.5c36.667 0 69.334 9.83301 98.001 29.5z" />
    <glyph glyph-name="p" unicode="p" horiz-adv-x="666" 
d="M176 500l-0.000976562 -131c16 44 41.833 78.5 77.5 103.5s77.834 37.5 126.501 37.5c44 0 84 -11 120 -33s64.333 -52.833 85 -92.5s31 -84.5 31 -134.5s-10.333 -94.667 -31 -134s-49 -70.166 -85 -92.499s-76 -33.5 -120 -33.5c-48 0 -90 12.667 -126 38
s-62 59.666 -78 102.999v-331h-80v700h80zM448.999 44c26.667 18.667 47.667 45.6689 63 81.002s23 77 23 125c0 48.667 -7.66699 90.5 -23 125.5s-36.333 61.833 -63 80.5s-56.667 28 -90 28c-35.333 0 -67.166 -10.333 -95.499 -31s-50.5 -48.834 -66.5 -84.501
s-24 -75.167 -24 -118.5s8 -82.833 24 -118.5s38.167 -63.834 66.5 -84.501s60.166 -31 95.499 -31c33.333 0 63.333 9.33301 90 28z" />
    <glyph glyph-name="q" unicode="q" horiz-adv-x="666" 
d="M491 131c-16.667 -44 -42.833 -78.499 -78.5 -103.499s-77.5 -37.5 -125.5 -37.5c-44 0 -84.167 11.167 -120.5 33.5s-64.833 53.166 -85.5 92.499s-31 84 -31 134s10.333 94.833 31 134.5s49.167 70.5 85.5 92.5s76.5 33 120.5 33c48.667 0 90.667 -12.5 126 -37.5
s61.333 -59.5 78 -103.5v131h79v-700h-79v331zM403.501 47.001c28.333 20.667 50.5 48.8311 66.5 84.498s24 75.167 24 118.5s-8 82.833 -24 118.5s-38.167 63.834 -66.5 84.501s-60.166 31 -95.499 31c-34 0 -64.333 -9.16699 -91 -27.5s-47.667 -45.166 -63 -80.499
s-23 -77.333 -23 -126c0 -48 7.66699 -89.667 23 -125s36.333 -62.333 63 -81s57 -28 91 -28c35.333 0 67.166 10.333 95.499 31z" />
    <glyph glyph-name="r" unicode="r" horiz-adv-x="521" 
d="M176 500l0.000976562 -130c14 44 36.5 78.333 67.5 103s67.167 37 108.5 37c49.333 0 87.666 -15.833 114.999 -47.5s41 -77.5 41 -137.5v-18h-78v24c0 48 -9.33301 84 -28 108s-45.667 36 -81 36c-26.667 0 -51.167 -9.33301 -73.5 -28s-39.833 -44 -52.5 -76
s-19 -67.333 -19 -106v-265h-80v500h80z" />
    <glyph glyph-name="s" unicode="s" horiz-adv-x="519" 
d="M109.5 33c-43.667 29.333 -69.499 71.6709 -77.499 127.004h20c8 -48.667 31.5 -85.667 70.5 -111s85.167 -38 138.5 -38c38.667 0 74 7.83301 106 23.5s48 39.5 48 71.5c0 20.667 -6.16699 37.334 -18.5 50.001s-28.333 22.667 -48 30s-47.167 15.333 -82.5 24
c-14.667 3.33301 -24.334 5.66602 -29.001 6.99902c-58 12.667 -104.167 29.334 -138.5 50.001s-51.5 53 -51.5 97c0 50 20 87 60 111s87.333 36 142 36c58.667 0 107.834 -14.5 147.501 -43.5s62.5 -70.167 68.5 -123.5h-20c-8 47.333 -29.333 83.333 -64 108
s-77 37 -127 37c-39.333 0 -73.833 -8.16699 -103.5 -24.5s-44.5 -41.5 -44.5 -75.5c0 -20 7.33301 -36.333 22 -49s32.167 -22.334 52.5 -29.001s52.833 -15.667 97.5 -27c40 -8.66699 73.667 -17.834 101 -27.501s50.666 -24.334 69.999 -44.001s29 -45.834 29 -78.501
c0 -34 -10.833 -61.833 -32.5 -83.5s-48.667 -37.334 -81 -47.001s-64.5 -14.5 -96.5 -14.5c-62 0 -114.833 14.667 -158.5 44z" />
    <glyph glyph-name="t" unicode="t" horiz-adv-x="456" 
d="M136 154l0.000976562 325.999h-114v20h104c6.66699 0 10 3.33301 10 10v110h80l-1 -120h212v-20h-212v-337c0 -86 39.667 -129 119 -129c29.333 0 60.333 6.33301 93 19v-19c-14.667 -7.33301 -33.834 -13.166 -57.501 -17.499s-45.167 -6.5 -64.5 -6.5
c-112.667 0 -169 54.667 -169 164z" />
    <glyph glyph-name="u" unicode="u" horiz-adv-x="660" 
d="M141 53.5c-36.667 42.333 -55 101.5 -55 177.5v269h80v-269c0 -68 13.5 -120.667 40.5 -158s65.167 -56 114.5 -56c30.667 0 58.5 9.5 83.5 28.5s44.667 45 59 78s21.5 70.167 21.5 111.5v265h79v-500h-79v126c-15.333 -42.667 -39.666 -76 -72.999 -100
s-72 -36 -116 -36c-66.667 0 -118.334 21.167 -155.001 63.5z" />
    <glyph glyph-name="v" unicode="v" horiz-adv-x="522" 
d="M12 500h86l196 -445l196 445h22l-218 -500h-64z" />
    <glyph glyph-name="w" unicode="w" horiz-adv-x="785" 
d="M21 500h82l145 -431l144 431h64l144 -431l145 431h21l-167 -500h-59l-147 436l-145 -436h-60z" />
    <glyph glyph-name="x" unicode="x" horiz-adv-x="548" 
d="M234 240l-203 260h97l165 -202l172 202h25l-185 -219l217 -281h-96l-179 224l-189 -224h-26z" />
    <glyph glyph-name="y" unicode="y" horiz-adv-x="533" 
d="M71 -167.5c-27.333 28.333 -40.999 65.167 -40.999 110.5v27h19v-26c0 -39.333 11.5 -71.333 34.5 -96s52.833 -37 89.5 -37c32.667 0 59.167 10 79.5 30s30.5 46.333 30.5 79v12c0 17.333 -3 35.833 -9 55.5s-17.333 46.5 -34 80.5l-228 432h88l187 -354
c6.66699 -14 13.667 -30.5 21 -49.5s11.666 -34.167 12.999 -45.5c3.33301 16 8 30.667 14 44l167 405h22l-172 -416c-7.33301 -18 -12.5 -34.667 -15.5 -50s-4.5 -33 -4.5 -53v-24c0 -51.333 -14 -92 -42 -122s-65 -45 -111 -45c-44.667 0 -80.667 14.167 -108 42.5z" />
    <glyph glyph-name="z" unicode="z" horiz-adv-x="500" 
d="M30 17l340 463h-322v20h415v-16l-340 -464h338v-20h-431v17z" />
    <glyph glyph-name="braceleft" unicode="{" horiz-adv-x="500" 
d="M202.5 -82c-25.667 22 -38.5 55.001 -38.5 99.001c0 19.333 5.33301 59 16 119l11.5 70c3.66699 23.333 5.5 42 5.5 56c0 26 -5.83301 45.5 -17.5 58.5s-28.5 19.5 -50.5 19.5h-41v20h41c22 0 38.833 6.5 50.5 19.5s17.5 32.5 17.5 58.5c0 14 -1.83301 32.667 -5.5 56
l-11.5 70c-10.667 60 -16 99.667 -16 119c0 44 12.833 77 38.5 99s60.167 33 103.5 33c14.667 0 30.834 -1.33301 48.501 -4s32.167 -6.66699 43.5 -12v-20c-24 10.667 -49.333 16 -76 16c-26 0 -47.167 -7.5 -63.5 -22.5s-24.5 -37.833 -24.5 -68.5c0 -20 5 -58 15 -114
c10.667 -62.667 16 -104.667 16 -126c0 -60.667 -25.333 -98.667 -76 -114c25.333 -7.33301 44.333 -20.833 57 -40.5s19 -44.167 19 -73.5c0 -20.667 -5.33301 -62.334 -16 -125.001c-10 -56 -15 -94.333 -15 -115c0 -30.667 8.16699 -53.5 24.5 -68.5
s37.5 -22.5 63.5 -22.5c26.667 0 52 5.33301 76 16v-20c-11.333 -5.33301 -25.833 -9.33301 -43.5 -12s-33.834 -4 -48.501 -4c-43.333 0 -77.833 11 -103.5 33z" />
    <glyph glyph-name="bar" unicode="|" horiz-adv-x="312" 
d="M146 800h20v-900h-20v900z" />
    <glyph glyph-name="braceright" unicode="}" horiz-adv-x="500" 
d="M298 782c26 -22 39.001 -54.999 39.001 -98.999c0 -22.667 -5.66699 -62.334 -17 -119.001l-11.5 -70c-3.66699 -23.333 -5.5 -42 -5.5 -56c0 -26 6 -45.5 18 -58.5s29 -19.5 51 -19.5h41v-20h-41c-46 0 -69 -26 -69 -78c0 -14 1.83301 -32.667 5.5 -56l11.5 -70
c11.333 -56.667 17 -96.334 17 -119.001c0 -44 -13 -77 -39 -99s-60.667 -33 -104 -33c-14.667 0 -30.667 1.33301 -48 4s-31.666 6.66699 -42.999 12v20c23.333 -10.667 48.333 -16 75 -16c26 0 47.167 7.5 63.5 22.5s24.5 37.833 24.5 68.5c0 16.667 -4.66699 55 -14 115
c-10.667 62.667 -16 104.334 -16 125.001c0 29.333 6.16699 53.833 18.5 73.5s31.166 33.167 56.499 40.5c-50 15.333 -75 53.333 -75 114c0 21.333 5.33301 63.333 16 126c9.33301 60 14 98 14 114c0 30.667 -8.16699 53.5 -24.5 68.5s-37.5 22.5 -63.5 22.5
c-26.667 0 -51.667 -5.33301 -75 -16v20c11.333 5.33301 25.666 9.33301 42.999 12s33.333 4 48 4c43.333 0 78 -11 104 -33z" />
    <glyph glyph-name="asciitilde" unicode="~" horiz-adv-x="560" 
d="M107 364.5c18 15.667 39.333 23.5 64 23.5c17.333 0 34.166 -2.5 50.499 -7.5s37.166 -12.5 62.499 -22.5c24 -9.33301 43.5 -16.333 58.5 -21s30.5 -7 46.5 -7c18.667 0 35.167 6 49.5 18s21.5 25.667 21.5 41h20c0 -21.333 -9 -39.833 -27 -55.5
s-39.333 -23.5 -64 -23.5c-17.333 0 -34.166 2.5 -50.499 7.5s-37.166 12.5 -62.499 22.5c-24 9.33301 -43.5 16.333 -58.5 21s-30.5 7 -46.5 7c-18.667 0 -35.167 -6 -49.5 -18s-21.5 -25.667 -21.5 -41h-20c0 21.333 9 39.833 27 55.5z" />
    <glyph glyph-name="uni00A0" unicode="&#xa0;" horiz-adv-x="250" 
 />
    <glyph glyph-name="exclamdown" unicode="&#xa1;" horiz-adv-x="302" 
d="M193.5 490.5c11.667 -11.667 17.498 -25.834 17.498 -42.501s-5.66699 -30.834 -17 -42.501s-25.666 -17.5 -42.999 -17.5c-16.667 0 -30.834 5.83301 -42.501 17.5s-17.5 25.834 -17.5 42.501s5.83301 30.834 17.5 42.501s25.834 17.5 42.501 17.5
s30.834 -5.83301 42.501 -17.5zM201.998 -200h-97l41 485h15z" />
    <glyph glyph-name="cent" unicode="&#xa2;" 
d="M497.5 163c35 30 58.166 70.6631 69.499 121.996h20c-11.333 -58.667 -37.333 -105 -78 -139s-92 -52 -154 -54v-122h-20v122c-48 1.33301 -91 13.5 -129 36.5s-67.667 53.833 -89 92.5s-32 82.334 -32 131.001s10.667 92.334 32 131.001s51 69.5 89 92.5
s81 35.167 129 36.5v118h20v-118c62 -2 113.333 -20 154 -54s66.667 -80 78 -138h-20c-11.333 51.333 -34.5 91.833 -69.5 121.5s-78.167 44.5 -129.5 44.5c-40 0 -75.167 -9.66699 -105.5 -29s-53.833 -46.666 -70.5 -81.999s-25 -76.333 -25 -123s8.33301 -87.667 25 -123
s40.334 -62.666 71.001 -81.999s65.667 -29 105 -29c51.333 0 94.5 15 129.5 45z" />
    <glyph glyph-name="sterling" unicode="&#xa3;" 
d="M63.5 13.5c-21 19 -31.4971 43.165 -31.4971 72.498c0 28.667 10.333 52.5 31 71.5s48 28.5 82 28.5c20 0 40.167 -3.16699 60.5 -9.5s43.166 -15.166 68.499 -26.499c0.666992 1.33301 1 4.66602 1 9.99902c-2 20 -8.16699 40 -18.5 60s-24.833 44.667 -43.5 74
c-3.33301 6 -7.5 12.667 -12.5 20s-10.167 16 -15.5 26h-135v20h123c-13.333 24 -23.666 47.333 -30.999 70s-11 47 -11 73c0 42.667 9.5 80 28.5 112s45.667 56.833 80 74.5s74.166 26.5 119.499 26.5c68.667 0 124.167 -19.667 166.5 -59s65.166 -91.666 68.499 -156.999
h-20c-2.66699 58.667 -22 104.667 -58 138s-81 50 -135 50c-52 0 -93.333 -15.667 -124 -47s-46 -74.333 -46 -129c0 -18.667 1.66699 -35.5 5 -50.5s9 -37.833 17 -68.5c3.33301 -8 6.66602 -19 9.99902 -33h289v-20h-282l12 -28c12.667 -32 22 -57.167 28 -75.5
s9 -37.5 9 -57.5c0 -10 -0.666992 -23 -2 -39l25 -12c39.333 -20 72.833 -35.167 100.5 -45.5s55.834 -15.5 84.501 -15.5c41.333 0 72.666 10.333 93.999 31s32 50.667 32 90c0 14.667 -2 30.334 -6 47.001h18c4.66699 -21.333 7 -43 7 -65
c0 -55.333 -13.833 -100 -41.5 -134s-67.167 -51 -118.5 -51c-34.667 0 -67.667 7.16699 -99 21.5s-70.333 35.5 -117 63.5c-11.333 -26 -28.5 -46.667 -51.5 -62s-48.833 -23 -77.5 -23c-34.667 0 -62.5 9.5 -83.5 28.5zM213.003 25.498
c20 13.667 35.002 31.834 45.002 54.501c-30.667 17.333 -55.834 30.166 -75.501 38.499s-38.5 12.5 -56.5 12.5c-20.667 0 -37.334 -5.5 -50.001 -16.5s-19 -25.167 -19 -42.5c0 -18.667 8.16699 -34.5 24.5 -47.5s37.5 -19.5 63.5 -19.5c25.333 0 48 6.83301 68 20.5z" />
    <glyph glyph-name="currency" unicode="&#xa4;" 
d="M202 216c-16 18 -28.667 38.5 -38 61.5s-14 47.167 -14 72.5s4.66699 49.5 14 72.5s22 43.5 38 61.5l-92 92l14 14l92 -92c18 16 38.5 28.667 61.5 38s47.167 14 72.5 14s49.5 -4.66699 72.5 -14s43.5 -22 61.5 -38l92 92l14 -14l-92 -92c16 -18 28.667 -38.5 38 -61.5
s14 -47.167 14 -72.5s-4.66699 -49.5 -14 -72.5s-22 -43.5 -38 -61.5l92 -92l-14 -14l-92 92c-18 -16 -38.5 -28.667 -61.5 -38s-47.167 -14 -72.5 -14s-49.5 4.66699 -72.5 14s-43.5 22 -61.5 38l-92 -92l-14 14zM440 194.5c27.333 16.333 49.166 38.166 65.499 65.499
s24.5 57.333 24.5 90s-8.16699 62.667 -24.5 90s-38.166 49.166 -65.499 65.499s-57.333 24.5 -90 24.5s-62.667 -8.16699 -90 -24.5s-49.166 -38.166 -65.499 -65.499s-24.5 -57.333 -24.5 -90s8.16699 -62.667 24.5 -90s38.166 -49.166 65.499 -65.499
s57.333 -24.5 90 -24.5s62.667 8.16699 90 24.5z" />
    <glyph glyph-name="yen" unicode="&#xa5;" 
d="M305 180h-211v20h211v81l-13 19h-198v20h185l-242 380h94l254 -397h2l254 397h23l-242 -380h199v-20h-212l-14 -20v-80h226v-20h-226v-180h-90v180z" />
    <glyph glyph-name="brokenbar" unicode="&#xa6;" horiz-adv-x="312" 
d="M146 800h20v-380h-20v380zM146 280h20v-380h-20v380z" />
    <glyph glyph-name="section" unicode="&#xa7;" 
d="M205.5 -54.5c-45 30.333 -71.501 73.833 -79.501 130.5h21c8 -50 32 -88.167 72 -114.5s85.667 -39.5 137 -39.5c38.667 0 74 8 106 24s48 41 48 75c0 22 -6.16699 39.5 -18.5 52.5s-28.166 23 -47.499 30s-46.666 14.833 -81.999 23.5l-30 8
c-42.667 10 -78.667 20.333 -108 31s-54.333 26.5 -75 47.5s-31 48.5 -31 82.5c0 38 12.667 68.5 38 91.5s58.666 39.167 99.999 48.5c-36 12.667 -64.167 28.834 -84.5 48.501s-30.5 46.5 -30.5 80.5c0 50.667 20.167 88.5 60.5 113.5s87.833 37.5 142.5 37.5
c57.333 0 106 -15 146 -45s63.333 -72.333 70 -127h-20c-7.33301 48.667 -29.166 85.667 -65.499 111s-79.5 38 -129.5 38c-38 0 -71.667 -8.5 -101 -25.5s-44 -43.167 -44 -78.5c0 -21.333 7.33301 -38.333 22 -51s32.5 -22.5 53.5 -29.5s53.5 -15.833 97.5 -26.5
c48 -11.333 86.167 -21.833 114.5 -31.5s53.166 -24.834 74.499 -45.501s32 -48.334 32 -83.001c0 -38 -12.833 -68.667 -38.5 -92s-58.834 -40.333 -99.501 -51c36.667 -12 65.334 -28 86.001 -48s31 -47.333 31 -82c0 -35.333 -10.833 -64.166 -32.5 -86.499
s-48.667 -38.333 -81 -48s-64.5 -14.5 -96.5 -14.5c-60 0 -112.5 15.167 -157.5 45.5zM501.999 219.5c28 15.667 42.002 37.833 42.002 66.5c0 23.333 -7.66699 42.333 -23 57s-35 26.5 -59 35.5s-58.333 19.5 -103 31.5c-30.667 8 -50.334 13.333 -59.001 16
c-34.667 -3.33301 -64.834 -13 -90.501 -29s-38.5 -38.667 -38.5 -68c0 -36 21.5 -64 64.5 -84s101.167 -38.333 174.5 -55c33.333 4 64 13.833 92 29.5z" />
    <glyph glyph-name="copyright" unicode="&#xa9;" horiz-adv-x="820" 
d="M225 33c-56 32 -100 76 -132 132s-48 117.667 -48 185s16 129 48 185s76 100 132 132s117.667 48 185 48s129 -16 185 -48s100 -76 132 -132s48 -117.667 48 -185s-16 -129 -48 -185s-76 -100 -132 -132s-117.667 -48 -185 -48s-129 16 -185 48zM585 50.5
c52.667 30.333 94.167 71.833 124.5 124.5s45.5 111 45.5 175s-15.167 122.333 -45.5 175s-71.833 94.167 -124.5 124.5s-111 45.5 -175 45.5s-122.333 -15.167 -175 -45.5s-94.167 -71.833 -124.5 -124.5s-45.5 -111 -45.5 -175s15.167 -122.333 45.5 -175
s71.833 -94.167 124.5 -124.5s111 -45.5 175 -45.5s122.333 15.167 175 45.5zM308.5 169c-31.667 18 -56.5 42.8311 -74.5 74.498s-27 67.167 -27 106.5s9 74.833 27 106.5s42.833 56.5 74.5 74.5s67.5 27 107.5 27c52 0 94.833 -13.667 128.5 -41s54.834 -65 63.501 -113
h-20c-8 40 -25.667 71.5 -53 94.5s-61.333 34.5 -102 34.5c-47.333 0 -85.5 -16.667 -114.5 -50s-43.5 -77.666 -43.5 -132.999s14.5 -99.666 43.5 -132.999s67.167 -50 114.5 -50c40.667 0 74.667 11.5 102 34.5s45 54.5 53 94.5h20
c-8.66699 -48 -29.834 -85.667 -63.501 -113s-76.5 -41 -128.5 -41c-40 0 -75.833 9 -107.5 27z" />
    <glyph glyph-name="guillemotleft" unicode="&#xab;" horiz-adv-x="506" 
d="M147 300l109 -200h-21l-106 194v12l106 194h21zM307 300l109 -200h-21l-106 194v12l106 194h21z" />
    <glyph glyph-name="logicalnot" unicode="&#xac;" horiz-adv-x="560" 
d="M480 360v-210h-20v190h-380v20h400z" />
    <glyph glyph-name="registered" unicode="&#xae;" horiz-adv-x="440" 
d="M135.5 378.5c-27.667 15.667 -49.334 37.334 -65.001 65.001s-23.5 58.167 -23.5 91.5s7.83301 63.833 23.5 91.5s37.334 49.334 65.001 65.001s58.167 23.5 91.5 23.5s63.833 -7.83301 91.5 -23.5s49.334 -37.334 65.001 -65.001s23.5 -58.167 23.5 -91.5
s-7.83301 -63.833 -23.5 -91.5s-37.334 -49.334 -65.001 -65.001s-58.167 -23.5 -91.5 -23.5s-63.833 7.83301 -91.5 23.5zM309 395c24.667 14 44 33.333 58 58s21 52 21 82s-7 57.333 -21 82s-33.333 44 -58 58s-52 21 -82 21s-57.333 -7 -82 -21
s-44.167 -33.333 -58.5 -58s-21.5 -52 -21.5 -82s7.16699 -57.333 21.5 -82s33.833 -44 58.5 -58s52 -21 82 -21s57.333 7 82 21zM218 642c25.333 0 45.333 -5.16699 60 -15.5s22 -24.833 22 -43.5c0 -26.667 -14.333 -44.667 -43 -54l69 -91h-43l-64 84h-34v-84h-34v204h67
zM253.5 550c8.33301 8 12.5 19 12.5 33c0 13.333 -4.16699 23.5 -12.5 30.5s-20.5 10.5 -36.5 10.5h-32v-86h32c16 0 28.167 4 36.5 12z" />
    <glyph glyph-name="degree" unicode="&#xb0;" horiz-adv-x="310" 
d="M70.5 510.5c-23.667 23.667 -35.5 51.834 -35.5 84.501c0 33.333 11.833 61.666 35.5 84.999s51.834 35 84.501 35c33.333 0 61.666 -11.667 84.999 -35s35 -51.666 35 -84.999c0 -32.667 -11.667 -60.834 -35 -84.501s-51.666 -35.5 -84.999 -35.5
c-32.667 0 -60.834 11.833 -84.501 35.5zM225.5 524.5c19.667 19.667 29.5 43.167 29.5 70.5s-9.83301 50.833 -29.5 70.5s-43.167 29.5 -70.5 29.5s-50.833 -9.83301 -70.5 -29.5s-29.5 -43.167 -29.5 -70.5s9.83301 -50.833 29.5 -70.5s43.167 -29.5 70.5 -29.5
s50.833 9.83301 70.5 29.5z" />
    <glyph glyph-name="plusminus" unicode="&#xb1;" horiz-adv-x="560" 
d="M290 410h190v-20h-190v-190h-20v190h-190v20h190v190h20v-190zM80 110v20h400v-20h-400z" />
    <glyph glyph-name="paragraph" unicode="&#xb6;" horiz-adv-x="523" 
d="M281 300c-41.333 0 -78.833 8.83496 -112.5 26.502s-60.167 41.667 -79.5 72s-29 64.166 -29 101.499s9.66699 71.166 29 101.499s45.833 54.333 79.5 72s71.167 26.5 112.5 26.5h96v-900h-87v500h-9z" />
    <glyph glyph-name="periodcentered" unicode="&#xb7;" horiz-adv-x="262" 
d="M88.5 258.5c-11.667 11.667 -17.498 26.167 -17.498 43.5s5.83301 31.666 17.5 42.999s25.834 17 42.501 17c17.333 0 31.666 -5.66699 42.999 -17s17 -25.666 17 -42.999s-5.83301 -31.833 -17.5 -43.5s-25.834 -17.5 -42.501 -17.5s-30.834 5.83301 -42.501 17.5z" />
    <glyph glyph-name="guillemotright" unicode="&#xbb;" horiz-adv-x="467" 
d="M199 300l-109 200h21l106 -194v-12l-106 -194h-21zM359 300l-109 200h21l106 -194v-12l-106 -194h-21z" />
    <glyph glyph-name="questiondown" unicode="&#xbf;" horiz-adv-x="531" 
d="M323 492c11.333 -11.333 17 -25.666 17 -42.999c0 -16.667 -5.66699 -30.834 -17 -42.501s-25.666 -17.5 -42.999 -17.5c-16.667 0 -30.834 5.83301 -42.501 17.5s-17.5 25.834 -17.5 42.501c0 17.333 5.83301 31.666 17.5 42.999s25.834 17 42.501 17
c17.333 0 31.666 -5.66699 42.999 -17zM304 267c0 -35.333 -6.99902 -64.333 -20.999 -87s-34 -46.334 -60 -71.001c-26 -25.333 -45.5 -48.5 -58.5 -69.5s-19.5 -48.167 -19.5 -81.5c0 -46 14 -81.667 42 -107s64.333 -38 109 -38c54.667 0 97.167 18.667 127.5 56
s44.833 86.333 43.5 147h19c1.33301 -45.333 -6.5 -85.333 -23.5 -120s-41.833 -61.667 -74.5 -81s-71.334 -29 -116.001 -29c-36 0 -70 6.33301 -102 19s-58 31.667 -78 57s-30 56.333 -30 93c0 26 4.66699 48.5 14 67.5s20.5 34.333 33.5 46s29.5 24.5 49.5 38.5
c29.333 20.667 52.333 38.5 69 53.5s30.167 32.833 40.5 53.5s15.5 45.334 15.5 74.001h16c2.66699 -6 4 -13 4 -21z" />
    <glyph glyph-name="Agrave" unicode="&#xc0;" horiz-adv-x="671" 
d="M299 700h71l287 -700h-97l-95 230h-337l-93 -230h-21zM457 250l-159 386h-2l-160 -386h321zM320 771l-121 174h84l54 -174h-17z" />
    <glyph glyph-name="Aacute" unicode="&#xc1;" horiz-adv-x="671" 
d="M299 700h71l287 -700h-97l-95 230h-337l-93 -230h-21zM457 250l-159 386h-2l-160 -386h321zM389 945h84l-120 -174h-18z" />
    <glyph glyph-name="Acircumflex" unicode="&#xc2;" horiz-adv-x="671" 
d="M299 700h71l287 -700h-97l-95 230h-337l-93 -230h-21zM457 250l-159 386h-2l-160 -386h321zM420 785l-118 125l-118 -125h-26l147 160h61l147 -160h-93z" />
    <glyph glyph-name="Atilde" unicode="&#xc3;" horiz-adv-x="671" 
d="M299 700h71l287 -700h-97l-95 230h-337l-93 -230h-21zM457 250l-159 386h-2l-160 -386h321zM177.5 892c18.333 18.667 41.498 27.999 69.498 27.999c18 0 35 -2.16699 51 -6.5s35.667 -10.5 59 -18.5c20 -7.33301 36.667 -12.666 50 -15.999s27 -5 41 -5
c15.333 0 28.5 4.33301 39.5 13s16.5 19.667 16.5 33h18c0 -29.333 -9 -53.333 -27 -72s-41 -28 -69 -28c-18 0 -35 2.16699 -51 6.5s-35.667 10.5 -59 18.5s-41.166 13.667 -53.499 17s-25.166 5 -38.499 5c-15.333 0 -28.5 -4.33301 -39.5 -13s-16.5 -20 -16.5 -34h-18
c0 29.333 9.16699 53.333 27.5 72z" />
    <glyph glyph-name="Adieresis" unicode="&#xc4;" horiz-adv-x="671" 
d="M299 700h71l287 -700h-97l-95 230h-337l-93 -230h-21zM457 250l-159 386h-2l-160 -386h321zM218 945h94l-42 -174h-9zM360 945h94l-43 -174h-9z" />
    <glyph glyph-name="Aring" unicode="&#xc5;" horiz-adv-x="671" 
d="M299 700h71l287 -700h-97l-95 230h-337l-93 -230h-21zM457 250l-159 386h-2l-160 -386h321zM245 807.5c-24.667 25 -37 55.167 -37 90.5c0 23.333 5.66699 44.833 17 64.5s26.833 35.334 46.5 47.001s41.167 17.5 64.5 17.5s44.833 -5.83301 64.5 -17.5
s35.334 -27.334 47.001 -47.001s17.5 -41.167 17.5 -64.5s-5.83301 -44.833 -17.5 -64.5s-27.334 -35.167 -47.001 -46.5s-41.167 -17 -64.5 -17c-36 0 -66.333 12.5 -91 37.5zM418 845c19.333 13.333 29 31 29 53s-9.66699 39.833 -29 53.5s-46.666 20.5 -81.999 20.5
s-62.5 -6.83301 -81.5 -20.5s-28.5 -31.5 -28.5 -53.5s9.5 -39.667 28.5 -53s46.167 -20 81.5 -20s62.666 6.66699 81.999 20z" />
    <glyph glyph-name="AE" unicode="&#xc6;" horiz-adv-x="965" 
d="M649 20h297v-20h-386l-95 230h-337l-93 -230h-21l285 700h601v-20h-522l131 -320h305v-20h-296zM136 250h321l-159 386h-2z" />
    <glyph glyph-name="Ccedilla" unicode="&#xc7;" horiz-adv-x="794" 
d="M233.5 31c-53.667 30.667 -95.501 73.667 -125.501 129s-45 118.666 -45 189.999c0 72 15 135.5 45 190.5s71.833 97.833 125.5 128.5s115.167 46 184.5 46c56 0 107 -11.833 153 -35.5s83.833 -56.667 113.5 -99s48.167 -90.833 55.5 -145.5h-20
c-7.33301 49.333 -23.666 92.833 -48.999 130.5s-57.666 67 -96.999 88s-83 31.5 -131 31.5c-56.667 0 -106.667 -14 -150 -42s-77.166 -67.333 -101.499 -118s-36.5 -109 -36.5 -175c0 -65.333 12.167 -123.333 36.5 -174s58.333 -90 102 -118s93.5 -42 149.5 -42
c48 0 91.667 10.5 131 31.5s71.666 50.333 96.999 88s41.666 80.834 48.999 129.501h20c-7.33301 -54.667 -25.833 -103.167 -55.5 -145.5s-67.5 -75.333 -113.5 -99s-97 -35.5 -153 -35.5c-69.333 0 -130.833 15.333 -184.5 46zM366.999 -245h-84l121 174h16z" />
    <glyph glyph-name="Egrave" unicode="&#xc8;" horiz-adv-x="587" 
d="M121 700h400v-20h-310v-320h224v-20h-224v-320h356v-20h-446v700zM305 771l-121 174h84l54 -174h-17z" />
    <glyph glyph-name="Eacute" unicode="&#xc9;" horiz-adv-x="587" 
d="M121 700h400v-20h-310v-320h224v-20h-224v-320h356v-20h-446v700zM374 945h84l-120 -174h-18z" />
    <glyph glyph-name="Ecircumflex" unicode="&#xca;" horiz-adv-x="587" 
d="M121 700h400v-20h-310v-320h224v-20h-224v-320h356v-20h-446v700zM405 785l-118 125l-118 -125h-26l147 160h61l147 -160h-93z" />
    <glyph glyph-name="Edieresis" unicode="&#xcb;" horiz-adv-x="587" 
d="M121 700h400v-20h-310v-320h224v-20h-224v-320h356v-20h-446v700zM203 945h94l-42 -174h-9zM345 945h94l-43 -174h-9z" />
    <glyph glyph-name="Igrave" unicode="&#xcc;" horiz-adv-x="332" 
d="M121 700h90v-700h-90v700zM150 771l-121 174h84l54 -174h-17z" />
    <glyph glyph-name="Iacute" unicode="&#xcd;" horiz-adv-x="332" 
d="M121 700h90v-700h-90v700zM219 945h84l-120 -174h-18z" />
    <glyph glyph-name="Icircumflex" unicode="&#xce;" horiz-adv-x="332" 
d="M121 700h90v-700h-90v700zM250 785l-118 125l-118 -125h-26l147 160h61l147 -160h-93z" />
    <glyph glyph-name="Idieresis" unicode="&#xcf;" horiz-adv-x="332" 
d="M121 700h90v-700h-90v700zM48 945h94l-42 -174h-9zM190 945h94l-43 -174h-9z" />
    <glyph glyph-name="Eth" unicode="&#xd0;" horiz-adv-x="777" 
d="M532.5 656c57.667 -29.333 102.334 -70.5 134.001 -123.5s47.5 -113.833 47.5 -182.5s-15.833 -129.5 -47.5 -182.5s-76.334 -94.167 -134.001 -123.5s-124.5 -44 -200.5 -44h-211v340h-79v20h79v340h211c76 0 142.833 -14.667 200.5 -44zM488 59
c43.333 26 76.666 63.8311 99.999 113.498s35 108.834 35 177.501s-11.667 127.834 -35 177.501s-56.666 87.667 -99.999 114s-94 39.5 -152 39.5h-125v-321h149v-20h-149v-320h125c58 0 108.667 13 152 39z" />
    <glyph glyph-name="Ntilde" unicode="&#xd1;" horiz-adv-x="798" 
d="M119 700h89l450 -575v575h21v-714h-23l-516 653v-639h-21v700zM240.5 892c18.333 18.667 41.498 27.999 69.498 27.999c18 0 35 -2.16699 51 -6.5s35.667 -10.5 59 -18.5c20 -7.33301 36.667 -12.666 50 -15.999s27 -5 41 -5c15.333 0 28.5 4.33301 39.5 13
s16.5 19.667 16.5 33h18c0 -29.333 -9 -53.333 -27 -72s-41 -28 -69 -28c-18 0 -35 2.16699 -51 6.5s-35.667 10.5 -59 18.5s-41.166 13.667 -53.499 17s-25.166 5 -38.499 5c-15.333 0 -28.5 -4.33301 -39.5 -13s-16.5 -20 -16.5 -34h-18c0 29.333 9.16699 53.333 27.5 72z
" />
    <glyph glyph-name="Ograve" unicode="&#xd2;" horiz-adv-x="850" 
d="M239.5 32c-55 31.333 -98.167 74.833 -129.5 130.5s-47 118.167 -47 187.5c0 70 15.667 132.667 47 188s74.5 98.666 129.5 129.999s116.833 47 185.5 47c69.333 0 131.5 -15.667 186.5 -47s98 -74.666 129 -129.999s46.5 -118 46.5 -188
c0 -69.333 -15.5 -131.833 -46.5 -187.5s-74 -99.167 -129 -130.5s-117.167 -47 -186.5 -47c-68.667 0 -130.5 15.667 -185.5 47zM566 46c40.667 28 72.334 68.167 95.001 120.5s34 113.5 34 183.5s-11.333 131.167 -34 183.5s-54.334 92.5 -95.001 120.5
s-87.667 42 -141 42s-100.333 -14 -141 -42s-72.334 -68.167 -95.001 -120.5s-34 -113.5 -34 -183.5s11.333 -131.167 34 -183.5s54.334 -92.5 95.001 -120.5s87.667 -42 141 -42s100.333 14 141 42zM409 771l-121 174h84l54 -174h-17z" />
    <glyph glyph-name="Oacute" unicode="&#xd3;" horiz-adv-x="850" 
d="M239.5 32c-55 31.333 -98.167 74.833 -129.5 130.5s-47 118.167 -47 187.5c0 70 15.667 132.667 47 188s74.5 98.666 129.5 129.999s116.833 47 185.5 47c69.333 0 131.5 -15.667 186.5 -47s98 -74.666 129 -129.999s46.5 -118 46.5 -188
c0 -69.333 -15.5 -131.833 -46.5 -187.5s-74 -99.167 -129 -130.5s-117.167 -47 -186.5 -47c-68.667 0 -130.5 15.667 -185.5 47zM566 46c40.667 28 72.334 68.167 95.001 120.5s34 113.5 34 183.5s-11.333 131.167 -34 183.5s-54.334 92.5 -95.001 120.5
s-87.667 42 -141 42s-100.333 -14 -141 -42s-72.334 -68.167 -95.001 -120.5s-34 -113.5 -34 -183.5s11.333 -131.167 34 -183.5s54.334 -92.5 95.001 -120.5s87.667 -42 141 -42s100.333 14 141 42zM478 945h84l-120 -174h-18z" />
    <glyph glyph-name="Ocircumflex" unicode="&#xd4;" horiz-adv-x="850" 
d="M239.5 32c-55 31.333 -98.167 74.833 -129.5 130.5s-47 118.167 -47 187.5c0 70 15.667 132.667 47 188s74.5 98.666 129.5 129.999s116.833 47 185.5 47c69.333 0 131.5 -15.667 186.5 -47s98 -74.666 129 -129.999s46.5 -118 46.5 -188
c0 -69.333 -15.5 -131.833 -46.5 -187.5s-74 -99.167 -129 -130.5s-117.167 -47 -186.5 -47c-68.667 0 -130.5 15.667 -185.5 47zM566 46c40.667 28 72.334 68.167 95.001 120.5s34 113.5 34 183.5s-11.333 131.167 -34 183.5s-54.334 92.5 -95.001 120.5
s-87.667 42 -141 42s-100.333 -14 -141 -42s-72.334 -68.167 -95.001 -120.5s-34 -113.5 -34 -183.5s11.333 -131.167 34 -183.5s54.334 -92.5 95.001 -120.5s87.667 -42 141 -42s100.333 14 141 42zM509 785l-118 125l-118 -125h-26l147 160h61l147 -160h-93z" />
    <glyph glyph-name="Otilde" unicode="&#xd5;" horiz-adv-x="850" 
d="M239.5 32c-55 31.333 -98.167 74.833 -129.5 130.5s-47 118.167 -47 187.5c0 70 15.667 132.667 47 188s74.5 98.666 129.5 129.999s116.833 47 185.5 47c69.333 0 131.5 -15.667 186.5 -47s98 -74.666 129 -129.999s46.5 -118 46.5 -188
c0 -69.333 -15.5 -131.833 -46.5 -187.5s-74 -99.167 -129 -130.5s-117.167 -47 -186.5 -47c-68.667 0 -130.5 15.667 -185.5 47zM566 46c40.667 28 72.334 68.167 95.001 120.5s34 113.5 34 183.5s-11.333 131.167 -34 183.5s-54.334 92.5 -95.001 120.5
s-87.667 42 -141 42s-100.333 -14 -141 -42s-72.334 -68.167 -95.001 -120.5s-34 -113.5 -34 -183.5s11.333 -131.167 34 -183.5s54.334 -92.5 95.001 -120.5s87.667 -42 141 -42s100.333 14 141 42zM266.5 892c18.333 18.667 41.498 27.999 69.498 27.999
c18 0 35 -2.16699 51 -6.5s35.667 -10.5 59 -18.5c20 -7.33301 36.667 -12.666 50 -15.999s27 -5 41 -5c15.333 0 28.5 4.33301 39.5 13s16.5 19.667 16.5 33h18c0 -29.333 -9 -53.333 -27 -72s-41 -28 -69 -28c-18 0 -35 2.16699 -51 6.5s-35.667 10.5 -59 18.5
s-41.166 13.667 -53.499 17s-25.166 5 -38.499 5c-15.333 0 -28.5 -4.33301 -39.5 -13s-16.5 -20 -16.5 -34h-18c0 29.333 9.16699 53.333 27.5 72z" />
    <glyph glyph-name="Odieresis" unicode="&#xd6;" horiz-adv-x="850" 
d="M239.5 32c-55 31.333 -98.167 74.833 -129.5 130.5s-47 118.167 -47 187.5c0 70 15.667 132.667 47 188s74.5 98.666 129.5 129.999s116.833 47 185.5 47c69.333 0 131.5 -15.667 186.5 -47s98 -74.666 129 -129.999s46.5 -118 46.5 -188
c0 -69.333 -15.5 -131.833 -46.5 -187.5s-74 -99.167 -129 -130.5s-117.167 -47 -186.5 -47c-68.667 0 -130.5 15.667 -185.5 47zM566 46c40.667 28 72.334 68.167 95.001 120.5s34 113.5 34 183.5s-11.333 131.167 -34 183.5s-54.334 92.5 -95.001 120.5
s-87.667 42 -141 42s-100.333 -14 -141 -42s-72.334 -68.167 -95.001 -120.5s-34 -113.5 -34 -183.5s11.333 -131.167 34 -183.5s54.334 -92.5 95.001 -120.5s87.667 -42 141 -42s100.333 14 141 42zM307 945h94l-42 -174h-9zM449 945h94l-43 -174h-9z" />
    <glyph glyph-name="multiply" unicode="&#xd7;" horiz-adv-x="560" 
d="M117 202l148 148l-148 148l15 15l148 -148l148 148l15 -15l-148 -148l148 -148l-15 -15l-148 148l-148 -148z" />
    <glyph glyph-name="Oslash" unicode="&#xd8;" horiz-adv-x="850" 
d="M289 9c-42 16 -79 38.668 -111 68.001l-74 -77h-27l87 91c-32.667 32.667 -57.667 71.167 -75 115.5s-26 92.166 -26 143.499c0 70 15.667 132.667 47 188s74.5 98.666 129.5 129.999s116.833 47 185.5 47c48.667 0 94.167 -8 136.5 -24s79.833 -38.667 112.5 -68l73 77
h27l-87 -91c32 -32.667 56.667 -71.167 74 -115.5s26 -92.166 26 -143.499c0 -69.333 -15.5 -131.833 -46.5 -187.5s-74 -99.167 -129 -130.5s-117.167 -47 -186.5 -47c-48.667 0 -94 8 -136 24zM425 696.001c-53.333 0 -100.332 -13.999 -140.999 -41.999
s-72.334 -68.167 -95.001 -120.5s-34 -113.5 -34 -183.5c0 -39.333 5.5 -76.333 16.5 -111s26.5 -65.334 46.5 -92.001l404 424c-44 83.333 -109.667 125 -197 125zM566.001 46.002c40.667 28 72.333 68.168 95 120.501s34 113.5 34 183.5
c0 39.333 -5.5 76.166 -16.5 110.499s-26.167 64.833 -45.5 91.5l-405 -423c22 -41.333 49.667 -72.5 83 -93.5s71.333 -31.5 114 -31.5c53.333 0 100.333 14 141 42z" />
    <glyph glyph-name="Ugrave" unicode="&#xd9;" horiz-adv-x="776" 
d="M242.5 22c-43.667 24.667 -77.332 59.501 -100.999 104.501s-35.5 97.5 -35.5 157.5v416h90v-416c0 -86.667 20.333 -153.167 61 -199.5s96.667 -69.5 168 -69.5c46 0 86.5 11.333 121.5 34s62.167 54.667 81.5 96s29 89.333 29 144v411h20v-411
c0 -62 -11.333 -115.833 -34 -161.5s-55.334 -80.834 -98.001 -105.501s-92.667 -37 -150 -37c-58 0 -108.833 12.333 -152.5 37zM393.002 771.001l-121 174h84l54 -174h-17z" />
    <glyph glyph-name="Uacute" unicode="&#xda;" horiz-adv-x="776" 
d="M242.5 22c-43.667 24.667 -77.332 59.501 -100.999 104.501s-35.5 97.5 -35.5 157.5v416h90v-416c0 -86.667 20.333 -153.167 61 -199.5s96.667 -69.5 168 -69.5c46 0 86.5 11.333 121.5 34s62.167 54.667 81.5 96s29 89.333 29 144v411h20v-411
c0 -62 -11.333 -115.833 -34 -161.5s-55.334 -80.834 -98.001 -105.501s-92.667 -37 -150 -37c-58 0 -108.833 12.333 -152.5 37zM462.002 945.001h84l-120 -174h-18z" />
    <glyph glyph-name="Ucircumflex" unicode="&#xdb;" horiz-adv-x="776" 
d="M242.5 22c-43.667 24.667 -77.332 59.501 -100.999 104.501s-35.5 97.5 -35.5 157.5v416h90v-416c0 -86.667 20.333 -153.167 61 -199.5s96.667 -69.5 168 -69.5c46 0 86.5 11.333 121.5 34s62.167 54.667 81.5 96s29 89.333 29 144v411h20v-411
c0 -62 -11.333 -115.833 -34 -161.5s-55.334 -80.834 -98.001 -105.501s-92.667 -37 -150 -37c-58 0 -108.833 12.333 -152.5 37zM493.002 785.001l-118 125l-118 -125h-26l147 160h61l147 -160h-93z" />
    <glyph glyph-name="Udieresis" unicode="&#xdc;" horiz-adv-x="776" 
d="M242.5 22c-43.667 24.667 -77.332 59.501 -100.999 104.501s-35.5 97.5 -35.5 157.5v416h90v-416c0 -86.667 20.333 -153.167 61 -199.5s96.667 -69.5 168 -69.5c46 0 86.5 11.333 121.5 34s62.167 54.667 81.5 96s29 89.333 29 144v411h20v-411
c0 -62 -11.333 -115.833 -34 -161.5s-55.334 -80.834 -98.001 -105.501s-92.667 -37 -150 -37c-58 0 -108.833 12.333 -152.5 37zM291.002 945.001h94l-42 -174h-9zM433.002 945.001h94l-43 -174h-9z" />
    <glyph glyph-name="Yacute" unicode="&#xdd;" horiz-adv-x="635" 
d="M274 281l-269 419h95l254 -399l255 399h23l-268 -420v-280h-90v281zM374 945h84l-120 -174h-18z" />
    <glyph glyph-name="Thorn" unicode="&#xde;" horiz-adv-x="651" 
d="M208 700v-145h120c84.667 0 151.167 -17.667 199.5 -53s72.5 -84.333 72.5 -147c0 -62 -24.167 -110.833 -72.5 -146.5s-114.833 -53.5 -199.5 -53.5h-120v-155h-87v700h87zM464 222.5c33.333 31.667 50 75.834 50 132.501c0 57.333 -16.667 101.666 -50 132.999
s-80.333 47 -141 47h-115v-360h115c60.667 0 107.667 15.833 141 47.5z" />
    <glyph glyph-name="germandbls" unicode="&#xdf;" horiz-adv-x="758" 
d="M40 480l0.00292969 20.0107h101v57c0 57.333 19.667 102.166 59 134.499s93.666 48.5 162.999 48.5c68 0 122.167 -16 162.5 -48s60.5 -76 60.5 -132v-74c-24.667 3.33301 -47.667 5 -69 5c-38.667 0 -72.334 -8.33301 -101.001 -25s-43 -42.334 -43 -77.001
c0 -20 7 -36.333 21 -49s31 -22.334 51 -29.001s51.667 -15.667 95 -27c38.667 -8.66699 71.334 -17.834 98.001 -27.501s49.334 -24.334 68.001 -44.001s28 -45.834 28 -78.501c0 -34 -10.5 -61.833 -31.5 -83.5s-47 -37.334 -78 -47.001s-61.833 -14.5 -92.5 -14.5
c-56.667 0 -105.5 13.5 -146.5 40.5s-66.167 65.833 -75.5 116.5h20c9.33301 -44.667 32.166 -78.334 68.499 -101.001s78.833 -34 127.5 -34c37.333 0 71.666 7.83301 102.999 23.5s47 39.5 47 71.5c0 23.333 -7.33301 41.666 -22 54.999s-31.834 23.166 -51.501 29.499
s-52.5 15.166 -98.5 26.499c-56.667 12.667 -101.667 29.334 -135 50.001s-50 53 -50 97c0 42.667 15.833 75.167 47.5 97.5s70.167 35.166 115.5 38.499h28v68c0 48 -15 85.333 -45 112s-69.333 40 -118 40c-48 0 -86 -11 -114 -33s-42 -53.333 -42 -94
c0 -15.333 4 -33.333 12 -54c6 -18.667 10.5 -35.167 13.5 -49.5s4.5 -32.833 4.5 -55.5v-634h-80v680h-101z" />
    <glyph glyph-name="agrave" unicode="&#xe0;" horiz-adv-x="598" 
d="M82.5 24c-27.667 23.333 -41.502 54.6689 -41.502 94.002c0 49.333 21.833 84.833 65.5 106.5s100.834 35.5 171.501 41.5c48.667 4 85.5 11.5 110.5 22.5s37.5 27.5 37.5 49.5c0 45.333 -14 81.166 -42 107.499s-64.333 39.5 -109 39.5
c-47.333 0 -87.166 -14.5 -119.499 -43.5s-52.5 -68.5 -60.5 -118.5h-19c8 58 31.5 103.667 70.5 137s87.833 50 146.5 50c40.667 0 76.834 -8.33301 108.501 -25s56.334 -40.334 74.001 -71.001s26.5 -66.667 26.5 -108v-286h69v-20h-146v131
c-16.667 -44 -44.834 -78.667 -84.501 -104s-85.5 -38 -137.5 -38c-52.667 0 -92.834 11.667 -120.501 35zM328.998 44.0029c29.333 18 52.5 42.834 69.5 74.501s25.5 67.167 25.5 106.5l1 62c-18 -16.667 -56.667 -28.334 -116 -35.001
c-65.333 -7.33301 -112.833 -21.333 -142.5 -42s-44.5 -50 -44.5 -88c0 -34 9.83301 -60 29.5 -78s46.167 -27 79.5 -27c36 0 68.667 9 98 27zM264.998 571.004l-121 174h84l54 -174h-17z" />
    <glyph glyph-name="aacute" unicode="&#xe1;" horiz-adv-x="598" 
d="M82.5 24c-27.667 23.333 -41.502 54.6689 -41.502 94.002c0 49.333 21.833 84.833 65.5 106.5s100.834 35.5 171.501 41.5c48.667 4 85.5 11.5 110.5 22.5s37.5 27.5 37.5 49.5c0 45.333 -14 81.166 -42 107.499s-64.333 39.5 -109 39.5
c-47.333 0 -87.166 -14.5 -119.499 -43.5s-52.5 -68.5 -60.5 -118.5h-19c8 58 31.5 103.667 70.5 137s87.833 50 146.5 50c40.667 0 76.834 -8.33301 108.501 -25s56.334 -40.334 74.001 -71.001s26.5 -66.667 26.5 -108v-286h69v-20h-146v131
c-16.667 -44 -44.834 -78.667 -84.501 -104s-85.5 -38 -137.5 -38c-52.667 0 -92.834 11.667 -120.501 35zM328.998 44.0029c29.333 18 52.5 42.834 69.5 74.501s25.5 67.167 25.5 106.5l1 62c-18 -16.667 -56.667 -28.334 -116 -35.001
c-65.333 -7.33301 -112.833 -21.333 -142.5 -42s-44.5 -50 -44.5 -88c0 -34 9.83301 -60 29.5 -78s46.167 -27 79.5 -27c36 0 68.667 9 98 27zM333.998 745.004h84l-120 -174h-18z" />
    <glyph glyph-name="acircumflex" unicode="&#xe2;" horiz-adv-x="598" 
d="M82.5 24c-27.667 23.333 -41.502 54.6689 -41.502 94.002c0 49.333 21.833 84.833 65.5 106.5s100.834 35.5 171.501 41.5c48.667 4 85.5 11.5 110.5 22.5s37.5 27.5 37.5 49.5c0 45.333 -14 81.166 -42 107.499s-64.333 39.5 -109 39.5
c-47.333 0 -87.166 -14.5 -119.499 -43.5s-52.5 -68.5 -60.5 -118.5h-19c8 58 31.5 103.667 70.5 137s87.833 50 146.5 50c40.667 0 76.834 -8.33301 108.501 -25s56.334 -40.334 74.001 -71.001s26.5 -66.667 26.5 -108v-286h69v-20h-146v131
c-16.667 -44 -44.834 -78.667 -84.501 -104s-85.5 -38 -137.5 -38c-52.667 0 -92.834 11.667 -120.501 35zM328.998 44.0029c29.333 18 52.5 42.834 69.5 74.501s25.5 67.167 25.5 106.5l1 62c-18 -16.667 -56.667 -28.334 -116 -35.001
c-65.333 -7.33301 -112.833 -21.333 -142.5 -42s-44.5 -50 -44.5 -88c0 -34 9.83301 -60 29.5 -78s46.167 -27 79.5 -27c36 0 68.667 9 98 27zM364.998 585.004l-118 125l-118 -125h-26l147 160h61l147 -160h-93z" />
    <glyph glyph-name="atilde" unicode="&#xe3;" horiz-adv-x="598" 
d="M82.5 24c-27.667 23.333 -41.502 54.6689 -41.502 94.002c0 49.333 21.833 84.833 65.5 106.5s100.834 35.5 171.501 41.5c48.667 4 85.5 11.5 110.5 22.5s37.5 27.5 37.5 49.5c0 45.333 -14 81.166 -42 107.499s-64.333 39.5 -109 39.5
c-47.333 0 -87.166 -14.5 -119.499 -43.5s-52.5 -68.5 -60.5 -118.5h-19c8 58 31.5 103.667 70.5 137s87.833 50 146.5 50c40.667 0 76.834 -8.33301 108.501 -25s56.334 -40.334 74.001 -71.001s26.5 -66.667 26.5 -108v-286h69v-20h-146v131
c-16.667 -44 -44.834 -78.667 -84.501 -104s-85.5 -38 -137.5 -38c-52.667 0 -92.834 11.667 -120.501 35zM328.998 44.0029c29.333 18 52.5 42.834 69.5 74.501s25.5 67.167 25.5 106.5l1 62c-18 -16.667 -56.667 -28.334 -116 -35.001
c-65.333 -7.33301 -112.833 -21.333 -142.5 -42s-44.5 -50 -44.5 -88c0 -34 9.83301 -60 29.5 -78s46.167 -27 79.5 -27c36 0 68.667 9 98 27zM122.498 692.004c18.333 18.667 41.498 27.999 69.498 27.999c18 0 35 -2.16699 51 -6.5s35.667 -10.5 59 -18.5
c20 -7.33301 36.667 -12.666 50 -15.999s27 -5 41 -5c15.333 0 28.5 4.33301 39.5 13s16.5 19.667 16.5 33h18c0 -29.333 -9 -53.333 -27 -72s-41 -28 -69 -28c-18 0 -35 2.16699 -51 6.5s-35.667 10.5 -59 18.5s-41.166 13.667 -53.499 17s-25.166 5 -38.499 5
c-15.333 0 -28.5 -4.33301 -39.5 -13s-16.5 -20 -16.5 -34h-18c0 29.333 9.16699 53.333 27.5 72z" />
    <glyph glyph-name="adieresis" unicode="&#xe4;" horiz-adv-x="598" 
d="M82.5 24c-27.667 23.333 -41.502 54.6689 -41.502 94.002c0 49.333 21.833 84.833 65.5 106.5s100.834 35.5 171.501 41.5c48.667 4 85.5 11.5 110.5 22.5s37.5 27.5 37.5 49.5c0 45.333 -14 81.166 -42 107.499s-64.333 39.5 -109 39.5
c-47.333 0 -87.166 -14.5 -119.499 -43.5s-52.5 -68.5 -60.5 -118.5h-19c8 58 31.5 103.667 70.5 137s87.833 50 146.5 50c40.667 0 76.834 -8.33301 108.501 -25s56.334 -40.334 74.001 -71.001s26.5 -66.667 26.5 -108v-286h69v-20h-146v131
c-16.667 -44 -44.834 -78.667 -84.501 -104s-85.5 -38 -137.5 -38c-52.667 0 -92.834 11.667 -120.501 35zM328.998 44.0029c29.333 18 52.5 42.834 69.5 74.501s25.5 67.167 25.5 106.5l1 62c-18 -16.667 -56.667 -28.334 -116 -35.001
c-65.333 -7.33301 -112.833 -21.333 -142.5 -42s-44.5 -50 -44.5 -88c0 -34 9.83301 -60 29.5 -78s46.167 -27 79.5 -27c36 0 68.667 9 98 27zM162.998 745.004h94l-42 -174h-9zM304.998 745.004h94l-43 -174h-9z" />
    <glyph glyph-name="aring" unicode="&#xe5;" horiz-adv-x="598" 
d="M82.5 24c-27.667 23.333 -41.502 54.6689 -41.502 94.002c0 49.333 21.833 84.833 65.5 106.5s100.834 35.5 171.501 41.5c48.667 4 85.5 11.5 110.5 22.5s37.5 27.5 37.5 49.5c0 45.333 -14 81.166 -42 107.499s-64.333 39.5 -109 39.5
c-47.333 0 -87.166 -14.5 -119.499 -43.5s-52.5 -68.5 -60.5 -118.5h-19c8 58 31.5 103.667 70.5 137s87.833 50 146.5 50c40.667 0 76.834 -8.33301 108.501 -25s56.334 -40.334 74.001 -71.001s26.5 -66.667 26.5 -108v-286h69v-20h-146v131
c-16.667 -44 -44.834 -78.667 -84.501 -104s-85.5 -38 -137.5 -38c-52.667 0 -92.834 11.667 -120.501 35zM328.998 44.0029c29.333 18 52.5 42.834 69.5 74.501s25.5 67.167 25.5 106.5l1 62c-18 -16.667 -56.667 -28.334 -116 -35.001
c-65.333 -7.33301 -112.833 -21.333 -142.5 -42s-44.5 -50 -44.5 -88c0 -34 9.83301 -60 29.5 -78s46.167 -27 79.5 -27c36 0 68.667 9 98 27zM189.998 607.504c-24.667 25 -37 55.167 -37 90.5c0 23.333 5.66699 44.833 17 64.5s26.833 35.334 46.5 47.001
s41.167 17.5 64.5 17.5s44.833 -5.83301 64.5 -17.5s35.334 -27.334 47.001 -47.001s17.5 -41.167 17.5 -64.5s-5.83301 -44.833 -17.5 -64.5s-27.334 -35.167 -47.001 -46.5s-41.167 -17 -64.5 -17c-36 0 -66.333 12.5 -91 37.5zM362.998 645.004
c19.333 13.333 29 31 29 53s-9.66699 39.833 -29 53.5s-46.666 20.5 -81.999 20.5s-62.5 -6.83301 -81.5 -20.5s-28.5 -31.5 -28.5 -53.5s9.5 -39.667 28.5 -53s46.167 -20 81.5 -20s62.666 6.66699 81.999 20z" />
    <glyph glyph-name="ae" unicode="&#xe6;" horiz-adv-x="983" 
d="M82.5 24c-27.667 23.333 -41.5029 54.666 -41.5029 93.999c0 49.333 21.833 84.833 65.5 106.5s100.834 35.5 171.501 41.5c48.667 4 85.5 11.5 110.5 22.5s37.5 27.5 37.5 49.5c0 45.333 -14 81.166 -42 107.499s-64.333 39.5 -109 39.5
c-47.333 0 -87.166 -14.5 -119.499 -43.5s-52.5 -68.5 -60.5 -118.5h-19c8 58 31.5 103.667 70.5 137s87.833 50 146.5 50c46 0 84.5 -10.833 115.5 -32.5s51.833 -51.5 62.5 -89.5c20.667 37.333 49.834 67 87.501 89s79.834 33 126.501 33c50 0 94.667 -11.167 134 -33.5
s70.166 -53.166 92.499 -92.499s33.833 -83.666 34.5 -132.999v-11h-443c1.33301 -45.333 10.666 -84.833 27.999 -118.5s41 -59.667 71 -78s64 -27.5 102 -27.5c46.667 0 87.334 12 122.001 36s58.334 56 71.001 96h21c-12.667 -48.667 -40.167 -87.167 -82.5 -115.5
s-92.833 -42.5 -151.5 -42.5s-110.167 15.667 -154.5 47s-75.5 73 -93.5 125c-14 -56.667 -42.667 -99.667 -86 -129s-92.333 -44 -147 -44c-52.667 0 -92.834 11.667 -120.501 35zM840.497 383c-15.667 34.667 -37 61.333 -64 80s-57.5 28 -91.5 28
c-34.667 0 -65.667 -9.5 -93 -28.5s-48.833 -45.5 -64.5 -79.5s-24.167 -72.667 -25.5 -116v-7h364c-1.33301 47.333 -9.83301 88.333 -25.5 123zM328.997 43.999c29.333 18 52.5 42.834 69.5 74.501s25.5 67.167 25.5 106.5l1 62c-18 -16.667 -56.667 -28.334 -116 -35.001
c-65.333 -7.33301 -112.833 -21.333 -142.5 -42s-44.5 -50 -44.5 -88c0 -34 9.83301 -60 29.5 -78s46.167 -27 79.5 -27c36 0 68.667 9 98 27z" />
    <glyph glyph-name="ccedilla" unicode="&#xe7;" horiz-adv-x="591" 
d="M176.5 23.5c-39.667 22.333 -70.667 53.332 -93 92.999s-33.5 84.167 -33.5 133.5c0 50 11.167 94.667 33.5 134s53.333 70.166 93 92.499s84.5 33.5 134.5 33.5c64.667 0 118.167 -17 160.5 -51s69.166 -81 80.499 -141h-20c-11.333 51.333 -34.5 91.833 -69.5 121.5
s-78.167 44.5 -129.5 44.5c-40 0 -75.333 -9.66699 -106 -29s-54.334 -46.666 -71.001 -81.999s-25 -76.333 -25 -123s8.33301 -87.667 25 -123s40.334 -62.666 71.001 -81.999s66 -29 106 -29c51.333 0 94.5 15 129.5 45s58.167 70.667 69.5 122h20
c-11.333 -60 -38.166 -107.167 -80.499 -141.5s-95.833 -51.5 -160.5 -51.5c-50 0 -94.833 11.167 -134.5 33.5zM260 -245.001h-84l121 174h16z" />
    <glyph glyph-name="egrave" unicode="&#xe8;" horiz-adv-x="612" 
d="M178 23.5c-40 22.333 -71.333 53.3311 -94 92.998s-34 84.167 -34 133.5s11.333 93.833 34 133.5s54.167 70.667 94.5 93s85.5 33.5 135.5 33.5s94.667 -11.167 134 -33.5s70.166 -53.166 92.499 -92.499s33.833 -83.666 34.5 -132.999v-11h-443
c1.33301 -45.333 10.666 -84.833 27.999 -118.5s41 -59.667 71 -78s64 -27.5 102 -27.5c46.667 0 87.334 12 122.001 36s58.334 56 71.001 96h21c-13.333 -48.667 -41 -87.167 -83 -115.5s-92.333 -42.5 -151 -42.5c-50 0 -95 11.167 -135 33.5zM469.5 382.998
c-15.667 34.667 -37.167 61.333 -64.5 80s-58 28 -92 28c-34.667 0 -65.5 -9.5 -92.5 -28.5s-48.333 -45.5 -64 -79.5s-24.167 -72.667 -25.5 -116v-7h364c-1.33301 47.333 -9.83301 88.333 -25.5 123zM290 570.997l-121 174h84l54 -174h-17z" />
    <glyph glyph-name="eacute" unicode="&#xe9;" horiz-adv-x="612" 
d="M178 23.5c-40 22.333 -71.333 53.3311 -94 92.998s-34 84.167 -34 133.5s11.333 93.833 34 133.5s54.167 70.667 94.5 93s85.5 33.5 135.5 33.5s94.667 -11.167 134 -33.5s70.166 -53.166 92.499 -92.499s33.833 -83.666 34.5 -132.999v-11h-443
c1.33301 -45.333 10.666 -84.833 27.999 -118.5s41 -59.667 71 -78s64 -27.5 102 -27.5c46.667 0 87.334 12 122.001 36s58.334 56 71.001 96h21c-13.333 -48.667 -41 -87.167 -83 -115.5s-92.333 -42.5 -151 -42.5c-50 0 -95 11.167 -135 33.5zM469.5 382.998
c-15.667 34.667 -37.167 61.333 -64.5 80s-58 28 -92 28c-34.667 0 -65.5 -9.5 -92.5 -28.5s-48.333 -45.5 -64 -79.5s-24.167 -72.667 -25.5 -116v-7h364c-1.33301 47.333 -9.83301 88.333 -25.5 123zM359 744.997h84l-120 -174h-18z" />
    <glyph glyph-name="ecircumflex" unicode="&#xea;" horiz-adv-x="612" 
d="M178 23.5c-40 22.333 -71.333 53.3311 -94 92.998s-34 84.167 -34 133.5s11.333 93.833 34 133.5s54.167 70.667 94.5 93s85.5 33.5 135.5 33.5s94.667 -11.167 134 -33.5s70.166 -53.166 92.499 -92.499s33.833 -83.666 34.5 -132.999v-11h-443
c1.33301 -45.333 10.666 -84.833 27.999 -118.5s41 -59.667 71 -78s64 -27.5 102 -27.5c46.667 0 87.334 12 122.001 36s58.334 56 71.001 96h21c-13.333 -48.667 -41 -87.167 -83 -115.5s-92.333 -42.5 -151 -42.5c-50 0 -95 11.167 -135 33.5zM469.5 382.998
c-15.667 34.667 -37.167 61.333 -64.5 80s-58 28 -92 28c-34.667 0 -65.5 -9.5 -92.5 -28.5s-48.333 -45.5 -64 -79.5s-24.167 -72.667 -25.5 -116v-7h364c-1.33301 47.333 -9.83301 88.333 -25.5 123zM390 584.997l-118 125l-118 -125h-26l147 160h61l147 -160h-93z" />
    <glyph glyph-name="edieresis" unicode="&#xeb;" horiz-adv-x="612" 
d="M178 23.5c-40 22.333 -71.333 53.3311 -94 92.998s-34 84.167 -34 133.5s11.333 93.833 34 133.5s54.167 70.667 94.5 93s85.5 33.5 135.5 33.5s94.667 -11.167 134 -33.5s70.166 -53.166 92.499 -92.499s33.833 -83.666 34.5 -132.999v-11h-443
c1.33301 -45.333 10.666 -84.833 27.999 -118.5s41 -59.667 71 -78s64 -27.5 102 -27.5c46.667 0 87.334 12 122.001 36s58.334 56 71.001 96h21c-13.333 -48.667 -41 -87.167 -83 -115.5s-92.333 -42.5 -151 -42.5c-50 0 -95 11.167 -135 33.5zM469.5 382.998
c-15.667 34.667 -37.167 61.333 -64.5 80s-58 28 -92 28c-34.667 0 -65.5 -9.5 -92.5 -28.5s-48.333 -45.5 -64 -79.5s-24.167 -72.667 -25.5 -116v-7h364c-1.33301 47.333 -9.83301 88.333 -25.5 123zM188 744.997h94l-42 -174h-9zM330 744.997h94l-43 -174h-9z" />
    <glyph glyph-name="igrave" unicode="&#xec;" horiz-adv-x="272" 
d="M96 500h80v-500h-80v500zM120 571l-121 174h84l54 -174h-17z" />
    <glyph glyph-name="iacute" unicode="&#xed;" horiz-adv-x="272" 
d="M96 500h80v-500h-80v500zM189 745h84l-120 -174h-18z" />
    <glyph glyph-name="icircumflex" unicode="&#xee;" horiz-adv-x="272" 
d="M96 500h80v-500h-80v500zM220 585l-118 125l-118 -125h-26l147 160h61l147 -160h-93z" />
    <glyph glyph-name="idieresis" unicode="&#xef;" horiz-adv-x="272" 
d="M96 500h80v-500h-80v500zM18 745h94l-42 -174h-9zM160 745h94l-43 -174h-9z" />
    <glyph glyph-name="eth" unicode="&#xf0;" horiz-adv-x="641" 
d="M182 24c-41.333 22.667 -73.667 53.668 -97 93.001s-35 83.666 -35 132.999s11.667 93.833 35 133.5s55.666 70.667 96.999 93s87.666 33.5 138.999 33.5c26 0 49.167 -2.83301 69.5 -8.5s39.833 -13.834 58.5 -24.501c-12 18.667 -23.333 34 -34 46l-53 67h-185v20h167
l-86 100h26l86 -100h154v-20h-136l106 -132c34.667 -37.333 59.5 -72 74.5 -104s22.5 -66.667 22.5 -104c0 -49.333 -11.667 -93.666 -35 -132.999s-55.666 -70.333 -96.999 -93s-87.333 -34 -138 -34c-51.333 0 -97.666 11.333 -138.999 34zM418.999 38.501
c28.667 19.667 51 47.667 67 84s24 78.833 24 127.5s-8 91.334 -24 128.001s-38.333 64.834 -67 84.501s-61.334 29.5 -98.001 29.5c-37.333 0 -70.333 -9.83301 -99 -29.5s-51 -47.834 -67 -84.501s-24 -79.334 -24 -128.001s8 -91.167 24 -127.5s38.333 -64.333 67 -84
s61.667 -29.5 99 -29.5c36.667 0 69.334 9.83301 98.001 29.5z" />
    <glyph glyph-name="ntilde" unicode="&#xf1;" horiz-adv-x="660" 
d="M176 500l-0.000976562 -125c15.333 42 39.5 75 72.5 99s71.5 36 115.5 36c66.667 0 118.334 -21 155.001 -63s55 -101.333 55 -178v-269h-80v269c0 68.667 -13.333 121.5 -40 158.5s-64.667 55.5 -114 55.5c-30.667 0 -58.5 -9.5 -83.5 -28.5s-44.667 -45 -59 -78
s-21.5 -70.167 -21.5 -111.5v-265h-80v500h80zM178.499 692c18.333 18.667 41.498 27.999 69.498 27.999c18 0 35 -2.16699 51 -6.5s35.667 -10.5 59 -18.5c20 -7.33301 36.667 -12.666 50 -15.999s27 -5 41 -5c15.333 0 28.5 4.33301 39.5 13s16.5 19.667 16.5 33h18
c0 -29.333 -9 -53.333 -27 -72s-41 -28 -69 -28c-18 0 -35 2.16699 -51 6.5s-35.667 10.5 -59 18.5s-41.166 13.667 -53.499 17s-25.166 5 -38.499 5c-15.333 0 -28.5 -4.33301 -39.5 -13s-16.5 -20 -16.5 -34h-18c0 29.333 9.16699 53.333 27.5 72z" />
    <glyph glyph-name="ograve" unicode="&#xf2;" horiz-adv-x="641" 
d="M182 24c-41.333 22.667 -73.667 53.667 -97 93s-35 83.666 -35 132.999s11.667 93.833 35 133.5s55.666 70.667 96.999 93s87.666 33.5 138.999 33.5s97.5 -11.167 138.5 -33.5s73.167 -53.333 96.5 -93s35 -84.167 35 -133.5s-11.667 -93.666 -35 -132.999
s-55.666 -70.333 -96.999 -93s-87.333 -34 -138 -34c-51.333 0 -97.666 11.333 -138.999 34zM418.999 38.5c28.667 19.667 51 47.667 67 84s24 78.833 24 127.5s-8 91.334 -24 128.001s-38.333 64.834 -67 84.501s-61.334 29.5 -98.001 29.5
c-37.333 0 -70.333 -9.83301 -99 -29.5s-51 -47.834 -67 -84.501s-24 -79.334 -24 -128.001s8 -91.167 24 -127.5s38.333 -64.333 67 -84s61.667 -29.5 99 -29.5c36.667 0 69.334 9.83301 98.001 29.5zM304.999 571l-121 174h84l54 -174h-17z" />
    <glyph glyph-name="oacute" unicode="&#xf3;" horiz-adv-x="641" 
d="M182 24c-41.333 22.667 -73.667 53.667 -97 93s-35 83.666 -35 132.999s11.667 93.833 35 133.5s55.666 70.667 96.999 93s87.666 33.5 138.999 33.5s97.5 -11.167 138.5 -33.5s73.167 -53.333 96.5 -93s35 -84.167 35 -133.5s-11.667 -93.666 -35 -132.999
s-55.666 -70.333 -96.999 -93s-87.333 -34 -138 -34c-51.333 0 -97.666 11.333 -138.999 34zM418.999 38.5c28.667 19.667 51 47.667 67 84s24 78.833 24 127.5s-8 91.334 -24 128.001s-38.333 64.834 -67 84.501s-61.334 29.5 -98.001 29.5
c-37.333 0 -70.333 -9.83301 -99 -29.5s-51 -47.834 -67 -84.501s-24 -79.334 -24 -128.001s8 -91.167 24 -127.5s38.333 -64.333 67 -84s61.667 -29.5 99 -29.5c36.667 0 69.334 9.83301 98.001 29.5zM373.999 745h84l-120 -174h-18z" />
    <glyph glyph-name="ocircumflex" unicode="&#xf4;" horiz-adv-x="641" 
d="M182 24c-41.333 22.667 -73.667 53.667 -97 93s-35 83.666 -35 132.999s11.667 93.833 35 133.5s55.666 70.667 96.999 93s87.666 33.5 138.999 33.5s97.5 -11.167 138.5 -33.5s73.167 -53.333 96.5 -93s35 -84.167 35 -133.5s-11.667 -93.666 -35 -132.999
s-55.666 -70.333 -96.999 -93s-87.333 -34 -138 -34c-51.333 0 -97.666 11.333 -138.999 34zM418.999 38.5c28.667 19.667 51 47.667 67 84s24 78.833 24 127.5s-8 91.334 -24 128.001s-38.333 64.834 -67 84.501s-61.334 29.5 -98.001 29.5
c-37.333 0 -70.333 -9.83301 -99 -29.5s-51 -47.834 -67 -84.501s-24 -79.334 -24 -128.001s8 -91.167 24 -127.5s38.333 -64.333 67 -84s61.667 -29.5 99 -29.5c36.667 0 69.334 9.83301 98.001 29.5zM404.999 585l-118 125l-118 -125h-26l147 160h61l147 -160h-93z" />
    <glyph glyph-name="otilde" unicode="&#xf5;" horiz-adv-x="641" 
d="M182 24c-41.333 22.667 -73.667 53.667 -97 93s-35 83.666 -35 132.999s11.667 93.833 35 133.5s55.666 70.667 96.999 93s87.666 33.5 138.999 33.5s97.5 -11.167 138.5 -33.5s73.167 -53.333 96.5 -93s35 -84.167 35 -133.5s-11.667 -93.666 -35 -132.999
s-55.666 -70.333 -96.999 -93s-87.333 -34 -138 -34c-51.333 0 -97.666 11.333 -138.999 34zM418.999 38.5c28.667 19.667 51 47.667 67 84s24 78.833 24 127.5s-8 91.334 -24 128.001s-38.333 64.834 -67 84.501s-61.334 29.5 -98.001 29.5
c-37.333 0 -70.333 -9.83301 -99 -29.5s-51 -47.834 -67 -84.501s-24 -79.334 -24 -128.001s8 -91.167 24 -127.5s38.333 -64.333 67 -84s61.667 -29.5 99 -29.5c36.667 0 69.334 9.83301 98.001 29.5zM162.499 692c18.333 18.667 41.498 27.999 69.498 27.999
c18 0 35 -2.16699 51 -6.5s35.667 -10.5 59 -18.5c20 -7.33301 36.667 -12.666 50 -15.999s27 -5 41 -5c15.333 0 28.5 4.33301 39.5 13s16.5 19.667 16.5 33h18c0 -29.333 -9 -53.333 -27 -72s-41 -28 -69 -28c-18 0 -35 2.16699 -51 6.5s-35.667 10.5 -59 18.5
s-41.166 13.667 -53.499 17s-25.166 5 -38.499 5c-15.333 0 -28.5 -4.33301 -39.5 -13s-16.5 -20 -16.5 -34h-18c0 29.333 9.16699 53.333 27.5 72z" />
    <glyph glyph-name="odieresis" unicode="&#xf6;" horiz-adv-x="641" 
d="M182 24c-41.333 22.667 -73.667 53.667 -97 93s-35 83.666 -35 132.999s11.667 93.833 35 133.5s55.666 70.667 96.999 93s87.666 33.5 138.999 33.5s97.5 -11.167 138.5 -33.5s73.167 -53.333 96.5 -93s35 -84.167 35 -133.5s-11.667 -93.666 -35 -132.999
s-55.666 -70.333 -96.999 -93s-87.333 -34 -138 -34c-51.333 0 -97.666 11.333 -138.999 34zM418.999 38.5c28.667 19.667 51 47.667 67 84s24 78.833 24 127.5s-8 91.334 -24 128.001s-38.333 64.834 -67 84.501s-61.334 29.5 -98.001 29.5
c-37.333 0 -70.333 -9.83301 -99 -29.5s-51 -47.834 -67 -84.501s-24 -79.334 -24 -128.001s8 -91.167 24 -127.5s38.333 -64.333 67 -84s61.667 -29.5 99 -29.5c36.667 0 69.334 9.83301 98.001 29.5zM202.999 745h94l-42 -174h-9zM344.999 745h94l-43 -174h-9z" />
    <glyph glyph-name="divide" unicode="&#xf7;" horiz-adv-x="560" 
d="M258.5 498.5c-5.66699 5.66699 -8.5 12.834 -8.5 21.501s2.83301 15.834 8.5 21.501s12.834 8.5 21.501 8.5s15.834 -2.83301 21.501 -8.5s8.5 -12.834 8.5 -21.501s-2.83301 -15.834 -8.5 -21.501s-12.834 -8.5 -21.501 -8.5s-15.834 2.83301 -21.501 8.5zM80 360h400
v-20h-400v20zM258.5 158.5c-5.66699 5.66699 -8.5 12.834 -8.5 21.501s2.83301 15.834 8.5 21.501s12.834 8.5 21.501 8.5s15.834 -2.83301 21.501 -8.5s8.5 -12.834 8.5 -21.501s-2.83301 -15.834 -8.5 -21.501s-12.834 -8.5 -21.501 -8.5s-15.834 2.83301 -21.501 8.5z
" />
    <glyph glyph-name="oslash" unicode="&#xf8;" horiz-adv-x="641" 
d="M221 6.5c-30.667 11 -57.667 26.8311 -81 47.498l-52 -54h-27l64 66c-24 24 -42.5 51.667 -55.5 83s-19.5 65 -19.5 101c0 49.333 11.667 93.833 35 133.5s55.666 70.667 96.999 93s87.666 33.5 138.999 33.5c34 0 65.833 -5 95.5 -15s55.834 -24.667 78.501 -44l47 49
h27l-59 -61c26 -23.333 46 -51.166 60 -83.499s21 -67.5 21 -105.5c0 -49.333 -11.667 -93.666 -35 -132.999s-55.666 -70.333 -96.999 -93s-87.333 -34 -138 -34c-36 0 -69.333 5.5 -100 16.5zM321 491.998c-37.333 0 -70.332 -9.83105 -98.999 -29.498
s-51 -47.834 -67 -84.501s-24 -79.334 -24 -128.001c0 -24.667 3.83301 -48.5 11.5 -71.5s18.167 -43.167 31.5 -60.5l281 292c-30.667 54.667 -75.334 82 -134.001 82zM419.001 38.5c28.667 19.667 50.998 47.667 66.998 84s24 78.833 24 127.5
c0 54 -14.667 101.667 -44 143l-282 -293c30.667 -60.667 76.334 -91 137.001 -91c36.667 0 69.334 9.83301 98.001 29.5z" />
    <glyph glyph-name="ugrave" unicode="&#xf9;" horiz-adv-x="660" 
d="M141 53.5c-36.667 42.333 -55 101.5 -55 177.5v269h80v-269c0 -68 13.5 -120.667 40.5 -158s65.167 -56 114.5 -56c30.667 0 58.5 9.5 83.5 28.5s44.667 45 59 78s21.5 70.167 21.5 111.5v265h79v-500h-79v126c-15.333 -42.667 -39.666 -76 -72.999 -100
s-72 -36 -116 -36c-66.667 0 -118.334 21.167 -155.001 63.5zM309 571l-121 174h84l54 -174h-17z" />
    <glyph glyph-name="uacute" unicode="&#xfa;" horiz-adv-x="660" 
d="M141 53.5c-36.667 42.333 -55 101.5 -55 177.5v269h80v-269c0 -68 13.5 -120.667 40.5 -158s65.167 -56 114.5 -56c30.667 0 58.5 9.5 83.5 28.5s44.667 45 59 78s21.5 70.167 21.5 111.5v265h79v-500h-79v126c-15.333 -42.667 -39.666 -76 -72.999 -100
s-72 -36 -116 -36c-66.667 0 -118.334 21.167 -155.001 63.5zM378 745h84l-120 -174h-18z" />
    <glyph glyph-name="ucircumflex" unicode="&#xfb;" horiz-adv-x="660" 
d="M141 53.5c-36.667 42.333 -55 101.5 -55 177.5v269h80v-269c0 -68 13.5 -120.667 40.5 -158s65.167 -56 114.5 -56c30.667 0 58.5 9.5 83.5 28.5s44.667 45 59 78s21.5 70.167 21.5 111.5v265h79v-500h-79v126c-15.333 -42.667 -39.666 -76 -72.999 -100
s-72 -36 -116 -36c-66.667 0 -118.334 21.167 -155.001 63.5zM409 585l-118 125l-118 -125h-26l147 160h61l147 -160h-93z" />
    <glyph glyph-name="udieresis" unicode="&#xfc;" horiz-adv-x="660" 
d="M141 53.5c-36.667 42.333 -55 101.5 -55 177.5v269h80v-269c0 -68 13.5 -120.667 40.5 -158s65.167 -56 114.5 -56c30.667 0 58.5 9.5 83.5 28.5s44.667 45 59 78s21.5 70.167 21.5 111.5v265h79v-500h-79v126c-15.333 -42.667 -39.666 -76 -72.999 -100
s-72 -36 -116 -36c-66.667 0 -118.334 21.167 -155.001 63.5zM207 745h94l-42 -174h-9zM349 745h94l-43 -174h-9z" />
    <glyph glyph-name="yacute" unicode="&#xfd;" horiz-adv-x="533" 
d="M71 -167.5c-27.333 28.333 -40.999 65.167 -40.999 110.5v27h19v-26c0 -39.333 11.5 -71.333 34.5 -96s52.833 -37 89.5 -37c32.667 0 59.167 10 79.5 30s30.5 46.333 30.5 79v12c0 17.333 -3 35.833 -9 55.5s-17.333 46.5 -34 80.5l-228 432h88l187 -354
c6.66699 -14 13.667 -30.5 21 -49.5s11.666 -34.167 12.999 -45.5c3.33301 16 8 30.667 14 44l167 405h22l-172 -416c-7.33301 -18 -12.5 -34.667 -15.5 -50s-4.5 -33 -4.5 -53v-24c0 -51.333 -14 -92 -42 -122s-65 -45 -111 -45c-44.667 0 -80.667 14.167 -108 42.5z
M329.001 745.001h84l-120 -174h-18z" />
    <glyph glyph-name="thorn" unicode="&#xfe;" horiz-adv-x="666" 
d="M176 710l-0.000976562 -341c16 44 41.833 78.5 77.5 103.5s77.834 37.5 126.501 37.5c44 0 84 -11 120 -33s64.333 -52.833 85 -92.5s31 -84.5 31 -134.5s-10.333 -94.667 -31 -134s-49 -70.166 -85 -92.499s-76 -33.5 -120 -33.5c-48 0 -90 12.667 -126 38
s-62 59.666 -78 102.999v-331h-80v910h80zM448.999 44c26.667 18.667 47.667 45.6689 63 81.002s23 77 23 125c0 48.667 -7.66699 90.5 -23 125.5s-36.333 61.833 -63 80.5s-56.667 28 -90 28c-35.333 0 -67.166 -10.333 -95.499 -31s-50.5 -48.834 -66.5 -84.501
s-24 -75.167 -24 -118.5s8 -82.833 24 -118.5s38.167 -63.834 66.5 -84.501s60.166 -31 95.499 -31c33.333 0 63.333 9.33301 90 28z" />
    <glyph glyph-name="ydieresis" unicode="&#xff;" horiz-adv-x="533" 
d="M71 -167.5c-27.333 28.333 -40.999 65.167 -40.999 110.5v27h19v-26c0 -39.333 11.5 -71.333 34.5 -96s52.833 -37 89.5 -37c32.667 0 59.167 10 79.5 30s30.5 46.333 30.5 79v12c0 17.333 -3 35.833 -9 55.5s-17.333 46.5 -34 80.5l-228 432h88l187 -354
c6.66699 -14 13.667 -30.5 21 -49.5s11.666 -34.167 12.999 -45.5c3.33301 16 8 30.667 14 44l167 405h22l-172 -416c-7.33301 -18 -12.5 -34.667 -15.5 -50s-4.5 -33 -4.5 -53v-24c0 -51.333 -14 -92 -42 -122s-65 -45 -111 -45c-44.667 0 -80.667 14.167 -108 42.5z
M158.001 745.001h94l-42 -174h-9zM300.001 745.001h94l-43 -174h-9z" />
    <glyph glyph-name="Amacron" unicode="&#x100;" horiz-adv-x="671" 
d="M299 700h71l287 -700h-97l-95 230h-337l-93 -230h-21zM457 250l-159 386h-2l-160 -386h321zM496 880v-20h-320v20h320z" />
    <glyph glyph-name="amacron" unicode="&#x101;" horiz-adv-x="598" 
d="M82.5 24c-27.667 23.333 -41.502 54.6689 -41.502 94.002c0 49.333 21.833 84.833 65.5 106.5s100.834 35.5 171.501 41.5c48.667 4 85.5 11.5 110.5 22.5s37.5 27.5 37.5 49.5c0 45.333 -14 81.166 -42 107.499s-64.333 39.5 -109 39.5
c-47.333 0 -87.166 -14.5 -119.499 -43.5s-52.5 -68.5 -60.5 -118.5h-19c8 58 31.5 103.667 70.5 137s87.833 50 146.5 50c40.667 0 76.834 -8.33301 108.501 -25s56.334 -40.334 74.001 -71.001s26.5 -66.667 26.5 -108v-286h69v-20h-146v131
c-16.667 -44 -44.834 -78.667 -84.501 -104s-85.5 -38 -137.5 -38c-52.667 0 -92.834 11.667 -120.501 35zM328.998 44.0029c29.333 18 52.5 42.834 69.5 74.501s25.5 67.167 25.5 106.5l1 62c-18 -16.667 -56.667 -28.334 -116 -35.001
c-65.333 -7.33301 -112.833 -21.333 -142.5 -42s-44.5 -50 -44.5 -88c0 -34 9.83301 -60 29.5 -78s46.167 -27 79.5 -27c36 0 68.667 9 98 27zM440.998 680.004v-20h-320v20h320z" />
    <glyph glyph-name="Abreve" unicode="&#x102;" horiz-adv-x="671" 
d="M299 700h71l287 -700h-97l-95 230h-337l-93 -230h-21zM457 250l-159 386h-2l-160 -386h321zM207.5 821c-32.333 32 -48.502 74.333 -48.502 127v6h19v-6c0 -36 13.5 -63.833 40.5 -83.5s66.167 -29.5 117.5 -29.5c52 0 91.5 9.83301 118.5 29.5s40.5 47.5 40.5 83.5v6h18
v-6c0 -52.667 -16.167 -95 -48.5 -127s-75.166 -48 -128.499 -48s-96.166 16 -128.499 48z" />
    <glyph glyph-name="abreve" unicode="&#x103;" horiz-adv-x="598" 
d="M82.5 24c-27.667 23.333 -41.502 54.6689 -41.502 94.002c0 49.333 21.833 84.833 65.5 106.5s100.834 35.5 171.501 41.5c48.667 4 85.5 11.5 110.5 22.5s37.5 27.5 37.5 49.5c0 45.333 -14 81.166 -42 107.499s-64.333 39.5 -109 39.5
c-47.333 0 -87.166 -14.5 -119.499 -43.5s-52.5 -68.5 -60.5 -118.5h-19c8 58 31.5 103.667 70.5 137s87.833 50 146.5 50c40.667 0 76.834 -8.33301 108.501 -25s56.334 -40.334 74.001 -71.001s26.5 -66.667 26.5 -108v-286h69v-20h-146v131
c-16.667 -44 -44.834 -78.667 -84.501 -104s-85.5 -38 -137.5 -38c-52.667 0 -92.834 11.667 -120.501 35zM328.998 44.0029c29.333 18 52.5 42.834 69.5 74.501s25.5 67.167 25.5 106.5l1 62c-18 -16.667 -56.667 -28.334 -116 -35.001
c-65.333 -7.33301 -112.833 -21.333 -142.5 -42s-44.5 -50 -44.5 -88c0 -34 9.83301 -60 29.5 -78s46.167 -27 79.5 -27c36 0 68.667 9 98 27zM152.498 621.004c-32.333 32 -48.502 74.333 -48.502 127v6h19v-6c0 -36 13.5 -63.833 40.5 -83.5s66.167 -29.5 117.5 -29.5
c52 0 91.5 9.83301 118.5 29.5s40.5 47.5 40.5 83.5v6h18v-6c0 -52.667 -16.167 -95 -48.5 -127s-75.166 -48 -128.499 -48s-96.166 16 -128.499 48z" />
    <glyph glyph-name="Aogonek" unicode="&#x104;" horiz-adv-x="671" 
d="M299 700h71l287 -700h-97l-95 230h-337l-93 -230h-21zM457 250l-159 386h-2l-160 -386h321zM606 -245h-84l121 174h16z" />
    <glyph glyph-name="aogonek" unicode="&#x105;" horiz-adv-x="598" 
d="M82.5 24c-27.667 23.333 -41.502 54.6689 -41.502 94.002c0 49.333 21.833 84.833 65.5 106.5s100.834 35.5 171.501 41.5c48.667 4 85.5 11.5 110.5 22.5s37.5 27.5 37.5 49.5c0 45.333 -14 81.166 -42 107.499s-64.333 39.5 -109 39.5
c-47.333 0 -87.166 -14.5 -119.499 -43.5s-52.5 -68.5 -60.5 -118.5h-19c8 58 31.5 103.667 70.5 137s87.833 50 146.5 50c40.667 0 76.834 -8.33301 108.501 -25s56.334 -40.334 74.001 -71.001s26.5 -66.667 26.5 -108v-286h69v-20h-146v131
c-16.667 -44 -44.834 -78.667 -84.501 -104s-85.5 -38 -137.5 -38c-52.667 0 -92.834 11.667 -120.501 35zM328.998 44.0029c29.333 18 52.5 42.834 69.5 74.501s25.5 67.167 25.5 106.5l1 62c-18 -16.667 -56.667 -28.334 -116 -35.001
c-65.333 -7.33301 -112.833 -21.333 -142.5 -42s-44.5 -50 -44.5 -88c0 -34 9.83301 -60 29.5 -78s46.167 -27 79.5 -27c36 0 68.667 9 98 27zM519.998 -244.996h-84l121 174h16z" />
    <glyph glyph-name="Cacute" unicode="&#x106;" horiz-adv-x="794" 
d="M233.5 31c-53.667 30.667 -95.501 73.667 -125.501 129s-45 118.666 -45 189.999c0 72 15 135.5 45 190.5s71.833 97.833 125.5 128.5s115.167 46 184.5 46c56 0 107 -11.833 153 -35.5s83.833 -56.667 113.5 -99s48.167 -90.833 55.5 -145.5h-20
c-7.33301 49.333 -23.666 92.833 -48.999 130.5s-57.666 67 -96.999 88s-83 31.5 -131 31.5c-56.667 0 -106.667 -14 -150 -42s-77.166 -67.333 -101.499 -118s-36.5 -109 -36.5 -175c0 -65.333 12.167 -123.333 36.5 -174s58.333 -90 102 -118s93.5 -42 149.5 -42
c48 0 91.667 10.5 131 31.5s71.666 50.333 96.999 88s41.666 80.834 48.999 129.501h20c-7.33301 -54.667 -25.833 -103.167 -55.5 -145.5s-67.5 -75.333 -113.5 -99s-97 -35.5 -153 -35.5c-69.333 0 -130.833 15.333 -184.5 46zM463.999 945h84l-120 -174h-18z" />
    <glyph glyph-name="cacute" unicode="&#x107;" horiz-adv-x="591" 
d="M176.5 23.5c-39.667 22.333 -70.667 53.332 -93 92.999s-33.5 84.167 -33.5 133.5c0 50 11.167 94.667 33.5 134s53.333 70.166 93 92.499s84.5 33.5 134.5 33.5c64.667 0 118.167 -17 160.5 -51s69.166 -81 80.499 -141h-20c-11.333 51.333 -34.5 91.833 -69.5 121.5
s-78.167 44.5 -129.5 44.5c-40 0 -75.333 -9.66699 -106 -29s-54.334 -46.666 -71.001 -81.999s-25 -76.333 -25 -123s8.33301 -87.667 25 -123s40.334 -62.666 71.001 -81.999s66 -29 106 -29c51.333 0 94.5 15 129.5 45s58.167 70.667 69.5 122h20
c-11.333 -60 -38.166 -107.167 -80.499 -141.5s-95.833 -51.5 -160.5 -51.5c-50 0 -94.833 11.167 -134.5 33.5zM357 744.999h84l-120 -174h-18z" />
    <glyph glyph-name="Cdotaccent" unicode="&#x10a;" horiz-adv-x="794" 
d="M233.5 31c-53.667 30.667 -95.501 73.667 -125.501 129s-45 118.666 -45 189.999c0 72 15 135.5 45 190.5s71.833 97.833 125.5 128.5s115.167 46 184.5 46c56 0 107 -11.833 153 -35.5s83.833 -56.667 113.5 -99s48.167 -90.833 55.5 -145.5h-20
c-7.33301 49.333 -23.666 92.833 -48.999 130.5s-57.666 67 -96.999 88s-83 31.5 -131 31.5c-56.667 0 -106.667 -14 -150 -42s-77.166 -67.333 -101.499 -118s-36.5 -109 -36.5 -175c0 -65.333 12.167 -123.333 36.5 -174s58.333 -90 102 -118s93.5 -42 149.5 -42
c48 0 91.667 10.5 131 31.5s71.666 50.333 96.999 88s41.666 80.834 48.999 129.501h20c-7.33301 -54.667 -25.833 -103.167 -55.5 -145.5s-67.5 -75.333 -113.5 -99s-97 -35.5 -153 -35.5c-69.333 0 -130.833 15.333 -184.5 46zM362.999 945h97l-44 -174h-10z" />
    <glyph glyph-name="cdotaccent" unicode="&#x10b;" horiz-adv-x="591" 
d="M176.5 23.5c-39.667 22.333 -70.667 53.332 -93 92.999s-33.5 84.167 -33.5 133.5c0 50 11.167 94.667 33.5 134s53.333 70.166 93 92.499s84.5 33.5 134.5 33.5c64.667 0 118.167 -17 160.5 -51s69.166 -81 80.499 -141h-20c-11.333 51.333 -34.5 91.833 -69.5 121.5
s-78.167 44.5 -129.5 44.5c-40 0 -75.333 -9.66699 -106 -29s-54.334 -46.666 -71.001 -81.999s-25 -76.333 -25 -123s8.33301 -87.667 25 -123s40.334 -62.666 71.001 -81.999s66 -29 106 -29c51.333 0 94.5 15 129.5 45s58.167 70.667 69.5 122h20
c-11.333 -60 -38.166 -107.167 -80.499 -141.5s-95.833 -51.5 -160.5 -51.5c-50 0 -94.833 11.167 -134.5 33.5zM256 744.999h97l-44 -174h-10z" />
    <glyph glyph-name="Ccaron" unicode="&#x10c;" horiz-adv-x="794" 
d="M233.5 31c-53.667 30.667 -95.501 73.667 -125.501 129s-45 118.666 -45 189.999c0 72 15 135.5 45 190.5s71.833 97.833 125.5 128.5s115.167 46 184.5 46c56 0 107 -11.833 153 -35.5s83.833 -56.667 113.5 -99s48.167 -90.833 55.5 -145.5h-20
c-7.33301 49.333 -23.666 92.833 -48.999 130.5s-57.666 67 -96.999 88s-83 31.5 -131 31.5c-56.667 0 -106.667 -14 -150 -42s-77.166 -67.333 -101.499 -118s-36.5 -109 -36.5 -175c0 -65.333 12.167 -123.333 36.5 -174s58.333 -90 102 -118s93.5 -42 149.5 -42
c48 0 91.667 10.5 131 31.5s71.666 50.333 96.999 88s41.666 80.834 48.999 129.501h20c-7.33301 -54.667 -25.833 -103.167 -55.5 -145.5s-67.5 -75.333 -113.5 -99s-97 -35.5 -153 -35.5c-69.333 0 -130.833 15.333 -184.5 46zM326.999 945l118 -125l118 125h26l-147 -160
h-61l-147 160h93z" />
    <glyph glyph-name="ccaron" unicode="&#x10d;" horiz-adv-x="591" 
d="M176.5 23.5c-39.667 22.333 -70.667 53.332 -93 92.999s-33.5 84.167 -33.5 133.5c0 50 11.167 94.667 33.5 134s53.333 70.166 93 92.499s84.5 33.5 134.5 33.5c64.667 0 118.167 -17 160.5 -51s69.166 -81 80.499 -141h-20c-11.333 51.333 -34.5 91.833 -69.5 121.5
s-78.167 44.5 -129.5 44.5c-40 0 -75.333 -9.66699 -106 -29s-54.334 -46.666 -71.001 -81.999s-25 -76.333 -25 -123s8.33301 -87.667 25 -123s40.334 -62.666 71.001 -81.999s66 -29 106 -29c51.333 0 94.5 15 129.5 45s58.167 70.667 69.5 122h20
c-11.333 -60 -38.166 -107.167 -80.499 -141.5s-95.833 -51.5 -160.5 -51.5c-50 0 -94.833 11.167 -134.5 33.5zM220 744.999l118 -125l118 125h26l-147 -160h-61l-147 160h93z" />
    <glyph glyph-name="Dcaron" unicode="&#x10e;" horiz-adv-x="777" 
d="M332 700c76 0 142.833 -14.667 200.5 -44s102.334 -70.5 134.001 -123.5s47.5 -113.833 47.5 -182.5s-15.833 -129.5 -47.5 -182.5s-76.334 -94.167 -134.001 -123.5s-124.5 -44 -200.5 -44h-211v700h211zM488 59c43.333 26 76.666 63.8311 99.999 113.498
s35 108.834 35 177.501s-11.667 127.834 -35 177.501s-56.666 87.667 -99.999 114s-94 39.5 -152 39.5h-125v-661h125c58 0 108.667 13 152 39zM255 944.998l118 -125l118 125h26l-147 -160h-61l-147 160h93z" />
    <glyph glyph-name="dcaron" unicode="&#x10f;" horiz-adv-x="666" 
d="M166.5 23.5c-36.333 22.333 -64.832 53.167 -85.499 92.5s-31 84 -31 134s10.333 94.833 31 134.5s49.167 70.5 85.5 92.5s76.5 33 120.5 33c48.667 0 90.667 -12.5 126 -37.5s61.333 -59.5 78 -103.5v341h79v-710h-79v131c-16.667 -44 -42.834 -78.5 -78.501 -103.5
s-77.5 -37.5 -125.5 -37.5c-44 0 -84.167 11.167 -120.5 33.5zM403.501 47.001c28.333 20.667 50.5 48.8311 66.5 84.498s24 75.167 24 118.5s-8 82.833 -24 118.5s-38.167 63.834 -66.5 84.501s-60.166 31 -95.499 31c-34 0 -64.333 -9.16699 -91 -27.5
s-47.667 -45.166 -63 -80.499s-23 -77.333 -23 -126c0 -48 7.66699 -89.667 23 -125s36.333 -62.333 63 -81s57 -28 91 -28c35.333 0 67.166 10.333 95.499 31zM637.001 709.998h72l-57 -160h-15v160z" />
    <glyph glyph-name="Dcroat" unicode="&#x110;" horiz-adv-x="777" 
d="M532.5 656c57.667 -29.333 102.334 -70.5 134.001 -123.5s47.5 -113.833 47.5 -182.5s-15.833 -129.5 -47.5 -182.5s-76.334 -94.167 -134.001 -123.5s-124.5 -44 -200.5 -44h-211v340h-79v20h79v340h211c76 0 142.833 -14.667 200.5 -44zM488 59
c43.333 26 76.666 63.8311 99.999 113.498s35 108.834 35 177.501s-11.667 127.834 -35 177.501s-56.666 87.667 -99.999 114s-94 39.5 -152 39.5h-125v-321h149v-20h-149v-320h125c58 0 108.667 13 152 39z" />
    <glyph glyph-name="dcroat" unicode="&#x111;" horiz-adv-x="666" 
d="M570 590l0.000976562 -589.999h-79v131c-16.667 -44 -42.834 -78.5 -78.501 -103.5s-77.5 -37.5 -125.5 -37.5c-44 0 -84.167 11.167 -120.5 33.5s-64.833 53.166 -85.5 92.499s-31 84 -31 134s10.333 94.833 31 134.5s49.167 70.5 85.5 92.5s76.5 33 120.5 33
c48.667 0 90.667 -12.5 126 -37.5s61.333 -59.5 78 -103.5v221h-194v20h194v100h79v-100h74v-20h-74zM403.501 47.001c28.333 20.667 50.5 48.8311 66.5 84.498s24 75.167 24 118.5s-8 82.833 -24 118.5s-38.167 63.834 -66.5 84.501s-60.166 31 -95.499 31
c-34 0 -64.333 -9.16699 -91 -27.5s-47.667 -45.166 -63 -80.499s-23 -77.333 -23 -126c0 -48 7.66699 -89.667 23 -125s36.333 -62.333 63 -81s57 -28 91 -28c35.333 0 67.166 10.333 95.499 31z" />
    <glyph glyph-name="Emacron" unicode="&#x112;" horiz-adv-x="587" 
d="M121 700h400v-20h-310v-320h224v-20h-224v-320h356v-20h-446v700zM481 880v-20h-320v20h320z" />
    <glyph glyph-name="emacron" unicode="&#x113;" horiz-adv-x="612" 
d="M178 23.5c-40 22.333 -71.333 53.3311 -94 92.998s-34 84.167 -34 133.5s11.333 93.833 34 133.5s54.167 70.667 94.5 93s85.5 33.5 135.5 33.5s94.667 -11.167 134 -33.5s70.166 -53.166 92.499 -92.499s33.833 -83.666 34.5 -132.999v-11h-443
c1.33301 -45.333 10.666 -84.833 27.999 -118.5s41 -59.667 71 -78s64 -27.5 102 -27.5c46.667 0 87.334 12 122.001 36s58.334 56 71.001 96h21c-13.333 -48.667 -41 -87.167 -83 -115.5s-92.333 -42.5 -151 -42.5c-50 0 -95 11.167 -135 33.5zM469.5 382.998
c-15.667 34.667 -37.167 61.333 -64.5 80s-58 28 -92 28c-34.667 0 -65.5 -9.5 -92.5 -28.5s-48.333 -45.5 -64 -79.5s-24.167 -72.667 -25.5 -116v-7h364c-1.33301 47.333 -9.83301 88.333 -25.5 123zM466 679.997v-20h-320v20h320z" />
    <glyph glyph-name="Edotaccent" unicode="&#x116;" horiz-adv-x="587" 
d="M121 700h400v-20h-310v-320h224v-20h-224v-320h356v-20h-446v700zM273 945h97l-44 -174h-10z" />
    <glyph glyph-name="edotaccent" unicode="&#x117;" horiz-adv-x="612" 
d="M178 23.5c-40 22.333 -71.333 53.3311 -94 92.998s-34 84.167 -34 133.5s11.333 93.833 34 133.5s54.167 70.667 94.5 93s85.5 33.5 135.5 33.5s94.667 -11.167 134 -33.5s70.166 -53.166 92.499 -92.499s33.833 -83.666 34.5 -132.999v-11h-443
c1.33301 -45.333 10.666 -84.833 27.999 -118.5s41 -59.667 71 -78s64 -27.5 102 -27.5c46.667 0 87.334 12 122.001 36s58.334 56 71.001 96h21c-13.333 -48.667 -41 -87.167 -83 -115.5s-92.333 -42.5 -151 -42.5c-50 0 -95 11.167 -135 33.5zM469.5 382.998
c-15.667 34.667 -37.167 61.333 -64.5 80s-58 28 -92 28c-34.667 0 -65.5 -9.5 -92.5 -28.5s-48.333 -45.5 -64 -79.5s-24.167 -72.667 -25.5 -116v-7h364c-1.33301 47.333 -9.83301 88.333 -25.5 123zM258 744.997h97l-44 -174h-10z" />
    <glyph glyph-name="Eogonek" unicode="&#x118;" horiz-adv-x="587" 
d="M121 700h400v-20h-310v-320h224v-20h-224v-320h356v-20h-446v700zM516 -245h-84l121 174h16z" />
    <glyph glyph-name="eogonek" unicode="&#x119;" horiz-adv-x="612" 
d="M178 23.5c-40 22.333 -71.333 53.3311 -94 92.998s-34 84.167 -34 133.5s11.333 93.833 34 133.5s54.167 70.667 94.5 93s85.5 33.5 135.5 33.5s94.667 -11.167 134 -33.5s70.166 -53.166 92.499 -92.499s33.833 -83.666 34.5 -132.999v-11h-443
c1.33301 -45.333 10.666 -84.833 27.999 -118.5s41 -59.667 71 -78s64 -27.5 102 -27.5c46.667 0 87.334 12 122.001 36s58.334 56 71.001 96h21c-13.333 -48.667 -41 -87.167 -83 -115.5s-92.333 -42.5 -151 -42.5c-50 0 -95 11.167 -135 33.5zM469.5 382.998
c-15.667 34.667 -37.167 61.333 -64.5 80s-58 28 -92 28c-34.667 0 -65.5 -9.5 -92.5 -28.5s-48.333 -45.5 -64 -79.5s-24.167 -72.667 -25.5 -116v-7h364c-1.33301 47.333 -9.83301 88.333 -25.5 123zM440 -245.003h-84l121 174h16z" />
    <glyph glyph-name="Ecaron" unicode="&#x11a;" horiz-adv-x="587" 
d="M121 700h400v-20h-310v-320h224v-20h-224v-320h356v-20h-446v700zM237 945l118 -125l118 125h26l-147 -160h-61l-147 160h93z" />
    <glyph glyph-name="ecaron" unicode="&#x11b;" horiz-adv-x="612" 
d="M178 23.5c-40 22.333 -71.333 53.3311 -94 92.998s-34 84.167 -34 133.5s11.333 93.833 34 133.5s54.167 70.667 94.5 93s85.5 33.5 135.5 33.5s94.667 -11.167 134 -33.5s70.166 -53.166 92.499 -92.499s33.833 -83.666 34.5 -132.999v-11h-443
c1.33301 -45.333 10.666 -84.833 27.999 -118.5s41 -59.667 71 -78s64 -27.5 102 -27.5c46.667 0 87.334 12 122.001 36s58.334 56 71.001 96h21c-13.333 -48.667 -41 -87.167 -83 -115.5s-92.333 -42.5 -151 -42.5c-50 0 -95 11.167 -135 33.5zM469.5 382.998
c-15.667 34.667 -37.167 61.333 -64.5 80s-58 28 -92 28c-34.667 0 -65.5 -9.5 -92.5 -28.5s-48.333 -45.5 -64 -79.5s-24.167 -72.667 -25.5 -116v-7h364c-1.33301 47.333 -9.83301 88.333 -25.5 123zM222 744.997l118 -125l118 125h26l-147 -160h-61l-147 160h93z" />
    <glyph glyph-name="Gbreve" unicode="&#x11e;" horiz-adv-x="826" 
d="M225.5 31c-51 30.667 -90.835 73.3311 -119.502 127.998s-43 117.334 -43 188.001c0 72.667 15 136.834 45 192.501s71.667 98.834 125 129.501s114.333 46 183 46c83.333 0 152.833 -22.667 208.5 -68s90.834 -106 105.501 -182h-20
c-14 67.333 -44.667 120.833 -92 160.5s-106.333 59.5 -177 59.5c-56 0 -105.667 -14 -149 -42s-77 -67.333 -101 -118s-36 -108.667 -36 -174s12 -123.5 36 -174.5s56.833 -90.5 98.5 -118.5s88.834 -42 141.501 -42c46.667 0 88.167 11.167 124.5 33.5
s64.833 53.166 85.5 92.499s31 84.333 31 135v63h-233v20h320v-360h-87v167c-18.667 -56 -52 -100.333 -100 -133s-105.333 -49 -172 -49c-65.333 0 -123.5 15.333 -174.5 46zM287.498 820.997c-32.333 32 -48.502 74.333 -48.502 127v6h19v-6
c0 -36 13.5 -63.833 40.5 -83.5s66.167 -29.5 117.5 -29.5c52 0 91.5 9.83301 118.5 29.5s40.5 47.5 40.5 83.5v6h18v-6c0 -52.667 -16.167 -95 -48.5 -127s-75.166 -48 -128.499 -48s-96.166 16 -128.499 48z" />
    <glyph glyph-name="gbreve" unicode="&#x11f;" horiz-adv-x="677" 
d="M153.5 -168c-51.667 28 -77.4961 66.332 -77.4961 114.999c0 38 16.667 70.167 50 96.5s80.333 44.166 141 53.499c-80 7.33301 -142.333 20.333 -187 39s-67 50 -67 94c0 18.667 6.66699 34.167 20 46.5s29.666 18.5 48.999 18.5c13.333 0 28.333 -3 45 -9
c-11.333 18.667 -17 39.334 -17 62.001c0 49.333 23.5 88.666 70.5 117.999s110.5 44 190.5 44c79.333 0 142.5 -14.667 189.5 -44s70.5 -68.666 70.5 -117.999c0 -50 -23.5 -89.667 -70.5 -119s-110.167 -44 -189.5 -44c-52.667 0 -93.667 5.16699 -123 15.5
s-57.666 24.833 -84.999 43.5c-15.333 10.667 -28.833 18.5 -40.5 23.5s-25.167 7.5 -40.5 7.5c-14.667 0 -26.334 -4.16699 -35.001 -12.5s-13 -18.833 -13 -31.5c0 -30.667 14.667 -54.167 44 -70.5s64.666 -27.833 105.999 -34.5s96.666 -13 165.999 -19l41 -3
c85.333 -6.66699 150.5 -21.667 195.5 -45s67.5 -60.666 67.5 -111.999c0 -48.667 -25.833 -87 -77.5 -115s-122.5 -42 -212.5 -42c-88.667 0 -158.834 14 -210.501 42zM503.504 241.999c33 26 49.5 61.333 49.5 106c0 45.333 -16.333 81 -49 107s-77 39 -133 39
c-56.667 0 -101.167 -13 -133.5 -39s-48.5 -61.667 -48.5 -107c0 -44.667 16 -80 48 -106s76.667 -39 134 -39c55.333 0 99.5 13 132.5 39zM516.004 -154.001c36.667 24.667 54.999 58.667 54.999 102c0 46 -17.5 80.833 -52.5 104.5s-86.5 35.5 -154.5 35.5
c-64 0 -114.333 -12.333 -151 -37s-55 -59 -55 -103c0 -43.333 18.333 -77.333 55 -102s87 -37 151 -37c64.667 0 115.334 12.333 152.001 37zM235.503 620.999c-32.333 32 -48.502 74.333 -48.502 127v6h19v-6c0 -36 13.5 -63.833 40.5 -83.5s66.167 -29.5 117.5 -29.5
c52 0 91.5 9.83301 118.5 29.5s40.5 47.5 40.5 83.5v6h18v-6c0 -52.667 -16.167 -95 -48.5 -127s-75.166 -48 -128.499 -48s-96.166 16 -128.499 48z" />
    <glyph glyph-name="Gdotaccent" unicode="&#x120;" horiz-adv-x="826" 
d="M225.5 31c-51 30.667 -90.835 73.3311 -119.502 127.998s-43 117.334 -43 188.001c0 72.667 15 136.834 45 192.501s71.667 98.834 125 129.501s114.333 46 183 46c83.333 0 152.833 -22.667 208.5 -68s90.834 -106 105.501 -182h-20
c-14 67.333 -44.667 120.833 -92 160.5s-106.333 59.5 -177 59.5c-56 0 -105.667 -14 -149 -42s-77 -67.333 -101 -118s-36 -108.667 -36 -174s12 -123.5 36 -174.5s56.833 -90.5 98.5 -118.5s88.834 -42 141.501 -42c46.667 0 88.167 11.167 124.5 33.5
s64.833 53.166 85.5 92.499s31 84.333 31 135v63h-233v20h320v-360h-87v167c-18.667 -56 -52 -100.333 -100 -133s-105.333 -49 -172 -49c-65.333 0 -123.5 15.333 -174.5 46zM367.998 944.997h97l-44 -174h-10z" />
    <glyph glyph-name="gdotaccent" unicode="&#x121;" horiz-adv-x="677" 
d="M153.5 -168c-51.667 28 -77.4961 66.332 -77.4961 114.999c0 38 16.667 70.167 50 96.5s80.333 44.166 141 53.499c-80 7.33301 -142.333 20.333 -187 39s-67 50 -67 94c0 18.667 6.66699 34.167 20 46.5s29.666 18.5 48.999 18.5c13.333 0 28.333 -3 45 -9
c-11.333 18.667 -17 39.334 -17 62.001c0 49.333 23.5 88.666 70.5 117.999s110.5 44 190.5 44c79.333 0 142.5 -14.667 189.5 -44s70.5 -68.666 70.5 -117.999c0 -50 -23.5 -89.667 -70.5 -119s-110.167 -44 -189.5 -44c-52.667 0 -93.667 5.16699 -123 15.5
s-57.666 24.833 -84.999 43.5c-15.333 10.667 -28.833 18.5 -40.5 23.5s-25.167 7.5 -40.5 7.5c-14.667 0 -26.334 -4.16699 -35.001 -12.5s-13 -18.833 -13 -31.5c0 -30.667 14.667 -54.167 44 -70.5s64.666 -27.833 105.999 -34.5s96.666 -13 165.999 -19l41 -3
c85.333 -6.66699 150.5 -21.667 195.5 -45s67.5 -60.666 67.5 -111.999c0 -48.667 -25.833 -87 -77.5 -115s-122.5 -42 -212.5 -42c-88.667 0 -158.834 14 -210.501 42zM503.504 241.999c33 26 49.5 61.333 49.5 106c0 45.333 -16.333 81 -49 107s-77 39 -133 39
c-56.667 0 -101.167 -13 -133.5 -39s-48.5 -61.667 -48.5 -107c0 -44.667 16 -80 48 -106s76.667 -39 134 -39c55.333 0 99.5 13 132.5 39zM516.004 -154.001c36.667 24.667 54.999 58.667 54.999 102c0 46 -17.5 80.833 -52.5 104.5s-86.5 35.5 -154.5 35.5
c-64 0 -114.333 -12.333 -151 -37s-55 -59 -55 -103c0 -43.333 18.333 -77.333 55 -102s87 -37 151 -37c64.667 0 115.334 12.333 152.001 37zM316.003 744.999h97l-44 -174h-10z" />
    <glyph glyph-name="uni0122" unicode="&#x122;" horiz-adv-x="826" 
d="M225.5 31c-51 30.667 -90.835 73.3311 -119.502 127.998s-43 117.334 -43 188.001c0 72.667 15 136.834 45 192.501s71.667 98.834 125 129.501s114.333 46 183 46c83.333 0 152.833 -22.667 208.5 -68s90.834 -106 105.501 -182h-20
c-14 67.333 -44.667 120.833 -92 160.5s-106.333 59.5 -177 59.5c-56 0 -105.667 -14 -149 -42s-77 -67.333 -101 -118s-36 -108.667 -36 -174s12 -123.5 36 -174.5s56.833 -90.5 98.5 -118.5s88.834 -42 141.501 -42c46.667 0 88.167 11.167 124.5 33.5
s64.833 53.166 85.5 92.499s31 84.333 31 135v63h-233v20h320v-360h-87v167c-18.667 -56 -52 -100.333 -100 -133s-105.333 -49 -172 -49c-65.333 0 -123.5 15.333 -174.5 46zM394.998 -242.003c20.667 13.333 38.334 27.832 53.001 43.499s22.334 30.5 23.001 44.5
c-5.33301 -4 -15.333 -6 -30 -6c-16 0 -28.667 3.83301 -38 11.5s-14 17.5 -14 29.5c0 13.333 5.16699 24 15.5 32s24.166 12 41.499 12s31 -4.5 41 -13.5s15 -20.833 15 -35.5c0 -22.667 -8.33301 -45.667 -25 -69s-35.334 -40.666 -56.001 -51.999h-26v3z" />
    <glyph glyph-name="uni0123" unicode="&#x123;" horiz-adv-x="677" 
d="M153.5 -168c-51.667 28 -77.4961 66.332 -77.4961 114.999c0 38 16.667 70.167 50 96.5s80.333 44.166 141 53.499c-80 7.33301 -142.333 20.333 -187 39s-67 50 -67 94c0 18.667 6.66699 34.167 20 46.5s29.666 18.5 48.999 18.5c13.333 0 28.333 -3 45 -9
c-11.333 18.667 -17 39.334 -17 62.001c0 49.333 23.5 88.666 70.5 117.999s110.5 44 190.5 44c79.333 0 142.5 -14.667 189.5 -44s70.5 -68.666 70.5 -117.999c0 -50 -23.5 -89.667 -70.5 -119s-110.167 -44 -189.5 -44c-52.667 0 -93.667 5.16699 -123 15.5
s-57.666 24.833 -84.999 43.5c-15.333 10.667 -28.833 18.5 -40.5 23.5s-25.167 7.5 -40.5 7.5c-14.667 0 -26.334 -4.16699 -35.001 -12.5s-13 -18.833 -13 -31.5c0 -30.667 14.667 -54.167 44 -70.5s64.666 -27.833 105.999 -34.5s96.666 -13 165.999 -19l41 -3
c85.333 -6.66699 150.5 -21.667 195.5 -45s67.5 -60.666 67.5 -111.999c0 -48.667 -25.833 -87 -77.5 -115s-122.5 -42 -212.5 -42c-88.667 0 -158.834 14 -210.501 42zM503.504 241.999c33 26 49.5 61.333 49.5 106c0 45.333 -16.333 81 -49 107s-77 39 -133 39
c-56.667 0 -101.167 -13 -133.5 -39s-48.5 -61.667 -48.5 -107c0 -44.667 16 -80 48 -106s76.667 -39 134 -39c55.333 0 99.5 13 132.5 39zM516.004 -154.001c36.667 24.667 54.999 58.667 54.999 102c0 46 -17.5 80.833 -52.5 104.5s-86.5 35.5 -154.5 35.5
c-64 0 -114.333 -12.333 -151 -37s-55 -59 -55 -103c0 -43.333 18.333 -77.333 55 -102s87 -37 151 -37c64.667 0 115.334 12.333 152.001 37zM414.003 748.999c-20.667 -13.333 -38.3311 -27.832 -52.998 -43.499s-22.334 -30.5 -23.001 -44.5c6 4 16.333 6 31 6
c15.333 0 27.833 -3.83301 37.5 -11.5s14.5 -17.5 14.5 -29.5c0 -13.333 -5.33301 -24 -16 -32s-24.334 -12 -41.001 -12c-17.333 0 -31 4.5 -41 13.5s-15 20.833 -15 35.5c0 22.667 8.16699 45.667 24.5 69s34.833 40.666 55.5 51.999h26v-3z" />
    <glyph glyph-name="Hbar" unicode="&#x126;" horiz-adv-x="820" 
d="M779 540h-79v-540h-90v340h-399v-340h-90v540h-79v20h79v140h90v-140h399v140h90v-140h79v-20zM610 540h-399v-180h399v180z" />
    <glyph glyph-name="hbar" unicode="&#x127;" horiz-adv-x="660" 
d="M519 447c36.667 -42 54.999 -101.333 54.999 -178v-269h-80v269c0 68.667 -13.333 121.5 -40 158.5s-64.667 55.5 -114 55.5c-30.667 0 -58.5 -9.5 -83.5 -28.5s-44.667 -45 -59 -78s-21.5 -70.167 -21.5 -111.5v-265h-80v590h-74v20h74v100h80v-100h194v-20h-194v-215
c15.333 42 39.5 75 72.5 99s71.5 36 115.5 36c66.667 0 118.334 -21 155.001 -63z" />
    <glyph glyph-name="Imacron" unicode="&#x12a;" horiz-adv-x="332" 
d="M121 700h90v-700h-90v700zM326 880v-20h-320v20h320z" />
    <glyph glyph-name="imacron" unicode="&#x12b;" horiz-adv-x="272" 
d="M96 500h80v-500h-80v500zM296 680v-20h-320v20h320z" />
    <glyph glyph-name="Iogonek" unicode="&#x12e;" horiz-adv-x="332" 
d="M121 700h90v-700h-90v700zM160 -245h-84l121 174h16z" />
    <glyph glyph-name="iogonek" unicode="&#x12f;" horiz-adv-x="272" 
d="M96 500h80v-500h-80v500zM88 745h97l-44 -174h-10zM124 -245h-84l121 174h16z" />
    <glyph glyph-name="Idotaccent" unicode="&#x130;" horiz-adv-x="332" 
d="M121 700h90v-700h-90v700zM118 945h97l-44 -174h-10z" />
    <glyph glyph-name="dotlessi" unicode="&#x131;" horiz-adv-x="272" 
d="M96 500h80v-500h-80v500z" />
    <glyph glyph-name="uni0136" unicode="&#x136;" horiz-adv-x="703" 
d="M121 700h90v-340h99l296 340h26l-256 -294l301 -406h-107l-256 340h-103v-340h-90v700zM318 -242c20.667 13.333 38.334 27.832 53.001 43.499s22.334 30.5 23.001 44.5c-5.33301 -4 -15.333 -6 -30 -6c-16 0 -28.667 3.83301 -38 11.5s-14 17.5 -14 29.5
c0 13.333 5.16699 24 15.5 32s24.166 12 41.499 12s31 -4.5 41 -13.5s15 -20.833 15 -35.5c0 -22.667 -8.33301 -45.667 -25 -69s-35.334 -40.666 -56.001 -51.999h-26v3z" />
    <glyph glyph-name="uni0137" unicode="&#x137;" horiz-adv-x="555" 
d="M96 710h80v-450h79l220 240h26l-188 -202l222 -298h-93l-188 240h-78v-240h-80v710zM250 -242c20.667 13.333 38.334 27.832 53.001 43.499s22.334 30.5 23.001 44.5c-5.33301 -4 -15.333 -6 -30 -6c-16 0 -28.667 3.83301 -38 11.5s-14 17.5 -14 29.5
c0 13.333 5.16699 24 15.5 32s24.166 12 41.499 12s31 -4.5 41 -13.5s15 -20.833 15 -35.5c0 -22.667 -8.33301 -45.667 -25 -69s-35.334 -40.666 -56.001 -51.999h-26v3z" />
    <glyph glyph-name="Lacute" unicode="&#x139;" horiz-adv-x="583" 
d="M121 700h90v-680h346v-20h-436v700zM219 945h84l-120 -174h-18z" />
    <glyph glyph-name="lacute" unicode="&#x13a;" horiz-adv-x="272" 
d="M96 710h80v-710h-80v710zM189 945h84l-120 -174h-18z" />
    <glyph glyph-name="uni013B" unicode="&#x13b;" horiz-adv-x="583" 
d="M121 700h90v-680h346v-20h-436v700zM294 -242c20.667 13.333 38.334 27.832 53.001 43.499s22.334 30.5 23.001 44.5c-5.33301 -4 -15.333 -6 -30 -6c-16 0 -28.667 3.83301 -38 11.5s-14 17.5 -14 29.5c0 13.333 5.16699 24 15.5 32s24.166 12 41.499 12
s31 -4.5 41 -13.5s15 -20.833 15 -35.5c0 -22.667 -8.33301 -45.667 -25 -69s-35.334 -40.666 -56.001 -51.999h-26v3z" />
    <glyph glyph-name="uni013C" unicode="&#x13c;" horiz-adv-x="272" 
d="M96 710h80v-710h-80v710zM86 -242c20.667 13.333 38.334 27.832 53.001 43.499s22.334 30.5 23.001 44.5c-5.33301 -4 -15.333 -6 -30 -6c-16 0 -28.667 3.83301 -38 11.5s-14 17.5 -14 29.5c0 13.333 5.16699 24 15.5 32s24.166 12 41.499 12s31 -4.5 41 -13.5
s15 -20.833 15 -35.5c0 -22.667 -8.33301 -45.667 -25 -69s-35.334 -40.666 -56.001 -51.999h-26v3z" />
    <glyph glyph-name="Lcaron" unicode="&#x13d;" horiz-adv-x="583" 
d="M121 700h90v-680h346v-20h-436v700zM278 700h72l-57 -160h-15v160z" />
    <glyph glyph-name="lcaron" unicode="&#x13e;" horiz-adv-x="272" 
d="M96 710h80v-710h-80v710zM242 710h72l-57 -160h-15v160z" />
    <glyph glyph-name="Lslash" unicode="&#x141;" horiz-adv-x="583" 
d="M557 20v-20h-436v309l-79 -46v23l79 46v368h90v-315l157 92v-23l-157 -92v-342h346z" />
    <glyph glyph-name="lslash" unicode="&#x142;" horiz-adv-x="273" 
d="M270 466l-94 -55v-411h-80v364l-76 -45v23l76 45v323h80v-276l94 55v-23z" />
    <glyph glyph-name="Nacute" unicode="&#x143;" horiz-adv-x="798" 
d="M119 700h89l450 -575v575h21v-714h-23l-516 653v-639h-21v700zM452 945h84l-120 -174h-18z" />
    <glyph glyph-name="nacute" unicode="&#x144;" horiz-adv-x="660" 
d="M176 500l-0.000976562 -125c15.333 42 39.5 75 72.5 99s71.5 36 115.5 36c66.667 0 118.334 -21 155.001 -63s55 -101.333 55 -178v-269h-80v269c0 68.667 -13.333 121.5 -40 158.5s-64.667 55.5 -114 55.5c-30.667 0 -58.5 -9.5 -83.5 -28.5s-44.667 -45 -59 -78
s-21.5 -70.167 -21.5 -111.5v-265h-80v500h80zM389.999 745h84l-120 -174h-18z" />
    <glyph glyph-name="uni0145" unicode="&#x145;" horiz-adv-x="798" 
d="M119 700h89l450 -575v575h21v-714h-23l-516 653v-639h-21v700zM349 -242c20.667 13.333 38.334 27.832 53.001 43.499s22.334 30.5 23.001 44.5c-5.33301 -4 -15.333 -6 -30 -6c-16 0 -28.667 3.83301 -38 11.5s-14 17.5 -14 29.5c0 13.333 5.16699 24 15.5 32
s24.166 12 41.499 12s31 -4.5 41 -13.5s15 -20.833 15 -35.5c0 -22.667 -8.33301 -45.667 -25 -69s-35.334 -40.666 -56.001 -51.999h-26v3z" />
    <glyph glyph-name="uni0146" unicode="&#x146;" horiz-adv-x="660" 
d="M176 500l-0.000976562 -125c15.333 42 39.5 75 72.5 99s71.5 36 115.5 36c66.667 0 118.334 -21 155.001 -63s55 -101.333 55 -178v-269h-80v269c0 68.667 -13.333 121.5 -40 158.5s-64.667 55.5 -114 55.5c-30.667 0 -58.5 -9.5 -83.5 -28.5s-44.667 -45 -59 -78
s-21.5 -70.167 -21.5 -111.5v-265h-80v500h80zM286.999 -242c20.667 13.333 38.334 27.832 53.001 43.499s22.334 30.5 23.001 44.5c-5.33301 -4 -15.333 -6 -30 -6c-16 0 -28.667 3.83301 -38 11.5s-14 17.5 -14 29.5c0 13.333 5.16699 24 15.5 32s24.166 12 41.499 12
s31 -4.5 41 -13.5s15 -20.833 15 -35.5c0 -22.667 -8.33301 -45.667 -25 -69s-35.334 -40.666 -56.001 -51.999h-26v3z" />
    <glyph glyph-name="Ncaron" unicode="&#x147;" horiz-adv-x="798" 
d="M119 700h89l450 -575v575h21v-714h-23l-516 653v-639h-21v700zM315 945l118 -125l118 125h26l-147 -160h-61l-147 160h93z" />
    <glyph glyph-name="ncaron" unicode="&#x148;" horiz-adv-x="660" 
d="M176 500l-0.000976562 -125c15.333 42 39.5 75 72.5 99s71.5 36 115.5 36c66.667 0 118.334 -21 155.001 -63s55 -101.333 55 -178v-269h-80v269c0 68.667 -13.333 121.5 -40 158.5s-64.667 55.5 -114 55.5c-30.667 0 -58.5 -9.5 -83.5 -28.5s-44.667 -45 -59 -78
s-21.5 -70.167 -21.5 -111.5v-265h-80v500h80zM252.999 745l118 -125l118 125h26l-147 -160h-61l-147 160h93z" />
    <glyph glyph-name="Eng" unicode="&#x14a;" horiz-adv-x="798" 
d="M431.5 -194c-23 10.667 -40.998 25.499 -53.998 44.499s-19.5 39.833 -19.5 62.5h19v-1c0 -28.667 12.5 -52.667 37.5 -72s54.833 -29 89.5 -29c40 0 71.833 11.833 95.5 35.5s35.5 56.834 35.5 99.501c0 23.333 -4.33301 45.333 -13 66s-21.334 41.667 -38.001 63
l-444 564v-639h-21v700h89l450 -575v575h21v-732c0 -55.333 -15.333 -98.833 -46 -130.5s-72.334 -47.5 -125.001 -47.5c-28 0 -53.5 5.33301 -76.5 16z" />
    <glyph glyph-name="eng" unicode="&#x14b;" horiz-adv-x="660" 
d="M326.5 -194c-23 10.667 -40.999 25.499 -53.999 44.499s-19.5 39.833 -19.5 62.5h19v-1c0 -28.667 12.5 -52.667 37.5 -72s54.833 -29 89.5 -29c36 0 65.833 10.333 89.5 31s35.5 50.667 35.5 90c0 15.333 -1.83301 31.333 -5.5 48s-5.83398 26.667 -6.50098 30
c-5.33301 24 -9.5 45.333 -12.5 64s-4.5 39.334 -4.5 62.001v133c0 68.667 -13.5 121.5 -40.5 158.5s-65.167 55.5 -114.5 55.5c-30.667 0 -58.5 -9.5 -83.5 -28.5s-44.667 -45 -59 -78s-21.5 -70.167 -21.5 -111.5v-265h-80v500h80v-125c15.333 42 39.5 75 72.5 99
s71.5 36 115.5 36c66.667 0 118.334 -21 155.001 -63s55 -101.333 55 -178v-301c0 -55.333 -15.333 -98.833 -46 -130.5s-72.334 -47.5 -125.001 -47.5c-28 0 -53.5 5.33301 -76.5 16z" />
    <glyph glyph-name="Omacron" unicode="&#x14c;" horiz-adv-x="850" 
d="M239.5 32c-55 31.333 -98.167 74.833 -129.5 130.5s-47 118.167 -47 187.5c0 70 15.667 132.667 47 188s74.5 98.666 129.5 129.999s116.833 47 185.5 47c69.333 0 131.5 -15.667 186.5 -47s98 -74.666 129 -129.999s46.5 -118 46.5 -188
c0 -69.333 -15.5 -131.833 -46.5 -187.5s-74 -99.167 -129 -130.5s-117.167 -47 -186.5 -47c-68.667 0 -130.5 15.667 -185.5 47zM566 46c40.667 28 72.334 68.167 95.001 120.5s34 113.5 34 183.5s-11.333 131.167 -34 183.5s-54.334 92.5 -95.001 120.5
s-87.667 42 -141 42s-100.333 -14 -141 -42s-72.334 -68.167 -95.001 -120.5s-34 -113.5 -34 -183.5s11.333 -131.167 34 -183.5s54.334 -92.5 95.001 -120.5s87.667 -42 141 -42s100.333 14 141 42zM585 880v-20h-320v20h320z" />
    <glyph glyph-name="omacron" unicode="&#x14d;" horiz-adv-x="641" 
d="M182 24c-41.333 22.667 -73.667 53.667 -97 93s-35 83.666 -35 132.999s11.667 93.833 35 133.5s55.666 70.667 96.999 93s87.666 33.5 138.999 33.5s97.5 -11.167 138.5 -33.5s73.167 -53.333 96.5 -93s35 -84.167 35 -133.5s-11.667 -93.666 -35 -132.999
s-55.666 -70.333 -96.999 -93s-87.333 -34 -138 -34c-51.333 0 -97.666 11.333 -138.999 34zM418.999 38.5c28.667 19.667 51 47.667 67 84s24 78.833 24 127.5s-8 91.334 -24 128.001s-38.333 64.834 -67 84.501s-61.334 29.5 -98.001 29.5
c-37.333 0 -70.333 -9.83301 -99 -29.5s-51 -47.834 -67 -84.501s-24 -79.334 -24 -128.001s8 -91.167 24 -127.5s38.333 -64.333 67 -84s61.667 -29.5 99 -29.5c36.667 0 69.334 9.83301 98.001 29.5zM480.999 680v-20h-320v20h320z" />
    <glyph glyph-name="Ohungarumlaut" unicode="&#x150;" horiz-adv-x="850" 
d="M239.5 32c-55 31.333 -98.167 74.833 -129.5 130.5s-47 118.167 -47 187.5c0 70 15.667 132.667 47 188s74.5 98.666 129.5 129.999s116.833 47 185.5 47c69.333 0 131.5 -15.667 186.5 -47s98 -74.666 129 -129.999s46.5 -118 46.5 -188
c0 -69.333 -15.5 -131.833 -46.5 -187.5s-74 -99.167 -129 -130.5s-117.167 -47 -186.5 -47c-68.667 0 -130.5 15.667 -185.5 47zM566 46c40.667 28 72.334 68.167 95.001 120.5s34 113.5 34 183.5s-11.333 131.167 -34 183.5s-54.334 92.5 -95.001 120.5
s-87.667 42 -141 42s-100.333 -14 -141 -42s-72.334 -68.167 -95.001 -120.5s-34 -113.5 -34 -183.5s11.333 -131.167 34 -183.5s54.334 -92.5 95.001 -120.5s87.667 -42 141 -42s100.333 14 141 42zM463 945l-108 -174h-16l48 174h76zM606 945l-108 -174h-16l48 174h76z
" />
    <glyph glyph-name="ohungarumlaut" unicode="&#x151;" horiz-adv-x="641" 
d="M182 24c-41.333 22.667 -73.667 53.667 -97 93s-35 83.666 -35 132.999s11.667 93.833 35 133.5s55.666 70.667 96.999 93s87.666 33.5 138.999 33.5s97.5 -11.167 138.5 -33.5s73.167 -53.333 96.5 -93s35 -84.167 35 -133.5s-11.667 -93.666 -35 -132.999
s-55.666 -70.333 -96.999 -93s-87.333 -34 -138 -34c-51.333 0 -97.666 11.333 -138.999 34zM418.999 38.5c28.667 19.667 51 47.667 67 84s24 78.833 24 127.5s-8 91.334 -24 128.001s-38.333 64.834 -67 84.501s-61.334 29.5 -98.001 29.5
c-37.333 0 -70.333 -9.83301 -99 -29.5s-51 -47.834 -67 -84.501s-24 -79.334 -24 -128.001s8 -91.167 24 -127.5s38.333 -64.333 67 -84s61.667 -29.5 99 -29.5c36.667 0 69.334 9.83301 98.001 29.5zM358.999 745l-108 -174h-16l48 174h76zM501.999 745l-108 -174h-16
l48 174h76z" />
    <glyph glyph-name="OE" unicode="&#x152;" horiz-adv-x="1006" 
d="M245 44c-58 29.333 -102.833 70.5 -134.5 123.5s-47.5 113.833 -47.5 182.5s15.833 129.5 47.5 182.5s76.5 94.167 134.5 123.5s125 44 201 44h494v-20h-306v-320h226v-20h-226v-320h352v-20h-540c-76 0 -143 14.667 -201 44zM544 681l-103 0.00195312
c-58 0 -108.5 -13.167 -151.5 -39.5s-76.167 -64.333 -99.5 -114s-35 -108.834 -35 -177.501s11.667 -127.834 35 -177.501s56.5 -87.5 99.5 -113.5s93.5 -39 151.5 -39h103v661z" />
    <glyph glyph-name="oe" unicode="&#x153;" horiz-adv-x="1071" 
d="M182 24c-41.333 22.667 -73.6641 53.666 -96.9971 92.999s-35 83.666 -35 132.999s11.667 93.833 35 133.5s55.666 70.667 96.999 93s87.666 33.5 138.999 33.5c52 0 98.333 -13 139 -39s70.667 -60.667 90 -104c18 43.333 47 78 87 104s85.667 39 137 39
c50 0 94.667 -11.167 134 -33.5s70.166 -53.166 92.499 -92.499s33.5 -83.666 33.5 -132.999v-11h-443c2 -45.333 11.667 -84.833 29 -118.5s40.833 -59.667 70.5 -78s63.5 -27.5 101.5 -27.5c46.667 0 87.5 12 122.5 36s58.833 56 71.5 96h21
c-13.333 -48.667 -41 -87.167 -83 -115.5s-92.333 -42.5 -151 -42.5c-51.333 0 -97 13 -137 39s-69 60.667 -87 104c-18.667 -43.333 -48.334 -78 -89.001 -104s-87 -39 -139 -39c-51.333 0 -97.666 11.333 -138.999 34zM419.002 38.499c28.667 19.667 51 47.667 67 84
s24 78.833 24 127.5s-8 91.334 -24 128.001s-38.333 64.834 -67 84.501s-61.334 29.5 -98.001 29.5c-37.333 0 -70.333 -9.83301 -99 -29.5s-51 -47.834 -67 -84.501s-24 -79.334 -24 -128.001s8 -91.167 24 -127.5s38.333 -64.333 67 -84s61.667 -29.5 99 -29.5
c36.667 0 69.334 9.83301 98.001 29.5zM929.502 382.999c-15.667 34.667 -36.998 61.333 -63.998 80s-57.833 28 -92.5 28s-65.667 -9.5 -93 -28.5s-48.833 -45.5 -64.5 -79.5s-23.834 -72.667 -24.501 -116v-7h363c-0.666992 47.333 -8.83398 88.333 -24.501 123z" />
    <glyph glyph-name="Racute" unicode="&#x154;" horiz-adv-x="698" 
d="M330 700c85.333 0 152.667 -17.5 202 -52.5s74 -82.833 74 -143.5c0 -44.667 -15.333 -82.5 -46 -113.5s-72.667 -51.5 -126 -61.5l251 -329h-107l-239 312c-4 -0.666992 -11 -1 -21 -1h-107v-311h-90v700h209zM471.001 377c34 30.667 51 73.668 51 129.001
s-17 98.166 -51 128.499s-82 45.5 -144 45.5h-116v-349h116c62 0 110 15.333 144 46zM390.001 945.001h84l-120 -174h-18z" />
    <glyph glyph-name="racute" unicode="&#x155;" horiz-adv-x="521" 
d="M176 500l0.000976562 -130c14 44 36.5 78.333 67.5 103s67.167 37 108.5 37c49.333 0 87.666 -15.833 114.999 -47.5s41 -77.5 41 -137.5v-18h-78v24c0 48 -9.33301 84 -28 108s-45.667 36 -81 36c-26.667 0 -51.167 -9.33301 -73.5 -28s-39.833 -44 -52.5 -76
s-19 -67.333 -19 -106v-265h-80v500h80zM359.001 745h84l-120 -174h-18z" />
    <glyph glyph-name="uni0156" unicode="&#x156;" horiz-adv-x="698" 
d="M330 700c85.333 0 152.667 -17.5 202 -52.5s74 -82.833 74 -143.5c0 -44.667 -15.333 -82.5 -46 -113.5s-72.667 -51.5 -126 -61.5l251 -329h-107l-239 312c-4 -0.666992 -11 -1 -21 -1h-107v-311h-90v700h209zM471.001 377c34 30.667 51 73.668 51 129.001
s-17 98.166 -51 128.499s-82 45.5 -144 45.5h-116v-349h116c62 0 110 15.333 144 46zM318.001 -241.999c20.667 13.333 38.334 27.832 53.001 43.499s22.334 30.5 23.001 44.5c-5.33301 -4 -15.333 -6 -30 -6c-16 0 -28.667 3.83301 -38 11.5s-14 17.5 -14 29.5
c0 13.333 5.16699 24 15.5 32s24.166 12 41.499 12s31 -4.5 41 -13.5s15 -20.833 15 -35.5c0 -22.667 -8.33301 -45.667 -25 -69s-35.334 -40.666 -56.001 -51.999h-26v3z" />
    <glyph glyph-name="uni0157" unicode="&#x157;" horiz-adv-x="521" 
d="M176 500l0.000976562 -130c14 44 36.5 78.333 67.5 103s67.167 37 108.5 37c49.333 0 87.666 -15.833 114.999 -47.5s41 -77.5 41 -137.5v-18h-78v24c0 48 -9.33301 84 -28 108s-45.667 36 -81 36c-26.667 0 -51.167 -9.33301 -73.5 -28s-39.833 -44 -52.5 -76
s-19 -67.333 -19 -106v-265h-80v500h80zM86.001 -242c20.667 13.333 38.334 27.832 53.001 43.499s22.334 30.5 23.001 44.5c-5.33301 -4 -15.333 -6 -30 -6c-16 0 -28.667 3.83301 -38 11.5s-14 17.5 -14 29.5c0 13.333 5.16699 24 15.5 32s24.166 12 41.499 12
s31 -4.5 41 -13.5s15 -20.833 15 -35.5c0 -22.667 -8.33301 -45.667 -25 -69s-35.334 -40.666 -56.001 -51.999h-26v3z" />
    <glyph glyph-name="Rcaron" unicode="&#x158;" horiz-adv-x="698" 
d="M330 700c85.333 0 152.667 -17.5 202 -52.5s74 -82.833 74 -143.5c0 -44.667 -15.333 -82.5 -46 -113.5s-72.667 -51.5 -126 -61.5l251 -329h-107l-239 312c-4 -0.666992 -11 -1 -21 -1h-107v-311h-90v700h209zM471.001 377c34 30.667 51 73.668 51 129.001
s-17 98.166 -51 128.499s-82 45.5 -144 45.5h-116v-349h116c62 0 110 15.333 144 46zM253.001 945.001l118 -125l118 125h26l-147 -160h-61l-147 160h93z" />
    <glyph glyph-name="rcaron" unicode="&#x159;" horiz-adv-x="521" 
d="M176 500l0.000976562 -130c14 44 36.5 78.333 67.5 103s67.167 37 108.5 37c49.333 0 87.666 -15.833 114.999 -47.5s41 -77.5 41 -137.5v-18h-78v24c0 48 -9.33301 84 -28 108s-45.667 36 -81 36c-26.667 0 -51.167 -9.33301 -73.5 -28s-39.833 -44 -52.5 -76
s-19 -67.333 -19 -106v-265h-80v500h80zM222.001 745l118 -125l118 125h26l-147 -160h-61l-147 160h93z" />
    <glyph glyph-name="Sacute" unicode="&#x15a;" horiz-adv-x="637" 
d="M184.5 14.5c-42.333 19.667 -76.499 47.499 -102.499 83.499s-41.667 78 -47 126h19c9.33301 -67.333 38 -120.5 86 -159.5s108 -58.5 180 -58.5c62 0 111 12.5 147 37.5s54 60.167 54 105.5c0 33.333 -9.83301 60.333 -29.5 81s-44.167 36.667 -73.5 48s-68 23 -116 35
c-52 13.333 -94.5 26.5 -127.5 39.5s-61.333 32.667 -85 59s-35.5 61.166 -35.5 104.499c0 42 11.333 78 34 108s53.167 52.667 91.5 68s81.166 23 128.499 23c76.667 0 139.334 -21 188.001 -63s76.667 -99.333 84 -172h-19c-8.66699 66.667 -34.5 119 -77.5 157
s-98.167 57 -165.5 57c-58 0 -104.833 -12.833 -140.5 -38.5s-53.5 -60.834 -53.5 -105.501c0 -31.333 9.5 -56.666 28.5 -75.999s42.167 -34 69.5 -44s65.666 -21.333 114.999 -34c56.667 -14.667 102 -28.667 136 -42s63 -33.666 87 -60.999s36 -63.666 36 -108.999
c0 -64.667 -25 -114 -75 -148s-114 -51 -192 -51c-54 0 -102.167 9.83301 -144.5 29.5zM363.001 944.999h84l-120 -174h-18z" />
    <glyph glyph-name="sacute" unicode="&#x15b;" horiz-adv-x="519" 
d="M109.5 33c-43.667 29.333 -69.499 71.6709 -77.499 127.004h20c8 -48.667 31.5 -85.667 70.5 -111s85.167 -38 138.5 -38c38.667 0 74 7.83301 106 23.5s48 39.5 48 71.5c0 20.667 -6.16699 37.334 -18.5 50.001s-28.333 22.667 -48 30s-47.167 15.333 -82.5 24
c-14.667 3.33301 -24.334 5.66602 -29.001 6.99902c-58 12.667 -104.167 29.334 -138.5 50.001s-51.5 53 -51.5 97c0 50 20 87 60 111s87.333 36 142 36c58.667 0 107.834 -14.5 147.501 -43.5s62.5 -70.167 68.5 -123.5h-20c-8 47.333 -29.333 83.333 -64 108
s-77 37 -127 37c-39.333 0 -73.833 -8.16699 -103.5 -24.5s-44.5 -41.5 -44.5 -75.5c0 -20 7.33301 -36.333 22 -49s32.167 -22.334 52.5 -29.001s52.833 -15.667 97.5 -27c40 -8.66699 73.667 -17.834 101 -27.501s50.666 -24.334 69.999 -44.001s29 -45.834 29 -78.501
c0 -34 -10.833 -61.833 -32.5 -83.5s-48.667 -37.334 -81 -47.001s-64.5 -14.5 -96.5 -14.5c-62 0 -114.833 14.667 -158.5 44zM305.001 745.005h84l-120 -174h-18z" />
    <glyph glyph-name="Scedilla" unicode="&#x15e;" horiz-adv-x="637" 
d="M184.5 14.5c-42.333 19.667 -76.499 47.499 -102.499 83.499s-41.667 78 -47 126h19c9.33301 -67.333 38 -120.5 86 -159.5s108 -58.5 180 -58.5c62 0 111 12.5 147 37.5s54 60.167 54 105.5c0 33.333 -9.83301 60.333 -29.5 81s-44.167 36.667 -73.5 48s-68 23 -116 35
c-52 13.333 -94.5 26.5 -127.5 39.5s-61.333 32.667 -85 59s-35.5 61.166 -35.5 104.499c0 42 11.333 78 34 108s53.167 52.667 91.5 68s81.166 23 128.499 23c76.667 0 139.334 -21 188.001 -63s76.667 -99.333 84 -172h-19c-8.66699 66.667 -34.5 119 -77.5 157
s-98.167 57 -165.5 57c-58 0 -104.833 -12.833 -140.5 -38.5s-53.5 -60.834 -53.5 -105.501c0 -31.333 9.5 -56.666 28.5 -75.999s42.167 -34 69.5 -44s65.666 -21.333 114.999 -34c56.667 -14.667 102 -28.667 136 -42s63 -33.666 87 -60.999s36 -63.666 36 -108.999
c0 -64.667 -25 -114 -75 -148s-114 -51 -192 -51c-54 0 -102.167 9.83301 -144.5 29.5zM275.001 -245.001h-84l121 174h16z" />
    <glyph glyph-name="scedilla" unicode="&#x15f;" horiz-adv-x="519" 
d="M109.5 33c-43.667 29.333 -69.499 71.6709 -77.499 127.004h20c8 -48.667 31.5 -85.667 70.5 -111s85.167 -38 138.5 -38c38.667 0 74 7.83301 106 23.5s48 39.5 48 71.5c0 20.667 -6.16699 37.334 -18.5 50.001s-28.333 22.667 -48 30s-47.167 15.333 -82.5 24
c-14.667 3.33301 -24.334 5.66602 -29.001 6.99902c-58 12.667 -104.167 29.334 -138.5 50.001s-51.5 53 -51.5 97c0 50 20 87 60 111s87.333 36 142 36c58.667 0 107.834 -14.5 147.501 -43.5s62.5 -70.167 68.5 -123.5h-20c-8 47.333 -29.333 83.333 -64 108
s-77 37 -127 37c-39.333 0 -73.833 -8.16699 -103.5 -24.5s-44.5 -41.5 -44.5 -75.5c0 -20 7.33301 -36.333 22 -49s32.167 -22.334 52.5 -29.001s52.833 -15.667 97.5 -27c40 -8.66699 73.667 -17.834 101 -27.501s50.666 -24.334 69.999 -44.001s29 -45.834 29 -78.501
c0 -34 -10.833 -61.833 -32.5 -83.5s-48.667 -37.334 -81 -47.001s-64.5 -14.5 -96.5 -14.5c-62 0 -114.833 14.667 -158.5 44zM228.001 -244.995h-84l121 174h16z" />
    <glyph glyph-name="Scaron" unicode="&#x160;" horiz-adv-x="637" 
d="M184.5 14.5c-42.333 19.667 -76.499 47.499 -102.499 83.499s-41.667 78 -47 126h19c9.33301 -67.333 38 -120.5 86 -159.5s108 -58.5 180 -58.5c62 0 111 12.5 147 37.5s54 60.167 54 105.5c0 33.333 -9.83301 60.333 -29.5 81s-44.167 36.667 -73.5 48s-68 23 -116 35
c-52 13.333 -94.5 26.5 -127.5 39.5s-61.333 32.667 -85 59s-35.5 61.166 -35.5 104.499c0 42 11.333 78 34 108s53.167 52.667 91.5 68s81.166 23 128.499 23c76.667 0 139.334 -21 188.001 -63s76.667 -99.333 84 -172h-19c-8.66699 66.667 -34.5 119 -77.5 157
s-98.167 57 -165.5 57c-58 0 -104.833 -12.833 -140.5 -38.5s-53.5 -60.834 -53.5 -105.501c0 -31.333 9.5 -56.666 28.5 -75.999s42.167 -34 69.5 -44s65.666 -21.333 114.999 -34c56.667 -14.667 102 -28.667 136 -42s63 -33.666 87 -60.999s36 -63.666 36 -108.999
c0 -64.667 -25 -114 -75 -148s-114 -51 -192 -51c-54 0 -102.167 9.83301 -144.5 29.5zM226.001 944.999l118 -125l118 125h26l-147 -160h-61l-147 160h93z" />
    <glyph glyph-name="scaron" unicode="&#x161;" horiz-adv-x="519" 
d="M109.5 33c-43.667 29.333 -69.499 71.6709 -77.499 127.004h20c8 -48.667 31.5 -85.667 70.5 -111s85.167 -38 138.5 -38c38.667 0 74 7.83301 106 23.5s48 39.5 48 71.5c0 20.667 -6.16699 37.334 -18.5 50.001s-28.333 22.667 -48 30s-47.167 15.333 -82.5 24
c-14.667 3.33301 -24.334 5.66602 -29.001 6.99902c-58 12.667 -104.167 29.334 -138.5 50.001s-51.5 53 -51.5 97c0 50 20 87 60 111s87.333 36 142 36c58.667 0 107.834 -14.5 147.501 -43.5s62.5 -70.167 68.5 -123.5h-20c-8 47.333 -29.333 83.333 -64 108
s-77 37 -127 37c-39.333 0 -73.833 -8.16699 -103.5 -24.5s-44.5 -41.5 -44.5 -75.5c0 -20 7.33301 -36.333 22 -49s32.167 -22.334 52.5 -29.001s52.833 -15.667 97.5 -27c40 -8.66699 73.667 -17.834 101 -27.501s50.666 -24.334 69.999 -44.001s29 -45.834 29 -78.501
c0 -34 -10.833 -61.833 -32.5 -83.5s-48.667 -37.334 -81 -47.001s-64.5 -14.5 -96.5 -14.5c-62 0 -114.833 14.667 -158.5 44zM168.001 745.005l118 -125l118 125h26l-147 -160h-61l-147 160h93z" />
    <glyph glyph-name="uni0162" unicode="&#x162;" horiz-adv-x="630" 
d="M270 680h-257v20h604v-20h-257v-680h-90v680zM271 -245h-84l121 174h16z" />
    <glyph glyph-name="uni0163" unicode="&#x163;" horiz-adv-x="456" 
d="M136 154l0.000976562 325.999h-114v20h104c6.66699 0 10 3.33301 10 10v110h80l-1 -120h212v-20h-212v-337c0 -86 39.667 -129 119 -129c29.333 0 60.333 6.33301 93 19v-19c-14.667 -7.33301 -33.834 -13.166 -57.501 -17.499s-45.167 -6.5 -64.5 -6.5
c-112.667 0 -169 54.667 -169 164zM248.001 -245.001h-84l121 174h16z" />
    <glyph glyph-name="Tcaron" unicode="&#x164;" horiz-adv-x="630" 
d="M270 680h-257v20h604v-20h-257v-680h-90v680zM231 945l118 -125l118 125h26l-147 -160h-61l-147 160h93z" />
    <glyph glyph-name="tcaron" unicode="&#x165;" horiz-adv-x="456" 
d="M136 154l0.000976562 325.999h-114v20h104c6.66699 0 10 3.33301 10 10v110h80l-1 -120h212v-20h-212v-337c0 -86 39.667 -129 119 -129c29.333 0 60.333 6.33301 93 19v-19c-14.667 -7.33301 -33.834 -13.166 -57.501 -17.499s-45.167 -6.5 -64.5 -6.5
c-112.667 0 -169 54.667 -169 164zM283.001 699.999h72l-57 -160h-15v160z" />
    <glyph glyph-name="Tbar" unicode="&#x166;" horiz-adv-x="630" 
d="M360 680v-327h145v-20h-145v-333h-90v333h-145v20h145v327h-257v20h604v-20h-257z" />
    <glyph glyph-name="tbar" unicode="&#x167;" horiz-adv-x="456" 
d="M215 260l211.001 -0.000976562v-20h-211v-97c0 -86 39.667 -129 119 -129c29.333 0 60.333 6.33301 93 19v-19c-14.667 -7.33301 -33.834 -13.166 -57.501 -17.499s-45.167 -6.5 -64.5 -6.5c-112.667 0 -169 54.667 -169 164v86h-114v20h114v220h-114v20h104
c6.66699 0 10 3.33301 10 10v110h80l-1 -120h212v-20h-212v-220z" />
    <glyph glyph-name="Umacron" unicode="&#x16a;" horiz-adv-x="776" 
d="M242.5 22c-43.667 24.667 -77.332 59.501 -100.999 104.501s-35.5 97.5 -35.5 157.5v416h90v-416c0 -86.667 20.333 -153.167 61 -199.5s96.667 -69.5 168 -69.5c46 0 86.5 11.333 121.5 34s62.167 54.667 81.5 96s29 89.333 29 144v411h20v-411
c0 -62 -11.333 -115.833 -34 -161.5s-55.334 -80.834 -98.001 -105.501s-92.667 -37 -150 -37c-58 0 -108.833 12.333 -152.5 37zM569.002 880.001v-20h-320v20h320z" />
    <glyph glyph-name="umacron" unicode="&#x16b;" horiz-adv-x="660" 
d="M141 53.5c-36.667 42.333 -55 101.5 -55 177.5v269h80v-269c0 -68 13.5 -120.667 40.5 -158s65.167 -56 114.5 -56c30.667 0 58.5 9.5 83.5 28.5s44.667 45 59 78s21.5 70.167 21.5 111.5v265h79v-500h-79v126c-15.333 -42.667 -39.666 -76 -72.999 -100
s-72 -36 -116 -36c-66.667 0 -118.334 21.167 -155.001 63.5zM485 680v-20h-320v20h320z" />
    <glyph glyph-name="Uring" unicode="&#x16e;" horiz-adv-x="776" 
d="M242.5 22c-43.667 24.667 -77.332 59.501 -100.999 104.501s-35.5 97.5 -35.5 157.5v416h90v-416c0 -86.667 20.333 -153.167 61 -199.5s96.667 -69.5 168 -69.5c46 0 86.5 11.333 121.5 34s62.167 54.667 81.5 96s29 89.333 29 144v411h20v-411
c0 -62 -11.333 -115.833 -34 -161.5s-55.334 -80.834 -98.001 -105.501s-92.667 -37 -150 -37c-58 0 -108.833 12.333 -152.5 37zM318.002 807.501c-24.667 25 -37 55.167 -37 90.5c0 23.333 5.66699 44.833 17 64.5s26.833 35.334 46.5 47.001s41.167 17.5 64.5 17.5
s44.833 -5.83301 64.5 -17.5s35.334 -27.334 47.001 -47.001s17.5 -41.167 17.5 -64.5s-5.83301 -44.833 -17.5 -64.5s-27.334 -35.167 -47.001 -46.5s-41.167 -17 -64.5 -17c-36 0 -66.333 12.5 -91 37.5zM491.002 845.001c19.333 13.333 29 31 29 53
s-9.66699 39.833 -29 53.5s-46.666 20.5 -81.999 20.5s-62.5 -6.83301 -81.5 -20.5s-28.5 -31.5 -28.5 -53.5s9.5 -39.667 28.5 -53s46.167 -20 81.5 -20s62.666 6.66699 81.999 20z" />
    <glyph glyph-name="uring" unicode="&#x16f;" horiz-adv-x="660" 
d="M141 53.5c-36.667 42.333 -55 101.5 -55 177.5v269h80v-269c0 -68 13.5 -120.667 40.5 -158s65.167 -56 114.5 -56c30.667 0 58.5 9.5 83.5 28.5s44.667 45 59 78s21.5 70.167 21.5 111.5v265h79v-500h-79v126c-15.333 -42.667 -39.666 -76 -72.999 -100
s-72 -36 -116 -36c-66.667 0 -118.334 21.167 -155.001 63.5zM234 607.5c-24.667 25 -37 55.167 -37 90.5c0 23.333 5.66699 44.833 17 64.5s26.833 35.334 46.5 47.001s41.167 17.5 64.5 17.5s44.833 -5.83301 64.5 -17.5s35.334 -27.334 47.001 -47.001
s17.5 -41.167 17.5 -64.5s-5.83301 -44.833 -17.5 -64.5s-27.334 -35.167 -47.001 -46.5s-41.167 -17 -64.5 -17c-36 0 -66.333 12.5 -91 37.5zM407 645c19.333 13.333 29 31 29 53s-9.66699 39.833 -29 53.5s-46.666 20.5 -81.999 20.5s-62.5 -6.83301 -81.5 -20.5
s-28.5 -31.5 -28.5 -53.5s9.5 -39.667 28.5 -53s46.167 -20 81.5 -20s62.666 6.66699 81.999 20z" />
    <glyph glyph-name="Uhungarumlaut" unicode="&#x170;" horiz-adv-x="776" 
d="M242.5 22c-43.667 24.667 -77.332 59.501 -100.999 104.501s-35.5 97.5 -35.5 157.5v416h90v-416c0 -86.667 20.333 -153.167 61 -199.5s96.667 -69.5 168 -69.5c46 0 86.5 11.333 121.5 34s62.167 54.667 81.5 96s29 89.333 29 144v411h20v-411
c0 -62 -11.333 -115.833 -34 -161.5s-55.334 -80.834 -98.001 -105.501s-92.667 -37 -150 -37c-58 0 -108.833 12.333 -152.5 37zM447.002 945.001l-108 -174h-16l48 174h76zM590.002 945.001l-108 -174h-16l48 174h76z" />
    <glyph glyph-name="uhungarumlaut" unicode="&#x171;" horiz-adv-x="660" 
d="M141 53.5c-36.667 42.333 -55 101.5 -55 177.5v269h80v-269c0 -68 13.5 -120.667 40.5 -158s65.167 -56 114.5 -56c30.667 0 58.5 9.5 83.5 28.5s44.667 45 59 78s21.5 70.167 21.5 111.5v265h79v-500h-79v126c-15.333 -42.667 -39.666 -76 -72.999 -100
s-72 -36 -116 -36c-66.667 0 -118.334 21.167 -155.001 63.5zM363 745l-108 -174h-16l48 174h76zM506 745l-108 -174h-16l48 174h76z" />
    <glyph glyph-name="Uogonek" unicode="&#x172;" horiz-adv-x="776" 
d="M242.5 22c-43.667 24.667 -77.332 59.501 -100.999 104.501s-35.5 97.5 -35.5 157.5v416h90v-416c0 -86.667 20.333 -153.167 61 -199.5s96.667 -69.5 168 -69.5c46 0 86.5 11.333 121.5 34s62.167 54.667 81.5 96s29 89.333 29 144v411h20v-411
c0 -62 -11.333 -115.833 -34 -161.5s-55.334 -80.834 -98.001 -105.501s-92.667 -37 -150 -37c-58 0 -108.833 12.333 -152.5 37zM593.002 -244.999h-84l121 174h16z" />
    <glyph glyph-name="uogonek" unicode="&#x173;" horiz-adv-x="660" 
d="M141 53.5c-36.667 42.333 -55 101.5 -55 177.5v269h80v-269c0 -68 13.5 -120.667 40.5 -158s65.167 -56 114.5 -56c30.667 0 58.5 9.5 83.5 28.5s44.667 45 59 78s21.5 70.167 21.5 111.5v265h79v-500h-79v126c-15.333 -42.667 -39.666 -76 -72.999 -100
s-72 -36 -116 -36c-66.667 0 -118.334 21.167 -155.001 63.5zM513 -245h-84l121 174h16z" />
    <glyph glyph-name="Wcircumflex" unicode="&#x174;" horiz-adv-x="1010" 
d="M32 700h93l194 -625l186 625h67l194 -625l197 625h19l-218 -700h-70l-191 616l-182 -616h-71zM589 785l-118 125l-118 -125h-26l147 160h61l147 -160h-93z" />
    <glyph glyph-name="wcircumflex" unicode="&#x175;" horiz-adv-x="785" 
d="M21 500h82l145 -431l144 431h64l144 -431l145 431h21l-167 -500h-59l-147 436l-145 -436h-60zM477 585l-118 125l-118 -125h-26l147 160h61l147 -160h-93z" />
    <glyph glyph-name="Ycircumflex" unicode="&#x176;" horiz-adv-x="635" 
d="M274 281l-269 419h95l254 -399l255 399h23l-268 -420v-280h-90v281zM405 785l-118 125l-118 -125h-26l147 160h61l147 -160h-93z" />
    <glyph glyph-name="ycircumflex" unicode="&#x177;" horiz-adv-x="533" 
d="M71 -167.5c-27.333 28.333 -40.999 65.167 -40.999 110.5v27h19v-26c0 -39.333 11.5 -71.333 34.5 -96s52.833 -37 89.5 -37c32.667 0 59.167 10 79.5 30s30.5 46.333 30.5 79v12c0 17.333 -3 35.833 -9 55.5s-17.333 46.5 -34 80.5l-228 432h88l187 -354
c6.66699 -14 13.667 -30.5 21 -49.5s11.666 -34.167 12.999 -45.5c3.33301 16 8 30.667 14 44l167 405h22l-172 -416c-7.33301 -18 -12.5 -34.667 -15.5 -50s-4.5 -33 -4.5 -53v-24c0 -51.333 -14 -92 -42 -122s-65 -45 -111 -45c-44.667 0 -80.667 14.167 -108 42.5z
M360.001 585.001l-118 125l-118 -125h-26l147 160h61l147 -160h-93z" />
    <glyph glyph-name="Ydieresis" unicode="&#x178;" horiz-adv-x="635" 
d="M274 281l-269 419h95l254 -399l255 399h23l-268 -420v-280h-90v281zM203 945h94l-42 -174h-9zM345 945h94l-43 -174h-9z" />
    <glyph glyph-name="Zacute" unicode="&#x179;" horiz-adv-x="616" 
d="M36 17l442 663h-417v20h520v-16l-442 -664h441v-20h-544v17zM383 945h84l-120 -174h-18z" />
    <glyph glyph-name="zacute" unicode="&#x17a;" horiz-adv-x="500" 
d="M30 17l340 463h-322v20h415v-16l-340 -464h338v-20h-431v17zM353 745h84l-120 -174h-18z" />
    <glyph glyph-name="Zdotaccent" unicode="&#x17b;" horiz-adv-x="616" 
d="M36 17l442 663h-417v20h520v-16l-442 -664h441v-20h-544v17zM282 945h97l-44 -174h-10z" />
    <glyph glyph-name="zdotaccent" unicode="&#x17c;" horiz-adv-x="500" 
d="M30 17l340 463h-322v20h415v-16l-340 -464h338v-20h-431v17zM252 745h97l-44 -174h-10z" />
    <glyph glyph-name="Zcaron" unicode="&#x17d;" horiz-adv-x="616" 
d="M36 17l442 663h-417v20h520v-16l-442 -664h441v-20h-544v17zM246 945l118 -125l118 125h26l-147 -160h-61l-147 160h93z" />
    <glyph glyph-name="zcaron" unicode="&#x17e;" horiz-adv-x="500" 
d="M30 17l340 463h-322v20h415v-16l-340 -464h338v-20h-431v17zM216 745l118 -125l118 125h26l-147 -160h-61l-147 160h93z" />
    <glyph glyph-name="uni01D0" unicode="&#x1d0;" horiz-adv-x="272" 
d="M96 500h80v-500h-80v500zM52 745l118 -125l118 125h26l-147 -160h-61l-147 160h93z" />
    <glyph glyph-name="uni0218" unicode="&#x218;" horiz-adv-x="637" 
d="M184.5 14.5c-42.333 19.667 -76.499 47.499 -102.499 83.499s-41.667 78 -47 126h19c9.33301 -67.333 38 -120.5 86 -159.5s108 -58.5 180 -58.5c62 0 111 12.5 147 37.5s54 60.167 54 105.5c0 33.333 -9.83301 60.333 -29.5 81s-44.167 36.667 -73.5 48s-68 23 -116 35
c-52 13.333 -94.5 26.5 -127.5 39.5s-61.333 32.667 -85 59s-35.5 61.166 -35.5 104.499c0 42 11.333 78 34 108s53.167 52.667 91.5 68s81.166 23 128.499 23c76.667 0 139.334 -21 188.001 -63s76.667 -99.333 84 -172h-19c-8.66699 66.667 -34.5 119 -77.5 157
s-98.167 57 -165.5 57c-58 0 -104.833 -12.833 -140.5 -38.5s-53.5 -60.834 -53.5 -105.501c0 -31.333 9.5 -56.666 28.5 -75.999s42.167 -34 69.5 -44s65.666 -21.333 114.999 -34c56.667 -14.667 102 -28.667 136 -42s63 -33.666 87 -60.999s36 -63.666 36 -108.999
c0 -64.667 -25 -114 -75 -148s-114 -51 -192 -51c-54 0 -102.167 9.83301 -144.5 29.5zM269.001 -242.001c20.667 13.333 38.334 27.832 53.001 43.499s22.334 30.5 23.001 44.5c-5.33301 -4 -15.333 -6 -30 -6c-16 0 -28.667 3.83301 -38 11.5s-14 17.5 -14 29.5
c0 13.333 5.16699 24 15.5 32s24.166 12 41.499 12s31 -4.5 41 -13.5s15 -20.833 15 -35.5c0 -22.667 -8.33301 -45.667 -25 -69s-35.334 -40.666 -56.001 -51.999h-26v3z" />
    <glyph glyph-name="uni0219" unicode="&#x219;" horiz-adv-x="519" 
d="M109.5 33c-43.667 29.333 -69.499 71.6709 -77.499 127.004h20c8 -48.667 31.5 -85.667 70.5 -111s85.167 -38 138.5 -38c38.667 0 74 7.83301 106 23.5s48 39.5 48 71.5c0 20.667 -6.16699 37.334 -18.5 50.001s-28.333 22.667 -48 30s-47.167 15.333 -82.5 24
c-14.667 3.33301 -24.334 5.66602 -29.001 6.99902c-58 12.667 -104.167 29.334 -138.5 50.001s-51.5 53 -51.5 97c0 50 20 87 60 111s87.333 36 142 36c58.667 0 107.834 -14.5 147.501 -43.5s62.5 -70.167 68.5 -123.5h-20c-8 47.333 -29.333 83.333 -64 108
s-77 37 -127 37c-39.333 0 -73.833 -8.16699 -103.5 -24.5s-44.5 -41.5 -44.5 -75.5c0 -20 7.33301 -36.333 22 -49s32.167 -22.334 52.5 -29.001s52.833 -15.667 97.5 -27c40 -8.66699 73.667 -17.834 101 -27.501s50.666 -24.334 69.999 -44.001s29 -45.834 29 -78.501
c0 -34 -10.833 -61.833 -32.5 -83.5s-48.667 -37.334 -81 -47.001s-64.5 -14.5 -96.5 -14.5c-62 0 -114.833 14.667 -158.5 44zM222.001 -241.995c20.667 13.333 38.334 27.832 53.001 43.499s22.334 30.5 23.001 44.5c-5.33301 -4 -15.333 -6 -30 -6
c-16 0 -28.667 3.83301 -38 11.5s-14 17.5 -14 29.5c0 13.333 5.16699 24 15.5 32s24.166 12 41.499 12s31 -4.5 41 -13.5s15 -20.833 15 -35.5c0 -22.667 -8.33301 -45.667 -25 -69s-35.334 -40.666 -56.001 -51.999h-26v3z" />
    <glyph glyph-name="uni021A" unicode="&#x21a;" horiz-adv-x="630" 
d="M270 680h-257v20h604v-20h-257v-680h-90v680zM265 -242c20.667 13.333 38.334 27.832 53.001 43.499s22.334 30.5 23.001 44.5c-5.33301 -4 -15.333 -6 -30 -6c-16 0 -28.667 3.83301 -38 11.5s-14 17.5 -14 29.5c0 13.333 5.16699 24 15.5 32s24.166 12 41.499 12
s31 -4.5 41 -13.5s15 -20.833 15 -35.5c0 -22.667 -8.33301 -45.667 -25 -69s-35.334 -40.666 -56.001 -51.999h-26v3z" />
    <glyph glyph-name="uni021B" unicode="&#x21b;" horiz-adv-x="456" 
d="M136 154l0.000976562 325.999h-114v20h104c6.66699 0 10 3.33301 10 10v110h80l-1 -120h212v-20h-212v-337c0 -86 39.667 -129 119 -129c29.333 0 60.333 6.33301 93 19v-19c-14.667 -7.33301 -33.834 -13.166 -57.501 -17.499s-45.167 -6.5 -64.5 -6.5
c-112.667 0 -169 54.667 -169 164zM242.001 -242.001c20.667 13.333 38.334 27.832 53.001 43.499s22.334 30.5 23.001 44.5c-5.33301 -4 -15.333 -6 -30 -6c-16 0 -28.667 3.83301 -38 11.5s-14 17.5 -14 29.5c0 13.333 5.16699 24 15.5 32s24.166 12 41.499 12
s31 -4.5 41 -13.5s15 -20.833 15 -35.5c0 -22.667 -8.33301 -45.667 -25 -69s-35.334 -40.666 -56.001 -51.999h-26v3z" />
    <glyph glyph-name="uni0237" unicode="&#x237;" horiz-adv-x="308" 
d="M-36.5 -194c-23 10.667 -40.999 25.499 -53.999 44.499s-19.5 39.833 -19.5 62.5h19v-1c0 -28.667 12.5 -52.667 37.5 -72s54.833 -29 89.5 -29c36 0 65.833 10.333 89.5 31s35.5 50.667 35.5 90c0 15.333 -1.83301 31.333 -5.5 48s-5.83398 26.667 -6.50098 30
c-5.33301 24 -9.5 45.333 -12.5 64s-4.5 39.334 -4.5 62.001v364h80v-532c0 -55.333 -15.5 -98.833 -46.5 -130.5s-72.833 -47.5 -125.5 -47.5c-28 0 -53.5 5.33301 -76.5 16z" />
    <glyph glyph-name="uni02BC" unicode="&#x2bc;" horiz-adv-x="197" 
d="M57 495c21.333 16 39.168 34.167 53.501 54.5s23.833 40.833 28.5 61.5c-12 -8.66699 -24 -13 -36 -13c-16.667 0 -30.667 5.5 -42 16.5s-17 24.833 -17 41.5s5.83301 30.667 17.5 42s26.167 17 43.5 17s31.666 -6 42.999 -18s17 -28 17 -48
c0 -27.333 -7.16699 -56.833 -21.5 -88.5s-30.5 -54.5 -48.5 -68.5h-38v3z" />
    <glyph glyph-name="gravecomb" unicode="&#x300;" horiz-adv-x="0" 
d="M-316 571l-121 174h84l54 -174h-17z" />
    <glyph glyph-name="acutecomb" unicode="&#x301;" horiz-adv-x="0" 
d="M-247 745h84l-120 -174h-18z" />
    <glyph glyph-name="uni0302" unicode="&#x302;" horiz-adv-x="0" 
d="M-216 585l-118 125l-118 -125h-26l147 160h61l147 -160h-93z" />
    <glyph glyph-name="tildecomb" unicode="&#x303;" horiz-adv-x="0" 
d="M-458.5 692c18.333 18.667 41.498 27.999 69.498 27.999c18 0 35 -2.16699 51 -6.5s35.667 -10.5 59 -18.5c20 -7.33301 36.667 -12.666 50 -15.999s27 -5 41 -5c15.333 0 28.5 4.33301 39.5 13s16.5 19.667 16.5 33h18c0 -29.333 -9 -53.333 -27 -72s-41 -28 -69 -28
c-18 0 -35 2.16699 -51 6.5s-35.667 10.5 -59 18.5s-41.166 13.667 -53.499 17s-25.166 5 -38.499 5c-15.333 0 -28.5 -4.33301 -39.5 -13s-16.5 -20 -16.5 -34h-18c0 29.333 9.16699 53.333 27.5 72z" />
    <glyph glyph-name="uni0304" unicode="&#x304;" horiz-adv-x="0" 
d="M-140 680v-20h-320v20h320z" />
    <glyph glyph-name="uni0306" unicode="&#x306;" horiz-adv-x="0" 
d="M-428.5 621c-32.333 32 -48.502 74.333 -48.502 127v6h19v-6c0 -36 13.5 -63.833 40.5 -83.5s66.167 -29.5 117.5 -29.5c52 0 91.5 9.83301 118.5 29.5s40.5 47.5 40.5 83.5v6h18v-6c0 -52.667 -16.167 -95 -48.5 -127s-75.166 -48 -128.499 -48s-96.166 16 -128.499 48z
" />
    <glyph glyph-name="uni0307" unicode="&#x307;" horiz-adv-x="0" 
d="M-348 745h97l-44 -174h-10z" />
    <glyph glyph-name="uni0308" unicode="&#x308;" horiz-adv-x="0" 
d="M-418 745h94l-42 -174h-9zM-276 745h94l-43 -174h-9z" />
    <glyph glyph-name="uni030A" unicode="&#x30a;" horiz-adv-x="0" 
d="M-391 607.5c-24.667 25 -37 55.167 -37 90.5c0 23.333 5.66699 44.833 17 64.5s26.833 35.334 46.5 47.001s41.167 17.5 64.5 17.5s44.833 -5.83301 64.5 -17.5s35.334 -27.334 47.001 -47.001s17.5 -41.167 17.5 -64.5s-5.83301 -44.833 -17.5 -64.5
s-27.334 -35.167 -47.001 -46.5s-41.167 -17 -64.5 -17c-36 0 -66.333 12.5 -91 37.5zM-218 645c19.333 13.333 29 31 29 53s-9.66699 39.833 -29 53.5s-46.666 20.5 -81.999 20.5s-62.5 -6.83301 -81.5 -20.5s-28.5 -31.5 -28.5 -53.5s9.5 -39.667 28.5 -53
s46.167 -20 81.5 -20s62.666 6.66699 81.999 20z" />
    <glyph glyph-name="uni030B" unicode="&#x30b;" horiz-adv-x="0" 
d="M-262 745l-108 -174h-16l48 174h76zM-119 745l-108 -174h-16l48 174h76z" />
    <glyph glyph-name="uni030C" unicode="&#x30c;" horiz-adv-x="0" 
d="M-384 745l118 -125l118 125h26l-147 -160h-61l-147 160h93z" />
    <glyph glyph-name="uni0312" unicode="&#x312;" horiz-adv-x="0" 
d="M-250 749c-20.667 -13.333 -38.3311 -27.832 -52.998 -43.499s-22.334 -30.5 -23.001 -44.5c6 4 16.333 6 31 6c15.333 0 27.833 -3.83301 37.5 -11.5s14.5 -17.5 14.5 -29.5c0 -13.333 -5.33301 -24 -16 -32s-24.334 -12 -41.001 -12c-17.333 0 -31 4.5 -41 13.5
s-15 20.833 -15 35.5c0 22.667 8.16699 45.667 24.5 69s34.833 40.666 55.5 51.999h26v-3z" />
    <glyph glyph-name="uni0326" unicode="&#x326;" horiz-adv-x="0" 
d="M-350 -242c20.667 13.333 38.334 27.832 53.001 43.499s22.334 30.5 23.001 44.5c-5.33301 -4 -15.333 -6 -30 -6c-16 0 -28.667 3.83301 -38 11.5s-14 17.5 -14 29.5c0 13.333 5.16699 24 15.5 32s24.166 12 41.499 12s31 -4.5 41 -13.5s15 -20.833 15 -35.5
c0 -22.667 -8.33301 -45.667 -25 -69s-35.334 -40.666 -56.001 -51.999h-26v3z" />
    <glyph glyph-name="uni0327" unicode="&#x327;" horiz-adv-x="0" 
d="M-344 -245h-84l121 174h16z" />
    <glyph glyph-name="uni0328" unicode="&#x328;" horiz-adv-x="0" 
d="M-351 -245h-84l121 174h16z" />
    <glyph glyph-name="uni0335" unicode="&#x335;" horiz-adv-x="0" 
d="M-126 610v-20h-347v20h347z" />
    <glyph glyph-name="uni0401" unicode="&#x401;" horiz-adv-x="587" 
d="M121 700h400v-20h-310v-320h224v-20h-224v-320h356v-20h-446v700zM203 945h94l-42 -174h-9zM345 945h94l-43 -174h-9z" />
    <glyph glyph-name="uni0404" unicode="&#x404;" horiz-adv-x="794" 
d="M233.5 31c-53.667 30.667 -95.5 73.665 -125.5 128.998s-45 118.666 -45 189.999c0 72 15 135.5 45 190.5s71.833 97.833 125.5 128.5s115.167 46 184.5 46c55.333 0 106 -11.5 152 -34.5s83.667 -55.167 113 -96.5s48.333 -88.666 57 -141.999h-21
c-8 47.333 -24.833 89.333 -50.5 126s-58 65.334 -97 86.001s-81.833 31 -128.5 31c-55.333 0 -104.5 -13.5 -147.5 -40.5s-76.833 -65.167 -101.5 -114.5s-37.667 -106 -39 -170h277v-20h-277c1.33301 -63.333 14.333 -119.666 39 -168.999s58.5 -87.5 101.5 -114.5
s92.167 -40.5 147.5 -40.5c47.333 0 90.5 10.167 129.5 30.5s71.167 48.833 96.5 85.5s42 79 50 127h21c-8.66699 -54 -27.667 -101.667 -57 -143s-67 -73.5 -113 -96.5s-96.667 -34.5 -152 -34.5c-69.333 0 -130.833 15.333 -184.5 46z" />
    <glyph glyph-name="uni0406" unicode="&#x406;" horiz-adv-x="332" 
d="M121 700h90v-700h-90v700z" />
    <glyph glyph-name="uni0407" unicode="&#x407;" horiz-adv-x="332" 
d="M121 700h90v-700h-90v700zM48 945h94l-42 -174h-9zM190 945h94l-43 -174h-9z" />
    <glyph glyph-name="uni040E" unicode="&#x40e;" horiz-adv-x="607" 
d="M176 4.5c-22.667 13 -40.8311 32.001 -54.498 57.001s-20.5 54.833 -20.5 89.5v27h20v-27c0 -40 10.667 -73 32 -99s49.666 -39 84.999 -39c32 0 57.167 8.83301 75.5 26.5s27.5 40.5 27.5 68.5c0 29.333 -9.33301 59.333 -28 90l-306 502h102l256 -419
c23.333 -37.333 37.666 -74.333 42.999 -111l180 530h20l-189 -565c-17.333 -50.667 -39.666 -88.334 -66.999 -113.001s-61.333 -37 -102 -37c-26.667 0 -51.334 6.5 -74.001 19.5zM212.503 821.001c-32.333 32 -48.502 74.333 -48.502 127v6h19v-6
c0 -36 13.5 -63.833 40.5 -83.5s66.167 -29.5 117.5 -29.5c52 0 91.5 9.83301 118.5 29.5s40.5 47.5 40.5 83.5v6h18v-6c0 -52.667 -16.167 -95 -48.5 -127s-75.166 -48 -128.499 -48s-96.166 16 -128.499 48z" />
    <glyph glyph-name="uni0410" unicode="&#x410;" horiz-adv-x="671" 
d="M299 700h71l287 -700h-97l-95 230h-337l-93 -230h-21zM457 250l-159 386h-2l-160 -386h321z" />
    <glyph glyph-name="uni0411" unicode="&#x411;" horiz-adv-x="695" 
d="M582 700v-20h-371v-288h149c86 0 152.667 -17.333 200 -52s71 -82.667 71 -144s-23.667 -109.333 -71 -144s-114 -52 -200 -52h-239v700h461zM493 66.5c32 31 48 74.167 48 129.5c0 56 -16 99.333 -48 130s-77 46 -135 46h-147v-352h147c58 0 103 15.5 135 46.5z" />
    <glyph glyph-name="uni0412" unicode="&#x412;" horiz-adv-x="712" 
d="M363 700c83.333 0 148.168 -15.668 194.501 -47.001s69.5 -74.333 69.5 -129c0 -43.333 -13.833 -79.666 -41.5 -108.999s-66.834 -49 -117.501 -59v-4c59.333 -7.33301 105.5 -26.333 138.5 -57s49.5 -69 49.5 -115c0 -56 -23.667 -100 -71 -132s-114 -48 -200 -48h-264
v700h242zM499.002 401.499c30.667 27.667 46 67.167 46 118.5s-15.667 90.833 -47 118.5s-76.333 41.5 -135 41.5h-152v-320h155c58 0 102.333 13.833 133 41.5zM518.002 61.499c32.667 27.667 49 67.167 49 118.5s-16.833 91 -50.5 119s-80.5 42 -140.5 42h-165v-321h165
c62 0 109.333 13.833 142 41.5z" />
    <glyph glyph-name="uni0413" unicode="&#x413;" horiz-adv-x="581" 
d="M121 700h434v-20h-344v-680h-90v700z" />
    <glyph glyph-name="uni0414" unicode="&#x414;" horiz-adv-x="747" 
d="M88 20c48 140.667 72 294 72 460c0 20.667 -2 47.667 -6 81l-8 139h472v-680h86v-190h-76v170h-540v-170h-76v190h76zM528 680l-325 -0.000976562l-9 -156c-8.66699 -112 -19.5 -207.167 -32.5 -285.5s-30.5 -151.166 -52.5 -218.499h419v660z" />
    <glyph glyph-name="uni0415" unicode="&#x415;" horiz-adv-x="587" 
d="M121 700h400v-20h-310v-320h224v-20h-224v-320h356v-20h-446v700z" />
    <glyph glyph-name="uni0416" unicode="&#x416;" horiz-adv-x="1014" 
d="M294 407l-234 293h26l274 -340h102v340h90v-340h102l273 340h27l-234 -293l268 -407h-104l-227 340h-105v-340h-90v340h-106l-227 -340h-103z" />
    <glyph glyph-name="uni0417" unicode="&#x417;" horiz-adv-x="637" 
d="M185 14.5c-42.667 19.667 -77.1689 47.499 -103.502 83.499s-42.5 78 -48.5 126h19c9.33301 -64 36.5 -114.667 81.5 -152s101.167 -56 168.5 -56c64 0 114.667 15.5 152 46.5s56 72.167 56 123.5c0 30 -7.83301 56.667 -23.5 80s-37 41.5 -64 54.5
s-56.5 19.5 -88.5 19.5h-63v20h64c32.667 0 61.5 7 86.5 21s44.5 33.167 58.5 57.5s21 50.833 21 79.5c0 50.667 -18.167 91.167 -54.5 121.5s-84.166 45.5 -143.499 45.5c-63.333 0 -115.666 -18.333 -156.999 -55s-65.666 -86.667 -72.999 -150h-20
c8 72.667 36.833 130 86.5 172s114.5 63 194.5 63c49.333 0 93.166 -8 131.499 -24s68.166 -38.5 89.499 -67.5s32 -61.833 32 -98.5c0 -42 -13.667 -78.667 -41 -110s-64.333 -52.666 -111 -63.999c46.667 -8 86.167 -28 118.5 -60s48.5 -68.333 48.5 -109
c0 -40 -11.167 -74.833 -33.5 -104.5s-54.166 -52.5 -95.499 -68.5s-89.333 -24 -144 -24c-53.333 0 -101.333 9.83301 -144 29.5z" />
    <glyph glyph-name="uni0418" unicode="&#x418;" horiz-adv-x="826" 
d="M121 700h90v-571l425 571h70v-700h-90v635l-479 -652h-16v717z" />
    <glyph glyph-name="uni0419" unicode="&#x419;" horiz-adv-x="826" 
d="M121 700h90v-571l425 571h70v-700h-90v635l-479 -652h-16v717zM284.5 821c-32.333 32 -48.502 74.333 -48.502 127v6h19v-6c0 -36 13.5 -63.833 40.5 -83.5s66.167 -29.5 117.5 -29.5c52 0 91.5 9.83301 118.5 29.5s40.5 47.5 40.5 83.5v6h18v-6
c0 -52.667 -16.167 -95 -48.5 -127s-75.166 -48 -128.499 -48s-96.166 16 -128.499 48z" />
    <glyph glyph-name="uni041A" unicode="&#x41a;" horiz-adv-x="703" 
d="M121 700h90v-340h99l296 340h26l-256 -294l301 -406h-107l-256 340h-103v-340h-90v700z" />
    <glyph glyph-name="uni041B" unicode="&#x41b;" horiz-adv-x="771" 
d="M27.5 -9.5c-8.33301 1.66699 -16.835 4.83203 -25.502 9.49902v90c14 -4 24.5 -6.5 31.5 -7.5s16.833 -1.5 29.5 -1.5c34.667 0 61.5 10.5 80.5 31.5s30.833 54.167 35.5 99.5c12.667 60 19 140 19 240c0 40 -1 84 -3 132l-7 116h462v-700h-90v680h-318l-9 -111
c-6 -112 -13 -203.667 -21 -275s-18.333 -130.666 -31 -177.999c-23.333 -85.333 -63.666 -128 -120.999 -128c-13.333 0 -24.166 0.833008 -32.499 2.5z" />
    <glyph glyph-name="uni041C" unicode="&#x41c;" horiz-adv-x="962" 
d="M121 700h92l272 -589l270 589h87v-700h-90v645l-295 -645h-21l-294 639v-639h-21v700z" />
    <glyph glyph-name="uni041D" unicode="&#x41d;" horiz-adv-x="820" 
d="M121 700h90v-340h399v340h90v-700h-90v340h-399v-340h-90v700z" />
    <glyph glyph-name="uni041E" unicode="&#x41e;" horiz-adv-x="850" 
d="M239.5 32c-55 31.333 -98.167 74.833 -129.5 130.5s-47 118.167 -47 187.5c0 70 15.667 132.667 47 188s74.5 98.666 129.5 129.999s116.833 47 185.5 47c69.333 0 131.5 -15.667 186.5 -47s98 -74.666 129 -129.999s46.5 -118 46.5 -188
c0 -69.333 -15.5 -131.833 -46.5 -187.5s-74 -99.167 -129 -130.5s-117.167 -47 -186.5 -47c-68.667 0 -130.5 15.667 -185.5 47zM566 46c40.667 28 72.334 68.167 95.001 120.5s34 113.5 34 183.5s-11.333 131.167 -34 183.5s-54.334 92.5 -95.001 120.5
s-87.667 42 -141 42s-100.333 -14 -141 -42s-72.334 -68.167 -95.001 -120.5s-34 -113.5 -34 -183.5s11.333 -131.167 34 -183.5s54.334 -92.5 95.001 -120.5s87.667 -42 141 -42s100.333 14 141 42z" />
    <glyph glyph-name="uni041F" unicode="&#x41f;" horiz-adv-x="820" 
d="M121 700h579v-700h-90v680h-399v-680h-90v700z" />
    <glyph glyph-name="uni0420" unicode="&#x420;" horiz-adv-x="653" 
d="M327 700c87.333 0 155.333 -17.667 204 -53s73 -84.333 73 -147s-24.333 -111.667 -73 -147s-116.667 -53 -204 -53h-116v-300h-90v700h206zM464 367.5c33.333 31.667 50 75.832 50 132.499s-16.667 100.834 -50 132.501s-79.666 47.5 -138.999 47.5h-114v-360h114
c59.333 0 105.666 15.833 138.999 47.5z" />
    <glyph glyph-name="uni0421" unicode="&#x421;" horiz-adv-x="794" 
d="M233.5 31c-53.667 30.667 -95.501 73.667 -125.501 129s-45 118.666 -45 189.999c0 72 15 135.5 45 190.5s71.833 97.833 125.5 128.5s115.167 46 184.5 46c56 0 107 -11.833 153 -35.5s83.833 -56.667 113.5 -99s48.167 -90.833 55.5 -145.5h-20
c-7.33301 49.333 -23.666 92.833 -48.999 130.5s-57.666 67 -96.999 88s-83 31.5 -131 31.5c-56.667 0 -106.667 -14 -150 -42s-77.166 -67.333 -101.499 -118s-36.5 -109 -36.5 -175c0 -65.333 12.167 -123.333 36.5 -174s58.333 -90 102 -118s93.5 -42 149.5 -42
c48 0 91.667 10.5 131 31.5s71.666 50.333 96.999 88s41.666 80.834 48.999 129.501h20c-7.33301 -54.667 -25.833 -103.167 -55.5 -145.5s-67.5 -75.333 -113.5 -99s-97 -35.5 -153 -35.5c-69.333 0 -130.833 15.333 -184.5 46z" />
    <glyph glyph-name="uni0422" unicode="&#x422;" horiz-adv-x="630" 
d="M270 680h-257v20h604v-20h-257v-680h-90v680z" />
    <glyph glyph-name="uni0423" unicode="&#x423;" horiz-adv-x="607" 
d="M176 4.5c-22.667 13 -40.8311 32.001 -54.498 57.001s-20.5 54.833 -20.5 89.5v27h20v-27c0 -40 10.667 -73 32 -99s49.666 -39 84.999 -39c32 0 57.167 8.83301 75.5 26.5s27.5 40.5 27.5 68.5c0 29.333 -9.33301 59.333 -28 90l-306 502h102l256 -419
c23.333 -37.333 37.666 -74.333 42.999 -111l180 530h20l-189 -565c-17.333 -50.667 -39.666 -88.334 -66.999 -113.001s-61.333 -37 -102 -37c-26.667 0 -51.334 6.5 -74.001 19.5z" />
    <glyph glyph-name="uni0424" unicode="&#x424;" horiz-adv-x="1001" 
d="M395 110c-106 0 -188.167 21.833 -246.5 65.5s-87.5 105.167 -87.5 184.5s29.167 140.833 87.5 184.5s140.5 65.5 246.5 65.5h61v100h90v-100h61c106 0 188.167 -21.833 246.5 -65.5s87.5 -105.167 87.5 -184.5s-29.167 -140.833 -87.5 -184.5s-140.5 -65.5 -246.5 -65.5
h-61v-110h-90v110h-61zM456 591l-64 -0.000976562c-76.667 0 -135.667 -20.167 -177 -60.5s-62 -97.166 -62 -170.499s20.667 -130 62 -170s100.333 -60 177 -60h64v461zM787 189.999c41.333 40 62 96.668 62 170.001s-20.833 130.166 -62.5 170.499
s-100.5 60.5 -176.5 60.5h-64v-461h64c76.667 0 135.667 20 177 60z" />
    <glyph glyph-name="uni0425" unicode="&#x425;" horiz-adv-x="667" 
d="M290 341l-262 359h105l223 -295l232 295h25l-245 -312l282 -388h-105l-242 324l-253 -324h-25z" />
    <glyph glyph-name="uni0426" unicode="&#x426;" horiz-adv-x="837" 
d="M719 0h-598v700h90v-680h402v680h90v-680h92v-190h-76v170z" />
    <glyph glyph-name="uni0427" unicode="&#x427;" horiz-adv-x="720" 
d="M354 300c-92.667 0 -163.667 18.667 -213 56s-74 91.333 -74 162v182h90v-208c0 -55.333 17.167 -97.833 51.5 -127.5s82.833 -44.5 145.5 -44.5h155v380h90v-700h-90v300h-155z" />
    <glyph glyph-name="uni0428" unicode="&#x428;" horiz-adv-x="1125" 
d="M121 700h90v-680h307v680h90v-680h306v680h90v-700h-883v700z" />
    <glyph glyph-name="uni0429" unicode="&#x429;" horiz-adv-x="1138" 
d="M1020 0h-899v700h90v-680h307v680h90v-680h306v680h90v-680h92v-190h-76v170z" />
    <glyph glyph-name="uni042A" unicode="&#x42a;" horiz-adv-x="753" 
d="M621.5 347c48.333 -35.333 72.5 -84.333 72.5 -147s-24.167 -111.667 -72.5 -147s-116.5 -53 -204.5 -53h-210v680h-194v20h284v-300h120c88 0 156.167 -17.667 204.5 -53zM554.5 67.5c33 31.667 49.5 75.834 49.5 132.501c0 57.333 -16.5 101.666 -49.5 132.999
s-79.5 47 -139.5 47h-118v-360h118c60 0 106.5 15.833 139.5 47.5z" />
    <glyph glyph-name="uni042B" unicode="&#x42b;" horiz-adv-x="961" 
d="M211 700v-300h120c88 0 156.167 -17.667 204.5 -53s72.5 -84.333 72.5 -147s-24.167 -111.667 -72.5 -147s-116.5 -53 -204.5 -53h-210v700h90zM468.5 67.5c33 31.667 49.5 75.834 49.5 132.501c0 57.333 -16.5 101.666 -49.5 132.999s-79.5 47 -139.5 47h-118v-360h118
c60 0 106.5 15.833 139.5 47.5zM751 700h90v-700h-90v700z" />
    <glyph glyph-name="uni042C" unicode="&#x42c;" horiz-adv-x="667" 
d="M211 700v-300h120c88 0 156.167 -17.667 204.5 -53s72.5 -84.333 72.5 -147s-24.167 -111.667 -72.5 -147s-116.5 -53 -204.5 -53h-210v700h90zM468.5 67.5c33 31.667 49.5 75.834 49.5 132.501c0 57.333 -16.5 101.666 -49.5 132.999s-79.5 47 -139.5 47h-118v-360h118
c60 0 106.5 15.833 139.5 47.5z" />
    <glyph glyph-name="uni042D" unicode="&#x42d;" horiz-adv-x="772" 
d="M205.5 19.5c-46.333 23 -84.667 55.1689 -115 96.502s-49.5 89 -57.5 143h21c7.33301 -47.333 24 -89.5 50 -126.5s59 -65.667 99 -86s84 -30.5 132 -30.5c54 0 102.167 13.5 144.5 40.5s75.5 65.167 99.5 114.5s36.667 105.666 38 168.999h-277v20h277
c-1.33301 64 -14 120.5 -38 169.5s-57.167 87.167 -99.5 114.5s-90.5 41 -144.5 41c-48 0 -92 -10.333 -132 -31s-73 -49.334 -99 -86.001s-42.667 -78.667 -50 -126h-21c8 53.333 27.167 100.666 57.5 141.999s68.833 73.5 115.5 96.5s98 34.5 154 34.5
c68 0 128.5 -15.333 181.5 -46s94.167 -73.5 123.5 -128.5s44 -118.5 44 -190.5c0 -71.333 -14.667 -134.666 -44 -189.999s-70.5 -98.333 -123.5 -129s-113.5 -46 -181.5 -46c-56.667 0 -108.167 11.5 -154.5 34.5z" />
    <glyph glyph-name="uni042E" unicode="&#x42e;" horiz-adv-x="1136" 
d="M543 30.5c-52.667 30.333 -94.334 72.499 -125.001 126.499s-46.667 115 -48 183h-159v-340h-90v700h90v-340h159c1.33301 68 17.333 129 48 183s72.334 96.167 125.001 126.5s112 45.5 178 45.5c67.333 0 127.666 -15.667 180.999 -47s95.166 -74.666 125.499 -129.999
s45.5 -118 45.5 -188c0 -69.333 -15.167 -131.833 -45.5 -187.5s-72.166 -99.167 -125.499 -130.5s-113.666 -47 -180.999 -47c-66 0 -125.333 15.167 -178 45.5zM857 45.999c39.333 28 69.833 68.167 91.5 120.5s32.5 113.5 32.5 183.5s-10.833 131.167 -32.5 183.5
s-52.167 92.5 -91.5 120.5s-84.666 42 -135.999 42s-96.666 -14 -135.999 -42s-69.833 -68.167 -91.5 -120.5s-32.5 -113.5 -32.5 -183.5s10.833 -131.167 32.5 -183.5s52.167 -92.5 91.5 -120.5s84.666 -42 135.999 -42s96.666 14 135.999 42z" />
    <glyph glyph-name="uni042F" unicode="&#x42f;" horiz-adv-x="698" 
d="M124.5 391.5c-27.667 30.333 -41.499 66.833 -41.499 109.5c0 62.667 24.5 111.5 73.5 146.5s118.167 52.5 207.5 52.5h213v-700h-90v303h-123c-14 0 -27 1 -39 3l-214 -306h-103l231 328c-48.667 12 -86.834 33.167 -114.501 63.5zM487.001 680h-120
c-62 0 -109.833 -15.667 -143.5 -47s-50.5 -75 -50.5 -131c0 -56.667 16.833 -100.667 50.5 -132s81.5 -47 143.5 -47h120v357z" />
    <glyph glyph-name="uni0430" unicode="&#x430;" horiz-adv-x="598" 
d="M82.5 24c-27.667 23.333 -41.502 54.6689 -41.502 94.002c0 49.333 21.833 84.833 65.5 106.5s100.834 35.5 171.501 41.5c48.667 4 85.5 11.5 110.5 22.5s37.5 27.5 37.5 49.5c0 45.333 -14 81.166 -42 107.499s-64.333 39.5 -109 39.5
c-47.333 0 -87.166 -14.5 -119.499 -43.5s-52.5 -68.5 -60.5 -118.5h-19c8 58 31.5 103.667 70.5 137s87.833 50 146.5 50c40.667 0 76.834 -8.33301 108.501 -25s56.334 -40.334 74.001 -71.001s26.5 -66.667 26.5 -108v-286h69v-20h-146v131
c-16.667 -44 -44.834 -78.667 -84.501 -104s-85.5 -38 -137.5 -38c-52.667 0 -92.834 11.667 -120.501 35zM328.998 44.0029c29.333 18 52.5 42.834 69.5 74.501s25.5 67.167 25.5 106.5l1 62c-18 -16.667 -56.667 -28.334 -116 -35.001
c-65.333 -7.33301 -112.833 -21.333 -142.5 -42s-44.5 -50 -44.5 -88c0 -34 9.83301 -60 29.5 -78s46.167 -27 79.5 -27c36 0 68.667 9 98 27z" />
    <glyph glyph-name="uni0431" unicode="&#x431;" horiz-adv-x="633" 
d="M186.5 23c-39.667 22 -70.668 52.167 -93.001 90.5s-33.5 80.833 -33.5 127.5v99c2 100 28.167 176.833 78.5 230.5s123.5 80.5 219.5 80.5h150v61h19v-130h-192c-85.333 0 -149.166 -18.833 -191.499 -56.5s-63.5 -96.167 -63.5 -175.5v-35
c16.667 45.333 46.667 81.5 90 108.5s93.666 40.5 150.999 40.5c50 0 94.833 -10.167 134.5 -30.5s70.834 -48.5 93.501 -84.5s34 -76.667 34 -122c0 -44.667 -11.333 -85 -34 -121s-54 -64.333 -94 -85s-84.667 -31 -134 -31c-50 0 -94.833 11 -134.5 33zM415.499 36
c27.667 18 49.167 43.499 64.5 76.499s23 71.167 23 114.5c0 44 -7.66699 82.5 -23 115.5s-36.833 58.5 -64.5 76.5s-59.167 27 -94.5 27c-34.667 0 -65.834 -9 -93.501 -27s-49.167 -43.667 -64.5 -77s-23 -71.666 -23 -114.999s7.66699 -81.5 23 -114.5
s36.833 -58.5 64.5 -76.5s58.834 -27 93.501 -27c35.333 0 66.833 9 94.5 27z" />
    <glyph glyph-name="uni0432" unicode="&#x432;" horiz-adv-x="570" 
d="M303 500c64.667 0 114.501 -11.333 149.501 -34s52.5 -54.667 52.5 -96c0 -60.667 -37.667 -99 -113 -115v-5c44 -6.66699 77.5 -20.5 100.5 -41.5s34.5 -47.833 34.5 -80.5c0 -40.667 -17.333 -72.167 -52 -94.5s-86.334 -33.5 -155.001 -33.5h-224v500h207z
M396.501 287.5c23.667 19 35.499 46.167 35.499 81.5c0 36 -11.5 63.667 -34.5 83s-56.167 29 -99.5 29h-122v-222h121c42.667 0 75.834 9.5 99.501 28.5zM411.5 48.5c23.667 19.667 35.5 47.5 35.5 83.5c0 34.667 -12 61.5 -36 80.5s-58.333 28.5 -103 28.5h-132v-222h135
c43.333 0 76.833 9.83301 100.5 29.5z" />
    <glyph glyph-name="uni0433" unicode="&#x433;" horiz-adv-x="447" 
d="M96 500h341v-20h-261v-480h-80v500z" />
    <glyph glyph-name="uni0434" unicode="&#x434;" horiz-adv-x="583" 
d="M68 20c34.667 102 52 209.333 52 322c0 10 -1.33301 26.333 -4 49l-3 27l-6 82h373v-480h72v-150h-65v130h-411v-130h-66v150h58zM401 480h-241.999l-7 -106c-6.66699 -79.333 -14.834 -146.333 -24.501 -201s-22.167 -105.667 -37.5 -153h311v460z" />
    <glyph glyph-name="uni0435" unicode="&#x435;" horiz-adv-x="612" 
d="M178 23.5c-40 22.333 -71.333 53.3311 -94 92.998s-34 84.167 -34 133.5s11.333 93.833 34 133.5s54.167 70.667 94.5 93s85.5 33.5 135.5 33.5s94.667 -11.167 134 -33.5s70.166 -53.166 92.499 -92.499s33.833 -83.666 34.5 -132.999v-11h-443
c1.33301 -45.333 10.666 -84.833 27.999 -118.5s41 -59.667 71 -78s64 -27.5 102 -27.5c46.667 0 87.334 12 122.001 36s58.334 56 71.001 96h21c-13.333 -48.667 -41 -87.167 -83 -115.5s-92.333 -42.5 -151 -42.5c-50 0 -95 11.167 -135 33.5zM469.5 382.998
c-15.667 34.667 -37.167 61.333 -64.5 80s-58 28 -92 28c-34.667 0 -65.5 -9.5 -92.5 -28.5s-48.333 -45.5 -64 -79.5s-24.167 -72.667 -25.5 -116v-7h364c-1.33301 47.333 -9.83301 88.333 -25.5 123z" />
    <glyph glyph-name="uni0436" unicode="&#x436;" horiz-adv-x="799" 
d="M220 301l-171 199h26l206 -240h79v450h79v-450h80l206 240h26l-172 -199l196 -301h-90l-165 240h-81v-240h-79v240h-81l-165 -240h-89z" />
    <glyph glyph-name="uni0437" unicode="&#x437;" horiz-adv-x="510" 
d="M94 38.5c-42 33 -65.0029 77.166 -69.0029 132.499h19c4.66699 -47.333 24 -84.833 58 -112.5s78.667 -41.5 134 -41.5c49.333 0 87.833 10.833 115.5 32.5s41.5 50.834 41.5 87.501c0 29.333 -12.167 53.833 -36.5 73.5s-53.833 29.5 -88.5 29.5h-56v19h52
c34 0 62.333 10 85 30s34 44.333 34 73c0 37.333 -13.167 66.833 -39.5 88.5s-62.166 32.5 -107.499 32.5c-50.667 0 -91.667 -13.5 -123 -40.5s-49 -63.833 -53 -110.5h-20c4 54.667 25.833 98 65.5 130s91.5 48 155.5 48c60.667 0 108.834 -13.167 144.501 -39.5
s53.5 -61.166 53.5 -104.499c0 -28 -9.5 -52.167 -28.5 -72.5s-45.167 -34.5 -78.5 -42.5c35.333 -6.66699 64.333 -20.834 87 -42.501s34 -47.167 34 -76.5c0 -44 -19.167 -78.833 -57.5 -104.5s-90.166 -38.5 -155.499 -38.5c-68.667 0 -124 16.5 -166 49.5z" />
    <glyph glyph-name="uni0438" unicode="&#x438;" horiz-adv-x="648" 
d="M96 500h80v-399l316 399h61v-500h-80v443l-356 -455h-21v512z" />
    <glyph glyph-name="uni0439" unicode="&#x439;" horiz-adv-x="648" 
d="M96 500h80v-399l316 399h61v-500h-80v443l-356 -455h-21v512zM195.5 621c-32.333 32 -48.502 74.333 -48.502 127v6h19v-6c0 -36 13.5 -63.833 40.5 -83.5s66.167 -29.5 117.5 -29.5c52 0 91.5 9.83301 118.5 29.5s40.5 47.5 40.5 83.5v6h18v-6
c0 -52.667 -16.167 -95 -48.5 -127s-75.166 -48 -128.499 -48s-96.166 16 -128.499 48z" />
    <glyph glyph-name="uni043A" unicode="&#x43a;" horiz-adv-x="555" 
d="M96 710h80v-450h79l220 240h26l-188 -202l222 -298h-93l-188 240h-78v-240h-80v710z" />
    <glyph glyph-name="uni043B" unicode="&#x43b;" horiz-adv-x="606" 
d="M6 1l-0.00195312 69.999c16 -6 32 -9 48 -9c24 0 43 5.83301 57 17.5s23.333 30.167 28 55.5c9.33301 32 14 89 14 171c0 19.333 -0.666992 55 -2 107l-6 87h365v-500h-79v480h-237l-6 -78c-9.33301 -169.333 -23 -276.666 -41 -321.999
c-11.333 -32 -24.666 -55 -39.999 -69s-33.666 -21 -54.999 -21c-16.667 0 -32 3.66699 -46 11z" />
    <glyph glyph-name="uni043C" unicode="&#x43c;" horiz-adv-x="763" 
d="M96 500h84l207 -408l204 408h76v-500h-79v450l-225 -450h-18l-229 450v-450h-20v500z" />
    <glyph glyph-name="uni043D" unicode="&#x43d;" horiz-adv-x="647" 
d="M96 500h80v-240h296v240h79v-500h-79v240h-296v-240h-80v500z" />
    <glyph glyph-name="uni043E" unicode="&#x43e;" horiz-adv-x="641" 
d="M182 24c-41.333 22.667 -73.667 53.667 -97 93s-35 83.666 -35 132.999s11.667 93.833 35 133.5s55.666 70.667 96.999 93s87.666 33.5 138.999 33.5s97.5 -11.167 138.5 -33.5s73.167 -53.333 96.5 -93s35 -84.167 35 -133.5s-11.667 -93.666 -35 -132.999
s-55.666 -70.333 -96.999 -93s-87.333 -34 -138 -34c-51.333 0 -97.666 11.333 -138.999 34zM418.999 38.5c28.667 19.667 51 47.667 67 84s24 78.833 24 127.5s-8 91.334 -24 128.001s-38.333 64.834 -67 84.501s-61.334 29.5 -98.001 29.5
c-37.333 0 -70.333 -9.83301 -99 -29.5s-51 -47.834 -67 -84.501s-24 -79.334 -24 -128.001s8 -91.167 24 -127.5s38.333 -64.333 67 -84s61.667 -29.5 99 -29.5c36.667 0 69.334 9.83301 98.001 29.5z" />
    <glyph glyph-name="uni043F" unicode="&#x43f;" horiz-adv-x="647" 
d="M96 500h455v-500h-79v480h-296v-480h-80v500z" />
    <glyph glyph-name="uni0440" unicode="&#x440;" horiz-adv-x="666" 
d="M176 500l-0.000976562 -131c16 44 41.833 78.5 77.5 103.5s77.834 37.5 126.501 37.5c44 0 84 -11 120 -33s64.333 -52.833 85 -92.5s31 -84.5 31 -134.5s-10.333 -94.667 -31 -134s-49 -70.166 -85 -92.499s-76 -33.5 -120 -33.5c-48 0 -90 12.667 -126 38
s-62 59.666 -78 102.999v-331h-80v700h80zM448.999 44c26.667 18.667 47.667 45.6689 63 81.002s23 77 23 125c0 48.667 -7.66699 90.5 -23 125.5s-36.333 61.833 -63 80.5s-56.667 28 -90 28c-35.333 0 -67.166 -10.333 -95.499 -31s-50.5 -48.834 -66.5 -84.501
s-24 -75.167 -24 -118.5s8 -82.833 24 -118.5s38.167 -63.834 66.5 -84.501s60.166 -31 95.499 -31c33.333 0 63.333 9.33301 90 28z" />
    <glyph glyph-name="uni0441" unicode="&#x441;" horiz-adv-x="591" 
d="M176.5 23.5c-39.667 22.333 -70.667 53.332 -93 92.999s-33.5 84.167 -33.5 133.5c0 50 11.167 94.667 33.5 134s53.333 70.166 93 92.499s84.5 33.5 134.5 33.5c64.667 0 118.167 -17 160.5 -51s69.166 -81 80.499 -141h-20c-11.333 51.333 -34.5 91.833 -69.5 121.5
s-78.167 44.5 -129.5 44.5c-40 0 -75.333 -9.66699 -106 -29s-54.334 -46.666 -71.001 -81.999s-25 -76.333 -25 -123s8.33301 -87.667 25 -123s40.334 -62.666 71.001 -81.999s66 -29 106 -29c51.333 0 94.5 15 129.5 45s58.167 70.667 69.5 122h20
c-11.333 -60 -38.166 -107.167 -80.499 -141.5s-95.833 -51.5 -160.5 -51.5c-50 0 -94.833 11.167 -134.5 33.5z" />
    <glyph glyph-name="uni0442" unicode="&#x442;" horiz-adv-x="517" 
d="M219 480h-196v20h471v-20h-196v-480h-79v480z" />
    <glyph glyph-name="uni0443" unicode="&#x443;" horiz-adv-x="533" 
d="M71 -167.5c-27.333 28.333 -40.999 65.167 -40.999 110.5v27h19v-26c0 -39.333 11.5 -71.333 34.5 -96s52.833 -37 89.5 -37c32.667 0 59.167 10 79.5 30s30.5 46.333 30.5 79v12c0 17.333 -3 35.833 -9 55.5s-17.333 46.5 -34 80.5l-228 432h88l187 -354
c6.66699 -14 13.667 -30.5 21 -49.5s11.666 -34.167 12.999 -45.5c3.33301 16 8 30.667 14 44l167 405h22l-172 -416c-7.33301 -18 -12.5 -34.667 -15.5 -50s-4.5 -33 -4.5 -53v-24c0 -51.333 -14 -92 -42 -122s-65 -45 -111 -45c-44.667 0 -80.667 14.167 -108 42.5z" />
    <glyph glyph-name="uni0444" unicode="&#x444;" horiz-adv-x="955" 
d="M370 25c-30.667 -23.333 -67 -35 -109 -35c-40 0 -76 11 -108 33s-57.167 52.667 -75.5 92s-27.5 84.333 -27.5 135s9.16699 95.667 27.5 135s43.5 70 75.5 92s68 33 108 33c42 0 78.333 -11.667 109 -35s53.334 -56 68.001 -98v333h79v-333
c15.333 42 38.333 74.667 69 98s67 35 109 35c40 0 76 -11 108 -33s57.167 -52.667 75.5 -92s27.5 -84.333 27.5 -135s-9.16699 -95.667 -27.5 -135s-43.5 -70 -75.5 -92s-68 -33 -108 -33c-42 0 -78.333 11.667 -109 35s-53.667 56 -69 98v-323h-79v323
c-14.667 -42 -37.334 -74.667 -68.001 -98zM364 46.5c24 20.333 42.833 48.334 56.5 84.001s20.5 75.5 20.5 119.5s-6.83301 83.833 -20.5 119.5s-32.5 63.667 -56.5 84s-51.333 30.5 -82 30.5c-44.667 0 -81 -20.5 -109 -61.5s-42 -97.167 -42 -168.5
c0 -50 6.66699 -92.833 20 -128.5s31.333 -62.834 54 -81.501s48.667 -28 78 -28c30 0 57 10.167 81 30.5zM750.5 44.001c23 18.667 40.999 45.833 53.999 81.5s19.5 78.5 19.5 128.5c0 71.333 -13.667 127.5 -41 168.5s-63.333 61.5 -108 61.5
c-30.667 0 -58.167 -10.167 -82.5 -30.5s-43.333 -48.333 -57 -84s-20.5 -75.5 -20.5 -119.5s6.83301 -83.833 20.5 -119.5s32.334 -63.667 56.001 -84s50.5 -30.5 80.5 -30.5c29.333 0 55.5 9.33301 78.5 28z" />
    <glyph glyph-name="uni0445" unicode="&#x445;" horiz-adv-x="548" 
d="M234 240l-203 260h97l165 -202l172 202h25l-185 -219l217 -281h-96l-179 224l-189 -224h-26z" />
    <glyph glyph-name="uni0446" unicode="&#x446;" horiz-adv-x="650" 
d="M555 0h-459v500h80v-480h293v480h79v-480h72v-150h-65v130z" />
    <glyph glyph-name="uni0447" unicode="&#x447;" horiz-adv-x="579" 
d="M277 214c-69.333 0 -122.5 13.499 -159.5 40.499s-55.5 65.5 -55.5 115.5v130h79v-149c0 -37.333 11.833 -66.166 35.5 -86.499s57.167 -30.5 100.5 -30.5h127v266h79v-500h-79v214h-127z" />
    <glyph glyph-name="uni0448" unicode="&#x448;" horiz-adv-x="888" 
d="M96 500h80v-480h229v480h79v-480h229v480h79v-500h-696v500z" />
    <glyph glyph-name="uni0449" unicode="&#x449;" horiz-adv-x="895" 
d="M799 0h-703v500h80v-480h229v480h79v-480h229v480h79v-480h72v-150h-65v130z" />
    <glyph glyph-name="uni044A" unicode="&#x44a;" horiz-adv-x="600" 
d="M503 250.5c37.333 -25.667 56 -61.168 56 -106.501s-18.667 -80.666 -56 -105.999s-89.333 -38 -156 -38h-182v480h-152v20h231v-211h103c66.667 0 118.667 -12.833 156 -38.5zM445 51.499c23.333 22.333 35 53.167 35 92.5c0 40 -11.833 71.167 -35.5 93.5
s-56.5 33.5 -98.5 33.5h-102v-253h102c42.667 0 75.667 11.167 99 33.5z" />
    <glyph glyph-name="uni044B" unicode="&#x44b;" horiz-adv-x="757" 
d="M176 500v-211.001h103c66.667 0 118.5 -12.833 155.5 -38.5s55.5 -61.167 55.5 -106.5s-18.5 -80.666 -55.5 -105.999s-88.833 -38 -155.5 -38h-183v500h80zM376.5 51.499c23.667 22.333 35.5 53.167 35.5 92.5c0 40 -11.833 71.167 -35.5 93.5
s-56.834 33.5 -99.501 33.5h-101v-253h101c42.667 0 75.834 11.167 99.501 33.5zM582 500h80v-500h-80v500z" />
    <glyph glyph-name="uni044C" unicode="&#x44c;" horiz-adv-x="531" 
d="M176 500v-211.001h103c66.667 0 118.5 -12.833 155.5 -38.5s55.5 -61.167 55.5 -106.5s-18.5 -80.666 -55.5 -105.999s-88.833 -38 -155.5 -38h-183v500h80zM376.5 51.499c23.667 22.333 35.5 53.167 35.5 92.5c0 40 -11.833 71.167 -35.5 93.5
s-56.834 33.5 -99.501 33.5h-101v-253h101c42.667 0 75.834 11.167 99.501 33.5z" />
    <glyph glyph-name="uni044D" unicode="&#x44d;" horiz-adv-x="591" 
d="M122 41c-43.333 34 -70.666 81.3311 -81.999 141.998h21c10.667 -51.333 34 -92 70 -122s80.333 -45 133 -45c37.333 0 70.5 9.33301 99.5 28s52 44.834 69 78.501s26.167 72.834 27.5 117.501h-198v20h198c-1.33301 44.667 -10.5 84 -27.5 118s-40 60.167 -69 78.5
s-62.167 27.5 -99.5 27.5c-52.667 0 -97 -14.833 -133 -44.5s-59.333 -70.167 -70 -121.5h-21c11.333 60 38.666 107 81.999 141s98.333 51 165 51c48 0 91.333 -11.167 130 -33.5s69 -53.333 91 -93s33 -84.167 33 -133.5s-11 -93.833 -33 -133.5s-52.333 -70.667 -91 -93
s-82 -33.5 -130 -33.5c-66.667 0 -121.667 17 -165 51z" />
    <glyph glyph-name="uni044E" unicode="&#x44e;" horiz-adv-x="865" 
d="M422 22.5c-39.333 21.667 -70.668 51.499 -94.001 89.499s-35.666 80.667 -36.999 128h-115v-240h-80v500h80v-240h115c1.33301 48 13.666 91 36.999 129s54.5 67.667 93.5 89s82.833 32 131.5 32c50 0 95 -11.167 135 -33.5s71.333 -53.333 94 -93s34 -84.167 34 -133.5
s-11.333 -93.666 -34 -132.999s-54.167 -70.333 -94.5 -93s-85.166 -34 -134.499 -34c-48 0 -91.667 10.833 -131 32.5zM646.998 38.499c27.333 19.667 48.666 47.667 63.999 84s23 78.833 23 127.5s-7.66699 91.334 -23 128.001s-36.666 64.834 -63.999 84.501
s-58.666 29.5 -93.999 29.5s-66.666 -9.83301 -93.999 -29.5s-48.666 -47.834 -63.999 -84.501s-23 -79.334 -23 -128.001s7.66699 -91.167 23 -127.5s36.666 -64.333 63.999 -84s58.666 -29.5 93.999 -29.5s66.666 9.83301 93.999 29.5z" />
    <glyph glyph-name="uni044F" unicode="&#x44f;" horiz-adv-x="566" 
d="M97.5 277.5c-19.667 22.333 -29.5 49.501 -29.5 81.501c0 44 17.5 78.5 52.5 103.5s83.833 37.5 146.5 37.5h203v-500h-79v212h-115c-8 0 -13.667 0.333008 -17 1l-150 -213h-94l165 230c-35.333 9.33301 -62.833 25.166 -82.5 47.499zM391 482.001l-107 -0.000976562
c-43.333 0 -77 -11.167 -101 -33.5s-36 -53.166 -36 -92.499s12.167 -70 36.5 -92s57.833 -33 100.5 -33h107v251z" />
    <glyph glyph-name="uni0451" unicode="&#x451;" horiz-adv-x="612" 
d="M178 23.5c-40 22.333 -71.333 53.3311 -94 92.998s-34 84.167 -34 133.5s11.333 93.833 34 133.5s54.167 70.667 94.5 93s85.5 33.5 135.5 33.5s94.667 -11.167 134 -33.5s70.166 -53.166 92.499 -92.499s33.833 -83.666 34.5 -132.999v-11h-443
c1.33301 -45.333 10.666 -84.833 27.999 -118.5s41 -59.667 71 -78s64 -27.5 102 -27.5c46.667 0 87.334 12 122.001 36s58.334 56 71.001 96h21c-13.333 -48.667 -41 -87.167 -83 -115.5s-92.333 -42.5 -151 -42.5c-50 0 -95 11.167 -135 33.5zM469.5 382.998
c-15.667 34.667 -37.167 61.333 -64.5 80s-58 28 -92 28c-34.667 0 -65.5 -9.5 -92.5 -28.5s-48.333 -45.5 -64 -79.5s-24.167 -72.667 -25.5 -116v-7h364c-1.33301 47.333 -9.83301 88.333 -25.5 123zM188 744.997h94l-42 -174h-9zM330 744.997h94l-43 -174h-9z" />
    <glyph glyph-name="uni0454" unicode="&#x454;" horiz-adv-x="591" 
d="M176.5 23.5c-39.667 22.333 -70.667 53.3359 -93 93.0029s-33.5 84.167 -33.5 133.5c0 50 11.167 94.667 33.5 134s53.333 70.166 93 92.499s84.5 33.5 134.5 33.5c64.667 0 118.167 -17 160.5 -51s69.166 -81 80.499 -141h-20c-11.333 51.333 -34.5 91.833 -69.5 121.5
s-78.167 44.5 -129.5 44.5c-38.667 0 -73.167 -9.16699 -103.5 -27.5s-54 -44.5 -71 -78.5s-26.167 -73.333 -27.5 -118h199v-20h-199c1.33301 -44.667 10.5 -83.834 27.5 -117.501s40.667 -59.834 71 -78.501s64.833 -28 103.5 -28c51.333 0 94.5 15 129.5 45
s58.167 70.667 69.5 122h20c-11.333 -60 -38.166 -107.167 -80.499 -141.5s-95.833 -51.5 -160.5 -51.5c-50 0 -94.833 11.167 -134.5 33.5z" />
    <glyph glyph-name="uni0456" unicode="&#x456;" horiz-adv-x="272" 
d="M96 500h80v-500h-80v500zM88 745h97l-44 -174h-10z" />
    <glyph glyph-name="uni0457" unicode="&#x457;" horiz-adv-x="272" 
d="M96 500h80v-500h-80v500zM18 745h94l-42 -174h-9zM160 745h94l-43 -174h-9z" />
    <glyph glyph-name="uni045E" unicode="&#x45e;" horiz-adv-x="533" 
d="M71 -167.5c-27.333 28.333 -40.999 65.167 -40.999 110.5v27h19v-26c0 -39.333 11.5 -71.333 34.5 -96s52.833 -37 89.5 -37c32.667 0 59.167 10 79.5 30s30.5 46.333 30.5 79v12c0 17.333 -3 35.833 -9 55.5s-17.333 46.5 -34 80.5l-228 432h88l187 -354
c6.66699 -14 13.667 -30.5 21 -49.5s11.666 -34.167 12.999 -45.5c3.33301 16 8 30.667 14 44l167 405h22l-172 -416c-7.33301 -18 -12.5 -34.667 -15.5 -50s-4.5 -33 -4.5 -53v-24c0 -51.333 -14 -92 -42 -122s-65 -45 -111 -45c-44.667 0 -80.667 14.167 -108 42.5z
M147.501 621.001c-32.333 32 -48.502 74.333 -48.502 127v6h19v-6c0 -36 13.5 -63.833 40.5 -83.5s66.167 -29.5 117.5 -29.5c52 0 91.5 9.83301 118.5 29.5s40.5 47.5 40.5 83.5v6h18v-6c0 -52.667 -16.167 -95 -48.5 -127s-75.166 -48 -128.499 -48
s-96.166 16 -128.499 48z" />
    <glyph glyph-name="uni0490" unicode="&#x490;" horiz-adv-x="581" 
d="M555 870v-190h-344v-680h-90v700h358v170h76z" />
    <glyph glyph-name="uni0491" unicode="&#x491;" horiz-adv-x="447" 
d="M96 500h275v120h66v-140h-261v-680h-80v700z" />
    <glyph glyph-name="Wgrave" unicode="&#x1e80;" horiz-adv-x="1010" 
d="M32 700h93l194 -625l186 625h67l194 -625l197 625h19l-218 -700h-70l-191 616l-182 -616h-71zM489 771l-121 174h84l54 -174h-17z" />
    <glyph glyph-name="wgrave" unicode="&#x1e81;" horiz-adv-x="785" 
d="M21 500h82l145 -431l144 431h64l144 -431l145 431h21l-167 -500h-59l-147 436l-145 -436h-60zM377 571l-121 174h84l54 -174h-17z" />
    <glyph glyph-name="Wacute" unicode="&#x1e82;" horiz-adv-x="1010" 
d="M32 700h93l194 -625l186 625h67l194 -625l197 625h19l-218 -700h-70l-191 616l-182 -616h-71zM558 945h84l-120 -174h-18z" />
    <glyph glyph-name="wacute" unicode="&#x1e83;" horiz-adv-x="785" 
d="M21 500h82l145 -431l144 431h64l144 -431l145 431h21l-167 -500h-59l-147 436l-145 -436h-60zM446 745h84l-120 -174h-18z" />
    <glyph glyph-name="Wdieresis" unicode="&#x1e84;" horiz-adv-x="1010" 
d="M32 700h93l194 -625l186 625h67l194 -625l197 625h19l-218 -700h-70l-191 616l-182 -616h-71zM387 945h94l-42 -174h-9zM529 945h94l-43 -174h-9z" />
    <glyph glyph-name="wdieresis" unicode="&#x1e85;" horiz-adv-x="785" 
d="M21 500h82l145 -431l144 431h64l144 -431l145 431h21l-167 -500h-59l-147 436l-145 -436h-60zM275 745h94l-42 -174h-9zM417 745h94l-43 -174h-9z" />
    <glyph glyph-name="uni1E9E" unicode="&#x1e9e;" horiz-adv-x="838" 
d="M412.5 12.5c-36.333 17.667 -64.666 42.167 -84.999 73.5s-31.166 66.666 -32.499 105.999h19c1.33301 -34 10.666 -64.167 27.999 -90.5s40.666 -46.833 69.999 -61.5s62 -22 98 -22c37.333 0 70 8 98 24s49.667 38.167 65 66.5s23 59.833 23 94.5
c0 56.667 -14.833 100.834 -44.5 132.501s-70.167 47.5 -121.5 47.5c-20 0 -40 -2.5 -60 -7.5s-37.667 -11.833 -53 -20.5l-10 -5l-8 12l253 318h-441v-680h-90v700h623v-22l-243 -294c25.333 10.667 51.666 16 78.999 16c39.333 0 74.833 -8 106.5 -24
s56.667 -38.833 75 -68.5s27.5 -63.834 27.5 -102.501c0 -40.667 -10.667 -77.667 -32 -111s-51.166 -59.666 -89.499 -78.999s-81.833 -29 -130.5 -29c-46.667 0 -88.167 8.83301 -124.5 26.5z" />
    <glyph glyph-name="Ygrave" unicode="&#x1ef2;" horiz-adv-x="635" 
d="M274 281l-269 419h95l254 -399l255 399h23l-268 -420v-280h-90v281zM305 771l-121 174h84l54 -174h-17z" />
    <glyph glyph-name="ygrave" unicode="&#x1ef3;" horiz-adv-x="533" 
d="M71 -167.5c-27.333 28.333 -40.999 65.167 -40.999 110.5v27h19v-26c0 -39.333 11.5 -71.333 34.5 -96s52.833 -37 89.5 -37c32.667 0 59.167 10 79.5 30s30.5 46.333 30.5 79v12c0 17.333 -3 35.833 -9 55.5s-17.333 46.5 -34 80.5l-228 432h88l187 -354
c6.66699 -14 13.667 -30.5 21 -49.5s11.666 -34.167 12.999 -45.5c3.33301 16 8 30.667 14 44l167 405h22l-172 -416c-7.33301 -18 -12.5 -34.667 -15.5 -50s-4.5 -33 -4.5 -53v-24c0 -51.333 -14 -92 -42 -122s-65 -45 -111 -45c-44.667 0 -80.667 14.167 -108 42.5z
M260.001 571.001l-121 174h84l54 -174h-17z" />
    <glyph glyph-name="endash" unicode="&#x2013;" horiz-adv-x="547" 
d="M80 310h387v-20h-387v20z" />
    <glyph glyph-name="emdash" unicode="&#x2014;" horiz-adv-x="739" 
d="M80 310h579v-20h-579v20z" />
    <glyph glyph-name="quoteleft" unicode="&#x2018;" horiz-adv-x="197" 
d="M87.5 672.5c-14.333 -20.333 -23.835 -40.833 -28.502 -61.5c12 8.66699 24 13 36 13c16.667 0 30.667 -5.5 42 -16.5s17 -24.833 17 -41.5c0 -16 -5.83301 -29.833 -17.5 -41.5s-26.167 -17.5 -43.5 -17.5s-31.666 6 -42.999 18s-17 28 -17 48
c0 27.333 7.16699 56.833 21.5 88.5s30.5 54.5 48.5 68.5h38v-3c-21.333 -16 -39.166 -34.167 -53.499 -54.5z" />
    <glyph glyph-name="quoteright" unicode="&#x2019;" horiz-adv-x="197" 
d="M57 495c21.333 16 39.168 34.167 53.501 54.5s23.833 40.833 28.5 61.5c-12 -8.66699 -24 -13 -36 -13c-16.667 0 -30.667 5.5 -42 16.5s-17 24.833 -17 41.5s5.83301 30.667 17.5 42s26.167 17 43.5 17s31.666 -6 42.999 -18s17 -28 17 -48
c0 -27.333 -7.16699 -56.833 -21.5 -88.5s-30.5 -54.5 -48.5 -68.5h-38v3z" />
    <glyph glyph-name="quotesinglbase" unicode="&#x201a;" horiz-adv-x="197" 
d="M57 -107c21.333 16 39.168 34.167 53.501 54.5s23.833 40.833 28.5 61.5c-12 -8.66699 -24 -13 -36 -13c-16.667 0 -30.667 5.5 -42 16.5s-17 24.833 -17 41.5s5.83301 30.667 17.5 42s26.167 17 43.5 17s31.666 -6 42.999 -18s17 -28 17 -48
c0 -27.333 -7.16699 -56.833 -21.5 -88.5s-30.5 -54.5 -48.5 -68.5h-38v3z" />
    <glyph glyph-name="quotedblleft" unicode="&#x201c;" horiz-adv-x="373" 
d="M104.5 672.5c-14.333 -20.333 -23.835 -40.833 -28.502 -61.5c12 8.66699 24 13 36 13c16.667 0 30.667 -5.5 42 -16.5s17 -24.833 17 -41.5c0 -16 -5.83301 -29.833 -17.5 -41.5s-26.167 -17.5 -43.5 -17.5s-31.666 6 -42.999 18s-17 28 -17 48
c0 27.333 7.16699 56.833 21.5 88.5s30.833 54.5 49.5 68.5h37v-3c-21.333 -16 -39.166 -34.167 -53.499 -54.5zM281.498 672.5c-14.333 -20.333 -23.835 -40.833 -28.502 -61.5c12 8.66699 24 13 36 13c16.667 0 30.667 -5.5 42 -16.5s17 -24.833 17 -41.5
c0 -16 -5.83301 -29.833 -17.5 -41.5s-26.167 -17.5 -43.5 -17.5s-31.666 6 -42.999 18s-17 28 -17 48c0 27.333 7.16699 56.833 21.5 88.5s30.5 54.5 48.5 68.5h38v-3c-21.333 -16 -39.166 -34.167 -53.499 -54.5z" />
    <glyph glyph-name="quotedblright" unicode="&#x201d;" horiz-adv-x="373" 
d="M39 495c21.333 16 39.168 34.167 53.501 54.5s23.833 40.833 28.5 61.5c-12 -8.66699 -24 -13 -36 -13c-16.667 0 -30.667 5.5 -42 16.5s-17 24.833 -17 41.5s5.83301 30.667 17.5 42s26.167 17 43.5 17s31.666 -6 42.999 -18s17 -28 17 -48
c0 -27.333 -7.16699 -56.833 -21.5 -88.5s-30.5 -54.5 -48.5 -68.5h-38v3zM215.002 495c21.333 16 39.168 34.167 53.501 54.5s23.833 40.833 28.5 61.5c-12 -8.66699 -24 -13 -36 -13c-16.667 0 -30.667 5.5 -42 16.5s-17 24.833 -17 41.5s5.83301 30.667 17.5 42
s26.167 17 43.5 17s31.666 -6 42.999 -18s17 -28 17 -48c0 -27.333 -7.16699 -56.833 -21.5 -88.5s-30.5 -54.5 -48.5 -68.5h-38v3z" />
    <glyph glyph-name="quotedblbase" unicode="&#x201e;" horiz-adv-x="373" 
d="M57 -107c21.333 16 39.168 34.167 53.501 54.5s23.833 40.833 28.5 61.5c-12 -8.66699 -24 -13 -36 -13c-16.667 0 -30.667 5.5 -42 16.5s-17 24.833 -17 41.5s5.83301 30.667 17.5 42s26.167 17 43.5 17s31.666 -6 42.999 -18s17 -28 17 -48
c0 -27.333 -7.16699 -56.833 -21.5 -88.5s-30.5 -54.5 -48.5 -68.5h-38v3zM233.002 -107c21.333 16 39.168 34.167 53.501 54.5s23.833 40.833 28.5 61.5c-12 -8.66699 -24 -13 -36 -13c-16.667 0 -30.667 5.5 -42 16.5s-17 24.833 -17 41.5s5.83301 30.667 17.5 42
s26.167 17 43.5 17s31.666 -6 42.999 -18s17 -28 17 -48c0 -27.333 -7.16699 -56.833 -21.5 -88.5s-30.5 -54.5 -48.5 -68.5h-38v3z" />
    <glyph glyph-name="dagger" unicode="&#x2020;" horiz-adv-x="309" 
d="M145 585h-135v20h135v105h20v-105h135v-20h-135v-165h-20v165z" />
    <glyph glyph-name="daggerdbl" unicode="&#x2021;" horiz-adv-x="309" 
d="M145 510h-135v20h135v70h-135v20h135v90h20v-90h135v-20h-135v-70h135v-20h-135v-90h-20v90z" />
    <glyph glyph-name="bullet" unicode="&#x2022;" horiz-adv-x="527" 
d="M192.5 228.5c-19 19 -28.5 42.833 -28.5 71.5s9.5 52.5 28.5 71.5s42.833 28.5 71.5 28.5c28 0 51.667 -9.5 71 -28.5s29 -42.833 29 -71.5s-9.66699 -52.5 -29 -71.5s-43 -28.5 -71 -28.5c-28.667 0 -52.5 9.5 -71.5 28.5z" />
    <glyph glyph-name="ellipsis" unicode="&#x2026;" horiz-adv-x="770" 
d="M88.5 9.5c-11.667 11.667 -17.498 26.167 -17.498 43.5s5.83301 31.666 17.5 42.999s25.834 17 42.501 17c17.333 0 31.666 -5.66699 42.999 -17s17 -25.666 17 -42.999s-5.83301 -31.833 -17.5 -43.5s-25.834 -17.5 -42.501 -17.5s-30.834 5.83301 -42.501 17.5z
M342.502 9.5c-11.667 11.667 -17.498 26.167 -17.498 43.5s5.83301 31.666 17.5 42.999s25.834 17 42.501 17c17.333 0 31.666 -5.66699 42.999 -17s17 -25.666 17 -42.999s-5.83301 -31.833 -17.5 -43.5s-25.834 -17.5 -42.501 -17.5s-30.834 5.83301 -42.501 17.5z
M596.504 9.5c-11.667 11.667 -17.498 26.167 -17.498 43.5s5.83301 31.666 17.5 42.999s25.834 17 42.501 17c17.333 0 31.666 -5.66699 42.999 -17s17 -25.666 17 -42.999s-5.83301 -31.833 -17.5 -43.5s-25.834 -17.5 -42.501 -17.5s-30.834 5.83301 -42.501 17.5z" />
    <glyph glyph-name="perthousand" unicode="&#x2030;" horiz-adv-x="1120" 
d="M119 406c-24.667 14 -44 33.333 -58 58s-21 51.667 -21 81s7 56.333 21 81s33.333 44 58 58s51.667 21 81 21s56.333 -7 81 -21s44 -33.333 58 -58s21 -51.667 21 -81s-7 -56.333 -21 -81s-33.333 -44 -58 -58s-51.667 -21 -81 -21s-56.333 7 -81 21zM558 700h22
l-398 -700h-22zM279 444c20.667 26 31 59.667 31 101s-10.333 75 -31 101s-47 39 -79 39s-58.167 -13 -78.5 -39s-30.5 -59.667 -30.5 -101s10.167 -75 30.5 -101s46.5 -39 78.5 -39s58.333 13 79 39zM459 16c-24.667 14 -44 33.333 -58 58s-21 51.667 -21 81
s7 56.333 21 81s33.333 44 58 58s51.667 21 81 21s56.333 -7 81 -21s44 -33.333 58 -58s21 -51.667 21 -81s-7 -56.333 -21 -81s-33.333 -44 -58 -58s-51.667 -21 -81 -21s-56.333 7 -81 21zM839 16c-24.667 14 -44 33.333 -58 58s-21 51.667 -21 81s7 56.333 21 81
s33.333 44 58 58s51.667 21 81 21s56.333 -7 81 -21s44 -33.333 58 -58s21 -51.667 21 -81s-7 -56.333 -21 -81s-33.333 -44 -58 -58s-51.667 -21 -81 -21s-56.333 7 -81 21zM619 54c20.667 26 31 59.667 31 101s-10.333 75 -31 101s-47 39 -79 39s-58.167 -13 -78.5 -39
s-30.5 -59.667 -30.5 -101s10.167 -75 30.5 -101s46.5 -39 78.5 -39s58.333 13 79 39zM999 54c20.667 26 31 59.667 31 101s-10.333 75 -31 101s-47 39 -79 39s-58.167 -13 -78.5 -39s-30.5 -59.667 -30.5 -101s10.167 -75 30.5 -101s46.5 -39 78.5 -39s58.333 13 79 39z
" />
    <glyph glyph-name="guilsinglleft" unicode="&#x2039;" horiz-adv-x="307" 
d="M108 300l109 -200h-21l-106 194v12l106 194h21z" />
    <glyph glyph-name="guilsinglright" unicode="&#x203a;" horiz-adv-x="307" 
d="M199 300l-109 200h21l106 -194v-12l-106 -194h-21z" />
    <glyph glyph-name="Euro" unicode="&#x20ac;" 
d="M248.5 22.5c-41 25 -74.833 59.6631 -101.5 103.996s-44 95.5 -52 153.5h-75v20h72c-1.33301 21.333 -2 38 -2 50s0.666992 28.667 2 50h-72v20h75c8 58 25.333 109.167 52 153.5s60.5 79 101.5 104s86.833 37.5 137.5 37.5c44.667 0 86.667 -11.167 126 -33.5
s71.833 -53.666 97.5 -93.999s40.834 -86.166 45.501 -137.499h-20c-4.66699 45.333 -17.834 85.833 -39.501 121.5s-48.834 63.334 -81.501 83.001s-67 29.5 -103 29.5c-38.667 0 -74.167 -11 -106.5 -33s-59.166 -53 -80.499 -93s-35.333 -86 -42 -138h255v-20h-258
c-1.33301 -21.333 -2 -38 -2 -50s0.666992 -28.667 2 -50h258v-20h-255c6.66699 -51.333 20.667 -97 42 -137s48.166 -71 80.499 -93s67.833 -33 106.5 -33c36 0 70.333 9.83301 103 29.5s59.834 47.167 81.501 82.5s34.834 75.666 39.501 120.999h20
c-4.66699 -51.333 -19.834 -97.166 -45.501 -137.499s-58.167 -71.666 -97.5 -93.999s-81.333 -33.5 -126 -33.5c-50.667 0 -96.5 12.5 -137.5 37.5z" />
    <glyph glyph-name="uni20B4" unicode="&#x20b4;" 
d="M209 7c-36.667 14.667 -64.998 35.6699 -84.998 63.0029s-30 59 -30 95c0 46 14.333 84.333 43 115h-85v20h107c18.667 12 40 22.5 64 31.5s55.333 19.5 94 31.5c52.667 17.333 87.667 29.666 105 36.999h-370v20h398c36 28 54 65.667 54 113
c0 45.333 -16 81.666 -48 108.999s-74.667 41 -128 41c-56.667 0 -103.667 -16.167 -141 -48.5s-61 -77.166 -71 -134.499h-19c11.333 68 39.833 120.833 85.5 158.5s105.167 56.5 178.5 56.5c46 0 86.333 -7.5 121 -22.5s61.5 -36.333 80.5 -64s28.5 -59.5 28.5 -95.5
c0 -44.667 -14.667 -82.334 -44 -113.001h103v-20h-121c-28.667 -15.333 -75 -32.666 -139 -51.999c-6.66699 -2 -24.5 -7.83301 -53.5 -17.5s-54.5 -19.834 -76.5 -30.501h390v-20h-418c-34 -30 -51 -68.333 -51 -115c0 -44.667 17.167 -80.5 51.5 -107.5
s80.5 -40.5 138.5 -40.5c61.333 0 112.166 16.667 152.499 50s65.833 79.666 76.5 138.999h20c-12 -69.333 -42.833 -123.5 -92.5 -162.5s-113.167 -58.5 -190.5 -58.5c-48.667 0 -91.334 7.33301 -128.001 22z" />
    <glyph glyph-name="uni20BD" unicode="&#x20bd;" 
d="M46 193v20h109v87h-109v20h109v380h202c87.333 0 155.333 -17.667 204 -53s73 -84.333 73 -147s-24.333 -111.667 -73 -147s-116.667 -53 -204 -53h-112v-87h321v-20h-321v-193h-90v193h-109zM494.5 367.5c33 31.667 49.5 75.834 49.5 132.501
c0 57.333 -16.5 101.666 -49.5 132.999s-79.5 47 -139.5 47h-110v-360h110c60 0 106.5 15.833 139.5 47.5z" />
    <glyph glyph-name="uni2116" unicode="&#x2116;" horiz-adv-x="1200" 
d="M208 700l450 -575v575h21v-714h-23l-516 653v-639h-21v700h89zM896 401c-24.667 14 -44 33.333 -58 58s-21 51.667 -21 81s7 56.333 21 81s33.333 44 58 58s51.667 21 81 21s56.333 -7 81 -21s44 -33.333 58 -58s21 -51.667 21 -81s-7 -56.333 -21 -81
s-33.333 -44 -58 -58s-51.667 -21 -81 -21s-56.333 7 -81 21zM1056 439c20.667 26 31 59.667 31 101s-10.333 75 -31 101s-47 39 -79 39s-58.167 -13 -78.5 -39s-30.5 -59.667 -30.5 -101s10.167 -75 30.5 -101s46.5 -39 78.5 -39s58.333 13 79 39z" />
    <glyph glyph-name="trademark" unicode="&#x2122;" horiz-adv-x="800" 
d="M133 682h-117v18h286v-18h-117v-282h-52v282zM371 700h54l123 -237l119 237h50v-300h-52v255l-128 -255h-16l-132 256v-256h-18v300z" />
    <glyph glyph-name="arrowleft" unicode="&#x2190;" 
d="M0 344v14l350 183l10 -17l-236 -123v-40h576v-20h-576v-40l236 -122l-10 -18z" />
    <glyph glyph-name="arrowup" unicode="&#x2191;" 
d="M340 576h-40l-122 -235l-18 9l183 350h14l183 -350l-17 -9l-123 235h-40v-576h-20v576z" />
    <glyph glyph-name="arrowright" unicode="&#x2192;" 
d="M341 178l235 122v40h-576v20h576v40l-235 123l9 17l350 -183v-14l-350 -183z" />
    <glyph glyph-name="arrowdown" unicode="&#x2193;" 
d="M160 350l18 10l122 -236h40v576h20v-576h40l123 236l17 -10l-183 -350h-14z" />
    <glyph glyph-name="arrowboth" unicode="&#x2194;" horiz-adv-x="920" 
d="M0 343v14l350 183l10 -17l-236 -123v-40h672v40l-235 123l9 17l350 -183v-14l-350 -183l-9 18l235 122v40h-672v-40l236 -122l-10 -18z" />
    <glyph glyph-name="arrowupdn" unicode="&#x2195;" 
d="M160 240l18 10l122 -236h40v672h-40l-122 -235l-18 9l183 350h14l183 -350l-17 -9l-123 235h-40v-672h40l123 236l17 -10l-183 -350h-14z" />
    <glyph glyph-name="uni2196" unicode="&#x2196;" 
d="M183 504l-28 -29l80 -253l-19 -5l-118 377l9 9l377 -118l-5 -19l-253 80l-29 -28l408 -407l-15 -15z" />
    <glyph glyph-name="uni2197" unicode="&#x2197;" 
d="M95 111l408 407l-29 28l-253 -80l-5 19l377 118l9 -9l-118 -377l-19 5l80 253l-28 29l-407 -408z" />
    <glyph glyph-name="uni2198" unicode="&#x2198;" 
d="M216 216l5 19l253 -80l29 28l-408 407l15 15l407 -408l28 29l-80 253l19 5l118 -377l-9 -9z" />
    <glyph glyph-name="uni2199" unicode="&#x2199;" 
d="M98 107l118 377l19 -5l-80 -253l28 -29l407 408l15 -15l-408 -407l29 -28l253 80l5 -19l-377 -118z" />
    <glyph glyph-name="uni21B0" unicode="&#x21b0;" horiz-adv-x="730" 
d="M680 340h-556v-40l236 -122l-10 -18l-350 183v14l350 183l10 -17l-236 -123v-40h576v-360h-20v340z" />
    <glyph glyph-name="uni21B1" unicode="&#x21b1;" horiz-adv-x="730" 
d="M30 360h576v40l-235 123l9 17l350 -183v-14l-350 -183l-9 18l235 122v40h-556v-340h-20v360z" />
    <glyph glyph-name="uni21B2" unicode="&#x21b2;" horiz-adv-x="730" 
d="M0 343v14l350 183l10 -17l-236 -123v-40h556v340h20v-360h-576v-40l236 -122l-10 -18z" />
    <glyph glyph-name="uni21B3" unicode="&#x21b3;" horiz-adv-x="730" 
d="M371 178l235 122v40h-576v360h20v-340h556v40l-235 123l9 17l350 -183v-14l-350 -183z" />
    <glyph glyph-name="minus" unicode="&#x2212;" horiz-adv-x="560" 
d="M80 360h400v-20h-400v20z" />
    <glyph glyph-name="approxequal" unicode="&#x2248;" horiz-adv-x="560" 
d="M107 454.5c18 15.667 39.333 23.5 64 23.5c17.333 0 34.166 -2.5 50.499 -7.5s37.166 -12.5 62.499 -22.5c24 -9.33301 43.5 -16.333 58.5 -21s30.5 -7 46.5 -7c18.667 0 35.167 6 49.5 18s21.5 25.667 21.5 41h20c0 -21.333 -9 -39.833 -27 -55.5
s-39.333 -23.5 -64 -23.5c-17.333 0 -34.166 2.5 -50.499 7.5s-37.166 12.5 -62.499 22.5c-24 9.33301 -43.5 16.333 -58.5 21s-30.5 7 -46.5 7c-18.667 0 -35.167 -6 -49.5 -18s-21.5 -25.667 -21.5 -41h-20c0 21.333 9 39.833 27 55.5zM107 274.5
c18 15.667 39.333 23.5 64 23.5c17.333 0 34.166 -2.5 50.499 -7.5s37.166 -12.5 62.499 -22.5c24 -9.33301 43.5 -16.333 58.5 -21s30.5 -7 46.5 -7c18.667 0 35.167 6 49.5 18s21.5 25.667 21.5 41h20c0 -21.333 -9 -39.833 -27 -55.5s-39.333 -23.5 -64 -23.5
c-17.333 0 -34.166 2.5 -50.499 7.5s-37.166 12.5 -62.499 22.5c-24 9.33301 -43.5 16.333 -58.5 21s-30.5 7 -46.5 7c-18.667 0 -35.167 -6 -49.5 -18s-21.5 -25.667 -21.5 -41h-20c0 21.333 9 39.833 27 55.5z" />
    <glyph glyph-name="notequal" unicode="&#x2260;" horiz-adv-x="560" 
d="M331 430l-80 -160h229v-20h-239l-50 -100h-22l50 100h-139v20h149l80 160h-229v20h239l50 100h22l-50 -100h139v-20h-149z" />
    <glyph glyph-name="lessequal" unicode="&#x2264;" horiz-adv-x="560" 
d="M480 577l-375 -177l375 -177v-23l-400 190v20l400 190v-23zM80 130h400v-20h-400v20z" />
    <glyph glyph-name="greaterequal" unicode="&#x2265;" horiz-adv-x="560" 
d="M80 223l375 177l-375 177v23l400 -190v-20l-400 -190v23zM80 130h400v-20h-400v20z" />
    <glyph glyph-name="uni2605" unicode="&#x2605;" horiz-adv-x="1064" 
d="M508 211l-194 -173l-171 51l48 172h297l-368 113v173l160 41l220 -263l-126 353l158 133l158 -133l-126 -353l220 263l160 -41v-173l-368 -113h297l48 -172l-171 -51l-194 173l22 -250h-92z" />
    <glyph glyph-name=".null" horiz-adv-x="600" 
 />
    <glyph glyph-name="M.ss03" horiz-adv-x="1125" 
d="M1004 0h-90v680h-307v-680h-90v680h-306v-680h-90v700h883v-700z" />
    <glyph glyph-name="N.ss03" horiz-adv-x="820" 
d="M121 700h579v-700h-90v680h-399v-680h-90v700z" />
    <glyph glyph-name="Nacute.ss03" horiz-adv-x="820" 
d="M121 700h579v-700h-90v680h-399v-680h-90v700zM463 945h84l-120 -174h-18z" />
    <glyph glyph-name="Ncaron.ss03" horiz-adv-x="820" 
d="M121 700h579v-700h-90v680h-399v-680h-90v700zM326 945l118 -125l118 125h26l-147 -160h-61l-147 160h93z" />
    <glyph glyph-name="uni0145.ss03" horiz-adv-x="820" 
d="M121 700h579v-700h-90v680h-399v-680h-90v700zM360 -242c20.667 13.333 38.334 27.832 53.001 43.499s22.334 30.5 23.001 44.5c-5.33301 -4 -15.333 -6 -30 -6c-16 0 -28.667 3.83301 -38 11.5s-14 17.5 -14 29.5c0 13.333 5.16699 24 15.5 32s24.166 12 41.499 12
s31 -4.5 41 -13.5s15 -20.833 15 -35.5c0 -22.667 -8.33301 -45.667 -25 -69s-35.334 -40.666 -56.001 -51.999h-26v3z" />
    <glyph glyph-name="Eng.ss03" horiz-adv-x="820" 
d="M451.5 -194c-23 10.667 -41.002 25.5 -54.002 44.5s-19.5 39.833 -19.5 62.5h19v-1c0 -28.667 12.5 -52.667 37.5 -72s54.833 -29 89.5 -29c36.667 0 66.834 10.333 90.501 31s35.5 50.667 35.5 90c0 10.667 -1.16699 21 -3.5 31s-6.16602 22.667 -11.499 38
c-8 26 -14.167 49.167 -18.5 69.5s-6.5 45.5 -6.5 75.5v534h-399v-680h-90v700h579v-732c0 -55.333 -15.5 -98.833 -46.5 -130.5s-72.833 -47.5 -125.5 -47.5c-28 0 -53.5 5.33301 -76.5 16z" />
    <glyph glyph-name="Ntilde.ss03" horiz-adv-x="820" 
d="M121 700h579v-700h-90v680h-399v-680h-90v700zM251.5 892c18.333 18.667 41.498 27.999 69.498 27.999c18 0 35 -2.16699 51 -6.5s35.667 -10.5 59 -18.5c20 -7.33301 36.667 -12.666 50 -15.999s27 -5 41 -5c15.333 0 28.5 4.33301 39.5 13s16.5 19.667 16.5 33h18
c0 -29.333 -9 -53.333 -27 -72s-41 -28 -69 -28c-18 0 -35 2.16699 -51 6.5s-35.667 10.5 -59 18.5s-41.166 13.667 -53.499 17s-25.166 5 -38.499 5c-15.333 0 -28.5 -4.33301 -39.5 -13s-16.5 -20 -16.5 -34h-18c0 29.333 9.16699 53.333 27.5 72z" />
    <glyph glyph-name="S.ss03" horiz-adv-x="577" 
d="M23 20h428l-416 664v16h494v-20h-391l416 -663v-17h-531v20z" />
    <glyph glyph-name="Sacute.ss03" horiz-adv-x="577" 
d="M23 20h428l-416 664v16h494v-20h-391l416 -663v-17h-531v20zM345 945h84l-120 -174h-18z" />
    <glyph glyph-name="Scaron.ss03" horiz-adv-x="577" 
d="M23 20h428l-416 664v16h494v-20h-391l416 -663v-17h-531v20zM208 945l118 -125l118 125h26l-147 -160h-61l-147 160h93z" />
    <glyph glyph-name="Scedilla.ss03" horiz-adv-x="577" 
d="M23 20h428l-416 664v16h494v-20h-391l416 -663v-17h-531v20zM262 -245h-84l121 174h16z" />
    <glyph glyph-name="uni0218.ss03" horiz-adv-x="577" 
d="M23 20h428l-416 664v16h494v-20h-391l416 -663v-17h-531v20zM256 -242c20.667 13.333 38.334 27.832 53.001 43.499s22.334 30.5 23.001 44.5c-5.33301 -4 -15.333 -6 -30 -6c-16 0 -28.667 3.83301 -38 11.5s-14 17.5 -14 29.5c0 13.333 5.16699 24 15.5 32
s24.166 12 41.499 12s31 -4.5 41 -13.5s15 -20.833 15 -35.5c0 -22.667 -8.33301 -45.667 -25 -69s-35.334 -40.666 -56.001 -51.999h-26v3z" />
    <glyph glyph-name="U.ss03" horiz-adv-x="820" 
d="M699 0h-579v700h90v-680h399v680h90v-700z" />
    <glyph glyph-name="Uacute.ss03" horiz-adv-x="820" 
d="M699 0h-579v700h90v-680h399v680h90v-700zM463 945h84l-120 -174h-18z" />
    <glyph glyph-name="Ucircumflex.ss03" horiz-adv-x="820" 
d="M699 0h-579v700h90v-680h399v680h90v-700zM494 785l-118 125l-118 -125h-26l147 160h61l147 -160h-93z" />
    <glyph glyph-name="Udieresis.ss03" horiz-adv-x="820" 
d="M699 0h-579v700h90v-680h399v680h90v-700zM292 945h94l-42 -174h-9zM434 945h94l-43 -174h-9z" />
    <glyph glyph-name="Ugrave.ss03" horiz-adv-x="820" 
d="M699 0h-579v700h90v-680h399v680h90v-700zM394 771l-121 174h84l54 -174h-17z" />
    <glyph glyph-name="Uhungarumlaut.ss03" horiz-adv-x="820" 
d="M699 0h-579v700h90v-680h399v680h90v-700zM448 945l-108 -174h-16l48 174h76zM591 945l-108 -174h-16l48 174h76z" />
    <glyph glyph-name="Umacron.ss03" horiz-adv-x="820" 
d="M699 0h-579v700h90v-680h399v680h90v-700zM570 880v-20h-320v20h320z" />
    <glyph glyph-name="Uogonek.ss03" horiz-adv-x="820" 
d="M699 0h-579v700h90v-680h399v680h90v-700zM649 -245h-84l121 174h16z" />
    <glyph glyph-name="Uring.ss03" horiz-adv-x="820" 
d="M699 0h-579v700h90v-680h399v680h90v-700zM319 807.5c-24.667 25 -37 55.167 -37 90.5c0 23.333 5.66699 44.833 17 64.5s26.833 35.334 46.5 47.001s41.167 17.5 64.5 17.5s44.833 -5.83301 64.5 -17.5s35.334 -27.334 47.001 -47.001s17.5 -41.167 17.5 -64.5
s-5.83301 -44.833 -17.5 -64.5s-27.334 -35.167 -47.001 -46.5s-41.167 -17 -64.5 -17c-36 0 -66.333 12.5 -91 37.5zM492 845c19.333 13.333 29 31 29 53s-9.66699 39.833 -29 53.5s-46.666 20.5 -81.999 20.5s-62.5 -6.83301 -81.5 -20.5s-28.5 -31.5 -28.5 -53.5
s9.5 -39.667 28.5 -53s46.167 -20 81.5 -20s62.666 6.66699 81.999 20z" />
    <glyph glyph-name="W.ss03" horiz-adv-x="1125" 
d="M121 700h90v-680h307v680h90v-680h306v680h90v-700h-883v700z" />
    <glyph glyph-name="Wacute.ss03" horiz-adv-x="1125" 
d="M121 700h90v-680h307v680h90v-680h306v680h90v-700h-883v700zM616 945h84l-120 -174h-18z" />
    </font>
</defs>
</svg>
